<svg width="10" height="10" viewBox="0 0 10 10" fill="none" xmlns="http://www.w3.org/2000/svg">
<path d="M4.52447 0.963526C4.67415 0.502871 5.32585 0.50287 5.47553 0.963525L6.23483 3.30041C6.30176 3.50642 6.49374 3.6459 6.71036 3.6459H9.1675C9.65186 3.6459 9.85325 4.26571 9.46139 4.55041L7.47352 5.99468C7.29828 6.122 7.22495 6.34768 7.29188 6.5537L8.05118 8.89058C8.20086 9.35123 7.67362 9.73429 7.28176 9.44959L5.29389 8.00532C5.11865 7.878 4.88135 7.878 4.70611 8.00532L2.71824 9.44959C2.32638 9.73429 1.79914 9.35123 1.94882 8.89058L2.70812 6.5537C2.77505 6.34768 2.70172 6.122 2.52648 5.99468L0.538611 4.55041C0.146754 4.26571 0.348141 3.6459 0.832503 3.6459H3.28964C3.50626 3.6459 3.69824 3.50642 3.76517 3.30041L4.52447 0.963526Z" fill="#FF0000"/>
</svg>
