<svg width="24" height="24" viewBox="0 0 24 24" fill="none" xmlns="http://www.w3.org/2000/svg">
<path fill-rule="evenodd" clip-rule="evenodd" d="M11.4919 6.09707C10.621 5.15495 9.64135 4.31947 8.57357 3.60814L8.43352 3.51484C7.45714 2.86439 6.13725 3.13955 5.5021 4.12596L4.15879 6.21219C3.41062 7.37414 3.23542 8.81461 3.68326 10.122L3.76527 10.3614C5.52961 15.5122 9.57569 19.5583 14.7265 21.3226C16.1863 21.8227 17.7956 21.616 19.0817 20.7634L20.9568 19.5203C21.9165 18.884 22.1788 17.5902 21.5425 16.6305L21.4425 16.4795C20.7381 15.4171 19.9089 14.443 18.9724 13.5781C18.1593 12.8271 16.9228 12.7727 16.0468 13.4493L14.0182 15.0162C12.0488 14.5789 10.5091 13.0391 10.0717 11.0697L11.6232 9.06109C12.3088 8.17349 12.2533 6.92061 11.4919 6.09707Z" fill="white" fill-opacity="0.2"/>
<path d="M13.9098 15.5043L14.1385 15.5551L14.3238 15.4119L16.3525 13.845C17.0354 13.3175 17.9993 13.36 18.6332 13.9454C19.5403 14.7831 20.3435 15.7267 21.0257 16.7558L21.1258 16.9068C21.6094 17.6364 21.4101 18.6199 20.6805 19.1036L18.8054 20.3467C17.6487 21.1135 16.2014 21.2993 14.8885 20.8496C9.88385 19.1353 5.95258 15.2041 4.23829 10.1994L4.15628 9.96C3.758 8.79728 3.91381 7.51623 4.57918 6.48288L5.9225 4.39665C6.40649 3.64498 7.41228 3.4353 8.15631 3.93096L8.29635 4.02425C9.33123 4.71367 10.2807 5.5234 11.1248 6.43649C11.7205 7.0808 11.7639 8.06101 11.2275 8.75545L9.67601 10.7641L9.53283 10.9495L9.58361 11.1781C10.063 13.3371 11.7508 15.0249 13.9098 15.5043Z" stroke="white" stroke-opacity="0.7"/>
</svg>
