<svg width="76" height="77" viewBox="0 0 76 77" fill="none" xmlns="http://www.w3.org/2000/svg">
<circle cx="38" cy="38.5" r="38" fill="#8B8B8B"/>
<path d="M45.7257 21C48.1857 21 50.545 21.9326 52.2846 23.5926C54.0233 25.2529 55 27.5036 55 29.851C55 32.1984 54.0233 34.4497 52.2846 36.11L46.5453 41.5891C45.5227 42.5649 44.2752 43.2991 42.9024 43.7329C41.5296 44.1668 40.0696 44.2884 38.6389 44.088C37.2081 43.8875 35.8463 43.3706 34.662 42.5786C33.4778 41.7865 32.5039 40.7411 31.8182 39.526L33.3468 38.0652C33.8086 37.6228 34.4258 37.3594 35.0791 37.3259C35.4222 38.0914 35.9566 38.7649 36.6356 39.2875C37.3145 39.8102 38.1173 40.1661 38.9738 40.324C39.8302 40.482 40.7141 40.4372 41.5482 40.1936C42.3823 39.95 43.1411 39.515 43.7583 38.9266L49.4963 33.4493C50.0078 32.9802 50.4161 32.4184 50.6974 31.7969C50.9786 31.1753 51.127 30.5065 51.1341 29.8295C51.1411 29.1525 51.0066 28.4809 50.7384 27.8542C50.4702 27.2274 50.0737 26.658 49.572 26.1793C49.0704 25.7006 48.4738 25.3222 47.817 25.0663C47.1603 24.8104 46.4567 24.6821 45.7474 24.689C45.0381 24.6958 44.3374 24.8377 43.6862 25.1062C43.035 25.3747 42.4465 25.7645 41.9551 26.2527L39.0221 29.051C37.8 28.6642 36.5207 28.4679 35.2332 28.4694C34.8183 28.4676 34.4036 28.4874 33.9909 28.5287L39.1668 23.5926C40.9065 21.9326 43.2658 21 45.7257 21Z" fill="white"/>
<path d="M36.9928 46.9366C38.2275 47.3362 39.5225 47.5396 40.8263 47.5386L40.8281 47.5368C41.2208 47.5368 41.6105 47.5184 41.9957 47.484L36.8269 52.4182C35.0855 54.0739 32.7271 55.0024 30.2692 55C27.8113 54.9976 25.4549 54.0644 23.7171 52.4054C21.9792 50.7463 21.0021 48.4969 21 46.1509C20.9979 43.8048 21.9712 41.5539 23.7061 39.892L29.4466 34.4103C30.4701 33.4345 31.7185 32.7004 33.092 32.2667C34.4655 31.8329 35.9262 31.7116 37.3576 31.9123C38.7889 32.1129 40.1514 32.6301 41.3362 33.4225C42.521 34.2149 43.4955 35.2606 44.1818 36.4762L42.655 37.9359C42.1917 38.3791 41.5721 38.6419 40.917 38.6731C40.5729 37.9081 40.0379 37.235 39.3587 36.7127C38.6794 36.1904 37.8765 35.8347 37.0201 35.6768C36.1636 35.5188 35.2797 35.5634 34.4455 35.8065C33.6112 36.0497 32.852 36.484 32.2342 37.0717L26.4924 42.5516C25.997 43.0244 25.6039 43.5857 25.3357 44.2035C25.0676 44.8213 24.9295 45.4834 24.9294 46.1521C24.9293 46.8208 25.0672 47.483 25.3352 48.1009C25.6033 48.7187 25.9962 49.2801 26.4915 49.753C26.9868 50.2259 27.5749 50.6011 28.2221 50.8571C28.8694 51.1131 29.5631 51.2449 30.2637 51.2449C30.9643 51.245 31.658 51.1134 32.3053 50.8576C32.9526 50.6017 33.5408 50.2267 34.0362 49.7539L36.9928 46.9366Z" fill="white"/>
</svg>
