<svg width="42" height="42" viewBox="0 0 42 42" fill="none" xmlns="http://www.w3.org/2000/svg">
<rect x="1" y="1" width="40" height="40" rx="20" fill="white"/>
<path fill-rule="evenodd" clip-rule="evenodd" d="M22.2699 12.911C22.0931 12.3683 21.5798 12 21 12C20.4202 12 19.9069 12.3683 19.7301 12.911L18.0731 18H12.9413L11.5929 14.1902C11.351 13.5067 10.5911 13.1453 9.89564 13.3831C9.20015 13.6208 8.83246 14.3676 9.07437 15.0512L10.118 18H8.95122C8.42588 18 8 18.4477 8 19C8 19.5523 8.42588 20 8.95122 20H10.8258L11.5337 22H9.58537C9.06002 22 8.63415 22.4477 8.63415 23C8.63415 23.5523 9.06002 24 9.58537 24H12.2415L14.4075 30.1201C14.596 30.6526 15.1099 31.007 15.6835 30.9999C16.2571 30.9928 16.7619 30.626 16.9367 30.089L18.9193 24H23.0807L25.0633 30.089C25.2381 30.626 25.7429 30.9928 26.3165 30.9999C26.8901 31.007 27.404 30.6526 27.5925 30.1201L29.7585 24H32.4146C32.94 24 33.3659 23.5523 33.3659 23C33.3659 22.4477 32.94 22 32.4146 22H30.4663L31.1742 20H33.0488C33.5741 20 34 19.5523 34 19C34 18.4477 33.5741 18 33.0488 18H31.882L32.9256 15.0512C33.1675 14.3676 32.7998 13.6208 32.1044 13.3831C31.4089 13.1453 30.649 13.5067 30.4071 14.1902L29.0587 18H23.9269L22.2699 12.911ZM21.1271 18L21 17.6097L20.8729 18H21.1271ZM20.2217 20H21.7783L22.4295 22H19.5705L20.2217 20ZM17.4219 20H13.6491L14.357 22H16.7707L17.4219 20ZM16.1195 24H15.0648L15.6141 25.5521L16.1195 24ZM25.2293 22L24.5781 20H28.3509L27.643 22H25.2293ZM25.8805 24L26.3859 25.5521L26.9352 24H25.8805Z" fill="#A8B1CE"/>
<rect x="1" y="1" width="40" height="40" rx="20" stroke="#F2F4FF"/>
</svg>
