<svg width="36" height="36" viewBox="0 0 36 36" fill="none" xmlns="http://www.w3.org/2000/svg">
<path d="M3.75337 15.0384C4.51104 6.89787 11.8391 0.986826 20.05 1.75105C28.261 2.51527 34.3723 9.67716 33.6146 17.8177C33.2877 21.3301 31.7312 24.4352 29.4106 26.7622C29.875 27.24 30.4066 27.7074 31.2131 28.2072C31.6819 28.4978 31.8757 29.0124 31.8101 29.4761C31.7427 29.9523 31.3913 30.4111 30.8053 30.512C28.5821 30.8951 25.6435 31.1037 23.056 31.1865C20.4859 31.2687 18.1749 31.2297 17.2268 31.0944C12.8436 30.4688 9.26624 28.5325 6.87689 25.6478C4.48449 22.7594 3.38131 19.0359 3.75337 15.0384Z" fill="white"/>
<path d="M24 14V17M14 14V17M21 21.5V21.5C19.741 22.1295 18.259 22.1295 17 21.5V21.5" stroke="#4267EB" stroke-width="2" stroke-linecap="round" stroke-linejoin="round"/>
</svg>
