<svg width="42" height="42" viewBox="0 0 42 42" fill="none" xmlns="http://www.w3.org/2000/svg">
<rect x="1" y="1" width="40" height="40" rx="20" fill="white"/>
<path d="M28.9217 13.3905C29.4528 13.9112 29.4528 14.7554 28.9217 15.2761L15.3217 28.6095C14.7906 29.1302 13.9294 29.1302 13.3983 28.6095C12.8672 28.0888 12.8672 27.2446 13.3983 26.7239L26.9983 13.3905C27.5294 12.8698 28.3906 12.8698 28.9217 13.3905Z" fill="#A8B1CE"/>
<path d="M19.12 16C19.12 17.6569 17.75 19 16.06 19C14.37 19 13 17.6569 13 16C13 14.3431 14.37 13 16.06 13C17.75 13 19.12 14.3431 19.12 16Z" fill="#A8B1CE"/>
<path d="M25.94 29.3333C27.63 29.3333 29 27.9902 29 26.3333C29 24.6765 27.63 23.3333 25.94 23.3333C24.25 23.3333 22.88 24.6765 22.88 26.3333C22.88 27.9902 24.25 29.3333 25.94 29.3333Z" fill="#A8B1CE"/>
<rect x="1" y="1" width="40" height="40" rx="20" stroke="#F2F4FF"/>
</svg>
