<svg width="42" height="42" viewBox="0 0 42 42" fill="none" xmlns="http://www.w3.org/2000/svg">
<rect x="1" y="1" width="40" height="40" rx="20" fill="white"/>
<path d="M10.9129 9.55276C10.848 9.25599 11.0814 8.97924 11.3795 9.00123C12.9356 9.11602 17.2542 9.40739 20.9999 9.40739C24.7456 9.40739 29.0642 9.11602 30.6202 9.00123C30.9183 8.97924 31.1517 9.25599 31.0869 9.55276L30.7731 10.9889V29.7407L31.1111 31.4595C31.1661 31.7391 30.9558 32 30.6755 32H11.3243C11.0439 32 10.8337 31.7391 10.8887 31.4595L11.2266 29.7407V10.9889L10.9129 9.55276Z" fill="#A8B1CE"/>
<path opacity="0.6" fill-rule="evenodd" clip-rule="evenodd" d="M12.7199 11.1332C12.7252 10.964 12.8269 10.8328 12.9471 10.8401L12.9376 11.1465L12.9282 11.4529C12.8079 11.4455 12.7147 11.3024 12.7199 11.1332ZM29.0618 11.1465C29.0713 11.4529 29.0713 11.4529 29.0712 11.4529L28.8496 11.4661C28.7065 11.4745 28.4986 11.4865 28.2397 11.5009C27.7219 11.5296 26.9996 11.568 26.182 11.6063C24.5474 11.683 22.5289 11.7598 20.9997 11.7598C19.4706 11.7598 17.452 11.683 15.8175 11.6063C14.9998 11.568 14.2776 11.5296 13.7598 11.5009C13.5008 11.4865 13.293 11.4745 13.1499 11.4661L12.9282 11.4529C12.9281 11.4529 12.9282 11.4529 12.9376 11.1465C12.9471 10.8401 12.9471 10.8401 12.9471 10.8401L13.168 10.8533C13.3108 10.8617 13.5184 10.8736 13.7769 10.888C14.2941 10.9167 15.0154 10.955 15.832 10.9934C17.4659 11.07 19.4783 11.1465 20.9997 11.1465C22.5211 11.1465 24.5336 11.07 26.1675 10.9934C26.984 10.955 27.7053 10.9167 28.2225 10.888C28.4811 10.8736 28.6886 10.8617 28.8315 10.8533L29.0521 10.8402C29.0522 10.8401 29.0524 10.8401 29.0618 11.1465ZM29.0618 11.1465L29.0712 11.4529C29.1915 11.4455 29.2847 11.3024 29.2795 11.1332C29.2743 10.964 29.1724 10.8328 29.0521 10.8402L29.0618 11.1465Z" fill="#D1DDFB"/>
<path opacity="0.6" fill-rule="evenodd" clip-rule="evenodd" d="M12.7197 29.5603C12.7197 29.3824 12.8173 29.2383 12.9376 29.2383H29.0618C29.1822 29.2383 29.2797 29.3824 29.2797 29.5603C29.2797 29.7381 29.1822 29.8823 29.0618 29.8823H12.9376C12.8173 29.8823 12.7197 29.7381 12.7197 29.5603Z" fill="#D1DDFB"/>
<ellipse opacity="0.7" cx="20.9995" cy="19.5795" rx="5.52" ry="5.06" fill="#D1DDFB"/>
<rect x="1" y="1" width="40" height="40" rx="20" stroke="#F2F4FF"/>
</svg>
