<svg width="76" height="77" viewBox="0 0 76 77" fill="none" xmlns="http://www.w3.org/2000/svg">
<circle cx="38" cy="38.5" r="38" fill="#F9E000"/>
<path d="M37.4934 21C27.8324 21 20 28.35 20 37.4167C20 42.7733 22.7329 47.5267 26.9611 50.5233V57.73C26.9614 57.7795 26.9752 57.828 27.0007 57.8703C27.0263 57.9126 27.0628 57.947 27.1063 57.97C27.1442 57.9893 27.186 57.9996 27.2284 58C27.2851 58.0003 27.3404 57.9828 27.3868 57.95L33.6581 53.4333C34.9237 53.701 36.2135 53.8351 37.5066 53.8333C47.1676 53.8333 55 46.4833 55 37.4167C55 28.35 47.1544 21 37.4934 21Z" fill="#010100"/>
</svg>
