<svg width="50" height="51" viewBox="0 0 50 51" fill="none" xmlns="http://www.w3.org/2000/svg">
<path d="M33 42.5C37.9706 42.5 42 38.4706 42 33.5V19.5C42 16.3695 40.4017 13.6124 37.9767 12H38L37.8709 11.9307C37.4685 11.6712 37.044 11.443 36.601 11.2493L17.5 1L22.25 10.5H17C12.0294 10.5 8 14.5294 8 19.5V33.5C8 38.4706 12.0294 42.5 17 42.5H33Z" fill="#4267EB" stroke="#4267EB" stroke-linejoin="round"/>
<path d="M18.1602 32L23.6402 18H26.3202L31.7802 32H28.7002L25.8802 24.46C25.8002 24.2467 25.7002 23.9733 25.5802 23.64C25.4735 23.3067 25.3602 22.9533 25.2402 22.58C25.1202 22.2067 25.0068 21.8533 24.9002 21.52C24.7935 21.1733 24.7135 20.8867 24.6602 20.66L25.2002 20.64C25.1202 20.9467 25.0268 21.2667 24.9202 21.6C24.8268 21.92 24.7268 22.2533 24.6202 22.6C24.5135 22.9333 24.4002 23.26 24.2802 23.58C24.1602 23.9 24.0468 24.2133 23.9402 24.52L21.1202 32H18.1602ZM20.7002 29.06L21.6802 26.64H28.1002L29.1002 29.06H20.7002Z" fill="white"/>
</svg>
