<svg width="50" height="50" viewBox="0 0 50 50" fill="none" xmlns="http://www.w3.org/2000/svg">
<path d="M17 8C12.0294 8 8 12.0294 8 17V31C8 34.1305 9.59826 36.8876 12.0233 38.5H12L12.1291 38.5693C12.5315 38.8288 12.956 39.057 13.399 39.2507L32.5 49.5L27.75 40H33C37.9706 40 42 35.9706 42 31V17C42 12.0294 37.9706 8 33 8H17Z" fill="#F6FAFF" stroke="#4267EB" stroke-opacity="0.2" stroke-linejoin="round"/>
<path d="M29.3004 33.1988L23.9604 26.0588L26.2204 24.4788L31.5004 31.5788L29.3004 33.1988ZM25.0204 31.1988C23.9937 31.1988 23.0471 31.0188 22.1804 30.6588C21.3137 30.2988 20.5537 29.7988 19.9004 29.1588C19.2604 28.5054 18.7671 27.7388 18.4204 26.8588C18.0737 25.9654 17.9004 24.9987 17.9004 23.9587C17.9004 22.9054 18.0737 21.9454 18.4204 21.0788C18.7671 20.1988 19.2604 19.4321 19.9004 18.7788C20.5537 18.1254 21.3137 17.6188 22.1804 17.2587C23.0471 16.8987 23.9937 16.7188 25.0204 16.7188C26.0604 16.7188 27.0071 16.8987 27.8604 17.2587C28.7271 17.6188 29.4804 18.1254 30.1204 18.7788C30.7737 19.4321 31.2737 20.1988 31.6204 21.0788C31.9671 21.9588 32.1404 22.9187 32.1404 23.9587C32.1404 24.9987 31.9671 25.9588 31.6204 26.8388C31.2737 27.7188 30.7737 28.4854 30.1204 29.1388C29.4804 29.7921 28.7271 30.2988 27.8604 30.6588C27.0071 31.0188 26.0604 31.1988 25.0204 31.1988ZM25.0204 28.3588C25.6071 28.3588 26.1471 28.2521 26.6404 28.0388C27.1471 27.8254 27.5804 27.5187 27.9404 27.1187C28.3004 26.7188 28.5804 26.2521 28.7804 25.7188C28.9937 25.1854 29.1004 24.5988 29.1004 23.9587C29.1004 23.3187 28.9937 22.7321 28.7804 22.1987C28.5804 21.6654 28.3004 21.2054 27.9404 20.8188C27.5804 20.4188 27.1471 20.1121 26.6404 19.8988C26.1471 19.6721 25.6071 19.5588 25.0204 19.5588C24.4337 19.5588 23.8937 19.6721 23.4004 19.8988C22.9071 20.1121 22.4737 20.4188 22.1004 20.8188C21.7271 21.2054 21.4404 21.6654 21.2404 22.1987C21.0537 22.7321 20.9604 23.3187 20.9604 23.9587C20.9604 24.5988 21.0537 25.1854 21.2404 25.7188C21.4404 26.2521 21.7271 26.7188 22.1004 27.1187C22.4737 27.5187 22.9071 27.8254 23.4004 28.0388C23.8937 28.2521 24.4337 28.3588 25.0204 28.3588Z" fill="#4267EB"/>
</svg>
