<svg width="42" height="42" viewBox="0 0 42 42" fill="none" xmlns="http://www.w3.org/2000/svg">
<rect x="1" y="1" width="40" height="40" rx="20" fill="white"/>
<path d="M22.6832 31.937C28.9976 31.2542 33.5871 25.8044 32.934 19.7645C32.2809 13.7246 26.6326 9.38173 20.3181 10.0645C14.0037 10.7473 9.4142 16.1971 10.0673 22.237C10.3335 24.6993 11.4299 26.8795 13.0631 28.5521L11.1253 32.0221L20.9836 32.0012C21.2612 32.0103 21.5409 32.0098 21.8224 31.9994L22.1115 31.9988L22.0857 31.9868C22.2841 31.9752 22.4833 31.9586 22.6832 31.937Z" fill="#A8B1CE"/>
<circle cx="21.5" cy="20.5" r="1.5" fill="#D1DDFB"/>
<circle cx="26.5" cy="20.5" r="1.5" fill="#D1DDFB"/>
<circle cx="16.5" cy="20.5" r="1.5" fill="#D1DDFB"/>
<rect x="1" y="1" width="40" height="40" rx="20" stroke="#F2F4FF"/>
</svg>
