<svg width="81" height="80" viewBox="0 0 81 80" fill="none" xmlns="http://www.w3.org/2000/svg">
<path d="M35.7066 48.2236C30.984 46.4959 24.4367 46.6037 20.1434 53.6225C18.5946 56.1545 9.00357 50.5034 7.2082 54.3138C6.19063 56.4734 6.63528 59.8224 7.20887 61.8725C7.9157 64.3988 9.62878 66.9907 15.8501 69.9711C27.12 75.3702 33.5604 69.2798 38.3904 60.1014C39.9512 57.1354 41.4788 49.8808 39.9999 47.295C39.3253 46.1153 37.556 48.9002 35.7066 48.2236Z" fill="#D9D9D9"/>
<path fill-rule="evenodd" clip-rule="evenodd" d="M37.2228 48.6717C36.7162 48.8429 36.1362 48.9132 35.5347 48.6932C33.2408 47.854 30.5275 47.4701 27.8848 48.1283C25.2562 48.783 22.6523 50.479 20.5699 53.8834C20.2853 54.3487 19.8287 54.5951 19.3286 54.7102C18.8373 54.8232 18.266 54.8197 17.6717 54.7604C16.71 54.6645 15.5752 54.4081 14.4422 54.1522C14.1809 54.0931 13.9197 54.0341 13.6607 53.9771C12.2474 53.6659 10.8912 53.4112 9.78832 53.454C8.6896 53.4966 7.99203 53.8233 7.66051 54.5269C7.20112 55.5019 7.05723 56.7861 7.11144 58.1138C7.16529 59.4328 7.41232 60.744 7.69039 61.7378C8.02429 62.9312 8.59137 64.1344 9.8207 65.4037C11.0595 66.6827 12.9865 68.0449 16.0661 69.5202C21.5895 72.1663 25.8429 71.9654 29.2939 70.0649C32.7848 68.1423 35.5455 64.4337 37.9478 59.8686C38.6941 58.4504 39.4539 55.9532 39.8409 53.4784C40.0337 52.2456 40.1309 51.0371 40.092 49.9883C40.0527 48.9265 39.8756 48.0849 39.5658 47.5432C39.5529 47.5207 39.543 47.5075 39.5365 47.5001C39.5227 47.5003 39.4939 47.5031 39.4447 47.5175C39.24 47.5773 38.9751 47.7396 38.5798 47.9817L38.5549 47.997C38.1798 48.2268 37.7196 48.5039 37.2228 48.6717ZM39.5279 47.4919C39.5279 47.4918 39.5289 47.4924 39.5309 47.4942C39.5288 47.493 39.5279 47.4921 39.5279 47.4919ZM39.8527 46.5487C40.1128 46.6336 40.3028 46.8177 40.4338 47.0468C40.8635 47.798 41.0499 48.8329 41.0914 49.9513C41.1332 51.0826 41.0283 52.358 40.8289 53.6329C40.4316 56.1733 39.6473 58.7864 38.8327 60.3342C36.4051 64.9476 33.5306 68.8733 29.7763 70.9408C25.9823 73.0303 21.3805 73.175 15.634 70.4221C12.4923 68.917 10.4522 67.493 9.10239 66.0994C7.74316 64.696 7.10029 63.3401 6.72737 62.0072C6.43184 60.951 6.16975 59.5626 6.11227 58.1546C6.05515 56.7555 6.19772 55.2853 6.7559 54.1007C7.32207 52.8991 8.49663 52.5033 9.74956 52.4547C10.9983 52.4063 12.4734 52.6917 13.8758 53.0005C14.151 53.0611 14.4234 53.1225 14.6916 53.1831C15.8206 53.4379 16.8768 53.6762 17.7709 53.7654C18.3216 53.8203 18.7678 53.8131 19.1044 53.7356C19.4323 53.6602 19.6142 53.5294 19.7168 53.3616C21.9276 49.7473 24.7441 47.88 27.6431 47.158C30.5279 46.4395 33.4496 46.8656 35.8783 47.7541C36.2015 47.8723 36.5362 47.8482 36.9026 47.7244C37.2788 47.5973 37.6498 47.3787 38.0325 47.1443C38.0617 47.1264 38.0913 47.1082 38.1213 47.0897C38.45 46.8875 38.8248 46.6568 39.1642 46.5576C39.3621 46.4998 39.6048 46.4677 39.8527 46.5487Z" fill="#555555"/>
<path d="M36.0403 42.9662C31.1935 41.1687 24.474 41.2808 20.0678 48.5832C18.4782 51.2175 11.8065 50.2683 8.50186 53.0769C5.19719 55.8856 5.19719 61.5028 16.7635 67.12C28.3299 72.7372 33.8377 64.8731 38.7947 55.3238C41.1273 50.8302 42.0989 45.2131 36.0403 42.9662Z" fill="white"/>
<path fill-rule="evenodd" clip-rule="evenodd" d="M28.0112 42.8471C25.3116 43.5287 22.6359 45.2949 20.4959 48.8416C20.0104 49.6461 19.1652 50.1323 18.2246 50.472C17.2808 50.813 16.1546 51.0357 15.0234 51.2556C14.9864 51.2628 14.9495 51.2699 14.9125 51.2771C13.8015 51.4929 12.677 51.7113 11.6283 52.0378C10.5458 52.3748 9.58013 52.8168 8.82567 53.458C8.06128 54.1076 7.50589 54.9042 7.2534 55.8016C7.00235 56.6938 7.04105 57.7189 7.51703 58.8516C8.47878 61.1402 11.2355 63.8795 16.982 66.6702C19.8193 68.0482 22.2493 68.582 24.3667 68.49C26.4788 68.3981 28.3148 67.682 29.9671 66.5024C33.2997 64.1233 35.8688 59.8751 38.3509 55.0935C39.4997 52.8803 40.2754 50.4567 40.0666 48.3519C39.9633 47.3098 39.6195 46.3511 38.963 45.5239C38.3057 44.6957 37.3124 43.9713 35.8665 43.435C33.511 42.5615 30.7251 42.1619 28.0112 42.8471ZM27.7664 41.8775C30.7256 41.1304 33.7228 41.5734 36.2142 42.4974C37.7975 43.0846 38.9548 43.9049 39.7463 44.9023C40.5387 45.9007 40.9423 47.0484 41.0618 48.2532C41.2987 50.642 40.4222 53.2738 39.2384 55.5542C36.7635 60.3219 34.1003 64.7804 30.5481 67.3163C28.7581 68.5942 26.7386 69.3878 24.4101 69.489C22.0868 69.59 19.491 69.0004 16.5451 67.5698C10.7252 64.7433 7.6988 61.8654 6.59512 59.239C6.0384 57.9141 5.97383 56.6572 6.29077 55.5307C6.60626 54.4095 7.29013 53.4506 8.17807 52.696C9.07594 51.9329 10.1835 51.4403 11.331 51.083C12.4336 50.7398 13.6064 50.512 14.7022 50.2993C14.7458 50.2908 14.7893 50.2824 14.8326 50.2739C15.9811 50.0507 17.0274 49.8413 17.8849 49.5315C18.7455 49.2206 19.3303 48.8376 19.6397 48.3249C21.9058 44.5692 24.793 42.6282 27.7664 41.8775Z" fill="#555555"/>
<path d="M23.6006 49.4047C23.6006 46.5222 27.8939 44.4003 30.3206 44C37.6006 44 37.6006 45.201 37.6006 49.4047C37.6006 53.6083 31.436 61.108 28.6406 56.6109C26.4008 53.0078 23.6006 53.0078 23.6006 49.4047Z" fill="#D1DDFB"/>
<path d="M24.2788 55.2102C23.6712 53.89 22.4911 52.8808 21.535 52.2649C20.9245 51.8717 20.1541 51.9616 19.4882 52.2398C18.499 52.6532 16.882 53.1497 14.6062 53.4588C10.3073 54.0426 10.3073 56.3779 10.8446 58.1293C11.382 59.8808 15.6809 63.9675 22.1293 65.7189C28.5777 67.4703 31.8019 60.4646 30.1898 60.4646C28.5777 60.4646 25.3535 57.5455 24.2788 55.2102Z" fill="#D1DDFB"/>
<path d="M52.2173 10.4321C54.3429 12.9389 47.7164 21.4305 37.7941 29.8437C27.8718 38.257 18.7655 43.8239 16.2856 40.8992C12.0343 35.8855 17.2438 25.7227 27.166 17.3094C37.0883 8.89615 47.9661 5.41834 52.2173 10.4321Z" fill="#D3D6E4"/>
<path d="M34.9266 12.6443C35.1002 12.225 35.5808 12.0258 36.0001 12.1994C36.0723 12.2293 36.1461 12.2591 36.2217 12.2895C36.6909 12.4785 37.2277 12.6948 37.8749 13.1472C38.6175 13.6661 39.4877 14.4779 40.6908 15.8968C40.9843 16.2429 40.9416 16.7614 40.5955 17.0549C40.2494 17.3484 39.7309 17.3057 39.4374 16.9596C38.2787 15.5931 37.513 14.8991 36.9336 14.4942C36.4479 14.1548 36.0818 14.0064 35.6222 13.8202C35.542 13.7877 35.4585 13.7539 35.3715 13.7178C34.9522 13.5442 34.753 13.0636 34.9266 12.6443Z" fill="white"/>
<path d="M26.7168 18.1433C26.9136 17.7344 27.4046 17.5624 27.8135 17.7592C29.0259 18.3426 31.8375 20.2164 33.8604 23.2487C34.1123 23.6262 34.0104 24.1364 33.6329 24.3882C33.2554 24.64 32.7452 24.5382 32.4933 24.1607C30.6603 21.4131 28.095 19.7184 27.1009 19.24C26.692 19.0433 26.52 18.5523 26.7168 18.1433Z" fill="white"/>
<path d="M20.9594 24.9529C20.5401 24.7793 20.0595 24.9785 19.8859 25.3978C19.7124 25.8171 19.9116 26.2977 20.3308 26.4713C20.418 26.5074 20.5012 26.5411 20.5816 26.5736C21.0411 26.7599 21.4073 26.9083 21.8929 27.2477C22.4724 27.6526 23.238 28.3465 24.3967 29.7131C24.6902 30.0592 25.2087 30.1019 25.5549 29.8084C25.901 29.5149 25.9437 28.9964 25.6502 28.6502C24.4471 27.2314 23.5769 26.4196 22.8343 25.9006C22.187 25.4483 21.6502 25.232 21.181 25.043C21.1055 25.0125 21.0317 24.9828 20.9594 24.9529Z" fill="white"/>
<path fill-rule="evenodd" clip-rule="evenodd" d="M51.3187 12.9902C51.7724 11.7736 51.6092 11.2612 51.4546 11.0788C49.7227 9.03637 46.4714 8.53523 42.0952 9.79651C37.7778 11.0409 32.7007 13.9276 27.8128 18.0721C22.9248 22.2167 19.2469 26.7535 17.3134 30.8094C15.3537 34.9205 15.3165 38.21 17.0483 40.2525C17.3244 40.578 17.898 40.8224 19.1216 40.6043C20.3238 40.3899 21.8945 39.7636 23.7718 38.7444C27.5105 36.7144 32.2072 33.2698 37.1474 29.081C42.0742 24.9035 46.1531 20.7305 48.7253 17.3208C50.0166 15.609 50.8904 14.1389 51.3187 12.9902ZM37.7941 29.8437C47.7164 21.4305 54.3429 12.9389 52.2173 10.4321C47.9661 5.41834 37.0883 8.89615 27.166 17.3094C17.2438 25.7227 12.0343 35.8855 16.2856 40.8992C18.7655 43.8239 27.8718 38.257 37.7941 29.8437Z" fill="#555555"/>
<path d="M58.8029 64.8597C58.5545 62.4904 57.4997 56.7694 53.0207 50.9026C52.6677 50.4402 52.6924 49.7865 53.0963 49.3679L57.0296 45.2919C57.6149 44.6853 58.6324 44.8951 58.9302 45.6836L62.1426 54.1911C62.5535 55.2793 64.136 55.1371 64.3463 53.9931L65.955 45.2405C65.9588 45.2198 65.9625 45.2023 65.9676 45.1819C66.0655 44.7947 67.1933 40.5343 68.3212 45.2095C69.3515 49.4803 64.5354 62.1399 63.2953 65.287C63.1243 65.7211 62.7053 66.0014 62.2387 66.0014H60.0277C59.3936 66.0014 58.869 65.4904 58.8029 64.8597Z" fill="white" stroke="#555555" stroke-linecap="round"/>
<path d="M54.693 50.7245C53.5966 51.6751 52.1658 52.2504 50.6007 52.2504C47.1489 52.2504 44.3506 49.4521 44.3506 46.0003C44.3506 44.4351 44.9259 43.0042 45.8767 41.9077C45.6983 41.4308 45.6008 40.9144 45.6008 40.3753C45.6008 37.959 47.5596 36.0002 49.9759 36.0002C50.7022 36.0002 51.3872 36.1772 51.99 36.4904C52.6308 33.3571 55.403 31 58.7257 31C61.2945 31 63.5343 32.4089 64.7145 34.4962C65.6903 33.8659 66.853 33.5001 68.101 33.5001C71.5529 33.5001 74.3511 36.2984 74.3511 39.7502C74.3511 40.5256 74.2099 41.268 73.9518 41.9531C74.9567 42.7548 75.6006 43.9898 75.6006 45.3751C75.6006 47.7914 73.6418 49.7502 71.2255 49.7502C70.2573 49.7502 69.3626 49.4357 68.6379 48.9033C67.5923 50.8932 65.5054 52.2504 63.1015 52.2504C61.3225 52.2504 59.7171 51.5071 58.5789 50.3142C57.8994 50.7486 57.0919 51.0004 56.2256 51.0004C55.6864 51.0004 55.17 50.9029 54.693 50.7245Z" fill="#F2F4FF" stroke="#555555"/>
</svg>
