<svg width="81" height="80" viewBox="0 0 81 80" fill="none" xmlns="http://www.w3.org/2000/svg">
<path d="M13.0205 30.7695L41.0013 43.4618L69.559 30.7695V60.7695L41.0013 75.7695L13.0205 60.7695V30.7695Z" fill="white"/>
<path fill-rule="evenodd" clip-rule="evenodd" d="M69.8314 30.3503C69.9733 30.4425 70.059 30.6003 70.059 30.7695V60.7695C70.059 60.9553 69.956 61.1258 69.7915 61.2122L41.2338 76.2122C41.0869 76.2893 40.9113 76.2886 40.765 76.2102L12.7843 61.2102C12.6219 61.1231 12.5205 60.9538 12.5205 60.7695V30.7695C12.5205 30.5996 12.6068 30.4413 12.7497 30.3493C12.8925 30.2572 13.0723 30.244 13.2271 30.3142L41.0034 42.9138L69.3559 30.3126C69.5106 30.2439 69.6895 30.2581 69.8314 30.3503ZM69.059 31.5389L41.2043 43.9187C41.0738 43.9767 40.9248 43.9762 40.7947 43.9172L13.5205 31.5454V60.4703L41.0037 75.2035L69.059 60.4674V31.5389Z" fill="#555555"/>
<path d="M41.001 43.4618L69.5587 30.7695V60.7695L41.001 75.7695V43.4618Z" fill="#F6FAFF"/>
<path fill-rule="evenodd" clip-rule="evenodd" d="M69.8311 30.3503C69.973 30.4425 70.0587 30.6003 70.0587 30.7695V60.7695C70.0587 60.9553 69.9557 61.1258 69.7912 61.2122L41.2335 76.2122C41.0785 76.2936 40.8922 76.288 40.7424 76.1975C40.5925 76.1069 40.501 75.9446 40.501 75.7695V43.4618C40.501 43.2642 40.6173 43.0852 40.7979 43.0049L69.3556 30.3126C69.5103 30.2439 69.6892 30.2581 69.8311 30.3503ZM41.501 43.7868V74.9421L69.0587 60.4674V31.5389L41.501 43.7868Z" fill="#555555"/>
<path d="M11.001 24.4219L40.6949 37.7822L71.001 24.4219V33.5008L40.6949 48.0757L11.001 33.5008V24.4219Z" fill="white"/>
<path fill-rule="evenodd" clip-rule="evenodd" d="M71.2741 24.003C71.4156 24.0953 71.501 24.2529 71.501 24.4219V33.5008C71.501 33.693 71.3909 33.8681 71.2177 33.9514L40.9116 48.5263C40.7733 48.5928 40.6122 48.5922 40.4745 48.5246L10.7807 33.9497C10.6095 33.8656 10.501 33.6915 10.501 33.5008V24.4219C10.501 24.2522 10.587 24.0941 10.7295 24.002C10.8719 23.9099 11.0514 23.8963 11.2061 23.9659L40.6969 37.2349L70.7993 23.9644C70.9539 23.8962 71.1325 23.9107 71.2741 24.003ZM70.501 25.1887L40.8965 38.2397C40.7668 38.2969 40.619 38.2963 40.4897 38.2382L11.501 25.1951V33.1893L40.6971 47.5198L70.501 33.1865V25.1887Z" fill="#555555"/>
<path d="M40.6943 37.7822L71.0005 24.4219V33.5008L40.6943 48.0757V37.7822Z" fill="#F6FAFF"/>
<path fill-rule="evenodd" clip-rule="evenodd" d="M71.2735 24.003C71.4151 24.0953 71.5005 24.2529 71.5005 24.4219V33.5008C71.5005 33.693 71.3903 33.8681 71.2172 33.9514L40.911 48.5263C40.7561 48.6008 40.5738 48.5905 40.4282 48.499C40.2827 48.4075 40.1943 48.2476 40.1943 48.0757V37.7822C40.1943 37.5841 40.3113 37.4046 40.4926 37.3247L70.7988 23.9644C70.9534 23.8962 71.132 23.9107 71.2735 24.003ZM41.1943 38.1082V47.2804L70.5005 33.1865V25.1887L41.1943 38.1082Z" fill="#555555"/>
<path d="M40.6949 11.7305L71.001 24.3678L40.6949 38.2689L11.001 24.3678L40.6949 11.7305Z" fill="white"/>
<path fill-rule="evenodd" clip-rule="evenodd" d="M40.4991 11.2704C40.623 11.2177 40.763 11.2171 40.8873 11.269L71.1934 23.9063C71.3767 23.9828 71.4974 24.1605 71.5009 24.3591C71.5044 24.5577 71.39 24.7395 71.2094 24.8223L40.9033 38.7234C40.7697 38.7847 40.616 38.7841 40.4829 38.7218L10.789 24.8207C10.6103 24.737 10.4976 24.5562 10.5011 24.359C10.5046 24.1617 10.6237 23.985 10.8052 23.9078L40.4991 11.2704ZM40.6968 12.273L12.2267 24.3896L40.697 37.7179L69.7542 24.3896L40.6968 12.273Z" fill="#555555"/>
<path d="M20.2314 29.6157L34.6545 23.2695L40.4238 25.5772L26.5776 31.9234V41.1541L27.7314 42.308V68.8465L21.3853 65.3849V38.8465L20.2314 37.6926V29.6157Z" fill="#D1DDFB"/>
<path fill-rule="evenodd" clip-rule="evenodd" d="M34.4532 22.8119C34.5761 22.7578 34.7155 22.7554 34.8402 22.8053L40.6094 25.113C40.7951 25.1873 40.9187 25.365 40.9236 25.5649C40.9285 25.7648 40.8139 25.9484 40.6321 26.0318L27.0776 32.2442V40.947L28.085 41.9544C28.1788 42.0482 28.2314 42.1754 28.2314 42.308V68.8465C28.2314 69.0229 28.1384 69.1863 27.9867 69.2764C27.8349 69.3665 27.6469 69.3699 27.492 69.2854L21.1459 65.8239C20.9852 65.7362 20.8853 65.5679 20.8853 65.3849V39.0536L19.8779 38.0462C19.7841 37.9524 19.7314 37.8252 19.7314 37.6926V29.6157C19.7314 29.4174 19.8486 29.2379 20.0301 29.158L34.4532 22.8119ZM34.6637 23.8117L20.7314 29.9419V37.4855L21.7388 38.4929C21.8326 38.5867 21.8853 38.7138 21.8853 38.8465V65.0881L27.2314 68.0042V42.5151L26.224 41.5077C26.1303 41.4139 26.0776 41.2868 26.0776 41.1541V31.9234C26.0776 31.7279 26.1915 31.5503 26.3693 31.4688L39.1556 25.6085L34.6637 23.8117Z" fill="#555555"/>
<path d="M61.1934 29.6157L46.7703 23.2695L41.0011 25.5772L54.8472 31.9234V41.1541L53.6934 42.308V68.8465L60.0395 65.3849V38.8465L61.1934 37.6926V29.6157Z" fill="#D1DDFB"/>
<path fill-rule="evenodd" clip-rule="evenodd" d="M46.9717 22.8119C46.8487 22.7578 46.7093 22.7554 46.5846 22.8053L40.8154 25.113C40.6297 25.1873 40.5061 25.365 40.5012 25.5649C40.4963 25.7648 40.6109 25.9484 40.7927 26.0318L54.3472 32.2442V40.947L53.3398 41.9544C53.246 42.0482 53.1934 42.1754 53.1934 42.308V68.8465C53.1934 69.0229 53.2864 69.1863 53.4381 69.2764C53.5899 69.3665 53.7779 69.3699 53.9328 69.2854L60.2789 65.8239C60.4396 65.7362 60.5395 65.5679 60.5395 65.3849V39.0536L61.5469 38.0462C61.6407 37.9524 61.6934 37.8252 61.6934 37.6926V29.6157C61.6934 29.4174 61.5762 29.2379 61.3947 29.158L46.9717 22.8119ZM46.7611 23.8117L60.6934 29.9419V37.4855L59.686 38.4929C59.5922 38.5867 59.5395 38.7138 59.5395 38.8465V65.0881L54.1934 68.0042V42.5151L55.2008 41.5077C55.2945 41.4139 55.3472 41.2868 55.3472 41.1541V31.9234C55.3472 31.7279 55.2333 31.5503 55.0555 31.4688L42.2692 25.6085L46.7611 23.8117Z" fill="#555555"/>
<path d="M39.952 20.3836C37.5729 17.4226 31.6725 12.1466 27.1046 14.7307C22.7719 17.1818 23.1165 18.0775 22.7544 19.4857C22.754 20.7819 22.2887 25.4394 26.1058 26.1544C28.1534 26.538 30.8871 26.0462 33.6082 25.5567C35.5899 25.2002 37.565 24.8449 39.2635 24.8298C39.301 24.8863 39.3382 24.9432 39.3751 25.0006L39.952 20.3836Z" fill="#D1DDFB"/>
<path d="M58.3035 19.4857C58.2962 20.6743 58.7692 25.4394 54.952 26.1544C52.9045 26.538 50.1708 26.0462 47.4497 25.5567C45.4679 25.2002 43.4928 24.8449 41.7943 24.8298C41.7569 24.8863 41.7197 24.9432 41.6828 25.0006L41.1059 20.3836C43.485 17.4226 49.3853 12.1466 53.9533 14.7307C58.286 17.1818 58.3085 18.6544 58.3035 19.4857Z" fill="#D1DDFB"/>
<path fill-rule="evenodd" clip-rule="evenodd" d="M34.0977 15.9103C31.8067 14.5748 29.4001 14.0074 27.3511 15.1666C25.1959 16.3858 24.2821 17.1779 23.8488 17.7891C23.5345 18.2325 23.465 18.5693 23.3689 19.0347C23.337 19.1893 23.3022 19.3581 23.2545 19.5497C23.2536 19.6567 23.2507 19.7777 23.2475 19.9104C23.2294 20.6687 23.2022 21.8113 23.4835 22.9152C23.6512 23.5735 23.9222 24.1827 24.3467 24.6624C24.7645 25.1347 25.3509 25.5049 26.1983 25.6637C27.1518 25.8423 28.2909 25.8207 29.5519 25.6864C30.8102 25.5525 32.1555 25.3107 33.52 25.0653L33.5489 25.0601C35.3959 24.7278 37.2861 24.3878 38.9546 24.3366L39.4297 20.5342C38.2489 19.1015 36.2896 17.1881 34.0977 15.9103ZM39.0036 25.3355C37.4158 25.3818 35.5852 25.7098 33.697 26.0495L33.6868 26.0513C32.3335 26.2948 30.9551 26.5427 29.6577 26.6808C28.3597 26.819 27.1082 26.8515 26.0142 26.6466C24.953 26.4478 24.1661 25.9676 23.5977 25.325C23.0358 24.6899 22.7074 23.9196 22.5144 23.1621C22.1945 21.9067 22.2287 20.5887 22.2479 19.845C22.2516 19.703 22.2547 19.5819 22.2548 19.4862C22.2548 19.4442 22.2601 19.4024 22.2705 19.3618C22.3044 19.2301 22.3326 19.0913 22.362 18.9465C22.4666 18.4319 22.5869 17.8401 23.033 17.2108C23.6011 16.4093 24.6814 15.528 26.8588 14.2962C29.3777 12.8712 32.2053 13.6497 34.6013 15.0464C37.0119 16.4517 39.1262 18.5577 40.3421 20.0711C40.4269 20.1766 40.4653 20.3119 40.4485 20.4462L39.8716 25.0633C39.8455 25.2721 39.6915 25.4422 39.4863 25.4888C39.3075 25.5294 39.1233 25.4688 39.0036 25.3355ZM46.4573 15.0464C48.8532 13.6497 51.6808 12.8712 54.1998 14.2962C56.3938 15.5374 57.5562 16.5626 58.1646 17.429C58.7964 18.3288 58.8066 19.0256 58.8038 19.4894C58.8033 19.5785 58.8061 19.6962 58.8095 19.8373C58.8266 20.5505 58.8582 21.863 58.5416 23.1204C58.155 24.6563 57.2163 26.2397 55.0444 26.6466C53.9503 26.8515 52.6989 26.819 51.4008 26.6808C50.1034 26.5427 48.7251 26.2948 47.3718 26.0513L47.3615 26.0495C45.4734 25.7098 43.6428 25.3818 42.055 25.3355C41.9352 25.4688 41.751 25.5294 41.5723 25.4888C41.3671 25.4422 41.2131 25.2721 41.187 25.0633L40.6101 20.4462C40.5933 20.3119 40.6317 20.1766 40.7164 20.0711C41.9324 18.5577 44.0467 16.4517 46.4573 15.0464ZM42.104 24.3366C43.7724 24.3878 45.6626 24.7278 47.5096 25.0601L47.5386 25.0653C48.903 25.3107 50.2484 25.5525 51.5067 25.6864C52.7676 25.8207 53.9068 25.8423 54.8603 25.6637C56.5055 25.3555 57.239 24.1988 57.5719 22.8762C57.8505 21.7694 57.8258 20.6363 57.8098 19.9054C57.8062 19.7434 57.8031 19.6011 57.8038 19.4833C57.8061 19.1158 57.8075 18.6607 57.3462 18.0036C56.8613 17.3131 55.8461 16.3764 53.7074 15.1666C51.6584 14.0074 49.2519 14.5748 46.9609 15.9103C44.769 17.1881 42.8096 19.1015 41.6288 20.5342L42.104 24.3366Z" fill="#555555"/>
<path d="M26.0235 21.234C26.4841 20.2139 33.8924 22.2965 37.539 23.4653C35.4278 23.7843 30.3994 24.4225 27.1751 24.4225C23.1446 24.4225 25.4477 22.509 26.0235 21.234Z" fill="#A8B1CE"/>
<path d="M54.8241 21.234C54.3635 20.2139 46.9552 22.2965 43.3087 23.4653C45.4198 23.7843 50.4483 24.4225 53.6726 24.4225C57.703 24.4225 55.3999 22.509 54.8241 21.234Z" fill="#A8B1CE"/>
<path d="M36.8745 20.9243C36.6163 19.117 38.0187 17.5 39.8443 17.5H41.0032C42.8288 17.5 44.2312 19.117 43.973 20.9243L43.5537 23.8598C43.4129 24.8451 42.5691 25.5769 41.5738 25.5769H39.2737C38.2784 25.5769 37.4346 24.8451 37.2938 23.8598L36.8745 20.9243Z" fill="#D1DDFB"/>
<path fill-rule="evenodd" clip-rule="evenodd" d="M41.0032 18.5H39.8443C38.6272 18.5 37.6923 19.578 37.8644 20.7828L38.2838 23.7183C38.3542 24.211 38.7761 24.5769 39.2737 24.5769H41.5738C42.0714 24.5769 42.4933 24.211 42.5637 23.7183L42.9831 20.7828C43.1552 19.578 42.2203 18.5 41.0032 18.5ZM39.8443 17.5C38.0187 17.5 36.6163 19.117 36.8745 20.9243L37.2938 23.8598C37.4346 24.8451 38.2784 25.5769 39.2737 25.5769H41.5738C42.5691 25.5769 43.4129 24.8451 43.5537 23.8598L43.973 20.9243C44.2312 19.117 42.8288 17.5 41.0032 17.5H39.8443Z" fill="#555555"/>
</svg>
