<svg width="81" height="80" viewBox="0 0 81 80" fill="none" xmlns="http://www.w3.org/2000/svg">
<g clip-path="url(#clip0_1097_15871)">
<path d="M29.8994 54.0742C29.8994 54.0742 38.1988 56.1293 44.285 56.1293C50.3712 56.1293 58.6705 54.0742 58.6705 54.0742V59.445C58.6705 59.9102 58.3538 60.3124 57.8993 60.4113C55.6273 60.9053 48.8341 62.2945 44.285 62.2945C39.7359 62.2945 32.9426 60.9053 30.6706 60.4113C30.2161 60.3124 29.8994 59.9102 29.8994 59.445V54.0742Z" fill="#F3F3F3"/>
<path fill-rule="evenodd" clip-rule="evenodd" d="M30.0196 53.5872L30.025 53.5885L30.0423 53.5927L30.1116 53.6096C30.1729 53.6244 30.264 53.6462 30.3824 53.6741C30.6192 53.7298 30.9649 53.8096 31.399 53.9054C32.2674 54.097 33.4887 54.3525 34.899 54.6081C37.7263 55.1203 41.2875 55.6276 44.285 55.6276C47.2825 55.6276 50.8436 55.1203 53.6709 54.6081C55.0812 54.3525 56.3025 54.097 57.1709 53.9054C57.605 53.8096 57.9507 53.7298 58.1875 53.6741C58.3059 53.6462 58.397 53.6244 58.4583 53.6096L58.5277 53.5927L58.5449 53.5885L58.5501 53.5872L59.1705 53.4336V59.4433C59.1705 60.1379 58.6955 60.7481 58.0055 60.8981C55.7409 61.3906 48.8962 62.7928 44.285 62.7928C39.6737 62.7928 32.829 61.3906 30.5644 60.8981C29.8745 60.7481 29.3994 60.1379 29.3994 59.4433V53.4336L30.0196 53.5872ZM58.1705 54.7049C57.9573 54.7542 57.6936 54.8141 57.3864 54.8819C56.5084 55.0756 55.2745 55.3338 53.8492 55.592C51.0053 56.1073 47.3737 56.6276 44.285 56.6276C41.1963 56.6276 37.5647 56.1073 34.7207 55.592C33.2954 55.3338 32.0615 55.0756 31.1836 54.8819C30.8763 54.8141 30.6126 54.7542 30.3994 54.7049V59.4433C30.3994 59.679 30.5577 59.8733 30.7769 59.921C33.0562 60.4166 39.798 61.7928 44.285 61.7928C48.7719 61.7928 55.5137 60.4166 57.793 59.921C58.0122 59.8733 58.1705 59.679 58.1705 59.4433V54.7049Z" fill="#555555"/>
<path d="M65.5 49.2485C71.6619 49.2441 78.1057 41.0373 78.1015 35.3639C78.0974 29.6905 71.821 25.7998 66.6735 28.039C60.0533 30.9114 56.6531 33.6493 56.5944 39.2731C56.6583 35.5402 59.541 37.2024 63.9438 33.7823C67.5006 31.0193 72.203 32.459 72.2057 36.2413C72.2085 40.0236 68.9691 46.2196 64.5678 46.2228C60.2073 46.226 56.6625 43.219 56.5945 39.4852C56.6594 45.1105 59.376 49.253 65.5 49.2485Z" fill="white"/>
<path fill-rule="evenodd" clip-rule="evenodd" d="M77.6015 35.3629C77.5977 30.0678 71.7074 26.3931 66.873 28.4961L66.8725 28.4963C63.574 29.9275 61.1461 31.2983 59.5332 32.9701C58.5757 33.9626 57.897 35.0702 57.5025 36.383C57.8009 36.2052 58.1288 36.0672 58.4668 35.9407C58.6893 35.8575 58.9234 35.7766 59.1691 35.6917C60.3792 35.2736 61.8704 34.7584 63.637 33.386C65.5314 31.9145 67.7622 31.539 69.5515 32.0771C71.3565 32.6199 72.7042 34.1011 72.7057 36.2396C72.7072 38.2482 71.8574 40.8384 70.4532 42.9268C69.0553 45.0059 67.0136 46.7197 64.5681 46.7215C61.8553 46.7234 59.3985 45.607 57.8371 43.845C58.1665 44.7187 58.6064 45.4951 59.1587 46.156C60.5008 47.7618 62.5597 48.7493 65.4997 48.7472C68.3709 48.7451 71.3964 46.8161 73.7343 44.1042C76.0692 41.3959 77.6035 38.0377 77.6015 35.3629ZM66.4745 27.579C71.935 25.204 78.5972 29.3106 78.6015 35.3622C78.6037 38.3607 76.9181 41.9427 74.4917 44.7572C72.0683 47.5682 68.791 49.7448 65.5004 49.7472C62.3163 49.7495 59.9549 48.668 58.3914 46.7973C56.8406 44.9417 56.1278 42.3731 56.0945 39.4896L57.0944 39.4747C57.1563 42.8696 60.4082 45.7245 64.5674 45.7215C66.5233 45.72 68.3019 44.3342 69.6233 42.3689C70.9385 40.4129 71.707 38.0139 71.7057 36.2403C71.7045 34.5965 70.6996 33.4667 69.2635 33.0348C67.8118 32.5982 65.9129 32.8843 64.2505 34.1758C62.3431 35.6574 60.6893 36.2268 59.4738 36.6452C59.238 36.7264 59.0187 36.8019 58.8172 36.8773C58.1892 37.1123 57.7949 37.324 57.5365 37.6378C57.2876 37.9399 57.1092 38.408 57.0943 39.2803L56.0944 39.2665C56.125 36.3368 57.0333 34.121 58.8135 32.2758C60.5705 30.4546 63.1528 29.0202 66.4745 27.579Z" fill="#555555"/>
<path d="M67.7898 20.6769C67.8235 20.5353 67.8406 20.3925 67.8406 20.2485C67.8406 16.7976 56.8853 14 44.7601 14C32.635 14 21.6797 16.7976 21.6797 20.2485C21.6797 20.3925 21.6968 20.5353 21.7305 20.6769C21.7305 20.6769 21.6899 30.4592 22.5292 36.9137C23.3685 43.3682 26.7056 53.1505 26.7056 53.1505C27.0016 55.6475 28.4224 57.7941 30.6153 58.4408C33.4869 59.2878 38.1779 60.2393 44.7601 60.2393C51.3424 60.2393 56.0334 59.2878 58.905 58.4408C61.0979 57.7941 61.7161 56.292 62.8147 53.1505C62.8147 53.1505 65.5888 43.3682 66.9911 36.9137C68.3933 30.4592 67.7898 20.6769 67.7898 20.6769Z" fill="white"/>
<path fill-rule="evenodd" clip-rule="evenodd" d="M23.8427 18.2423C22.6543 18.9726 22.1797 19.6646 22.1797 20.2485C22.1797 20.3525 22.192 20.4565 22.2169 20.5612L22.2307 20.6192L22.2305 20.6789L22.2304 20.7065L22.2302 20.7889C22.2301 20.8617 22.2301 20.9694 22.2304 21.1089C22.2309 21.3879 22.2326 21.794 22.2372 22.3016C22.2465 23.317 22.2676 24.7381 22.3149 26.3603C22.4096 29.609 22.6087 33.6478 23.025 36.8492C23.4395 40.0368 24.4745 44.0656 25.4125 47.3138C25.8805 48.9344 26.3224 50.3542 26.6472 51.3687C26.8096 51.8759 26.9427 52.2816 27.0351 52.5602C27.0813 52.6995 27.1174 52.807 27.1418 52.8796L27.1695 52.9618L27.1787 52.9888L27.1959 53.0391L27.2021 53.0917C27.4824 55.4565 28.8126 57.3879 30.7567 57.9613C33.5834 58.7949 38.2268 59.7393 44.7601 59.7393C51.2934 59.7393 55.9368 58.7949 58.7636 57.9613C59.7495 57.6705 60.3543 57.2038 60.8542 56.4539C61.3768 55.6698 61.7858 54.5776 62.3377 52.9997L62.365 52.9033L62.4552 52.5825C62.5337 52.3029 62.6474 51.8961 62.7882 51.3877C63.0699 50.3709 63.46 48.9479 63.894 47.3235C64.7624 44.0726 65.804 40.0228 66.5025 36.8076C67.1922 33.6325 67.3919 29.6154 67.4163 26.3711C67.4284 24.7533 67.397 23.3359 67.3625 22.3232C67.3453 21.817 67.3273 21.4122 67.3136 21.1344C67.3068 20.9954 67.301 20.8883 67.297 20.8161L67.2924 20.7345L67.2912 20.7141L67.2909 20.7091L67.2908 20.7079L67.2862 20.6335L67.3034 20.5612C67.3283 20.4565 67.3406 20.3525 67.3406 20.2485C67.3406 19.6646 66.8659 18.9726 65.6776 18.2423C64.52 17.531 62.8243 16.873 60.7189 16.3134C56.5153 15.1961 50.7898 14.5 44.7601 14.5C38.7305 14.5 33.005 15.1961 28.8014 16.3134C26.696 16.873 25.0002 17.531 23.8427 18.2423ZM68.293 20.7168C68.3244 20.5628 68.3406 20.4065 68.3406 20.2485C68.3406 19.107 67.4458 18.1552 66.2012 17.3903C64.9257 16.6065 63.1248 15.9181 60.9757 15.3469C56.6704 14.2026 50.8557 13.5 44.7601 13.5C38.6646 13.5 32.8499 14.2026 28.5445 15.3469C26.3955 15.9181 24.5946 16.6065 23.3191 17.3903C22.0744 18.1552 21.1797 19.107 21.1797 20.2485C21.1797 20.4115 21.1969 20.5727 21.2303 20.7314L21.2302 20.7877C21.2301 20.8614 21.2301 20.9702 21.2304 21.1108C21.2309 21.3919 21.2326 21.8005 21.2373 22.3108C21.2466 23.3313 21.2678 24.7592 21.3153 26.3894C21.4102 29.6455 21.6104 33.7252 22.0334 36.9782C22.4582 40.2451 23.5114 44.3347 24.4518 47.5913C24.923 49.2231 25.3678 50.6523 25.6949 51.6737C25.8584 52.1844 25.9926 52.5934 26.086 52.875C26.1327 53.0158 26.1692 53.1247 26.194 53.1986L26.2155 53.2621C26.541 55.8702 28.0485 58.2052 30.4738 58.9204C33.3904 59.7806 38.129 60.7393 44.7601 60.7393C51.3913 60.7393 56.1299 59.7806 59.0464 58.9204C60.2535 58.5645 61.0542 57.9567 61.6863 57.0086C62.294 56.0969 62.7426 54.8715 63.2867 53.3156L63.2916 53.3014L63.2957 53.2869L62.8147 53.1505C63.2957 53.2869 63.2957 53.287 63.2957 53.2869L63.2962 53.2851L63.3274 53.1749L63.418 52.8527C63.4968 52.5721 63.6108 52.1642 63.7519 51.6547C64.0342 50.6356 64.4252 49.2096 64.8601 47.5816C65.7293 44.3277 66.7759 40.2591 67.4797 37.0198C68.1921 33.7404 68.3918 29.6391 68.4163 26.3786C68.4285 24.744 68.3968 23.3124 68.3619 22.2892C68.3445 21.7775 68.3263 21.3676 68.3124 21.0853C68.3055 20.9441 68.2996 20.8348 68.2955 20.7605L68.293 20.7168Z" fill="#555555"/>
<path fill-rule="evenodd" clip-rule="evenodd" d="M27.0552 17.9866C27.1231 18.2543 26.9611 18.5263 26.6935 18.5942C26.2549 18.7054 25.5968 18.9404 25.061 19.2719C24.4895 19.6256 24.2344 19.9753 24.2344 20.2673C24.2344 20.264 24.2344 20.2641 24.2355 20.2677C24.2409 20.2844 24.2706 20.3777 24.4365 20.5518C24.6208 20.7452 24.9163 20.9778 25.3346 21.235C26.168 21.7474 27.4226 22.317 29.0644 22.8486C32.3436 23.9102 37.1128 24.8023 43.0205 24.8023C48.9364 24.8023 53.7199 24.0878 57.1589 23.2868C60.6193 22.4809 62.6792 21.5969 63.1733 21.2836C63.248 21.2363 63.3244 21.1369 63.3057 20.8763C63.2866 20.6096 63.1651 20.26 62.944 19.8994C62.7255 19.5433 62.4309 19.2113 62.1074 18.9727C61.7811 18.7322 61.4577 18.6095 61.1721 18.6095C60.896 18.6095 60.6721 18.3856 60.6721 18.1095C60.6721 17.8334 60.896 17.6095 61.1721 17.6095C61.7374 17.6095 62.2649 17.8465 62.7008 18.1678C63.1395 18.4912 63.5185 18.9234 63.7964 19.3765C64.0715 19.8251 64.2691 20.3296 64.3032 20.8047C64.3377 21.2859 64.2014 21.8159 63.7088 22.1282C63.0684 22.5342 60.8741 23.4483 57.3858 24.2608C53.8762 25.0782 49.0166 25.8023 43.0205 25.8023C37.0161 25.8023 32.1423 24.8961 28.7564 23.7999C27.0657 23.2526 25.7323 22.6534 24.8108 22.0869C24.3517 21.8046 23.978 21.5202 23.7125 21.2416C23.4638 20.9806 23.2344 20.6459 23.2344 20.2673C23.2344 19.4085 23.9246 18.7992 24.5348 18.4216C25.1809 18.0218 25.9409 17.7534 26.4477 17.6248C26.7153 17.557 26.9873 17.7189 27.0552 17.9866Z" fill="#C1C1C1"/>
<path d="M29.8994 22.8716C33.9461 20.8314 45.5713 17.9751 59.698 22.8716C53.8119 24.7084 39.6116 27.2799 29.8994 22.8716Z" fill="#8B8B8B"/>
<path d="M30.0694 35.9162C29.9857 35.2425 30.5816 34.6776 31.2516 34.7871C33.5187 35.1578 38.2789 35.8364 42.7442 35.8364C47.2094 35.8364 51.9697 35.1578 54.2368 34.7871C54.9068 34.6776 55.5026 35.2425 55.419 35.9162L54.5402 42.9905C54.4975 43.334 54.2801 43.6261 53.9491 43.7275C52.7893 44.0828 49.5473 44.8274 42.7442 44.8274C35.9411 44.8274 32.6991 44.0828 31.5393 43.7275C31.2083 43.6261 30.9909 43.334 30.9482 42.9905L30.0694 35.9162Z" fill="#D1DDFB"/>
<path d="M12.6145 51.5793C7.57794 50.1906 2.76754 51.4584 1.60574 55.005C0.443927 58.5516 2.76514 63.1889 7.8017 64.5776C12.8383 65.9662 18.6829 63.5804 19.8447 60.0338C21.0066 56.4872 17.6511 52.9679 12.6145 51.5793Z" fill="#9C9C9C"/>
<path fill-rule="evenodd" clip-rule="evenodd" d="M5.94154 52.4001C7.70478 51.8769 9.97215 51.888 12.3487 52.5433C14.7281 53.1993 16.6395 54.3416 17.8048 55.6597C18.9576 56.9636 19.3375 58.3699 18.8944 59.7225C18.4429 61.1011 17.0009 62.4159 14.915 63.2239C12.8586 64.0206 10.3585 64.2452 8.0675 63.6135C3.49115 62.3518 1.59981 58.2354 2.55604 55.3163C3.00776 53.9374 4.18555 52.9211 5.94154 52.4001ZM1.60574 55.005C2.76754 51.4584 7.57794 50.1906 12.6145 51.5793C17.6511 52.9679 21.0066 56.4872 19.8447 60.0338C18.6829 63.5804 12.8383 65.9662 7.8017 64.5776C2.76514 63.1889 0.443927 58.5516 1.60574 55.005Z" fill="#555555"/>
<path d="M11.5005 57.3856C14.4092 57.0664 16.6809 57.4664 18.1311 57.9478C18.6006 58.1036 18.8185 57.8149 18.4085 57.5381C16.5568 56.2882 13.0357 54.6706 10.677 55.4124C9.07577 55.916 7.02125 55.1494 5.32338 54.1758C4.83133 53.8937 4.34056 54.3941 4.75376 54.7826C6.37109 56.3035 8.72413 57.6903 11.5005 57.3856Z" fill="#555555"/>
<path d="M31.6096 48.1888C40.0034 52.4254 44.6868 59.8472 41.6539 65.8561C38.621 71.8651 29.616 75.1139 21.2222 70.8773C12.8284 66.6408 8.22443 56.5232 11.2573 50.5142C14.2902 44.5053 23.2158 43.9523 31.6096 48.1888Z" fill="#D3D6E4"/>
<path fill-rule="evenodd" clip-rule="evenodd" d="M40.0544 56.8641C38.3316 53.9292 35.2253 51.1339 31.1591 49.0815C27.0926 47.0291 22.9527 46.1673 19.521 46.5047C16.1004 46.841 13.4712 48.3471 12.15 50.9648C10.8245 53.591 11.1112 57.2767 12.857 60.9292C14.5903 64.5555 17.6884 67.9736 21.6728 69.9846C29.6494 74.0106 38.0138 70.8489 40.7612 65.4056C42.0872 62.7783 41.7698 59.7864 40.0544 56.8641ZM41.6539 65.8561C44.6868 59.8472 40.0034 52.4254 31.6096 48.1888C23.2158 43.9523 14.2902 44.5053 11.2573 50.5142C8.22443 56.5232 12.8284 66.6408 21.2222 70.8773C29.616 75.1139 38.621 71.8651 41.6539 65.8561Z" fill="#555555"/>
<path d="M25.052 57.1058C21.1178 52.4472 17.1004 50.1345 14.6425 49.2076C14.1796 49.033 14.2031 48.6306 14.6959 48.6746C18.276 48.9941 26.1469 51.273 28.529 55.5729C30.319 58.804 35.3889 60.378 39.2867 61.0115C39.8466 61.1025 39.8835 61.8411 39.3193 61.8992C35.0652 62.3379 28.9362 61.7053 25.052 57.1058Z" fill="#8B8B8B"/>
</g>
<defs>
<clipPath id="clip0_1097_15871">
<rect width="80" height="80" fill="white" transform="translate(0.333008)"/>
</clipPath>
</defs>
</svg>
