<svg width="81" height="80" viewBox="0 0 81 80" fill="none" xmlns="http://www.w3.org/2000/svg">
<path fill-rule="evenodd" clip-rule="evenodd" d="M39.035 21.2555C35.4528 21.8304 28.8003 26.6437 28.8003 30.4538C28.8003 31.9764 31.2137 32.1188 32.4321 32.5762C32.4273 32.6115 32.4238 32.6472 32.4219 32.6835L31.5572 46.3411C31.4497 48.3249 32.8529 50 34.622 50L55.7298 48.8502C57.4988 48.8502 58.9019 47.1752 58.7945 45.1914L56.907 32.6835C56.905 32.6472 56.9016 32.6113 56.8967 32.576C58.1148 32.1183 58.4809 30.8263 58.4809 29.304C58.4809 25.494 52.3401 21.2556 47.2227 21.2555C42.1054 21.2554 42.6171 20.6806 39.035 21.2555Z" fill="#F3F3F3"/>
<path fill-rule="evenodd" clip-rule="evenodd" d="M42.5158 21.5385C41.6005 21.4699 40.8723 21.467 39.1142 21.7492C37.4465 22.0168 34.9694 23.3039 32.8936 25.0262C31.8632 25.8812 30.9552 26.8245 30.3087 27.7718C29.6582 28.7252 29.3003 29.6415 29.3003 30.4537C29.3003 30.8679 29.6001 31.171 30.3347 31.4462C30.6833 31.5768 31.0737 31.679 31.4743 31.7813C31.4982 31.7874 31.5222 31.7935 31.5462 31.7996C31.9113 31.8926 32.2924 31.9897 32.6079 32.1081C32.8267 32.1902 32.9594 32.413 32.9274 32.6445C32.9245 32.6661 32.9223 32.6881 32.9211 32.7105L32.9209 32.715L32.9209 32.715L32.0565 46.3681C32.0565 46.3688 32.0564 46.3696 32.0564 46.3703C31.9625 48.1222 33.1902 49.4917 34.6091 49.4999L55.7026 48.3509C55.7073 48.3507 55.7121 48.3505 55.7168 48.3504C55.7211 48.3503 55.7254 48.3502 55.7298 48.3502C57.1483 48.3502 58.3796 46.9886 58.2964 45.2416L56.4126 32.7581C56.4102 32.7423 56.4086 32.7264 56.4077 32.7105C56.4065 32.688 56.4044 32.6659 56.4014 32.6443C56.3694 32.4128 56.5021 32.1901 56.7208 32.1079C57.614 31.7723 57.9809 30.8044 57.9809 29.304C57.9809 27.649 56.6175 25.7672 54.4824 24.2594C52.3729 22.7698 49.6571 21.7556 47.2227 21.7555C45.0878 21.7555 43.9153 21.6558 43.0359 21.581C42.8518 21.5654 42.6804 21.5508 42.5158 21.5385ZM43.1216 20.5847C43.9982 20.6591 45.1322 20.7555 47.2227 20.7555C49.9057 20.7556 52.819 21.8606 55.0592 23.4426C57.2738 25.0065 58.9809 27.1489 58.9809 29.304C58.9809 30.7168 58.6751 32.1897 57.4414 32.8741L59.2889 45.1168C59.2913 45.1326 59.2929 45.1485 59.2938 45.1644C59.4131 47.3687 57.8501 49.3414 55.7439 49.3502L34.6492 50.4992C34.6401 50.4997 34.631 50.5 34.622 50.5C32.5086 50.5 30.9382 48.5233 31.058 46.314L31.0582 46.3095H31.0582L31.9053 32.9299C31.7171 32.8752 31.5062 32.8214 31.2752 32.7625L31.227 32.7502C30.8324 32.6495 30.3909 32.5352 29.9839 32.3827C29.2072 32.0917 28.3003 31.5622 28.3003 30.4537C28.3003 29.3609 28.774 28.2469 29.4827 27.2082C30.1956 26.1635 31.1746 25.1531 32.2551 24.2566C34.4011 22.4761 37.0413 21.0691 38.9558 20.7618C40.7798 20.4691 41.5869 20.4661 42.5905 20.5413C42.7604 20.554 42.9352 20.5688 43.1216 20.5847Z" fill="#555555"/>
<path fill-rule="evenodd" clip-rule="evenodd" d="M37.8003 24C32.3003 24 28.8003 27.0221 28.8003 30.75C28.8003 32.2398 29.6584 33.5042 30.8489 33.9517C30.8441 33.9862 30.8407 34.0212 30.8388 34.0566L29.994 47.4199C29.889 49.361 31.2599 51 32.9885 51H49.6123C51.3407 51 52.7117 49.361 52.6067 47.4201L51.7625 34.0567C51.7606 34.0211 51.7572 33.986 51.7524 33.9515C52.9426 33.5037 53.8003 32.2395 53.8003 30.75C53.8003 27.0221 48.8003 24 43.8003 24.5625C43.8003 24.5625 43.3003 24 37.8003 24Z" fill="white"/>
<path fill-rule="evenodd" clip-rule="evenodd" d="M37.8003 24.5C32.4548 24.5 29.3003 27.4058 29.3003 30.75C29.3003 32.0553 30.0506 33.1175 31.0248 33.4837C31.2434 33.5659 31.376 33.7885 31.3442 34.0199C31.3413 34.0408 31.3393 34.062 31.3381 34.0837L31.3378 34.0882L30.4933 47.4469C30.4932 47.4477 30.4932 47.4484 30.4932 47.4491C30.4014 49.1643 31.6054 50.5 32.9885 50.5H49.6123C50.9953 50.5 52.1993 49.1643 52.1076 47.4491C52.1075 47.4484 52.1075 47.4477 52.1075 47.4471L51.2635 34.0882L51.2632 34.0837C51.262 34.062 51.26 34.0406 51.2571 34.0198C51.2252 33.7884 51.3577 33.5658 51.5764 33.4835C52.5503 33.1171 53.3003 32.055 53.3003 30.75C53.3003 29.1232 52.204 27.5726 50.4137 26.4734C48.633 25.3802 46.2447 24.7907 43.8562 25.0594C43.7256 25.0741 43.5958 25.0367 43.4939 24.9576C43.4858 24.9537 43.4721 24.9474 43.4517 24.9393C43.3616 24.9035 43.1633 24.8407 42.7775 24.7739C42.0056 24.6403 40.5379 24.5 37.8003 24.5ZM43.9101 24.0482C43.8826 24.0355 43.8529 24.0227 43.8207 24.0099C43.6453 23.9402 43.3747 23.8624 42.9481 23.7886C42.095 23.6409 40.5627 23.5 37.8003 23.5C32.1458 23.5 28.3003 26.6383 28.3003 30.75C28.3003 32.2823 29.1092 33.6405 30.3246 34.2653L29.495 47.3884L29.4947 47.3929C29.3775 49.5587 30.915 51.5 32.9885 51.5H49.6123C51.6856 51.5 53.2231 49.5588 53.106 47.3931L52.2766 34.265C53.4917 33.64 54.3003 32.282 54.3003 30.75C54.3003 28.6489 52.8966 26.8244 50.9369 25.6212C49.0092 24.4377 46.4661 23.7992 43.9101 24.0482Z" fill="#555555"/>
<path d="M61.2737 55.3381C60.9152 58.4381 50.7296 59.3546 38.4598 57.9359C26.19 56.5171 16.4226 53.817 16.8408 50.2004C17.5577 44.0005 27.9823 41.0173 40.2521 42.4361C52.5219 43.8548 61.9906 49.1382 61.2737 55.3381Z" fill="#D3D6E4"/>
<path d="M48.5207 44.7906C48.924 44.6388 49.3739 44.8427 49.5257 45.246C49.5518 45.3154 49.5791 45.3859 49.607 45.458C49.7804 45.9059 49.9788 46.4184 50.0852 47.1605C50.2073 48.012 50.2093 49.1418 50.0064 50.8964C49.9569 51.3244 49.5698 51.6313 49.1418 51.5818C48.7138 51.5323 48.4069 51.1452 48.4564 50.7172C48.6518 49.0274 48.636 48.0464 48.5407 47.382C48.4609 46.8252 48.3261 46.4751 48.157 46.0357C48.1275 45.959 48.0968 45.8792 48.0653 45.7955C47.9136 45.3922 48.1175 44.9423 48.5207 44.7906Z" fill="white"/>
<path d="M39.3821 42.6679C39.7932 42.539 40.231 42.7677 40.36 43.1789C40.7423 44.3978 41.2677 47.5625 40.4785 50.9322C40.3802 51.3517 39.9605 51.6121 39.5409 51.5138C39.1214 51.4156 38.861 50.9958 38.9593 50.5763C39.6744 47.523 39.1846 44.6452 38.8712 43.6458C38.7422 43.2347 38.971 42.7969 39.3821 42.6679Z" fill="white"/>
<path d="M30.9263 43.0955C30.7746 42.6923 30.3247 42.4884 29.9214 42.6401C29.5182 42.7919 29.3143 43.2418 29.466 43.645C29.4976 43.7289 29.5282 43.8084 29.5577 43.8853C29.7268 44.3246 29.8616 44.6747 29.9414 45.2316C30.0367 45.896 30.0525 46.877 29.8571 48.5668C29.8076 48.9948 30.1145 49.3819 30.5425 49.4314C30.9705 49.4809 31.3576 49.174 31.4071 48.746C31.61 46.9914 31.608 45.8615 31.4859 45.0101C31.3795 44.2679 31.1811 43.7555 31.0077 43.3076C30.9798 43.2355 30.9525 43.165 30.9263 43.0955Z" fill="white"/>
<path fill-rule="evenodd" clip-rule="evenodd" d="M58.898 56.3285C60.0326 55.8549 60.2576 55.4196 60.2803 55.2233C60.5688 52.7282 58.8292 50.1649 55.1206 47.953C51.4646 45.7724 46.1768 44.1278 40.1372 43.4294C34.0976 42.7311 28.5741 43.1256 24.5168 44.4143C20.4013 45.7215 18.1227 47.8202 17.8342 50.3153C17.7907 50.6912 17.976 51.232 18.9157 51.9344C19.8379 52.6238 21.2852 53.3042 23.2078 53.9434C27.036 55.2162 32.4671 56.2363 38.5747 56.9425C44.6649 57.6467 50.2001 57.7661 54.2276 57.3372C56.25 57.1218 57.8304 56.7742 58.898 56.3285ZM38.4598 57.9359C50.7296 59.3546 60.9152 58.4381 61.2737 55.3381C61.9906 49.1382 52.5219 43.8548 40.2521 42.4361C27.9823 41.0173 17.5577 44.0005 16.8408 50.2004C16.4226 53.817 26.19 56.5171 38.4598 57.9359Z" fill="#555555"/>
<path fill-rule="evenodd" clip-rule="evenodd" d="M76.8003 40C76.8003 59.8823 60.6825 76 40.8003 76C20.918 76 4.80029 59.8823 4.80029 40C4.80029 20.1177 20.918 4 40.8003 4C60.6825 4 76.8003 20.1177 76.8003 40ZM73.5276 40C73.5276 58.0748 58.8751 72.7273 40.8003 72.7273C31.8302 72.7273 23.703 69.1185 17.7913 63.2737L64.0739 16.991C69.9188 22.9027 73.5276 31.0299 73.5276 40ZM61.6577 14.779C55.9947 10.0905 48.7266 7.27273 40.8003 7.27273C22.7255 7.27273 8.07302 21.9252 8.07302 40C8.07302 47.9263 10.8908 55.1944 15.5793 60.8574L61.6577 14.779Z" fill="#A8B1CE"/>
</svg>
