<svg width="120" height="120" viewBox="0 0 120 120" fill="none" xmlns="http://www.w3.org/2000/svg">
<path d="M15 13V108H106V13H15Z" fill="white"/>
<path fill-rule="evenodd" clip-rule="evenodd" d="M15.5 12.4219C15.2239 12.4219 15 12.6457 15 12.9219V107.922C15 108.198 15.2239 108.422 15.5 108.422H105.5C105.776 108.422 106 108.198 106 107.922V12.9219C106 12.6457 105.776 12.4219 105.5 12.4219H15.5ZM64 13.4219V107.422H105V13.4219H64ZM63 13.4219H16V107.422H63V13.4219Z" fill="#555555"/>
<path d="M22 20V101H56V20H22Z" fill="#F5F5F5"/>
<path fill-rule="evenodd" clip-rule="evenodd" d="M22 19.4219H57V101.422H22V19.4219ZM23 20.4219V100.422H56V20.4219H23Z" fill="#555555"/>
<path d="M51.5 47.9219C51.5 47.3696 51.9477 46.9219 52.5 46.9219C53.0523 46.9219 53.5 47.3696 53.5 47.9219V65.9219C53.5 66.4742 53.0523 66.9219 52.5 66.9219C51.9477 66.9219 51.5 66.4742 51.5 65.9219V47.9219Z" fill="#555555"/>
<path d="M69 34C69 32.8954 69.8954 32 71 32H99C100.105 32 101 32.8954 101 34V67C101 68.1046 100.105 69 99 69H71C69.8954 69 69 68.1046 69 67V34Z" fill="#F6FAFF"/>
<path fill-rule="evenodd" clip-rule="evenodd" d="M99 33H71C70.4477 33 70 33.4477 70 34V67C70 67.5523 70.4477 68 71 68H99C99.5523 68 100 67.5523 100 67V34C100 33.4477 99.5523 33 99 33ZM71 32C69.8954 32 69 32.8954 69 34V67C69 68.1046 69.8954 69 71 69H99C100.105 69 101 68.1046 101 67V34C101 32.8954 100.105 32 99 32H71Z" fill="#555555"/>
<path d="M70.5 76.9219C70.5 76.3696 70.9477 75.9219 71.5 75.9219H82.5C83.0523 75.9219 83.5 76.3696 83.5 76.9219V78.9219C83.5 79.4742 83.0523 79.9219 82.5 79.9219H71.5C70.9477 79.9219 70.5 79.4742 70.5 78.9219V76.9219Z" fill="#D9D9D9"/>
<path d="M87.5 76.9219C87.5 76.3696 87.9477 75.9219 88.5 75.9219H95.5C96.0523 75.9219 96.5 76.3696 96.5 76.9219C96.5 77.4742 96.0523 77.9219 95.5 77.9219H88.5C87.9477 77.9219 87.5 77.4742 87.5 76.9219Z" fill="#D9D9D9"/>
<path d="M72.5 77.4219C72.5 77.1457 72.7239 76.9219 73 76.9219H81C81.2761 76.9219 81.5 77.1457 81.5 77.4219C81.5 77.698 81.2761 77.9219 81 77.9219H73C72.7239 77.9219 72.5 77.698 72.5 77.4219Z" fill="#555555"/>
<path d="M81.8232 32H88.1762V40.5882C88.1762 41.6928 87.2808 42.5882 86.1762 42.5882H83.8232C82.7187 42.5882 81.8232 41.6928 81.8232 40.5882V32Z" fill="#4267EB"/>
<path fill-rule="evenodd" clip-rule="evenodd" d="M81.3232 31.5H88.6762V40.5882C88.6762 41.9689 87.5569 43.0882 86.1762 43.0882H83.8232C82.4425 43.0882 81.3232 41.9689 81.3232 40.5882V31.5ZM82.3232 32.5V40.5882C82.3232 41.4167 82.9948 42.0882 83.8232 42.0882H86.1762C87.0046 42.0882 87.6762 41.4167 87.6762 40.5882V32.5H82.3232Z" fill="#555555"/>
<path d="M75.4701 32H81.8231V40.5882C81.8231 41.6928 80.9276 42.5882 79.8231 42.5882H76.6213C75.438 42.5882 74.5135 41.5666 74.6312 40.3892L75.4701 32Z" fill="#D1DDFB"/>
<path fill-rule="evenodd" clip-rule="evenodd" d="M75.0177 31.5H82.3231V40.5882C82.3231 41.9689 81.2038 43.0882 79.8231 43.0882H76.6213C75.1423 43.0882 73.9866 41.8112 74.1337 40.3395L75.0177 31.5ZM75.9227 32.5L75.1288 40.439C75.0405 41.322 75.7339 42.0882 76.6213 42.0882H79.8231C80.6516 42.0882 81.3231 41.4167 81.3231 40.5882V32.5H75.9227Z" fill="#555555"/>
<path d="M68.9564 32.8039C69.0499 32.3365 69.4603 32 69.937 32H75.4701L74.5914 40.7872C74.4892 41.8096 73.6288 42.5882 72.6013 42.5882H69.4392C68.1771 42.5882 67.2305 41.4336 67.478 40.196L68.9564 32.8039Z" fill="#4267EB"/>
<path fill-rule="evenodd" clip-rule="evenodd" d="M68.4663 32.7058C68.6065 32.0047 69.2221 31.5 69.9372 31.5H76.0228L75.0891 40.837C74.9613 42.115 73.8859 43.0882 72.6015 43.0882H69.4393C67.8617 43.0882 66.6785 41.6449 66.9879 40.0979L68.4663 32.7058ZM69.9372 32.5C69.6988 32.5 69.4936 32.6682 69.4469 32.9019L67.9685 40.2941C67.7828 41.2222 68.4928 42.0882 69.4393 42.0882H72.6015C73.3721 42.0882 74.0174 41.5043 74.0941 40.7375L74.9178 32.5H69.9372Z" fill="#555555"/>
<path d="M88.1758 32H94.5287L95.3676 40.3892C95.4854 41.5666 94.5608 42.5882 93.3776 42.5882H90.1758C89.0712 42.5882 88.1758 41.6928 88.1758 40.5882V32Z" fill="#D1DDFB"/>
<path fill-rule="evenodd" clip-rule="evenodd" d="M87.6758 31.5H94.9812L95.8652 40.3395C96.0123 41.8112 94.8566 43.0882 93.3776 43.0882H90.1758C88.7951 43.0882 87.6758 41.9689 87.6758 40.5882V31.5ZM88.6758 32.5V40.5882C88.6758 41.4167 89.3474 42.0882 90.1758 42.0882H93.3776C94.265 42.0882 94.9584 41.322 94.8701 40.439L94.0762 32.5H88.6758Z" fill="#555555"/>
<path d="M94.5293 32H100.062C100.539 32 100.95 32.3365 101.043 32.8039L102.521 40.196C102.769 41.4336 101.822 42.5882 100.56 42.5882H97.3981C96.3706 42.5882 95.5103 41.8096 95.408 40.7872L94.5293 32Z" fill="#4267EB"/>
<path fill-rule="evenodd" clip-rule="evenodd" d="M93.9766 31.5H100.062C100.777 31.5 101.393 32.0047 101.533 32.7058L103.011 40.0979C103.321 41.6449 102.138 43.0882 100.56 43.0882H97.3979C96.1135 43.0882 95.0381 42.115 94.9103 40.837L93.9766 31.5ZM95.0816 32.5L95.9053 40.7375C95.982 41.5043 96.6272 42.0882 97.3979 42.0882H100.56C101.507 42.0882 102.217 41.2222 102.031 40.2941L100.552 32.9019C100.506 32.6682 100.301 32.5 100.062 32.5H95.0816Z" fill="#555555"/>
</svg>
