<svg width="80" height="80" viewBox="0 0 80 80" fill="none" xmlns="http://www.w3.org/2000/svg">
<path d="M36.5518 29.6875H49.7931V66.1013H36.5518V29.6875Z" fill="#D1DDFB"/>
<path fill-rule="evenodd" clip-rule="evenodd" d="M36.0518 29.6875C36.0518 29.4114 36.2756 29.1875 36.5518 29.1875H49.7931C50.0693 29.1875 50.2931 29.4114 50.2931 29.6875V66.1013C50.2931 66.3774 50.0693 66.6013 49.7931 66.6013H36.5518C36.2756 66.6013 36.0518 66.3774 36.0518 66.1013V29.6875ZM37.0518 30.1875V65.6013H49.2931V30.1875H37.0518Z" fill="#555555"/>
<path d="M36.5518 20.6562C36.5518 19.5517 37.4472 18.6562 38.5518 18.6562H47.7931C48.8977 18.6562 49.7931 19.5517 49.7931 20.6562V29.6907H36.5518V20.6562Z" fill="#F3F3F3"/>
<path fill-rule="evenodd" clip-rule="evenodd" d="M36.0518 20.6562C36.0518 19.2755 37.171 18.1562 38.5518 18.1562H47.7931C49.1739 18.1562 50.2931 19.2755 50.2931 20.6562V29.6907C50.2931 29.9669 50.0693 30.1907 49.7931 30.1907H36.5518C36.2756 30.1907 36.0518 29.9669 36.0518 29.6907V20.6562ZM38.5518 19.1562C37.7233 19.1562 37.0518 19.8278 37.0518 20.6562V29.1907H49.2931V20.6562C49.2931 19.8278 48.6216 19.1562 47.7931 19.1562H38.5518Z" fill="#555555"/>
<path d="M39.318 15.3005C39.6321 13.4162 41.2623 12.0352 43.1726 12.0352L-nan -nanL43.1726 12.0352C45.0828 12.0352 46.7131 13.4162 47.0271 15.3005L47.5864 18.6558H38.7588L39.318 15.3005Z" fill="white"/>
<path fill-rule="evenodd" clip-rule="evenodd" d="M38.8248 15.2183C39.1791 13.0929 41.0179 11.5352 43.1726 11.5352C45.3273 11.5352 47.1661 13.0929 47.5203 15.2183L48.0796 18.5736C48.1037 18.7186 48.0629 18.8669 47.9679 18.979C47.8729 19.0912 47.7334 19.1558 47.5864 19.1558H38.7588C38.6118 19.1558 38.4723 19.0912 38.3773 18.979C38.2823 18.8669 38.2414 18.7186 38.2656 18.5736L38.8248 15.2183ZM43.1726 12.5352C41.5068 12.5352 40.0851 13.7395 39.8112 15.3827L39.349 18.1558H46.9961L46.534 15.3827C46.2601 13.7395 44.8384 12.5352 43.1726 12.5352Z" fill="#555555"/>
<path d="M36.5518 66.1055H49.7931L43.9894 74.3274C43.591 74.8918 42.7539 74.8918 42.3555 74.3274L36.5518 66.1055Z" fill="white"/>
<path fill-rule="evenodd" clip-rule="evenodd" d="M36.1078 65.8754C36.1938 65.7096 36.365 65.6055 36.5518 65.6055H49.7931C49.9799 65.6055 50.1511 65.7096 50.2371 65.8754C50.323 66.0413 50.3093 66.2412 50.2016 66.3938L44.3979 74.6157C43.8003 75.4624 42.5446 75.4624 41.947 74.6157L36.1433 66.3938C36.0356 66.2412 36.0219 66.0413 36.1078 65.8754ZM37.5167 66.6055L42.764 74.0391C42.9632 74.3213 43.3817 74.3213 43.5809 74.0391L48.8282 66.6055H37.5167Z" fill="#555555"/>
<path fill-rule="evenodd" clip-rule="evenodd" d="M35 24.1719C35 23.6196 35.4477 23.1719 36 23.1719H52C52.5523 23.1719 53 23.6196 53 24.1719V37.4133C53 37.9655 52.5523 38.4133 52 38.4133C51.4477 38.4133 51 37.9655 51 37.4133V25.1719H36C35.4477 25.1719 35 24.7242 35 24.1719Z" fill="#555555"/>
<path d="M14 15.5C14 14.3954 14.8954 13.5 16 13.5H28V73H16C14.8954 73 14 72.1046 14 71V15.5Z" fill="white"/>
<path d="M14 15.5C14 14.3954 14.8954 13.5 16 13.5H18.6667V73H16C14.8954 73 14 72.1046 14 71V15.5Z" fill="#F2F4FF"/>
<path fill-rule="evenodd" clip-rule="evenodd" d="M13.5 15.5C13.5 14.1193 14.6193 13 16 13H28C28.2761 13 28.5 13.2239 28.5 13.5V73C28.5 73.2761 28.2761 73.5 28 73.5H16C14.6193 73.5 13.5 72.3807 13.5 71V15.5ZM16 14C15.1716 14 14.5 14.6716 14.5 15.5V71C14.5 71.8284 15.1716 72.5 16 72.5H27.5V14H16Z" fill="#555555"/>
<path fill-rule="evenodd" clip-rule="evenodd" d="M23.417 17.2891C23.417 17.0129 23.6408 16.7891 23.917 16.7891H27.417C27.6931 16.7891 27.917 17.0129 27.917 17.2891C27.917 17.5652 27.6931 17.7891 27.417 17.7891H23.917C23.6408 17.7891 23.417 17.5652 23.417 17.2891ZM23.417 34.0572C23.417 33.7811 23.6408 33.5572 23.917 33.5572H27.417C27.6931 33.5572 27.917 33.7811 27.917 34.0572C27.917 34.3334 27.6931 34.5572 27.417 34.5572H23.917C23.6408 34.5572 23.417 34.3334 23.417 34.0572ZM23.417 51.9072C23.417 51.6311 23.6408 51.4072 23.917 51.4072H27.417C27.6931 51.4072 27.917 51.6311 27.917 51.9072C27.917 52.1834 27.6931 52.4072 27.417 52.4072H23.917C23.6408 52.4072 23.417 52.1834 23.417 51.9072ZM23.417 68.6754C23.417 68.3993 23.6408 68.1754 23.917 68.1754H27.417C27.6931 68.1754 27.917 68.3993 27.917 68.6754C27.917 68.9516 27.6931 69.1754 27.417 69.1754H23.917C23.6408 69.1754 23.417 68.9516 23.417 68.6754Z" fill="#555555"/>
<path fill-rule="evenodd" clip-rule="evenodd" d="M25.167 21.0742C25.167 20.7981 25.3908 20.5742 25.667 20.5742H28.0003C28.2765 20.5742 28.5003 20.7981 28.5003 21.0742C28.5003 21.3504 28.2765 21.5742 28.0003 21.5742H25.667C25.3908 21.5742 25.167 21.3504 25.167 21.0742ZM25.167 25.4015C25.167 25.1253 25.3908 24.9015 25.667 24.9015H28.0003C28.2765 24.9015 28.5003 25.1253 28.5003 25.4015C28.5003 25.6776 28.2765 25.9015 28.0003 25.9015H25.667C25.3908 25.9015 25.167 25.6776 25.167 25.4015ZM25.167 29.7288C25.167 29.4526 25.3908 29.2288 25.667 29.2288H28.0003C28.2765 29.2288 28.5003 29.4526 28.5003 29.7288C28.5003 30.0049 28.2765 30.2288 28.0003 30.2288H25.667C25.3908 30.2288 25.167 30.0049 25.167 29.7288ZM25.167 38.3833C25.167 38.1072 25.3908 37.8833 25.667 37.8833H28.0003C28.2765 37.8833 28.5003 38.1072 28.5003 38.3833C28.5003 38.6595 28.2765 38.8833 28.0003 38.8833H25.667C25.3908 38.8833 25.167 38.6595 25.167 38.3833ZM25.167 42.7106C25.167 42.4344 25.3908 42.2106 25.667 42.2106H28.0003C28.2765 42.2106 28.5003 42.4344 28.5003 42.7106C28.5003 42.9867 28.2765 43.2106 28.0003 43.2106H25.667C25.3908 43.2106 25.167 42.9867 25.167 42.7106ZM25.167 47.0379C25.167 46.7617 25.3908 46.5379 25.667 46.5379H28.0003C28.2765 46.5379 28.5003 46.7617 28.5003 47.0379C28.5003 47.314 28.2765 47.5379 28.0003 47.5379H25.667C25.3908 47.5379 25.167 47.314 25.167 47.0379ZM25.167 55.6924C25.167 55.4163 25.3908 55.1924 25.667 55.1924H28.0003C28.2765 55.1924 28.5003 55.4163 28.5003 55.6924C28.5003 55.9685 28.2765 56.1924 28.0003 56.1924H25.667C25.3908 56.1924 25.167 55.9685 25.167 55.6924ZM25.167 60.0197C25.167 59.7435 25.3908 59.5197 25.667 59.5197H28.0003C28.2765 59.5197 28.5003 59.7435 28.5003 60.0197C28.5003 60.2958 28.2765 60.5197 28.0003 60.5197H25.667C25.3908 60.5197 25.167 60.2958 25.167 60.0197ZM25.167 64.3469C25.167 64.0708 25.3908 63.8469 25.667 63.8469H28.0003C28.2765 63.8469 28.5003 64.0708 28.5003 64.3469C28.5003 64.6231 28.2765 64.8469 28.0003 64.8469H25.667C25.3908 64.8469 25.167 64.6231 25.167 64.3469Z" fill="#555555"/>
<path d="M58.002 51C58.002 49.3431 59.3451 48 61.002 48H67.002C68.6588 48 70.002 49.3431 70.002 51V54.7716H58.002V51Z" fill="white"/>
<path fill-rule="evenodd" clip-rule="evenodd" d="M57.502 51C57.502 49.067 59.069 47.5 61.002 47.5H67.002C68.9349 47.5 70.502 49.067 70.502 51V55.2716H57.502V51ZM61.002 48.5C59.6212 48.5 58.502 49.6193 58.502 51V54.2716H69.502V51C69.502 49.6193 68.3827 48.5 67.002 48.5H61.002Z" fill="#555555"/>
<path d="M57.002 54.6406C57.002 54.0883 57.4497 53.6406 58.002 53.6406H70.002C70.5542 53.6406 71.002 54.0883 71.002 54.6406V67.3125C71.002 67.8647 70.5542 68.3125 70.002 68.3125H58.002C57.4497 68.3125 57.002 67.8647 57.002 67.3125V54.6406Z" fill="#D9D9D9"/>
<path d="M57 60.2852C57 59.7329 57.4477 59.2852 58 59.2852H70C70.5523 59.2852 71 59.7329 71 60.2852V63.9282C71 64.4805 70.5523 64.9282 70 64.9282H58C57.4477 64.9282 57 64.4805 57 63.9282V60.2852Z" fill="white"/>
<path fill-rule="evenodd" clip-rule="evenodd" d="M56.502 54.6406C56.502 53.8122 57.1735 53.1406 58.002 53.1406H70.002C70.8304 53.1406 71.502 53.8122 71.502 54.6406V67.3125C71.502 68.1409 70.8304 68.8125 70.002 68.8125H58.002C57.1735 68.8125 56.502 68.1409 56.502 67.3125V54.6406ZM58.002 54.1406C57.7258 54.1406 57.502 54.3645 57.502 54.6406V67.3125C57.502 67.5886 57.7258 67.8125 58.002 67.8125H70.002C70.2781 67.8125 70.502 67.5886 70.502 67.3125V54.6406C70.502 54.3645 70.2781 54.1406 70.002 54.1406H58.002Z" fill="#555555"/>
</svg>
