<svg width="120" height="120" viewBox="0 0 120 120" fill="none" xmlns="http://www.w3.org/2000/svg">
<path d="M107 112V65.5035C106.586 62.5089 105.085 59.7714 102.782 57.8128L68.5704 28.7146C63.3413 24.267 55.6587 24.267 50.4296 28.7146L16.2183 57.8128C13.9155 59.7714 12.414 62.5089 12 65.5035V112H107Z" fill="#D1DDFB"/>
<path fill-rule="evenodd" clip-rule="evenodd" d="M68.2465 29.0955C63.2041 24.8067 55.7959 24.8067 50.7535 29.0955L16.5422 58.1936C14.3416 60.0653 12.9037 62.6785 12.5 65.5382V111.5H106.5V65.5383C106.096 62.6785 104.658 60.0653 102.458 58.1936L68.2465 29.0955ZM50.1056 28.3337C55.5215 23.7273 63.4785 23.7273 68.8944 28.3337L103.106 57.4319C105.502 59.4701 107.064 62.3188 107.495 65.435C107.498 65.4577 107.5 65.4806 107.5 65.5035V112C107.5 112.276 107.276 112.5 107 112.5H12C11.7239 112.5 11.5 112.276 11.5 112V65.5035C11.5 65.4806 11.5016 65.4577 11.5047 65.435C11.9355 62.3188 13.498 59.4701 15.8943 57.4319L50.1056 28.3337Z" fill="#555555"/>
<path d="M22 16C22 15.4477 22.4477 15 23 15H96C96.5523 15 97 15.4477 97 16V105C97 105.552 96.5523 106 96 106H23C22.4477 106 22 105.552 22 105V16Z" fill="white"/>
<path fill-rule="evenodd" clip-rule="evenodd" d="M97.5 16C97.5 15.1716 96.8284 14.5 96 14.5H23C22.1716 14.5 21.5 15.1716 21.5 16V105C21.5 105.828 22.1716 106.5 23 106.5H96C96.8284 106.5 97.5 105.828 97.5 105V16ZM96 15.5C96.2761 15.5 96.5 15.7239 96.5 16V105C96.5 105.276 96.2761 105.5 96 105.5H23C22.7239 105.5 22.5 105.276 22.5 105V16C22.5 15.7239 22.7239 15.5 23 15.5H96Z" fill="#555555"/>
<path d="M59.5 93.8714L12 65V112H107V65L59.5 93.8714Z" fill="white"/>
<path fill-rule="evenodd" clip-rule="evenodd" d="M11.7549 64.5642C11.9124 64.4756 12.1053 64.4789 12.2597 64.5727L59.5 93.2863L106.74 64.5727C106.895 64.4789 107.088 64.4756 107.245 64.5642C107.403 64.6528 107.5 64.8194 107.5 65V112C107.5 112.276 107.276 112.5 107 112.5H12C11.7239 112.5 11.5 112.276 11.5 112V65C11.5 64.8194 11.5974 64.6528 11.7549 64.5642ZM12.5 65.889V111.5H106.5V65.889L59.7597 94.2987C59.6001 94.3957 59.3999 94.3957 59.2403 94.2987L12.5 65.889Z" fill="#555555"/>
<path d="M106 112.001H12L53.3455 81.4282C56.8988 78.8007 61.7555 78.8172 65.291 81.4687L106 112.001Z" fill="white"/>
<path fill-rule="evenodd" clip-rule="evenodd" d="M53.0482 81.0261C56.7793 78.2673 61.8788 78.2846 65.591 81.0687L106.3 111.601C106.472 111.73 106.542 111.954 106.474 112.159C106.406 112.363 106.215 112.501 106 112.501H12C11.7842 112.501 11.5927 112.362 11.5252 112.157C11.4576 111.952 11.5292 111.727 11.7028 111.598L53.0482 81.0261ZM64.991 81.8687C61.6324 79.3498 57.0185 79.3341 53.6428 81.8302L13.5172 111.501H104.5L64.991 81.8687Z" fill="#555555"/>
<path d="M51.2451 53.4572V55.1056H49.1059V61.9037H47.1392V55.1056H45V53.4572H51.2451Z" fill="#555555"/>
<path d="M55.1534 62C54.5247 62 53.9573 61.8596 53.4512 61.5789C52.9529 61.2981 52.558 60.8971 52.2666 60.3757C51.9829 59.8543 51.8411 59.2447 51.8411 58.5468C51.8411 57.857 51.9868 57.2513 52.2781 56.7299C52.5695 56.2005 52.9682 55.7955 53.4742 55.5147C53.9803 55.234 54.5477 55.0936 55.1764 55.0936C55.8051 55.0936 56.3725 55.234 56.8786 55.5147C57.3846 55.7955 57.7833 56.2005 58.0747 56.7299C58.366 57.2513 58.5117 57.857 58.5117 58.5468C58.5117 59.2366 58.3622 59.8463 58.0632 60.3757C57.7718 60.8971 57.3693 61.2981 56.8556 61.5789C56.3495 61.8596 55.7821 62 55.1534 62ZM55.1534 60.2193C55.5291 60.2193 55.8473 60.0749 56.108 59.7861C56.3763 59.4973 56.5105 59.0842 56.5105 58.5468C56.5105 58.0094 56.3802 57.5963 56.1195 57.3075C55.8665 57.0187 55.5521 56.8743 55.1764 56.8743C54.793 56.8743 54.4748 57.0187 54.2218 57.3075C53.9688 57.5882 53.8423 58.0013 53.8423 58.5468C53.8423 59.0842 53.965 59.4973 54.2103 59.7861C54.4633 60.0749 54.7777 60.2193 55.1534 60.2193Z" fill="#555555"/>
<path d="M63.1319 60.1591V61.9037H62.1313C61.4183 61.9037 60.8624 61.7233 60.4637 61.3623C60.065 60.9933 59.8656 60.3957 59.8656 59.5695V56.8984H59.0835V55.1898H59.8656V53.5535H61.8323V55.1898H63.1204V56.8984H61.8323V59.5936C61.8323 59.7941 61.8783 59.9385 61.9703 60.0267C62.0623 60.115 62.2157 60.1591 62.4304 60.1591H63.1319Z" fill="#555555"/>
<path d="M63.8364 58.5348C63.8364 57.8449 63.959 57.2393 64.2044 56.7179C64.4574 56.1965 64.7986 55.7955 65.228 55.5147C65.6574 55.234 66.1366 55.0936 66.6656 55.0936C67.118 55.0936 67.5129 55.1898 67.8502 55.3824C68.1953 55.5749 68.4598 55.8275 68.6438 56.1404V55.1898H70.6105V61.9037H68.6438V60.9532C68.4521 61.266 68.1838 61.5187 67.8387 61.7112C67.5014 61.9037 67.1065 62 66.6541 62C66.1327 62 65.6574 61.8596 65.228 61.5789C64.7986 61.2901 64.4574 60.885 64.2044 60.3636C63.959 59.8342 63.8364 59.2246 63.8364 58.5348ZM68.6438 58.5468C68.6438 58.0334 68.5058 57.6283 68.2298 57.3316C67.9614 57.0348 67.6317 56.8864 67.2407 56.8864C66.8496 56.8864 66.5161 57.0348 66.2401 57.3316C65.9717 57.6203 65.8375 58.0214 65.8375 58.5348C65.8375 59.0481 65.9717 59.4572 66.2401 59.762C66.5161 60.0588 66.8496 60.2072 67.2407 60.2072C67.6317 60.2072 67.9614 60.0588 68.2298 59.762C68.5058 59.4652 68.6438 59.0602 68.6438 58.5468Z" fill="#555555"/>
<path d="M74 53V61.9037H72.0333V53H74Z" fill="#555555"/>
<path fill-rule="evenodd" clip-rule="evenodd" d="M35.5 68C35.5 67.7239 35.7239 67.5 36 67.5H83C83.2761 67.5 83.5 67.7239 83.5 68C83.5 68.2761 83.2761 68.5 83 68.5H36C35.7239 68.5 35.5 68.2761 35.5 68Z" fill="#D1DDFB"/>
<path fill-rule="evenodd" clip-rule="evenodd" d="M35.5 73C35.5 72.7239 35.7239 72.5 36 72.5H70C70.2761 72.5 70.5 72.7239 70.5 73C70.5 73.2761 70.2761 73.5 70 73.5H36C35.7239 73.5 35.5 73.2761 35.5 73Z" fill="#D1DDFB"/>
<path fill-rule="evenodd" clip-rule="evenodd" d="M60.2699 26.911C60.0931 26.3683 59.5798 26 59 26C58.4202 26 57.9069 26.3683 57.7301 26.911L56.0731 32H50.9413L49.5929 28.1902C49.351 27.5067 48.5911 27.1453 47.8956 27.3831C47.2002 27.6208 46.8325 28.3676 47.0744 29.0512L48.118 32H46.9512C46.4259 32 46 32.4477 46 33C46 33.5523 46.4259 34 46.9512 34H48.8258L49.5337 36H47.5854C47.06 36 46.6341 36.4477 46.6341 37C46.6341 37.5523 47.06 38 47.5854 38H50.2415L52.4075 44.1201C52.596 44.6526 53.1099 45.007 53.6835 44.9999C54.2571 44.9928 54.7619 44.626 54.9367 44.089L56.9193 38H61.0807L63.0633 44.089C63.2381 44.626 63.7429 44.9928 64.3165 44.9999C64.8901 45.007 65.404 44.6526 65.5925 44.1201L67.7585 38H70.4146C70.94 38 71.3659 37.5523 71.3659 37C71.3659 36.4477 70.94 36 70.4146 36H68.4663L69.1742 34H71.0488C71.5741 34 72 33.5523 72 33C72 32.4477 71.5741 32 71.0488 32H69.882L70.9256 29.0512C71.1675 28.3676 70.7998 27.6208 70.1044 27.3831C69.4089 27.1453 68.649 27.5067 68.4071 28.1902L67.0587 32H61.9269L60.2699 26.911ZM59.1271 32L59 31.6097L58.8729 32H59.1271ZM58.2217 34H59.7783L60.4295 36H57.5705L58.2217 34ZM55.4219 34H51.6491L52.357 36H54.7707L55.4219 34ZM54.1195 38H53.0648L53.6141 39.5521L54.1195 38ZM63.2293 36L62.5781 34H66.3509L65.643 36H63.2293ZM63.8805 38L64.3859 39.5521L64.9352 38H63.8805Z" fill="#4267EB"/>
</svg>
