<svg width="81" height="80" viewBox="0 0 81 80" fill="none" xmlns="http://www.w3.org/2000/svg">
<path d="M49.4004 40L55.4004 42.9333V50L49.4004 46.7703V40Z" fill="white"/>
<path fill-rule="evenodd" clip-rule="evenodd" d="M49.1356 39.5759C49.282 39.4845 49.465 39.475 49.62 39.5508L55.62 42.4841C55.7916 42.568 55.9004 42.7423 55.9004 42.9333V50C55.9004 50.176 55.8079 50.339 55.6568 50.4292C55.5057 50.5195 55.3184 50.5237 55.1634 50.4403L49.1634 47.2106C49.0014 47.1234 48.9004 46.9543 48.9004 46.7703V40C48.9004 39.8275 48.9893 39.6672 49.1356 39.5759ZM49.9004 40.801V46.4716L54.9004 49.163V43.2454L49.9004 40.801Z" fill="#555555"/>
<path d="M61.4004 40L55.4004 42.9333V50L61.4004 46.7703V40Z" fill="white"/>
<path fill-rule="evenodd" clip-rule="evenodd" d="M61.6652 39.5759C61.5188 39.4845 61.3358 39.475 61.1808 39.5508L55.1808 42.4841C55.0092 42.568 54.9004 42.7423 54.9004 42.9333V50C54.9004 50.176 54.9929 50.339 55.144 50.4292C55.295 50.5195 55.4824 50.5237 55.6374 50.4403L61.6374 47.2106C61.7994 47.1234 61.9004 46.9543 61.9004 46.7703V40C61.9004 39.8275 61.8115 39.6672 61.6652 39.5759ZM60.9004 40.801V46.4716L55.9004 49.163V43.2454L60.9004 40.801Z" fill="#555555"/>
<path d="M55.4004 37L61.4004 39.7L55.4004 43L49.4004 39.7L55.4004 37Z" fill="white"/>
<path fill-rule="evenodd" clip-rule="evenodd" d="M55.1952 36.544C55.3257 36.4853 55.4751 36.4853 55.6056 36.544L61.6056 39.244C61.7784 39.3218 61.8924 39.4906 61.9 39.68C61.9076 39.8694 61.8074 40.0468 61.6414 40.1381L55.6414 43.4381C55.4913 43.5206 55.3095 43.5206 55.1594 43.4381L49.1594 40.1381C48.9934 40.0468 48.8932 39.8694 48.9008 39.68C48.9084 39.4906 49.0224 39.3218 49.1952 39.244L55.1952 36.544ZM50.5193 39.7448L55.4004 42.4294L60.2815 39.7448L55.4004 37.5483L50.5193 39.7448Z" fill="#555555"/>
<path d="M40.9392 27.5385C40.9392 31.7018 37.5641 35.0769 33.4008 35.0769C29.2374 35.0769 25.8623 31.7018 25.8623 27.5385C25.8623 23.3751 29.2374 20 33.4008 20C37.5641 20 40.9392 23.3751 40.9392 27.5385Z" fill="#D9D9D9"/>
<path fill-rule="evenodd" clip-rule="evenodd" d="M33.4008 20.5C29.5135 20.5 26.3623 23.6512 26.3623 27.5385C26.3623 31.4257 29.5135 34.5769 33.4008 34.5769C37.288 34.5769 40.4392 31.4257 40.4392 27.5385C40.4392 23.6512 37.288 20.5 33.4008 20.5ZM25.3623 27.5385C25.3623 23.0989 28.9612 19.5 33.4008 19.5C37.8403 19.5 41.4392 23.0989 41.4392 27.5385C41.4392 31.978 37.8403 35.5769 33.4008 35.5769C28.9612 35.5769 25.3623 31.978 25.3623 27.5385Z" fill="#555555"/>
<path d="M25.4399 31.1927C25.7021 30.3132 26.5057 29.6914 27.4234 29.6914H39.3344C40.2718 29.6914 41.0878 30.3413 41.3391 31.2444C41.8656 33.1361 42.9375 36.5655 44.708 40.4606C46.7614 44.9781 47.2487 53.8808 47.3643 57.8517C47.3965 58.9558 46.5049 59.8453 45.4003 59.8453H21.4003C20.2957 59.8453 19.4044 58.9544 19.4384 57.8504C19.5579 53.9702 20.0517 45.3588 22.0926 40.4606C23.8392 36.2689 24.9059 32.9835 25.4399 31.1927Z" fill="#F2F4FF"/>
<path fill-rule="evenodd" clip-rule="evenodd" d="M24.9607 31.0498C25.2836 29.9668 26.2759 29.1914 27.4234 29.1914H39.3344C40.5074 29.1914 41.5123 30.0018 41.8208 31.1103C42.3425 32.9849 43.4063 36.3885 45.1632 40.2537C46.2241 42.5877 46.8656 46.009 47.2593 49.3018C47.6547 52.6092 47.8061 55.844 47.8641 57.8371C47.9048 59.2322 46.7773 60.3453 45.4003 60.3453H21.4003C20.0229 60.3453 18.8957 59.2303 18.9387 57.835C18.9987 55.8868 19.1527 52.7476 19.5486 49.4772C19.9433 46.217 20.5832 42.7833 21.6311 40.2683C23.3699 36.0952 24.431 32.8267 24.9607 31.0498ZM27.4234 30.1914C26.7354 30.1914 26.1205 30.6596 25.919 31.3355C25.3809 33.1404 24.3085 36.4426 22.5542 40.6529C21.5612 43.0362 20.9337 46.3572 20.5414 49.5973C20.1503 52.8271 19.9977 55.9338 19.9382 57.8657C19.9132 58.6785 20.5686 59.3453 21.4003 59.3453H45.4003C46.2324 59.3453 46.8882 58.6793 46.8646 57.8662C46.807 55.8884 46.6569 52.6865 46.2664 49.4205C45.8742 46.1398 45.2453 42.8511 44.2528 40.6675C42.4687 36.7425 41.3886 33.2873 40.8574 31.3784C40.6633 30.6808 40.0362 30.1914 39.3344 30.1914H27.4234Z" fill="#555555"/>
<path d="M23.708 28.4609C23.708 27.3564 24.6034 26.4609 25.708 26.4609H41.0926C42.1972 26.4609 43.0926 27.3564 43.0926 28.4609V28.7686C43.0926 29.8732 42.1972 30.7686 41.0926 30.7686H25.708C24.6034 30.7686 23.708 29.8732 23.708 28.7686V28.4609Z" fill="#D3D6E4"/>
<path fill-rule="evenodd" clip-rule="evenodd" d="M23.208 28.4609C23.208 27.0802 24.3273 25.9609 25.708 25.9609H41.0926C42.4733 25.9609 43.5926 27.0802 43.5926 28.4609V28.7686C43.5926 30.1493 42.4733 31.2686 41.0926 31.2686H25.708C24.3273 31.2686 23.208 30.1493 23.208 28.7686V28.4609ZM25.708 26.9609C24.8796 26.9609 24.208 27.6325 24.208 28.4609V28.7686C24.208 29.5971 24.8796 30.2686 25.708 30.2686H41.0926C41.921 30.2686 42.5926 29.5971 42.5926 28.7686V28.4609C42.5926 27.6325 41.9211 26.9609 41.0926 26.9609H25.708Z" fill="#555555"/>
<path d="M34.4771 23.2293C34.4771 23.824 33.9949 24.3062 33.4002 24.3062C32.8054 24.3062 32.3232 23.824 32.3232 23.2293C32.3232 22.6345 32.8054 22.1523 33.4002 22.1523C33.9949 22.1523 34.4771 22.6345 34.4771 23.2293Z" fill="#555555"/>
<path d="M30.1695 24.3074C30.1695 24.9022 29.6873 25.3843 29.0925 25.3843C28.4978 25.3843 28.0156 24.9022 28.0156 24.3074C28.0156 23.7126 28.4978 23.2305 29.0925 23.2305C29.6873 23.2305 30.1695 23.7126 30.1695 24.3074Z" fill="#555555"/>
<path d="M38.7847 24.3074C38.7847 24.9022 38.3026 25.3843 37.7078 25.3843C37.113 25.3843 36.6309 24.9022 36.6309 24.3074C36.6309 23.7126 37.113 23.2305 37.7078 23.2305C38.3026 23.2305 38.7847 23.7126 38.7847 24.3074Z" fill="#555555"/>
<path d="M20.6038 45.8477C19.7971 50.1685 19.5311 54.988 19.4435 57.6957C19.405 58.8846 20.3647 59.8477 21.5543 59.8477H45.2466C46.4361 59.8477 47.3961 58.8852 47.3597 57.6962C47.276 54.9644 47.0203 50.0947 46.2385 45.8477H20.6038Z" fill="white"/>
<path fill-rule="evenodd" clip-rule="evenodd" d="M20.1886 45.3477H46.6549L46.7303 45.7571C47.519 50.0424 47.7756 54.9425 47.8595 57.6809C47.9048 59.1603 46.7099 60.3477 45.2466 60.3477H21.5543C20.0909 60.3477 18.8959 59.1593 18.9438 57.6795C19.0317 54.9643 19.2985 50.1145 20.1123 45.7559L20.1886 45.3477ZM21.021 46.3477C20.279 50.5236 20.0279 55.0973 19.9433 57.7119C19.9142 58.6099 20.6386 59.3477 21.5543 59.3477H45.2466C46.1624 59.3477 46.8875 58.6102 46.86 57.7116C46.7792 55.0742 46.5378 50.4573 45.8202 46.3477H21.021Z" fill="#555555"/>
<path d="M51.4004 50L57.4004 52.9333V60L51.4004 56.7703V50Z" fill="white"/>
<path fill-rule="evenodd" clip-rule="evenodd" d="M51.1356 49.5759C51.282 49.4845 51.465 49.475 51.62 49.5508L57.62 52.4841C57.7916 52.568 57.9004 52.7423 57.9004 52.9333V60C57.9004 60.176 57.8079 60.339 57.6568 60.4292C57.5057 60.5195 57.3184 60.5237 57.1634 60.4403L51.1634 57.2106C51.0014 57.1234 50.9004 56.9543 50.9004 56.7703V50C50.9004 49.8275 50.9893 49.6672 51.1356 49.5759ZM51.9004 50.801V56.4716L56.9004 59.163V53.2454L51.9004 50.801Z" fill="#555555"/>
<path d="M63.4004 50L57.4004 52.9333V60L63.4004 56.7703V50Z" fill="white"/>
<path fill-rule="evenodd" clip-rule="evenodd" d="M63.6652 49.5759C63.5188 49.4845 63.3358 49.475 63.1808 49.5508L57.1808 52.4841C57.0092 52.568 56.9004 52.7423 56.9004 52.9333V60C56.9004 60.176 56.9929 60.339 57.144 60.4292C57.295 60.5195 57.4824 60.5237 57.6374 60.4403L63.6374 57.2106C63.7994 57.1234 63.9004 56.9543 63.9004 56.7703V50C63.9004 49.8275 63.8115 49.6672 63.6652 49.5759ZM62.9004 50.801V56.4716L57.9004 59.163V53.2454L62.9004 50.801Z" fill="#555555"/>
<path d="M57.4004 47L63.4004 49.7L57.4004 53L51.4004 49.7L57.4004 47Z" fill="white"/>
<path fill-rule="evenodd" clip-rule="evenodd" d="M57.1952 46.544C57.3257 46.4853 57.4751 46.4853 57.6056 46.544L63.6056 49.244C63.7784 49.3218 63.8924 49.4906 63.9 49.68C63.9076 49.8694 63.8074 50.0468 63.6414 50.1381L57.6414 53.4381C57.4913 53.5206 57.3095 53.5206 57.1594 53.4381L51.1594 50.1381C50.9934 50.0468 50.8932 49.8694 50.9008 49.68C50.9084 49.4906 51.0224 49.3218 51.1952 49.244L57.1952 46.544ZM52.5193 49.7448L57.4004 52.4294L62.2815 49.7448L57.4004 47.5483L52.5193 49.7448Z" fill="#555555"/>
<path d="M40.4004 55L46.4004 57.9333V65L40.4004 61.7703V55Z" fill="white"/>
<path fill-rule="evenodd" clip-rule="evenodd" d="M40.1356 54.5759C40.282 54.4845 40.465 54.475 40.62 54.5508L46.62 57.4841C46.7916 57.568 46.9004 57.7423 46.9004 57.9333V65C46.9004 65.176 46.8079 65.339 46.6568 65.4292C46.5057 65.5195 46.3184 65.5237 46.1634 65.4403L40.1634 62.2106C40.0014 62.1234 39.9004 61.9543 39.9004 61.7703V55C39.9004 54.8275 39.9893 54.6672 40.1356 54.5759ZM40.9004 55.801V61.4716L45.9004 64.163V58.2454L40.9004 55.801Z" fill="#555555"/>
<path d="M52.4004 55L46.4004 57.9333V65L52.4004 61.7703V55Z" fill="white"/>
<path fill-rule="evenodd" clip-rule="evenodd" d="M52.6652 54.5759C52.5188 54.4845 52.3358 54.475 52.1808 54.5508L46.1808 57.4841C46.0092 57.568 45.9004 57.7423 45.9004 57.9333V65C45.9004 65.176 45.9929 65.339 46.144 65.4292C46.295 65.5195 46.4824 65.5237 46.6374 65.4403L52.6374 62.2106C52.7994 62.1234 52.9004 61.9543 52.9004 61.7703V55C52.9004 54.8275 52.8115 54.6672 52.6652 54.5759ZM51.9004 55.801V61.4716L46.9004 64.163V58.2454L51.9004 55.801Z" fill="#555555"/>
<path d="M46.4004 52L52.4004 54.7L46.4004 58L40.4004 54.7L46.4004 52Z" fill="white"/>
<path fill-rule="evenodd" clip-rule="evenodd" d="M46.1952 51.544C46.3257 51.4853 46.4751 51.4853 46.6056 51.544L52.6056 54.244C52.7784 54.3218 52.8924 54.4906 52.9 54.68C52.9076 54.8694 52.8074 55.0468 52.6414 55.1381L46.6414 58.4381C46.4913 58.5206 46.3095 58.5206 46.1594 58.4381L40.1594 55.1381C39.9934 55.0468 39.8932 54.8694 39.9008 54.68C39.9084 54.4906 40.0224 54.3218 40.1952 54.244L46.1952 51.544ZM41.5193 54.7448L46.4004 57.4294L51.2815 54.7448L46.4004 52.5483L41.5193 54.7448Z" fill="#555555"/>
<path fill-rule="evenodd" clip-rule="evenodd" d="M76.4004 40C76.4004 59.8823 60.2826 76 40.4004 76C20.5181 76 4.40039 59.8823 4.40039 40C4.40039 20.1177 20.5181 4 40.4004 4C60.2826 4 76.4004 20.1177 76.4004 40ZM73.1277 40C73.1277 58.0748 58.4752 72.7273 40.4004 72.7273C31.4303 72.7273 23.3031 69.1185 17.3914 63.2737L63.674 16.991C69.5189 22.9027 73.1277 31.0299 73.1277 40ZM61.2578 14.779C55.5948 10.0905 48.3267 7.27273 40.4004 7.27273C22.3256 7.27273 7.67312 21.9252 7.67312 40C7.67312 47.9263 10.4909 55.1944 15.1793 60.8574L61.2578 14.779Z" fill="#A8B1CE"/>
</svg>
