<svg width="81" height="80" viewBox="0 0 81 80" fill="none" xmlns="http://www.w3.org/2000/svg">
<path d="M72.3266 43.0362C71.5884 45.9827 69.47 47.9906 67.5949 47.5208C65.7199 47.0511 64.7983 44.2816 65.5365 41.3351C66.2746 38.3886 68.3931 36.3808 70.2681 36.8506C72.1432 37.3203 73.0648 40.0897 72.3266 43.0362Z" fill="white"/>
<path fill-rule="evenodd" clip-rule="evenodd" d="M67.8201 38.1757C67.0428 38.9124 66.3712 40.0624 66.0217 41.4577C65.6721 42.8529 65.7222 44.1837 66.0604 45.1999C66.4008 46.2228 67.0025 46.8579 67.7167 47.0368C68.4309 47.2158 69.261 46.9393 70.0434 46.1978C70.8207 45.4611 71.4923 44.311 71.8418 42.9158C72.1914 41.5205 72.1413 40.1897 71.8031 39.1735C71.4627 38.1507 70.861 37.5155 70.1468 37.3366C69.4327 37.1577 68.6025 37.4341 67.8201 38.1757ZM67.1322 37.4499C68.0624 36.5684 69.229 36.0758 70.3899 36.3666C71.5507 36.6574 72.3473 37.6419 72.752 38.8578C73.1588 40.0804 73.2005 41.6076 72.8118 43.1588C72.4232 44.71 71.6665 46.0372 70.7313 46.9236C69.8012 47.8051 68.6345 48.2977 67.4736 48.0069C66.3128 47.716 65.5162 46.7316 65.1115 45.5157C64.7047 44.2931 64.663 42.7659 65.0517 41.2147C65.4403 39.6634 66.197 38.3363 67.1322 37.4499Z" fill="#555555"/>
<path d="M19.5367 43.0362C20.2749 45.9827 22.3933 47.9906 24.2683 47.5208C26.1434 47.0511 27.065 44.2816 26.3268 41.3351C25.5886 38.3886 23.4702 36.3808 21.5952 36.8506C19.7201 37.3203 18.7985 40.0897 19.5367 43.0362Z" fill="white"/>
<path fill-rule="evenodd" clip-rule="evenodd" d="M24.0431 38.1757C24.8205 38.9124 25.492 40.0624 25.8416 41.4577C26.1911 42.8529 26.1411 44.1837 25.8029 45.1999C25.4625 46.2228 24.8608 46.8579 24.1466 47.0368C23.4324 47.2158 22.6023 46.9393 21.8199 46.1978C21.0426 45.4611 20.371 44.311 20.0215 42.9158C19.6719 41.5205 19.722 40.1897 20.0602 39.1735C20.4005 38.1507 21.0023 37.5155 21.7164 37.3366C22.4306 37.1577 23.2607 37.4341 24.0431 38.1757ZM24.731 37.4499C23.8009 36.5684 22.6343 36.0758 21.4734 36.3666C20.3126 36.6574 19.516 37.6419 19.1113 38.8578C18.7045 40.0804 18.6628 41.6076 19.0514 43.1588C19.4401 44.71 20.1968 46.0372 21.132 46.9236C22.0621 47.8051 23.2288 48.2977 24.3896 48.0069C25.5505 47.716 26.3471 46.7316 26.7517 45.5157C27.1586 44.2931 27.2002 42.7659 26.8116 41.2147C26.423 39.6634 25.6663 38.3363 24.731 37.4499Z" fill="#555555"/>
<path d="M68.2002 40C68.2002 53.8071 58.3505 65 46.2002 65C34.0499 65 24.2002 53.8071 24.2002 40C24.2002 26.1929 34.0499 15 46.2002 15C58.3505 15 68.2002 26.1929 68.2002 40Z" fill="white"/>
<path fill-rule="evenodd" clip-rule="evenodd" d="M46.2002 64C57.6819 64 67.2002 53.3788 67.2002 40C67.2002 26.6212 57.6819 16 46.2002 16C34.7185 16 25.2002 26.6212 25.2002 40C25.2002 53.3788 34.7185 64 46.2002 64ZM46.2002 65C58.3505 65 68.2002 53.8071 68.2002 40C68.2002 26.1929 58.3505 15 46.2002 15C34.0499 15 24.2002 26.1929 24.2002 40C24.2002 53.8071 34.0499 65 46.2002 65Z" fill="#555555"/>
<path d="M38.2002 33.9984C38.2002 33.9984 46.2234 31.7472 50.7006 29.4984C55.1778 27.2496 58.6664 22.4124 60.7006 23.4984C59.2348 27.0843 65.353 37.0487 66.7003 39.4984C66.9994 40.0424 68.1458 41.6181 68.2003 40.9984C68.6036 36.4057 70.37 27.554 69.7006 24.4984C67.5032 14.468 60.0744 7.02419 41.6999 8.99842C14.5735 11.913 22.7001 40.9984 24.6997 42.9984C25.1656 38.9127 25.8417 36.4053 30.2002 34.9984C33.6871 33.8729 39.2003 27.9984 41.7003 24.4984C41.7003 24.4984 41.9003 26.4984 40.7003 29.4984C39.5003 32.4984 38.2002 33.9984 38.2002 33.9984Z" fill="#D3D6E4"/>
<path fill-rule="evenodd" clip-rule="evenodd" d="M61.4948 12.6663C57.1958 9.88226 50.8734 8.5156 41.7533 9.4955C35.0663 10.214 30.6056 12.5373 27.6803 15.6043C24.7502 18.6763 23.3171 22.5399 22.7726 26.4109C22.2279 30.2837 22.5767 34.139 23.1877 37.1525C23.4931 38.6582 23.8623 39.9456 24.2134 40.9119C24.2782 41.0904 24.3422 41.2571 24.4047 41.4116C24.6236 40.017 24.9435 38.7877 25.5592 37.7403C26.4094 36.294 27.7849 35.2525 30.0466 34.5224C30.8448 34.2648 31.7933 33.7218 32.8218 32.9711C33.8445 32.2246 34.9211 31.2913 35.9736 30.2784C38.0799 28.2511 40.0627 25.9306 41.2934 24.2076C41.4144 24.0382 41.6277 23.9615 41.8289 24.0151C42.0301 24.0687 42.177 24.2413 42.1978 24.4485L41.7002 24.4982C42.1978 24.4485 42.1977 24.4483 42.1978 24.4485L42.1979 24.4503L42.1982 24.4529L42.1989 24.4601L42.2008 24.4835C42.2022 24.5028 42.2041 24.5299 42.2058 24.5643C42.2094 24.6331 42.2127 24.7315 42.2127 24.8576C42.2127 25.1098 42.1993 25.4725 42.147 25.93C42.0424 26.8453 41.7824 28.1391 41.1645 29.6839C40.5589 31.198 39.9267 32.3416 39.4391 33.1148C40.2533 32.8705 41.3679 32.5269 42.6152 32.1166C45.1776 31.2737 48.2728 30.1582 50.4762 29.0514C52.2934 28.1387 53.9412 26.7887 55.4341 25.5657C55.73 25.3233 56.0198 25.0859 56.3035 24.8579C57.1449 24.182 57.9504 23.5758 58.6889 23.2127C59.4217 22.8523 60.2128 22.6711 60.936 23.0572C61.1622 23.1779 61.2604 23.4501 61.1634 23.6874C60.8629 24.4225 60.9292 25.5778 61.3137 27.0394C61.6912 28.4744 62.3467 30.1018 63.0986 31.7129C64.2748 34.2331 65.66 36.6586 66.5371 38.1943C66.7825 38.6242 66.9882 38.9843 67.1384 39.2573C67.2497 39.4598 67.5115 39.8509 67.7777 40.185C67.9227 38.8313 68.1519 37.2052 68.3902 35.5146C68.5491 34.3873 68.7121 33.2312 68.8568 32.108C69.0605 30.5271 69.2294 29.0043 69.3061 27.6905C69.3836 26.3642 69.3637 25.2971 69.2121 24.6053C68.1336 19.682 65.7849 15.4445 61.4948 12.6663ZM68.2347 40.6686C68.2335 40.668 68.2323 40.6672 68.231 40.6664C68.2443 40.6724 68.2464 40.6754 68.2347 40.6686ZM37.8224 33.6708L37.8234 33.6696L37.8318 33.6596C37.8398 33.6501 37.8525 33.6348 37.8696 33.6136C37.9038 33.5713 37.9555 33.5058 38.0221 33.417C38.1553 33.2394 38.3478 32.969 38.5778 32.6057C39.038 31.8791 39.6485 30.7814 40.236 29.3126C40.7551 28.0149 41.0021 26.9152 41.1172 26.1004C39.8986 27.6407 38.3192 29.4087 36.667 30.9989C35.5928 32.0328 34.4811 32.998 33.4113 33.7788C32.3473 34.5555 31.2991 35.169 30.3538 35.4741C28.257 36.1509 27.1152 37.0666 26.4213 38.2471C25.709 39.4587 25.4299 41.0079 25.1964 43.0549C25.1747 43.2456 25.0457 43.407 24.8644 43.4703C24.6832 43.5336 24.4818 43.4875 24.3461 43.3518C24.1619 43.1676 23.9839 42.8767 23.8163 42.5435C23.6424 42.1977 23.4584 41.7622 23.2735 41.2534C22.9034 40.2349 22.5216 38.8991 22.2077 37.3512C21.5804 34.2577 21.2179 30.2845 21.7824 26.2716C22.3471 22.257 23.8436 18.1778 26.9566 14.9141C30.0743 11.6454 34.7702 9.24005 41.6464 8.50123C50.9008 7.5069 57.4801 8.87501 62.0384 11.8269C66.6057 14.7846 69.0702 19.2842 70.189 24.3913C70.3721 25.2272 70.3825 26.4125 70.3044 27.7488C70.2256 29.0976 70.0532 30.6477 69.8486 32.2358C69.6997 33.3913 69.5344 34.5634 69.3745 35.697C69.092 37.7001 68.8264 39.5831 68.6983 41.042C68.6876 41.1639 68.633 41.4697 68.3214 41.597C68.0514 41.7071 67.8129 41.5798 67.7352 41.535C67.534 41.4189 67.3279 41.2023 67.163 41.0107C66.8117 40.6025 66.4299 40.0443 66.2621 39.7392C66.1202 39.4812 65.9219 39.134 65.6828 38.7155C64.8085 37.1848 63.3892 34.7 62.1924 32.1358C61.4296 30.5013 60.7461 28.8122 60.3466 27.2938C60.0167 26.0396 59.8589 24.8257 60.0739 23.8421C59.8282 23.8375 59.5225 23.9171 59.1301 24.1101C58.5025 24.4187 57.7746 24.9588 56.9299 25.6375C56.6609 25.8536 56.3815 26.0827 56.0924 26.3197C54.6015 27.5423 52.8514 28.9775 50.925 29.9451C48.6512 31.0872 45.4962 32.2216 42.9277 33.0665C41.6398 33.4902 40.4926 33.8432 39.6672 34.0904C39.2545 34.2139 38.9221 34.3111 38.6926 34.3775C38.5778 34.4106 38.4888 34.4361 38.4283 34.4533L38.3594 34.4729L38.3358 34.4795C38.3357 34.4796 38.3353 34.4797 38.2002 33.9983L38.3358 34.4795C38.1232 34.5392 37.8962 34.4525 37.778 34.266C37.6598 34.0796 37.6779 33.8376 37.8224 33.6708Z" fill="#555555"/>
<path fill-rule="evenodd" clip-rule="evenodd" d="M36.2002 38C36.7525 38 37.2002 38.4477 37.2002 39V43H35.2002V39C35.2002 38.4477 35.6479 38 36.2002 38Z" fill="#555555"/>
<path fill-rule="evenodd" clip-rule="evenodd" d="M54.2002 38C54.7525 38 55.2002 38.4477 55.2002 39V43H53.2002V39C53.2002 38.4477 53.6479 38 54.2002 38Z" fill="#555555"/>
<path d="M58.251 47.2457C60.358 49.6354 58.6242 52.2628 57.2302 53.4919C56.7315 54.1468 54.7371 55.5861 52.0464 56.1765C51.0729 56.3901 48.1655 56.7773 46.8594 56.844C42.6924 51.3202 55.6174 44.2586 58.251 47.2457Z" fill="#D1DDFB"/>
<path fill-rule="evenodd" clip-rule="evenodd" d="M56.9021 46.0795C57.5755 46.1719 58.1927 46.4248 58.6257 46.9159C59.8078 48.2566 59.9204 49.6974 59.5306 50.9531C59.1565 52.1582 58.3276 53.1822 57.5955 53.8367C57.2729 54.2383 56.5986 54.7817 55.709 55.2928C54.7737 55.8301 53.5549 56.3582 52.1532 56.6657C51.1503 56.8858 48.2154 57.2763 46.8845 57.3442C44.8534 57.4478 42.0736 57.0843 39.5752 56.1777C37.0949 55.2777 34.7699 53.7967 33.8296 51.5778C33.7219 51.3236 33.8406 51.0301 34.0949 50.9224C34.3491 50.8146 34.6426 50.9334 34.7504 51.1876C35.5265 53.0191 37.5228 54.3692 39.9163 55.2377C41.9501 55.9757 44.1827 56.3329 45.9723 56.3597C45.3188 55.034 45.4493 53.6531 46.0598 52.3787C46.7785 50.8783 48.1623 49.5103 49.722 48.4417C51.2864 47.3699 53.0779 46.5647 54.6679 46.2206C55.4626 46.0487 56.229 45.9871 56.9021 46.0795ZM47.1061 56.3286C48.3056 56.2432 50.4073 55.9689 51.5147 55.7715C51.4936 55.2235 51.5302 54.5181 51.6864 53.795C51.8906 52.8497 52.3124 51.8151 53.1406 51.0849C53.3478 50.9022 53.6637 50.9221 53.8464 51.1293C54.029 51.3364 54.0091 51.6523 53.802 51.835C53.1964 52.3689 52.8444 53.1702 52.6639 54.0061C52.5439 54.5616 52.5054 55.1064 52.5095 55.548C53.5603 55.2594 54.481 54.845 55.2109 54.4257C56.0851 53.9234 56.6418 53.4397 56.832 53.1898L56.862 53.1504L56.8992 53.1177C57.5526 52.5416 58.267 51.6508 58.5756 50.6567C58.8744 49.694 58.8005 48.6263 57.8756 47.5772C57.6502 47.3216 57.2874 47.1417 56.7661 47.0702C56.2446 46.9986 55.6017 47.0417 54.8794 47.198C53.4355 47.5105 51.7624 48.2559 50.2872 49.2666C48.8074 50.2805 47.5766 51.5269 46.9616 52.8107C46.3959 53.9917 46.3522 55.1874 47.1061 56.3286Z" fill="#555555"/>
<path d="M11.2002 47C11.2002 45.8954 12.0956 45 13.2002 45C15.4093 45 17.2002 46.7909 17.2002 49V56C17.2002 57.6569 15.857 59 14.2002 59C12.5433 59 11.2002 57.6569 11.2002 56V47Z" fill="white"/>
<path fill-rule="evenodd" clip-rule="evenodd" d="M10.7002 47C10.7002 45.6193 11.8195 44.5 13.2002 44.5C15.6855 44.5 17.7002 46.5147 17.7002 49V56C17.7002 57.933 16.1332 59.5 14.2002 59.5C12.2672 59.5 10.7002 57.933 10.7002 56V47ZM13.2002 45.5C12.3718 45.5 11.7002 46.1716 11.7002 47V56C11.7002 57.3807 12.8195 58.5 14.2002 58.5C15.5809 58.5 16.7002 57.3807 16.7002 56V49C16.7002 47.067 15.1332 45.5 13.2002 45.5Z" fill="#555555"/>
<path d="M5.2002 61C5.2002 56.5817 8.78192 53 13.2002 53H18.2002C20.4093 53 22.2002 54.7909 22.2002 57V67C22.2002 69.2091 20.4093 71 18.2002 71H13.2002C8.78192 71 5.2002 67.4183 5.2002 63V61Z" fill="white"/>
<path fill-rule="evenodd" clip-rule="evenodd" d="M4.7002 61C4.7002 56.3056 8.50578 52.5 13.2002 52.5H18.2002C20.6855 52.5 22.7002 54.5147 22.7002 57V67C22.7002 69.4853 20.6855 71.5 18.2002 71.5H13.2002C8.50577 71.5 4.7002 67.6944 4.7002 63V61ZM13.2002 53.5C9.05806 53.5 5.7002 56.8579 5.7002 61V63C5.7002 67.1421 9.05806 70.5 13.2002 70.5H18.2002C20.1332 70.5 21.7002 68.933 21.7002 67V57C21.7002 55.067 20.1332 53.5 18.2002 53.5H13.2002Z" fill="#555555"/>
<path fill-rule="evenodd" clip-rule="evenodd" d="M16.7002 58C16.7002 57.7239 16.9241 57.5 17.2002 57.5H22.2002C22.4763 57.5 22.7002 57.7239 22.7002 58C22.7002 58.2761 22.4763 58.5 22.2002 58.5H17.2002C16.9241 58.5 16.7002 58.2761 16.7002 58ZM16.7002 62.5C16.7002 62.2239 16.9241 62 17.2002 62H22.2002C22.4763 62 22.7002 62.2239 22.7002 62.5C22.7002 62.7761 22.4763 63 22.2002 63H17.2002C16.9241 63 16.7002 62.7761 16.7002 62.5ZM16.7002 67C16.7002 66.7239 16.9241 66.5 17.2002 66.5H21.5752C21.8513 66.5 22.0752 66.7239 22.0752 67C22.0752 67.2761 21.8513 67.5 21.5752 67.5H17.2002C16.9241 67.5 16.7002 67.2761 16.7002 67Z" fill="#555555"/>
</svg>
