<svg width="81" height="80" viewBox="0 0 81 80" fill="none" xmlns="http://www.w3.org/2000/svg">
<path d="M25.5148 16H57.1512L59.1977 21.276C59.2871 21.5067 59.333 21.7519 59.333 21.9993V68C59.333 69.1046 58.4376 70 57.333 70H25.333C24.2284 70 23.333 69.1046 23.333 68V21.9993C23.333 21.7519 23.3789 21.5067 23.4684 21.276L25.5148 16Z" fill="#F6FAFF"/>
<path d="M50.3707 41H59.333V50H50.3707C48.7657 53.5474 45.3221 56 41.333 56C37.3439 56 33.9003 53.5474 32.2953 50H23.333V41H32.2953C33.9003 37.4526 37.3439 35 41.333 35C45.3221 35 48.7657 37.4526 50.3707 41Z" fill="#D1DDFB"/>
<path fill-rule="evenodd" clip-rule="evenodd" d="M25.0487 15.8192C25.1233 15.6268 25.3085 15.5 25.5148 15.5H57.1512C57.3576 15.5 57.5427 15.6268 57.6174 15.8192L59.6638 21.0952C59.7756 21.3835 59.833 21.6901 59.833 21.9993V68C59.833 69.3807 58.7137 70.5 57.333 70.5H25.333C23.9523 70.5 22.833 69.3807 22.833 68V21.9993C22.833 21.6901 22.8904 21.3835 23.0022 21.0952L25.0487 15.8192ZM25.8572 16.5L23.9345 21.4569C23.8674 21.6298 23.833 21.8138 23.833 21.9993V68C23.833 68.8284 24.5046 69.5 25.333 69.5H57.333C58.1614 69.5 58.833 68.8284 58.833 68V21.9993C58.833 21.8138 58.7986 21.6298 58.7315 21.4569L56.8088 16.5H25.8572Z" fill="#555555"/>
<path d="M24.333 70H58.333V71C58.333 72.1046 57.4376 73 56.333 73H26.333C25.2284 73 24.333 72.1046 24.333 71V70Z" fill="#F5F5F5"/>
<path fill-rule="evenodd" clip-rule="evenodd" d="M23.833 70C23.833 69.7239 24.0569 69.5 24.333 69.5H58.333C58.6091 69.5 58.833 69.7239 58.833 70V71C58.833 72.3807 57.7137 73.5 56.333 73.5H26.333C24.9523 73.5 23.833 72.3807 23.833 71V70ZM24.833 70.5V71C24.833 71.8284 25.5046 72.5 26.333 72.5H56.333C57.1614 72.5 57.833 71.8284 57.833 71V70.5H24.833Z" fill="#555555"/>
<path d="M46.7102 7.49867C47.1016 7.01616 47.8101 6.94232 48.2926 7.33375C48.7751 7.72518 48.849 8.43365 48.4575 8.91617L44.9138 13.2845C44.5224 13.767 43.8139 13.8409 43.3314 13.4494C42.8489 13.058 42.775 12.3495 43.1664 11.867L46.7102 7.49867Z" fill="#F5F5F5"/>
<path fill-rule="evenodd" clip-rule="evenodd" d="M46.322 7.18384C46.8874 6.48688 47.9107 6.38022 48.6077 6.94562C49.3046 7.51103 49.4113 8.53438 48.8459 9.23134L45.3021 13.5997C44.7367 14.2967 43.7134 14.4033 43.0164 13.8379C42.3195 13.2725 42.2128 12.2492 42.7782 11.5522L46.322 7.18384ZM47.9777 7.72222C47.7096 7.50476 47.316 7.54578 47.0985 7.81384L43.5548 12.1822C43.3373 12.4503 43.3784 12.8439 43.6464 13.0613C43.9145 13.2788 44.3081 13.2378 44.5255 12.9697L48.0693 8.60134C48.2868 8.33328 48.2457 7.93968 47.9777 7.72222Z" fill="#555555"/>
<path d="M24.333 13C24.333 12.4477 24.7807 12 25.333 12H57.333C57.8853 12 58.333 12.4477 58.333 13V15C58.333 15.5523 57.8853 16 57.333 16H25.333C24.7807 16 24.333 15.5523 24.333 15V13Z" fill="#F5F5F5"/>
<path fill-rule="evenodd" clip-rule="evenodd" d="M23.833 13C23.833 12.1716 24.5046 11.5 25.333 11.5H57.333C58.1614 11.5 58.833 12.1716 58.833 13V15C58.833 15.8284 58.1614 16.5 57.333 16.5H25.333C24.5046 16.5 23.833 15.8284 23.833 15V13ZM25.333 12.5C25.0569 12.5 24.833 12.7239 24.833 13V15C24.833 15.2761 25.0569 15.5 25.333 15.5H57.333C57.6091 15.5 57.833 15.2761 57.833 15V13C57.833 12.7239 57.6091 12.5 57.333 12.5H25.333Z" fill="#555555"/>
<path fill-rule="evenodd" clip-rule="evenodd" d="M40.1709 10.5808C40.1954 10.3906 40.208 10.1968 40.208 10C40.208 7.51472 38.1933 5.5 35.708 5.5C33.5896 5.5 31.8131 6.96381 31.3347 8.93512C31.111 8.89561 30.8806 8.875 30.6455 8.875C28.4709 8.875 26.708 10.6379 26.708 12.8125C26.708 14.7961 28.1748 16.4372 30.083 16.7101V24.625C30.083 25.2463 30.5867 25.75 31.208 25.75C31.8293 25.75 32.333 25.2463 32.333 24.625V29.125C32.333 29.7463 32.8367 30.25 33.458 30.25C34.0793 30.25 34.583 29.7463 34.583 29.125V17.4766C35.4076 18.4108 36.614 19 37.958 19C40.4433 19 42.458 16.9853 42.458 14.5C42.458 12.8191 41.5364 11.3534 40.1709 10.5808Z" fill="white"/>
<path fill-rule="evenodd" clip-rule="evenodd" d="M35.708 6C33.8256 6 32.2458 7.30073 31.8206 9.05302C31.7584 9.30944 31.5077 9.47338 31.2478 9.42751C31.0526 9.39304 30.8514 9.375 30.6455 9.375C28.747 9.375 27.208 10.914 27.208 12.8125C27.208 14.5438 28.4884 15.9769 30.1538 16.2152C30.4001 16.2504 30.583 16.4613 30.583 16.7101V24.625C30.583 24.9702 30.8628 25.25 31.208 25.25C31.5532 25.25 31.833 24.9702 31.833 24.625C31.833 24.3489 32.0569 24.125 32.333 24.125C32.6092 24.125 32.833 24.3489 32.833 24.625V29.125C32.833 29.4702 33.1128 29.75 33.458 29.75C33.8032 29.75 34.083 29.4702 34.083 29.125V17.4766C34.083 17.2686 34.2117 17.0824 34.4061 17.0089C34.6006 16.9353 34.8203 16.9898 34.9579 17.1457C35.6916 17.9769 36.7634 18.5 37.958 18.5C40.1671 18.5 41.958 16.7091 41.958 14.5C41.958 13.0065 41.1397 11.7035 39.9246 11.0159C39.7477 10.9158 39.649 10.7185 39.675 10.5169C39.6968 10.3479 39.708 10.1754 39.708 10C39.708 7.79086 37.9171 6 35.708 6ZM31.833 26.1255C31.6406 26.2057 31.4295 26.25 31.208 26.25C30.3105 26.25 29.583 25.5225 29.583 24.625V17.1219C27.6452 16.6456 26.208 14.8973 26.208 12.8125C26.208 10.3617 28.1947 8.375 30.6455 8.375C30.7559 8.375 30.8655 8.37904 30.974 8.387C31.6451 6.41721 33.5105 5 35.708 5C38.4694 5 40.708 7.23858 40.708 10C40.708 10.1064 40.7047 10.2122 40.6981 10.3171C42.0583 11.2098 42.958 12.7496 42.958 14.5C42.958 17.2614 40.7194 19.5 37.958 19.5C36.8879 19.5 35.8961 19.1635 35.083 18.5912V29.125C35.083 30.0225 34.3555 30.75 33.458 30.75C32.5605 30.75 31.833 30.0225 31.833 29.125V26.1255Z" fill="#555555"/>
<path fill-rule="evenodd" clip-rule="evenodd" d="M36.1141 11.2894C36.9709 10.9282 37.8467 10.9303 38.2683 10.972C38.543 10.9993 38.7437 11.2441 38.7165 11.5189C38.6893 11.7937 38.4444 11.9944 38.1696 11.9672C37.8448 11.935 37.1523 11.937 36.5025 12.2109C35.8809 12.4728 35.2857 12.9846 35.073 14.0347C35.0182 14.3054 34.7544 14.4804 34.4838 14.4256C34.2131 14.3708 34.0381 14.1069 34.0929 13.8363C34.3796 12.4205 35.2292 11.6623 36.1141 11.2894Z" fill="#555555"/>
<path fill-rule="evenodd" clip-rule="evenodd" d="M30.2629 9C30.2629 8.72386 30.4867 8.5 30.7629 8.5C31.506 8.5 32.1953 8.74733 32.775 9.16613C33.1476 9.43532 33.4746 9.77486 33.7444 10.1654C33.9014 10.3926 33.8445 10.704 33.6173 10.861C33.3902 11.018 33.0787 10.9611 32.9217 10.7339C32.7121 10.4306 32.4637 10.1749 32.1894 9.97672C31.7649 9.67002 31.2776 9.5 30.7629 9.5C30.4867 9.5 30.2629 9.27614 30.2629 9ZM28.8986 16.3676C29.0353 16.1277 29.3406 16.0439 29.5806 16.1806C29.9432 16.3872 30.3433 16.5 30.7629 16.5C31.039 16.5 31.2629 16.7239 31.2629 17C31.2629 17.2761 31.039 17.5 30.7629 17.5C30.1591 17.5 29.5896 17.3366 29.0856 17.0495C28.8457 16.9129 28.762 16.6076 28.8986 16.3676Z" fill="#555555"/>
</svg>
