<svg width="81" height="80" viewBox="0 0 81 80" fill="none" xmlns="http://www.w3.org/2000/svg">
<path d="M10 20C10 20 14.6897 23.1865 27 23.1865C39.3103 23.1865 44 20 44 20L40.819 59.8646C40.6876 61.5123 39.8725 63.0398 38.3752 63.7401C36.203 64.756 32.4337 66 27 66C21.5663 66 17.797 64.756 15.6248 63.7401C14.1275 63.0398 13.3124 61.5123 13.181 59.8646L10 20Z" fill="#F6FAFF"/>
<path d="M27.0002 38C27.0002 43.5 27.0002 45.5 27.0002 52.5C21.5004 52.5 16 52 12.2722 48.4732L11.1572 34.5C16 36.5 20 38 27.0002 38Z" fill="#D1DDFB"/>
<path fill-rule="evenodd" clip-rule="evenodd" d="M10.2804 19.5854L9.41895 19L12.6828 59.9039C12.8245 61.6791 13.711 63.3964 15.4132 64.1925C17.6464 65.2369 21.4876 66.4995 27.0003 66.4995C32.513 66.4995 36.3542 65.2369 38.5874 64.1925C40.2896 63.3964 41.1761 61.6791 41.3177 59.9039L44.5816 19L43.7204 19.5852L43.7193 19.5859L43.7134 19.5898C43.7068 19.5941 43.6956 19.6013 43.6797 19.6113C43.6478 19.6312 43.5969 19.6621 43.5264 19.7025C43.3854 19.7831 43.1657 19.9016 42.8615 20.0454C42.2532 20.3329 41.3067 20.722 39.9757 21.113C37.3142 21.8951 33.112 22.686 27.0003 22.686C20.8886 22.686 16.6864 21.8951 14.0249 21.113C12.6939 20.722 11.7473 20.3329 11.1391 20.0454C10.8349 19.9016 10.6152 19.7831 10.4742 19.7025C10.4037 19.6621 10.3528 19.6312 10.3209 19.6113C10.305 19.6013 10.2937 19.5941 10.2872 19.5898L10.2804 19.5854C10.2805 19.5854 10.2803 19.5853 10.2804 19.5854ZM43.4282 20.8826C43.3836 20.9043 43.3372 20.9266 43.2889 20.9494C42.6331 21.2594 41.6379 21.6669 40.2576 22.0725C37.4968 22.8837 33.199 23.686 27.0003 23.686C20.8016 23.686 16.5038 22.8837 13.743 22.0725C12.3627 21.6669 11.3675 21.2594 10.7117 20.9494C10.6634 20.9266 10.617 20.9043 10.5723 20.8826L13.6797 59.8243C13.801 61.3445 14.5445 62.6823 15.8369 63.2867C17.9483 64.2742 21.6456 65.4995 27.0003 65.4995C32.355 65.4995 36.0523 64.2742 38.1637 63.2867C39.4561 62.6823 40.1996 61.3445 40.3209 59.8243L43.4282 20.8826Z" fill="#555555"/>
<path d="M43.875 25.1773C43.3125 26.2601 36.3198 28 27 28C17.6802 28 10.6875 26.2593 10.125 25.1773C9.5625 24.0953 9.00012 23.5019 9 19.7024C11.9748 19.1113 22.7203 20.4022 27 20.4022C32.3347 20.4022 41.9076 18.3445 45 19.2145C45 22.0658 44.4375 24.0945 43.875 25.1773Z" fill="#D9D9D9"/>
<path fill-rule="evenodd" clip-rule="evenodd" d="M35.2164 20.1808C32.2841 20.5365 29.2678 20.9022 27 20.9022C25.3378 20.9022 22.7155 20.7101 19.969 20.5089C19.1417 20.4482 18.3031 20.3868 17.4761 20.3295C15.6808 20.2052 13.934 20.0999 12.453 20.0623C11.2203 20.031 10.2039 20.0479 9.50256 20.1307C9.52238 21.7455 9.65517 22.6844 9.83333 23.325C9.98414 23.8674 10.1649 24.1995 10.3808 24.596C10.4407 24.706 10.5032 24.8209 10.5686 24.9467L10.5687 24.9468C10.5702 24.949 10.6321 25.0343 10.8783 25.1757C11.1064 25.3067 11.4321 25.4519 11.857 25.6042C12.7048 25.9079 13.8958 26.221 15.3724 26.5034C18.3226 27.0674 22.3692 27.5001 27 27.5001C31.6308 27.5001 35.6774 27.0676 38.6276 26.5037C40.1042 26.2214 41.2952 25.9082 42.1429 25.6045C42.5679 25.4523 42.8935 25.307 43.1216 25.176C43.3712 25.0326 43.4313 24.9468 43.4313 24.9468C43.9226 24.0012 44.4468 22.1942 44.4962 19.6135C43.8093 19.4923 42.8418 19.4735 41.658 19.5325C40.2606 19.6021 38.6219 19.776 36.8993 19.9787C36.3455 20.0439 35.7825 20.1122 35.2164 20.1808ZM41.6082 18.5337C43.0257 18.4631 44.2765 18.4916 45.1354 18.7333C45.351 18.794 45.5 18.9906 45.5 19.2146C45.5 22.1232 44.9275 24.2359 44.3187 25.4079C44.178 25.6786 43.8966 25.884 43.6197 26.0431C43.3213 26.2145 42.9355 26.3828 42.4802 26.5459C41.5674 26.873 40.3222 27.1978 38.8154 27.4859C35.7987 28.0626 31.689 28.5001 27 28.5001C22.311 28.5001 18.2013 28.0624 15.1846 27.4856C13.6778 27.1975 12.4326 26.8726 11.5198 26.5456C11.0645 26.3825 10.6787 26.2142 10.3804 26.0429C10.1035 25.8839 9.82206 25.6786 9.68137 25.408C9.62985 25.3089 9.57602 25.2104 9.52104 25.1097C9.29705 24.6998 9.05391 24.2548 8.86988 23.5929C8.64139 22.7712 8.50006 21.6213 8.5 19.7025C8.49999 19.4639 8.66855 19.2586 8.90256 19.2121C9.70768 19.0521 10.989 19.0248 12.4783 19.0626C13.9825 19.1008 15.7474 19.2074 17.5452 19.3319C18.3902 19.3904 19.2412 19.4528 20.0763 19.5139C22.8127 19.7144 25.3781 19.9022 27 19.9022C29.2011 19.9022 32.1409 19.546 35.0763 19.1903C35.647 19.1212 36.2175 19.0521 36.7824 18.9856C38.5065 18.7827 40.1743 18.6052 41.6082 18.5337Z" fill="#555555"/>
<path fill-rule="evenodd" clip-rule="evenodd" d="M12.0422 14.3133C12.6152 13.0198 19.0936 12 27.001 12C34.9084 12 41.3867 13.0198 41.9598 14.3133C43.9202 15.694 45.001 17.0271 45.001 18.0255C45.001 18.0956 44.9928 18.1653 44.9765 18.2345L45.001 18.2411V22.1084C45.001 24.2577 36.9421 26 27.001 26C17.0598 26 9.00098 24.2577 9.00098 22.1084L9.00107 21.4418C9.00117 21.1634 9.00129 20.7983 9.00121 18.2426L9.02624 18.2379C9.00947 18.1676 9.00098 18.0968 9.00098 18.0255C9.00098 17.0271 10.0817 15.694 12.0422 14.3133Z" fill="white"/>
<path fill-rule="evenodd" clip-rule="evenodd" d="M12.7865 14.2688C12.571 14.4009 12.51 14.4918 12.4993 14.5158C12.4626 14.5986 12.4041 14.6699 12.3301 14.7221C11.3729 15.3962 10.6509 16.0448 10.1736 16.6291C9.68683 17.2249 9.50098 17.6964 9.50098 18.0255C9.50098 18.0567 9.50464 18.0886 9.5126 18.1219C9.53426 18.2128 9.52987 18.307 9.50122 18.3941C9.50129 20.8126 9.50116 21.1689 9.50107 21.4418M9.50107 21.4418L9.50098 22.1084C9.50098 22.1084 9.50098 22.1084 9.50098 22.1084C9.501 22.2093 9.54605 22.3548 9.72981 22.549C9.91578 22.7455 10.2149 22.9591 10.6431 23.178C11.4981 23.615 12.768 24.0232 14.3787 24.3715C17.5921 25.0662 22.055 25.5 27.001 25.5C31.947 25.5 36.4099 25.0662 39.6232 24.3715C41.234 24.0232 42.5039 23.615 43.3589 23.178C43.7871 22.9591 44.0862 22.7455 44.2721 22.549C44.4559 22.3548 44.501 22.2093 44.501 22.1084V18.3892C44.4735 18.305 44.4681 18.2126 44.4897 18.1203C44.4974 18.0876 44.501 18.0562 44.501 18.0255C44.501 17.6964 44.3151 17.2249 43.8283 16.6291C43.351 16.0448 42.6291 15.3962 41.6719 14.7221C41.5978 14.6699 41.5393 14.5986 41.5026 14.5158C41.492 14.4918 41.431 14.4009 41.2155 14.2688C41.0111 14.1435 40.7178 14.0116 40.3309 13.8792C39.5586 13.6151 38.4802 13.3718 37.1539 13.1656C34.506 12.7539 30.9362 12.5 27.001 12.5C23.0657 12.5 19.4959 12.7539 16.848 13.1656C15.5218 13.3718 14.4433 13.6151 13.6711 13.8792C13.2841 14.0116 12.9908 14.1435 12.7865 14.2688M8.50768 18.1622C8.50342 18.1885 8.50121 18.2153 8.50121 18.2426C8.50129 20.7981 8.50117 21.1632 8.50107 21.4415L8.50098 22.1083C8.50098 22.5447 8.70778 22.9239 9.00354 23.2364C9.29712 23.5466 9.7053 23.8217 10.1879 24.0684C11.1546 24.5625 12.5208 24.9929 14.1674 25.3489C17.4688 26.0626 22.0059 26.5 27.001 26.5C31.9961 26.5 36.5332 26.0626 39.8345 25.3489C41.4811 24.9929 42.8473 24.5625 43.814 24.0684C44.2966 23.8217 44.7048 23.5466 44.9984 23.2364C45.2942 22.9239 45.501 22.5448 45.501 22.1084V18.2411C45.501 18.2137 45.4987 18.1868 45.4944 18.1604C45.4988 18.1158 45.501 18.0708 45.501 18.0255C45.501 17.3562 45.1465 16.6619 44.6028 15.9964C44.0672 15.3409 43.3016 14.6562 42.343 13.9721C42.1982 13.7407 41.9726 13.5599 41.7381 13.4162C41.4476 13.2381 41.079 13.0782 40.6545 12.933C39.8038 12.6421 38.661 12.3879 37.3076 12.1775C34.5962 11.7559 30.9731 11.5 27.001 11.5C23.0288 11.5 19.4057 11.7559 16.6944 12.1775C15.341 12.3879 14.1982 12.6421 13.3475 12.933C12.923 13.0782 12.5543 13.2381 12.2638 13.4162C12.0294 13.5599 11.8038 13.7407 11.6589 13.9721C10.7003 14.6562 9.93473 15.3409 9.39919 15.9964C8.85549 16.6619 8.50098 17.3562 8.50098 18.0255C8.50098 18.0714 8.50323 18.117 8.50768 18.1622Z" fill="#555555"/>
<path fill-rule="evenodd" clip-rule="evenodd" d="M9.53346 18.8206C9.63259 18.5629 9.92189 18.4343 10.1796 18.5335C14.4119 20.1613 26.8722 22.4911 42.3759 18.5158C42.6434 18.4472 42.9159 18.6085 42.9845 18.8759C43.0531 19.1434 42.8918 19.4159 42.6243 19.4845C26.9281 23.5091 14.255 21.1723 9.82065 19.4668C9.56291 19.3677 9.43433 19.0784 9.53346 18.8206Z" fill="#D9D9D9"/>
<path fill-rule="evenodd" clip-rule="evenodd" d="M12.5366 15.8127C12.6401 15.5567 12.9315 15.4331 13.1875 15.5366C16.816 17.0034 27.531 19.1123 40.87 15.5174C41.1366 15.4455 41.411 15.6034 41.4829 15.87C41.5548 16.1366 41.3969 16.411 41.1302 16.4829C27.5893 20.1323 16.6509 18.0153 12.8127 16.4637C12.5567 16.3602 12.4331 16.0687 12.5366 15.8127Z" fill="#D9D9D9"/>
<path d="M45.875 26L68.375 26.9V30.5L45.875 29.6V26Z" fill="white"/>
<path fill-rule="evenodd" clip-rule="evenodd" d="M45.5286 25.6395C45.6267 25.5452 45.759 25.495 45.895 25.5004L68.395 26.4004C68.6631 26.4111 68.875 26.6316 68.875 26.9V30.5C68.875 30.6361 68.8195 30.7663 68.7214 30.8605C68.6233 30.9548 68.491 31.005 68.355 30.9996L45.855 30.0996C45.5869 30.0889 45.375 29.8684 45.375 29.6V26C45.375 25.8639 45.4305 25.7337 45.5286 25.6395ZM46.375 26.5204V29.1196L67.875 29.9796V27.3804L46.375 26.5204Z" fill="#555555"/>
<path d="M38 40.625L61.625 42.5341V72.125L38 69.2614V40.625Z" fill="#D1DDFB"/>
<path d="M61.625 51.875L38 49.625V59.75L61.625 62.5625V51.875Z" fill="white"/>
<path fill-rule="evenodd" clip-rule="evenodd" d="M37.661 40.2575C37.7636 40.1628 37.9011 40.1154 38.0403 40.1266L61.6653 42.0357C61.925 42.0567 62.125 42.2736 62.125 42.5341V72.125C62.125 72.2681 62.0637 72.4043 61.9566 72.4992C61.8495 72.5941 61.7069 72.6386 61.5648 72.6214L37.9398 69.7577C37.6888 69.7273 37.5 69.5142 37.5 69.2614V40.625C37.5 40.4854 37.5584 40.3521 37.661 40.2575ZM38.5 41.167V68.8183L61.125 71.5607V42.9953L38.5 41.167Z" fill="#555555"/>
<path d="M61.625 42.5051L74 37.25V64.4812L61.625 72.125V42.5051Z" fill="#F2F4FF"/>
<path fill-rule="evenodd" clip-rule="evenodd" d="M74.2759 36.833C74.4159 36.9256 74.5 37.0822 74.5 37.25V64.4812C74.5 64.6545 74.4102 64.8155 74.2628 64.9066L61.8878 72.5504C61.7335 72.6457 61.5398 72.65 61.3815 72.5617C61.2231 72.4734 61.125 72.3063 61.125 72.125V42.5051C61.125 42.3045 61.2449 42.1233 61.4296 42.0449L73.8046 36.7898C73.959 36.7242 74.136 36.7404 74.2759 36.833ZM62.125 42.836V71.2285L73.5 64.2023V38.0055L62.125 42.836Z" fill="#555555"/>
<path d="M45.5938 29.375L68.375 30.3393L61.7305 42.875L38 40.625L45.5938 29.375Z" fill="#D1DDFB"/>
<path fill-rule="evenodd" clip-rule="evenodd" d="M45.1793 29.0953C45.2765 28.9513 45.4414 28.8681 45.6149 28.8754L68.3961 29.8397C68.5676 29.847 68.7234 29.9417 68.8088 30.0906C68.8941 30.2395 68.8972 30.4218 68.8168 30.5735L62.1722 43.1092C62.0776 43.2878 61.8846 43.3919 61.6833 43.3728L37.9528 41.1228C37.7771 41.1061 37.6233 40.9981 37.5479 40.8385C37.4725 40.679 37.4869 40.4915 37.5856 40.3453L45.1793 29.0953ZM45.8518 29.8864L38.8856 40.2067L61.4451 42.3457L67.5621 30.8053L45.8518 29.8864Z" fill="#555555"/>
<path d="M68.2885 30.5L61.625 42.875L74 37.25L68.2885 30.5Z" fill="#D9D9D9"/>
<path fill-rule="evenodd" clip-rule="evenodd" d="M68.2365 30.0027C68.401 29.9855 68.5633 30.0508 68.6702 30.177L74.3817 36.927C74.4829 37.0466 74.5222 37.2067 74.4879 37.3596C74.4535 37.5124 74.3495 37.6404 74.2069 37.7052L61.8319 43.3302C61.6365 43.419 61.4063 43.3732 61.2598 43.2165C61.1132 43.0597 61.083 42.8269 61.1848 42.638L67.8482 30.263C67.9266 30.1173 68.072 30.0199 68.2365 30.0027ZM68.3808 31.3832L62.7685 41.806L73.1913 37.0684L68.3808 31.3832Z" fill="#555555"/>
<path d="M47.8448 34.2398C48.0466 33.9513 48.3852 33.7901 48.7364 33.8155L57.6481 34.4601C58.4224 34.5161 58.8403 35.3945 58.3955 36.0306L57.4057 37.446C57.2039 37.7346 56.8652 37.8958 56.514 37.8704L47.6023 37.2257C46.8281 37.1697 46.4101 36.2914 46.855 35.6552L47.8448 34.2398Z" fill="white"/>
</svg>
