<svg width="120" height="120" viewBox="0 0 120 120" fill="none" xmlns="http://www.w3.org/2000/svg">
<path d="M66.0371 85.8953C47.4621 80.9983 35.5299 62.689 39.0919 43.7468C42.8216 23.9137 62.1251 10.8972 82.2077 14.6737C102.29 18.4502 115.547 37.5897 111.817 57.4228C109.646 68.9705 102.195 78.2073 92.3839 83.1641L95.0644 96.4586L66.0371 85.8953Z" fill="#F2F4FF"/>
<path fill-rule="evenodd" clip-rule="evenodd" d="M82.1155 15.1657C101.932 18.8922 115.004 37.775 111.326 57.331C109.185 68.7179 101.838 77.828 92.1587 82.7183L91.8187 82.8901L94.3984 95.6846L66.1868 85.4181L66.1648 85.4123C47.8364 80.5804 36.0712 62.5172 39.5835 43.8398C43.261 24.2838 62.2985 11.4391 82.1155 15.1657ZM112.309 57.5158C116.091 37.4055 102.648 18.0093 82.3003 14.1829C61.9522 10.3564 42.3825 23.5447 38.6008 43.655C34.9903 62.8543 47.0788 81.4028 65.8877 86.3734L95.7308 97.2337L92.9492 83.4372C102.724 78.3736 110.132 69.0906 112.309 57.5158Z" fill="#555555"/>
<path fill-rule="evenodd" clip-rule="evenodd" d="M56 41.5C56 41.2239 56.2239 41 56.5 41H94.5C94.7761 41 95 41.2239 95 41.5C95 41.7761 94.7761 42 94.5 42H56.5C56.2239 42 56 41.7761 56 41.5Z" fill="#555555"/>
<path fill-rule="evenodd" clip-rule="evenodd" d="M56 59.5C56 59.2239 56.2239 59 56.5 59H94.5C94.7761 59 95 59.2239 95 59.5C95 59.7761 94.7761 60 94.5 60H56.5C56.2239 60 56 59.7761 56 59.5Z" fill="#555555"/>
<path fill-rule="evenodd" clip-rule="evenodd" d="M56 50.5C56 50.2239 56.2239 50 56.5 50H87.5C87.7761 50 88 50.2239 88 50.5C88 50.7761 87.7761 51 87.5 51H56.5C56.2239 51 56 50.7761 56 50.5Z" fill="#555555"/>
<path d="M39.0656 107.141C53.565 106.08 65 93.9344 65 79.1081C65 63.5844 52.464 51 37 51C21.536 51 9 63.5844 9 79.1081C9 88.1466 13.2498 96.1888 19.8529 101.331L16 111L39.0656 107.141Z" fill="white"/>
<path fill-rule="evenodd" clip-rule="evenodd" d="M37 51.5C21.814 51.5 9.5 63.8588 9.5 79.1081C9.5 87.9864 13.6738 95.8852 20.1601 100.936L20.4564 101.167L16.7931 110.36L39.006 106.644L39.0291 106.642C53.2676 105.6 64.5 93.6721 64.5 79.1081C64.5 63.8588 52.186 51.5 37 51.5ZM8.5 79.1081C8.5 63.3101 21.2581 50.5 37 50.5C52.7419 50.5 65.5 63.3101 65.5 79.1081C65.5 94.1887 53.8747 106.546 39.1253 107.638L15.2069 111.64L19.2503 101.492C12.6993 96.251 8.5 88.1714 8.5 79.1081Z" fill="#555555"/>
<path d="M33.7366 74.118C33.1191 75.353 31.6175 75.8535 30.3825 75.2361C29.1476 74.6186 28.647 73.1169 29.2645 71.882C29.8959 70.6191 30.8031 69.3758 32.1273 68.4507C33.4766 67.5079 35.1108 67 37.0005 67C41.1792 67 45.0005 70.5739 45.0005 75C45.0005 78.6256 42.3624 80.7784 40.4999 81.853C39.7934 82.2605 39.0981 82.5752 38.5005 82.811V84C38.5005 85.3807 37.3813 86.5 36.0005 86.5C34.6198 86.5 33.5005 85.3807 33.5005 84V81C33.5005 80.3204 33.7366 79 35.501 78.5C37.2351 78.0086 40.001 77.2639 40.001 74.5C40.001 71.7361 35.501 70.5893 33.7366 74.118Z" fill="#4267EB"/>
<path d="M39.001 92C39.001 93.6569 37.6578 95 36.001 95C34.3441 95 33.001 93.6569 33.001 92C33.001 90.3431 34.3441 89 36.001 89C37.6578 89 39.001 90.3431 39.001 92Z" fill="#4267EB"/>
</svg>
