<svg width="80" height="80" viewBox="0 0 80 80" fill="none" xmlns="http://www.w3.org/2000/svg">
<path d="M6 34C6 26.268 12.268 20 20 20H60C67.732 20 74 26.268 74 34V50C74 57.732 67.732 64 60 64H20C12.268 64 6 57.732 6 50V34Z" fill="#D9D9D9"/>
<path fill-rule="evenodd" clip-rule="evenodd" d="M5.5 34C5.5 25.9919 11.9919 19.5 20 19.5H60C68.0081 19.5 74.5 25.9919 74.5 34V50C74.5 58.0081 68.0081 64.5 60 64.5H20C11.9919 64.5 5.5 58.0081 5.5 50V34ZM20 20.5C12.5442 20.5 6.5 26.5442 6.5 34V50C6.5 57.4558 12.5442 63.5 20 63.5H60C67.4558 63.5 73.5 57.4558 73.5 50V34C73.5 26.5442 67.4558 20.5 60 20.5H20Z" fill="#555555"/>
<path fill-rule="evenodd" clip-rule="evenodd" d="M16 17C10.4772 17 6 21.4772 6 27V50C6 55.5228 10.4772 60 16 60H59.1707C59.5825 61.1652 60.6938 62 62 62C63.3192 62 64.4396 61.1485 64.8414 59.9651C69.9705 59.5378 74 55.2395 74 50V27C74 21.4772 69.5228 17 64 17H16Z" fill="white"/>
<path fill-rule="evenodd" clip-rule="evenodd" d="M16 17.5C10.7533 17.5 6.5 21.7533 6.5 27V50C6.5 55.2467 10.7533 59.5 16 59.5H59.5243L59.6421 59.8334C59.9856 60.805 60.9123 61.5 62 61.5C63.0986 61.5 64.0329 60.7911 64.3679 59.8043L64.4733 59.494L64.7999 59.4668C69.672 59.0609 73.5 54.9773 73.5 50V27C73.5 21.7533 69.2467 17.5 64 17.5H16ZM5.5 27C5.5 21.201 10.201 16.5 16 16.5H64C69.799 16.5 74.5 21.201 74.5 27V50C74.5 55.3953 70.4311 59.8397 65.1941 60.4328C64.6468 61.6509 63.4231 62.5 62 62.5C60.6032 62.5 59.3985 61.682 58.837 60.5H16C10.201 60.5 5.5 55.799 5.5 50V27Z" fill="#555555"/>
<path d="M23 16C23 15.4477 23.4477 15 24 15H56C56.5523 15 57 15.4477 57 16V61C57 61.5523 56.5523 62 56 62H24C23.4477 62 23 61.5523 23 61V16Z" fill="#F6FAFF"/>
<path fill-rule="evenodd" clip-rule="evenodd" d="M22.5 16C22.5 15.1716 23.1716 14.5 24 14.5H56C56.8284 14.5 57.5 15.1716 57.5 16V61C57.5 61.8284 56.8284 62.5 56 62.5H24C23.1716 62.5 22.5 61.8284 22.5 61V16ZM24 15.5C23.7239 15.5 23.5 15.7239 23.5 16V61C23.5 61.2761 23.7239 61.5 24 61.5H56C56.2761 61.5 56.5 61.2761 56.5 61V16C56.5 15.7239 56.2761 15.5 56 15.5H24Z" fill="#555555"/>
<path d="M23.3412 62.3414C23.2152 62.2154 23.3044 62 23.4826 62H56.5169C56.6951 62 56.7844 62.2154 56.6584 62.3414L54.2927 64.7071C54.1051 64.8946 53.8508 65 53.5856 65H26.414C26.1488 65 25.8944 64.8946 25.7069 64.7071L23.3412 62.3414Z" fill="#A8B1CE"/>
<path fill-rule="evenodd" clip-rule="evenodd" d="M22.9877 62.695C22.5467 62.254 22.859 61.5 23.4827 61.5H56.517C57.1406 61.5 57.4529 62.254 57.0119 62.695L54.6463 65.0607C54.365 65.342 53.9834 65.5 53.5856 65.5H26.414C26.0162 65.5 25.6347 65.342 25.3534 65.0607L22.9877 62.695ZM24.2069 62.5L26.0605 64.3536C26.1542 64.4473 26.2814 64.5 26.414 64.5H53.5856C53.7182 64.5 53.8454 64.4473 53.9392 64.3536L55.7927 62.5H24.2069Z" fill="#555555"/>
<path fill-rule="evenodd" clip-rule="evenodd" d="M28.5 46C28.5 45.7239 28.7239 45.5 29 45.5H51C51.2761 45.5 51.5 45.7239 51.5 46C51.5 46.2761 51.2761 46.5 51 46.5H29C28.7239 46.5 28.5 46.2761 28.5 46Z" fill="#A8B1CE"/>
<path fill-rule="evenodd" clip-rule="evenodd" d="M28.5 50C28.5 49.7239 28.7239 49.5 29 49.5H51C51.2761 49.5 51.5 49.7239 51.5 50C51.5 50.2761 51.2761 50.5 51 50.5H29C28.7239 50.5 28.5 50.2761 28.5 50Z" fill="#A8B1CE"/>
<path fill-rule="evenodd" clip-rule="evenodd" d="M28.5 54C28.5 53.7239 28.7239 53.5 29 53.5H42C42.2761 53.5 42.5 53.7239 42.5 54C42.5 54.2761 42.2761 54.5 42 54.5H29C28.7239 54.5 28.5 54.2761 28.5 54Z" fill="#A8B1CE"/>
<path fill-rule="evenodd" clip-rule="evenodd" d="M11.9844 22.4737C13.4209 21.2242 15.2851 20.5 17 20.5C17.2761 20.5 17.5 20.7239 17.5 21C17.5 21.2761 17.2761 21.5 17 21.5C15.5482 21.5 13.9124 22.122 12.6406 23.2282C11.3756 24.3286 10.5 25.8808 10.5 27.7308V49.6741C10.6621 50.5616 11.2464 52.0223 12.316 53.2614C13.392 54.508 14.9299 55.5 17 55.5C17.2761 55.5 17.5 55.7239 17.5 56C17.5 56.2761 17.2761 56.5 17 56.5C14.5701 56.5 12.7747 55.3232 11.559 53.9149C10.3534 52.5182 9.68913 50.8638 9.50719 49.8024C9.5024 49.7745 9.5 49.7463 9.5 49.7179V27.7308C9.5 25.5422 10.5411 23.7291 11.9844 22.4737Z" fill="#D9D9D9"/>
<path fill-rule="evenodd" clip-rule="evenodd" d="M68.0156 22.4737C66.5791 21.2242 64.7149 20.5 63 20.5C62.7239 20.5 62.5 20.7239 62.5 21C62.5 21.2761 62.7239 21.5 63 21.5C64.4518 21.5 66.0876 22.122 67.3594 23.2282C68.6244 24.3286 69.5 25.8808 69.5 27.7308V49.6741C69.3379 50.5616 68.7536 52.0223 67.684 53.2614C66.608 54.508 65.0701 55.5 63 55.5C62.7239 55.5 62.5 55.7239 62.5 56C62.5 56.2761 62.7239 56.5 63 56.5C65.4299 56.5 67.2253 55.3232 68.441 53.9149C69.6466 52.5182 70.3109 50.8638 70.4928 49.8024C70.4976 49.7745 70.5 49.7463 70.5 49.7179V27.7308C70.5 25.5422 69.4589 23.7291 68.0156 22.4737Z" fill="#D9D9D9"/>
<path d="M51 32C51 36.4183 46.299 40 40.5 40C34.701 40 30 36.4183 30 32C30 27.5817 34.701 24 40.5 24C46.299 24 51 27.5817 51 32Z" fill="#D1DDFB"/>
</svg>
