<svg width="80" height="80" viewBox="0 0 80 80" fill="none" xmlns="http://www.w3.org/2000/svg">
<path d="M33 15C33 13.8954 33.8954 13 35 13H62C63.1046 13 64 13.8954 64 15V68C64 68.5523 63.5523 69 63 69H34C33.4477 69 33 68.5523 33 68V15Z" fill="#D1DDFB"/>
<path d="M42 42C42 40.8954 42.8954 40 44 40H64V55H44C42.8954 55 42 54.1046 42 53V42Z" fill="white"/>
<path d="M50 34.5C50 33.6716 50.6716 33 51.5 33H62.5C63.3284 33 64 33.6716 64 34.5C64 35.3284 63.3284 36 62.5 36H51.5C50.6716 36 50 35.3284 50 34.5Z" fill="white"/>
<path fill-rule="evenodd" clip-rule="evenodd" d="M32.5 15C32.5 13.6193 33.6193 12.5 35 12.5H62C63.3807 12.5 64.5 13.6193 64.5 15V68C64.5 68.8284 63.8284 69.5 63 69.5H34C33.1716 69.5 32.5 68.8284 32.5 68V15ZM35 13.5C34.1716 13.5 33.5 14.1716 33.5 15V68C33.5 68.2761 33.7239 68.5 34 68.5H63C63.2761 68.5 63.5 68.2761 63.5 68V15C63.5 14.1716 62.8284 13.5 62 13.5H35Z" fill="#555555"/>
<path d="M40 7C40 6.44772 40.4477 6 41 6H56C56.5523 6 57 6.44772 57 7V13H40V7Z" fill="#F3F3F3"/>
<path d="M50.0559 9.31027C49.8819 9.16772 50.135 9 50.524 9H57V10H51.2211C51.0229 10 50.8417 9.95412 50.7531 9.88149L50.0559 9.31027Z" fill="#D9D9D9"/>
<path fill-rule="evenodd" clip-rule="evenodd" d="M39.5 7C39.5 6.17157 40.1716 5.5 41 5.5H56C56.8284 5.5 57.5 6.17157 57.5 7V13.5H39.5V7ZM41 6.5C40.7239 6.5 40.5 6.72386 40.5 7V12.5H56.5V7C56.5 6.72386 56.2761 6.5 56 6.5H41Z" fill="#555555"/>
<path d="M15 18.5C15 17.9477 15.4477 17.5 16 17.5H38.2415C38.7938 17.5 39.2415 17.9477 39.2415 18.5V19.8087L35.9172 64.1325C35.8389 65.1762 34.9693 65.983 33.9228 65.983H20.3187C19.2721 65.983 18.4026 65.1762 18.3243 64.1325L15 19.8087V18.5Z" fill="#F6FAFF"/>
<path fill-rule="evenodd" clip-rule="evenodd" d="M14.5 18.5C14.5 17.6716 15.1716 17 16 17H38.2415C39.0699 17 39.7415 17.6716 39.7415 18.5V19.8274L36.4158 64.1699C36.318 65.4744 35.231 66.483 33.9228 66.483H20.3187C19.0105 66.483 17.9235 65.4744 17.8257 64.1699L14.5 19.8274V18.5ZM16 18C15.7239 18 15.5 18.2239 15.5 18.5V19.79L18.8229 64.0951C18.8816 64.8779 19.5338 65.483 20.3187 65.483H33.9228C34.7077 65.483 35.3599 64.8779 35.4186 64.0951L38.7415 19.79V18.5C38.7415 18.2239 38.5176 18 38.2415 18H16Z" fill="#555555"/>
<path fill-rule="evenodd" clip-rule="evenodd" d="M16.8086 20.9648C16.8086 20.6887 17.0325 20.4648 17.3086 20.4648H36.9326C37.2088 20.4648 37.4326 20.6887 37.4326 20.9648C37.4326 21.241 37.2088 21.4648 36.9326 21.4648H17.3086C17.0325 21.4648 16.8086 21.241 16.8086 20.9648Z" fill="#C1C1C1"/>
<path fill-rule="evenodd" clip-rule="evenodd" d="M22.5 52C22.5 51.7239 22.7239 51.5 23 51.5L31 51.5C31.2761 51.5 31.5 51.7239 31.5 52C31.5 52.2761 31.2761 52.5 31 52.5L23 52.5C22.7239 52.5 22.5 52.2761 22.5 52Z" fill="#A8B1CE"/>
<path d="M20.7715 65.9844H33.4694V71.9105C33.4694 72.4628 33.0217 72.9105 32.4694 72.9105H21.7715C21.2192 72.9105 20.7715 72.4628 20.7715 71.9105V65.9844Z" fill="white"/>
<path d="M21 69H25.5418C25.882 69 26.1032 69.1694 25.9511 69.3134L25.3522 69.8803C25.2747 69.9537 25.1163 70 24.943 70H21V69Z" fill="#D9D9D9"/>
<path fill-rule="evenodd" clip-rule="evenodd" d="M20.2715 65.4844H33.9694V71.9105C33.9694 72.7389 33.2978 73.4105 32.4694 73.4105H21.7715C20.9431 73.4105 20.2715 72.7389 20.2715 71.9105V65.4844ZM21.2715 66.4844V71.9105C21.2715 72.1867 21.4953 72.4105 21.7715 72.4105H32.4694C32.7455 72.4105 32.9694 72.1867 32.9694 71.9105V66.4844H21.2715Z" fill="#555555"/>
<path d="M33.4694 38.8568C33.4694 42.3632 30.6269 45.2057 27.1204 45.2057C23.614 45.2057 20.7715 42.3632 20.7715 38.8568C20.7715 35.3503 23.614 32.5078 27.1204 32.5078C30.6269 32.5078 33.4694 35.3503 33.4694 38.8568Z" fill="#D1DDFB"/>
<path fill-rule="evenodd" clip-rule="evenodd" d="M22.5 50C22.5 49.7239 22.7239 49.5 23 49.5H31C31.2761 49.5 31.5 49.7239 31.5 50C31.5 50.2761 31.2761 50.5 31 50.5H23C22.7239 50.5 22.5 50.2761 22.5 50Z" fill="#A8B1CE"/>
</svg>
