<svg width="80" height="80" viewBox="0 0 80 80" fill="none" xmlns="http://www.w3.org/2000/svg">
<path d="M45 5.87234L35.2102 2C23.6683 12.6213 24.2182 23.7589 25.9359 28H32.6339C30.5729 14.2809 40.0192 7.53191 45 5.87234Z" fill="white"/>
<path fill-rule="evenodd" clip-rule="evenodd" d="M34.8717 1.63209C35.0129 1.50221 35.2159 1.46451 35.3942 1.53506L45.1841 5.4074C45.3795 5.48471 45.5057 5.676 45.5 5.88611C45.4942 6.09621 45.3576 6.28027 45.1582 6.34671C40.3234 7.95764 31.1154 14.5254 33.1285 27.9257C33.1501 28.0697 33.1079 28.2159 33.013 28.3262C32.918 28.4366 32.7796 28.5 32.634 28.5H25.936C25.7324 28.5 25.549 28.3765 25.4726 28.1877C23.6737 23.7462 23.1823 12.3891 34.8717 1.63209ZM35.3193 2.5808C24.4405 12.7414 24.7508 23.2614 26.2801 27.5H32.0593C30.4289 14.8777 38.4169 8.14338 43.6278 5.86721L35.3193 2.5808Z" fill="#555555"/>
<path fill-rule="evenodd" clip-rule="evenodd" d="M32.5841 4.2227C32.7373 3.99294 33.0477 3.93085 33.2775 4.08403L34.7775 5.08403C35.0072 5.2372 35.0693 5.54764 34.9161 5.7774C34.763 6.00717 34.4525 6.06925 34.2228 5.91608L32.7228 4.91608C32.493 4.7629 32.4309 4.45247 32.5841 4.2227ZM30.5841 6.2227C30.7373 5.99294 31.0477 5.93085 31.2775 6.08403L32.7775 7.08403C33.0072 7.2372 33.0693 7.54764 32.9161 7.7774C32.763 8.00717 32.4525 8.06925 32.2228 7.91608L30.7228 6.91608C30.493 6.7629 30.4309 6.45247 30.5841 6.2227ZM29.0841 8.7227C29.2373 8.49294 29.5477 8.43085 29.7775 8.58403L31.2775 9.58403C31.5072 9.7372 31.5693 10.0476 31.4161 10.2774C31.263 10.5072 30.9525 10.5693 30.7228 10.4161L29.2228 9.41608C28.993 9.2629 28.9309 8.95247 29.0841 8.7227ZM27.5841 11.2227C27.7373 10.9929 28.0477 10.9309 28.2775 11.084L29.7775 12.084C30.0072 12.2372 30.0693 12.5476 29.9161 12.7774C29.763 13.0072 29.4525 13.0693 29.2228 12.9161L27.7228 11.9161C27.493 11.7629 27.4309 11.4525 27.5841 11.2227ZM26.5529 14.2764C26.6764 14.0295 26.9767 13.9293 27.2237 14.0528L28.2237 14.5528C28.4707 14.6763 28.5708 14.9767 28.4473 15.2237C28.3238 15.4706 28.0235 15.5708 27.7765 15.4473L26.7765 14.9473C26.5295 14.8238 26.4294 14.5234 26.5529 14.2764ZM25.5529 16.7764C25.6764 16.5295 25.9767 16.4293 26.2237 16.5528L27.2237 17.0528C27.4707 17.1763 27.5708 17.4767 27.4473 17.7237C27.3238 17.9706 27.0235 18.0708 26.7765 17.9473L25.7765 17.4473C25.5295 17.3238 25.4294 17.0234 25.5529 16.7764Z" fill="#555555"/>
<path d="M54 38C63.1 39.3091 66.4583 43.8182 67 46.1818C66.4583 47.8182 66.4583 48.3636 65.375 50C64.2917 48.9091 59.4167 45.0909 54 44.5455V38Z" fill="#D9D9D9"/>
<path fill-rule="evenodd" clip-rule="evenodd" d="M53.5 37.4219L54.0712 37.504C63.3042 38.8323 66.8852 43.4416 67.4874 46.0691L67.5186 46.2053L67.4747 46.3379C67.3615 46.6799 67.2714 46.9777 67.1887 47.2513C66.8854 48.2544 66.6801 48.9334 65.7919 50.275L65.4529 50.787L65.0202 50.3513C64.5153 49.8428 63.0633 48.6419 61.0647 47.5014C59.0676 46.3618 56.5635 45.3051 53.9499 45.0419L53.5 44.9966V37.4219ZM54.5 38.5815V44.0995C57.1351 44.4501 59.6058 45.5175 61.5603 46.6329C63.2135 47.5762 64.5223 48.5682 65.275 49.225C65.8135 48.3381 65.9709 47.8189 66.2206 46.9947C66.2948 46.7498 66.3771 46.478 66.48 46.1617C65.9144 44.0621 62.8526 39.9437 54.5 38.5815Z" fill="#555555"/>
<path d="M20 23C20 20.7909 21.7909 19 24 19H53C55.2091 19 57 20.7909 57 23V59C57 61.2091 55.2091 63 53 63H24C21.7909 63 20 61.2091 20 59V23Z" fill="white"/>
<path fill-rule="evenodd" clip-rule="evenodd" d="M19.5 23C19.5 20.5147 21.5147 18.5 24 18.5H53C55.4853 18.5 57.5 20.5147 57.5 23V59C57.5 61.4853 55.4853 63.5 53 63.5H24C21.5147 63.5 19.5 61.4853 19.5 59V23ZM24 19.5C22.067 19.5 20.5 21.067 20.5 23V59C20.5 60.933 22.067 62.5 24 62.5H53C54.933 62.5 56.5 60.933 56.5 59V23C56.5 21.067 54.933 19.5 53 19.5H24Z" fill="#555555"/>
<path d="M17.457 76.8266C15.484 76.4661 12.0762 70.8776 11 65.4694C23.2668 66.4364 38.9632 66.1828 49.7421 62.2245C58.2543 59.0987 65.3466 51.9837 66.9609 46C67.499 54.1123 62.3852 62.0998 57.8134 65.4694C41.6709 77.3674 23.9141 77.3674 17.457 76.8266Z" fill="white"/>
<path fill-rule="evenodd" clip-rule="evenodd" d="M67.0101 45.5025C67.2534 45.5265 67.4436 45.723 67.4598 45.9669C67.7363 50.1361 66.5605 54.2522 64.7471 57.7437C62.9349 61.2327 60.4667 64.135 58.1101 65.872C41.8279 77.8729 23.9278 77.8704 17.4153 77.3249C17.3992 77.3235 17.3831 77.3214 17.3671 77.3185C16.7059 77.1977 16.0286 76.675 15.4012 76.0012C14.7548 75.3071 14.089 74.3728 13.4601 73.2925C12.2024 71.132 11.0597 68.3312 10.5096 65.567C10.4791 65.4134 10.5222 65.2544 10.6263 65.1373C10.7303 65.0203 10.8832 64.9587 11.0393 64.971C23.2917 65.9369 38.8972 65.6744 49.5698 61.7552C53.756 60.218 57.5989 57.6967 60.5919 54.8233C63.5909 51.9442 65.7025 48.7449 66.4781 45.8698C66.5418 45.6338 66.7668 45.4784 67.0101 45.5025ZM61.2845 55.5447C58.1998 58.5062 54.2404 61.1054 49.9145 62.6939C39.226 66.6189 23.8112 66.926 11.6302 66.0192C12.1965 68.4516 13.2144 70.8827 14.3243 72.7894C14.9285 73.8272 15.5519 74.6957 16.133 75.3198C16.7204 75.9505 17.2008 76.262 17.526 76.3307C23.95 76.8645 41.5365 76.8454 57.5168 65.067C59.732 63.4342 62.1066 60.6579 63.8597 57.2827C65.2059 54.6908 66.1743 51.7677 66.4319 48.7636C65.2948 51.0699 63.5079 53.4101 61.2845 55.5447Z" fill="#555555"/>
<path d="M25 26C25 24.8954 25.8954 24 27 24H50C51.1046 24 52 24.8954 52 26V37C52 38.1046 51.1046 39 50 39H27C25.8954 39 25 38.1046 25 37V26Z" fill="#A8B1CE"/>
<path d="M25 43C25 42.4477 25.4477 42 26 42H36C36.5523 42 37 42.4477 37 43V48C37 48.5523 36.5523 49 36 49H26C25.4477 49 25 48.5523 25 48V43Z" fill="#D1DDFB"/>
<path d="M25 52C25 51.4477 25.4477 51 26 51H36C36.5523 51 37 51.4477 37 52V56C37 56.5523 36.5523 57 36 57H26C25.4477 57 25 56.5523 25 56V52Z" fill="#D1DDFB"/>
<path d="M40 43C40 42.4477 40.4477 42 41 42H51C51.5523 42 52 42.4477 52 43V48C52 48.5523 51.5523 49 51 49H41C40.4477 49 40 48.5523 40 48V43Z" fill="#D1DDFB"/>
<path d="M40 52C40 51.4477 40.4477 51 41 51H51C51.5523 51 52 51.4477 52 52V56C52 56.5523 51.5523 57 51 57H41C40.4477 57 40 56.5523 40 56V52Z" fill="#D1DDFB"/>
<path d="M42.4512 37L43.8594 35.6013H47.2363L48.5625 37H42.4512ZM42.041 31.7202L43.5176 33.0671V35.1609L42.041 36.4301V31.7202ZM49 36.4301L47.5234 35.0962V32.9894L49 31.7202V36.4301ZM42.4375 26H48.5488L47.1953 27.3987H43.8457L42.4375 26ZM42 31.2669V26.5569L43.4766 27.8132V29.9458L42 31.2669ZM48.959 26.5569V31.2669L47.4824 30.0106V27.8909L48.959 26.5569Z" fill="white"/>
<path fill-rule="evenodd" clip-rule="evenodd" d="M58.6466 56.6464C58.8418 56.4512 59.1584 56.4512 59.3537 56.6464L59.8537 57.1464C60.0489 57.3417 60.0489 57.6583 59.8537 57.8536C59.6584 58.0488 59.3418 58.0488 59.1466 57.8536L58.6466 57.3536C58.4513 57.1583 58.4513 56.8417 58.6466 56.6464ZM56.7765 58.0528C57.0235 57.9293 57.3238 58.0294 57.4473 58.2764L57.9473 59.2764C58.0708 59.5234 57.9707 59.8237 57.7237 59.9472C57.4767 60.0707 57.1764 59.9706 57.0529 59.7236L56.5529 58.7236C56.4294 58.4766 56.5295 58.1763 56.7765 58.0528ZM54.2765 60.0528C54.5235 59.9293 54.8238 60.0294 54.9473 60.2764L55.4473 61.2764C55.5708 61.5234 55.4707 61.8237 55.2237 61.9472C54.9767 62.0707 54.6764 61.9706 54.5529 61.7236L54.0529 60.7236C53.9294 60.4766 54.0295 60.1763 54.2765 60.0528ZM51.7765 61.0528C52.0235 60.9293 52.3238 61.0294 52.4473 61.2764L52.9473 62.2764C53.0708 62.5234 52.9707 62.8237 52.7237 62.9472C52.4767 63.0707 52.1764 62.9706 52.0529 62.7236L51.5529 61.7236C51.4294 61.4766 51.5295 61.1763 51.7765 61.0528ZM49.2765 62.0528C49.5235 61.9293 49.8238 62.0294 49.9473 62.2764L50.4473 63.2764C50.5708 63.5234 50.4707 63.8237 50.2237 63.9472C49.9767 64.0707 49.6764 63.9706 49.5529 63.7236L49.0529 62.7236C48.9294 62.4766 49.0295 62.1763 49.2765 62.0528ZM46.2765 63.0528C46.5235 62.9293 46.8238 63.0294 46.9473 63.2764L47.4473 64.2764C47.5708 64.5234 47.4707 64.8237 47.2237 64.9472C46.9767 65.0707 46.6764 64.9706 46.5529 64.7236L46.0529 63.7236C45.9294 63.4766 46.0295 63.1763 46.2765 63.0528ZM42.7765 64.0528C43.0235 63.9293 43.3238 64.0294 43.4473 64.2764L44.0986 65.4873C44.2221 65.7343 44.122 66.0346 43.875 66.1581C43.628 66.2816 43.3277 66.1815 43.2042 65.9345L42.5529 64.7236C42.4294 64.4766 42.5295 64.1763 42.7765 64.0528ZM39.342 64.5257C39.604 64.4383 39.8871 64.5799 39.9745 64.8419L40.8162 66.3675C40.9036 66.6295 40.762 66.9127 40.5 67C40.238 67.0873 39.9549 66.9457 39.8675 66.6838L39.0258 65.1581C38.9385 64.8961 39.08 64.613 39.342 64.5257ZM35.842 65.0257C36.104 64.9383 36.3871 65.0799 36.4745 65.3419L37.16 67.0075C37.2473 67.2695 37.1057 67.5526 36.8438 67.6399C36.5818 67.7273 36.2986 67.5857 36.2113 67.3237L35.5258 65.6581C35.4385 65.3961 35.58 65.113 35.842 65.0257ZM31.842 65.5257C32.104 65.4383 32.3871 65.5799 32.4745 65.8419L33.0506 67.6399C33.1379 67.9019 32.9963 68.1851 32.7344 68.2724C32.4724 68.3597 32.1892 68.2181 32.1019 67.9562L31.5258 66.1581C31.4385 65.8961 31.58 65.613 31.842 65.5257ZM15.8789 65.5149C16.1467 65.448 16.4182 65.6108 16.4852 65.8787L17.3638 68.3937C17.4308 68.6616 17.2679 68.933 17 69C16.7321 69.067 16.4606 68.9041 16.3937 68.6362L15.515 66.1213C15.4481 65.8534 15.611 65.5819 15.8789 65.5149ZM19.8789 65.5149C20.1467 65.448 20.4182 65.6108 20.4852 65.8787L21.1372 68.1511C21.2042 68.419 21.0413 68.6905 20.7734 68.7575C20.5055 68.8244 20.2341 68.6616 20.1671 68.3937L19.515 66.1213C19.4481 65.8534 19.611 65.5819 19.8789 65.5149ZM23.3789 65.5149C23.6467 65.448 23.9182 65.6108 23.9852 65.8787L24.6294 68.0299C24.6964 68.2978 24.5335 68.5692 24.2656 68.6362C23.9977 68.7032 23.7263 68.5403 23.6593 68.2724L23.015 66.1213C22.9481 65.8534 23.111 65.5819 23.3789 65.5149ZM27.8788 65.5149C28.1467 65.448 28.4182 65.6108 28.4852 65.8787L29.0982 68.0299C29.1652 68.2978 29.0023 68.5692 28.7344 68.6362C28.4665 68.7032 28.195 68.5403 28.128 68.2724L27.515 66.1213C27.4481 65.8534 27.611 65.5819 27.8788 65.5149Z" fill="#555555"/>
</svg>
