<svg width="120" height="120" viewBox="0 0 120 120" fill="none" xmlns="http://www.w3.org/2000/svg">
<path d="M62.9512 26.3438L87.2646 41.7798L83.7452 71.6506L59.5793 54.9619L62.9512 26.3438Z" fill="#F2F4FF"/>
<path fill-rule="evenodd" clip-rule="evenodd" d="M62.736 25.8926C62.8913 25.8188 63.0736 25.8299 63.2187 25.922L87.5322 41.358C87.6944 41.461 87.7833 41.6478 87.7608 41.8387L84.2413 71.7095C84.2208 71.8836 84.1105 72.0343 83.9507 72.1066C83.7909 72.1788 83.6049 72.162 83.4606 72.0624L59.2947 55.3737C59.1424 55.2685 59.0606 55.0877 59.0823 54.9038L62.4542 26.2856C62.4743 26.1149 62.5807 25.9664 62.736 25.8926ZM63.3542 27.1926L60.1107 54.7219L83.3454 70.7675L86.7309 42.0338L63.3542 27.1926Z" fill="#555555"/>
<path d="M69.1362 45.3702C69.0139 44.5846 68.8139 44.3436 68.3301 43.8892L68.3516 43.714L71.8539 45.9884L71.8323 46.1636C71.3385 45.9202 71.1163 45.8705 71.0811 46.1617C71.0726 46.2356 71.0746 46.3301 71.0878 46.4485L71.7067 51.3413L71.7575 51.3743L73.0626 48.5946C73.206 48.2804 73.2602 48.0484 73.2715 47.9446C73.3256 47.493 73.1018 47.113 72.505 46.6004L72.5265 46.4252L74.9682 48.0109L74.9477 48.1867C74.3907 47.9023 73.8561 47.8866 73.5948 48.4058L71.3229 53.0244L70.151 52.2634L69.3904 47.0894L67.4845 50.5318L66.3384 49.7874L65.1614 42.789C65.0251 42.008 64.8263 41.754 64.2692 41.252L64.2902 41.0765L67.854 43.3909L67.8336 43.5668C67.3637 43.339 67.1416 43.2893 67.1081 43.5664C67.1001 43.6393 67.111 43.7727 67.1254 43.8752L67.8895 48.9107L67.9393 48.9431L69.3175 46.5712L69.1362 45.3702Z" fill="#4267EB"/>
<path d="M72.7927 53.6952C73.4916 54.1339 73.6451 54.0762 73.6872 53.7273L74.7096 45.0165C74.7614 44.58 74.6669 44.2356 73.9082 43.7263L73.9287 43.5525L76.7531 45.1983L76.1608 50.2448C76.7855 49.7261 77.6862 49.698 78.4835 50.2157C79.5922 50.9357 79.9876 52.0251 79.8232 53.4254L79.3566 57.409C79.3157 57.7587 79.4233 57.986 80.1434 58.4688L80.1229 58.6447L76.7347 56.4443L76.7551 56.2684C77.1924 56.5372 77.3957 56.5118 77.4378 56.1629L77.9031 52.193C77.9924 51.4343 77.7714 50.8047 77.2106 50.4406C76.8237 50.1893 76.491 50.2874 76.1256 50.5375L75.6061 54.9734C75.5651 55.323 75.7348 55.5906 76.1686 55.8875L76.1482 56.0634L72.7722 53.8711L72.7927 53.6952Z" fill="#4267EB"/>
<path d="M82.157 48.7076L79.3326 47.0625L79.3124 47.2317C79.3398 47.2495 79.3653 47.275 79.3921 47.2932C79.484 47.3576 79.5744 47.4274 79.6633 47.5031C80.6975 48.3846 81.52 50.0129 81.5647 51.3696C81.5677 51.4585 81.558 51.5295 81.5586 51.6141L81.7973 51.7692L82.157 48.7076Z" fill="#4267EB"/>
<path d="M79.312 47.2356C79.3422 47.2559 79.3641 47.2729 79.3921 47.2932C79.3653 47.275 79.3398 47.2495 79.3124 47.2317L79.312 47.2356Z" fill="#4267EB"/>
<path d="M77.8785 76.6356C74.4637 77.814 62.815 77.9295 57.4175 77.8399L56.1308 87.6902L84.1754 88.4833L93.4867 77.5495C93.8881 77.3222 94.1806 76.6534 92.1392 75.7962C90.0978 74.9391 88.3951 75.6094 87.799 76.0517C87.7751 75.6458 87.2241 74.7415 85.2114 74.3712C82.6954 73.9084 82.147 75.1625 77.8785 76.6356Z" fill="#F5F5F5"/>
<path fill-rule="evenodd" clip-rule="evenodd" d="M81.622 75.6046C80.7692 76.0157 79.6577 76.5516 78.0418 77.1092C77.1298 77.424 75.7118 77.6563 74.0526 77.8317C72.3813 78.0084 70.4247 78.1311 68.4122 78.2138C64.6016 78.3704 60.5706 78.3846 57.8558 78.3475L56.6985 87.2071L83.9503 87.9777L93.1063 77.2263C93.1442 77.1818 93.1897 77.1442 93.2406 77.1154C93.2511 77.1094 93.2594 77.1037 93.2656 77.0988C93.2415 77.0518 93.1687 76.9491 92.9709 76.8033C92.7599 76.6477 92.4339 76.4632 91.9458 76.2582C90.089 75.4786 88.5714 76.1023 88.0971 76.4542C87.9496 76.5637 87.754 76.5834 87.5876 76.5057C87.4212 76.428 87.3108 76.2654 87.3 76.0821C87.3 76.0821 87.3 76.0818 87.3 76.0813L87.2997 76.0789C87.2994 76.0767 87.2989 76.0737 87.2981 76.0697C87.2965 76.0616 87.2937 76.0504 87.289 76.0363C87.2796 76.0078 87.2633 75.9696 87.2364 75.9236C87.1826 75.8318 87.0889 75.7131 86.9333 75.5851C86.6223 75.3289 86.0666 75.0379 85.1211 74.864C84.5374 74.7566 84.0896 74.7524 83.6836 74.8173C83.2739 74.8829 82.8817 75.0227 82.4062 75.235C82.1679 75.3414 81.9097 75.4659 81.622 75.6046ZM83.5257 73.8299C84.0635 73.7438 84.6277 73.7564 85.302 73.8805C86.7953 74.1552 87.6595 74.7432 88.0489 75.3319C88.9687 74.9016 90.5413 74.5839 92.3329 75.3362C92.8656 75.5599 93.2685 75.7803 93.5643 75.9984C93.8563 76.2136 94.0734 76.4483 94.1876 76.7104C94.3099 76.9912 94.3002 77.2751 94.1834 77.5179C94.0939 77.7039 93.955 77.8397 93.818 77.9329L84.5563 88.8085C84.4581 88.9238 84.3129 88.9884 84.1615 88.9841L56.1168 88.191C55.9755 88.187 55.8424 88.1233 55.7506 88.0157C55.6588 87.9081 55.6169 87.7667 55.6352 87.6265L56.922 77.7761C56.9549 77.524 57.1718 77.3367 57.426 77.3409C60.1176 77.3856 64.3693 77.3791 68.3712 77.2147C70.3724 77.1324 72.3056 77.0109 73.9475 76.8373C75.6016 76.6624 76.9202 76.4384 77.7156 76.1639C79.2701 75.6275 80.3035 75.1293 81.1504 74.7211C81.4517 74.5759 81.7294 74.442 81.9985 74.3219C82.5082 74.0943 82.9916 73.9153 83.5257 73.8299Z" fill="#555555"/>
<path d="M115.531 32.5352L87.265 41.7761L83.7455 71.6469L112.159 61.1533L115.531 32.5352Z" fill="#F6FAFF"/>
<path fill-rule="evenodd" clip-rule="evenodd" d="M115.848 32.1488C115.716 32.0408 115.538 32.0075 115.375 32.0605L87.1092 41.3014C86.924 41.3619 86.7908 41.5246 86.768 41.7181L83.2486 71.5889C83.2282 71.7617 83.2991 71.9326 83.4357 72.0402C83.5724 72.1478 83.7552 72.1767 83.9183 72.1164L112.332 61.6229C112.509 61.5578 112.634 61.3991 112.656 61.2124L116.027 32.5942C116.047 32.4248 115.98 32.2569 115.848 32.1488ZM114.943 33.254L111.698 60.791L84.3371 70.8958L87.7238 42.1525L114.943 33.254Z" fill="#555555"/>
<path d="M91.1373 18.1635L115.565 32.2551L87.1429 41.7344L62.985 26.06L91.1373 18.1635Z" fill="white"/>
<path fill-rule="evenodd" clip-rule="evenodd" d="M91.0019 17.6824C91.1314 17.6461 91.2702 17.6635 91.3867 17.7307L115.814 31.8224C115.985 31.9208 116.082 32.11 116.062 32.3058C116.042 32.5016 115.909 32.6676 115.722 32.7298L87.3006 42.2091C87.1563 42.2573 86.9979 42.2371 86.8703 42.1543L62.7124 26.4798C62.5476 26.3729 62.4607 26.1794 62.4902 25.9852C62.5198 25.7909 62.6604 25.632 62.8495 25.579L91.0019 17.6824ZM64.1847 26.2431L87.2126 41.1843L114.351 32.133L91.0693 18.7021L64.1847 26.2431Z" fill="#555555"/>
<path d="M41.0628 65.4818C32.532 67.4211 21.1081 73.2453 18.2572 75.8085L23.1112 97.0784C24.4484 99.398 30.4599 91.3761 32.4025 91.7408C34.8307 92.1967 54.4005 93.3704 63.125 93.5256C70.9376 93.6647 84.7684 90.6548 90.4346 88.3252L103.14 79.7924C105.463 78.458 105.724 74.7297 100.431 74.5622C95.1378 74.3946 87.9369 79.8887 85.262 82.0423L66.6103 81.3435C62.0681 78.9693 56.9549 74.3746 60.7342 73.3067C66.6116 71.1654 79.105 69.2329 81.3576 66.7049C83.6102 64.1769 79.2468 61.4423 75.0588 61.686C72.3839 61.8417 63.7267 62.949 58.9405 63.2307C54.1544 63.5124 51.7262 63.0576 41.0628 65.4818Z" fill="white"/>
<path fill-rule="evenodd" clip-rule="evenodd" d="M67.8448 62.9093C64.7504 63.2405 61.3773 63.5892 58.9701 63.7308C57.997 63.7881 57.1234 63.8151 56.2608 63.8417C52.864 63.9466 49.6378 64.0462 41.1738 65.9704C36.9572 66.929 32.0049 68.8537 27.7436 70.8644C23.6796 72.7819 20.3093 74.7469 18.8118 75.9914L23.5796 96.8839C23.6467 96.9749 23.7177 97 23.8205 97.0011C23.9896 97.003 24.2512 96.929 24.6175 96.7322C25.3421 96.3429 26.2389 95.6071 27.2012 94.767C27.4414 94.5574 27.6852 94.3415 27.9298 94.1251C28.6434 93.4935 29.363 92.8567 30.0132 92.3529C30.4512 92.0135 30.8794 91.717 31.2735 91.5161C31.6494 91.3245 32.0824 91.1729 32.495 91.2504C33.0686 91.3581 34.7144 91.5152 37.0387 91.6927C39.3473 91.8689 42.2907 92.063 45.4322 92.2478C51.7169 92.6176 58.7823 92.9493 63.1341 93.0267C66.9871 93.0953 72.357 92.3856 77.487 91.3618C82.5889 90.3437 87.4017 89.0253 90.1982 87.8828L102.861 79.3783C102.871 79.3718 102.881 79.3656 102.891 79.3598C103.909 78.7753 104.39 77.7184 104.159 76.8725C103.939 76.0687 102.974 75.1439 100.415 75.0629C97.9182 74.9839 94.8998 76.2506 92.1156 77.8653C89.3522 79.4681 86.9063 81.3615 85.5758 82.4328C85.4819 82.5083 85.3639 82.5475 85.2435 82.543L66.5918 81.8442C66.5175 81.8414 66.4448 81.8221 66.3789 81.7877C64.0738 80.5828 61.6025 78.8057 60.1747 77.1644C59.4767 76.3622 58.9442 75.4988 58.9197 74.6953C58.9066 74.2665 59.039 73.8605 59.3469 73.5245C59.6405 73.2041 60.0629 72.9803 60.5803 72.8318C62.7873 72.0295 65.9119 71.2556 69.0538 70.4774C70.1398 70.2085 71.2278 69.939 72.2807 69.6676C74.3481 69.1349 76.2855 68.5942 77.8419 68.0325C78.6199 67.7517 79.2924 67.4694 79.8333 67.185C80.3807 66.8972 80.7613 66.6238 80.9845 66.3733C81.4546 65.8458 81.5383 65.3684 81.4289 64.9465C81.3111 64.4925 80.9446 64.0087 80.3296 63.5614C79.1015 62.6684 77.0812 62.0702 75.0881 62.1862C73.9529 62.2522 71.7166 62.4929 69.1386 62.7703C68.7154 62.8158 68.283 62.8624 67.8448 62.9093ZM69.029 61.7763C71.6004 61.4995 73.8678 61.2555 75.03 61.1879C77.2249 61.0601 79.4803 61.7074 80.9177 62.7527C81.6355 63.2747 82.1992 63.9333 82.3969 64.6954C82.6029 65.4896 82.3874 66.3021 81.7311 67.0385C81.3912 67.42 80.8886 67.76 80.2987 68.0701C79.7022 68.3837 78.9832 68.6838 78.1813 68.9731C76.578 69.5517 74.6024 70.102 72.5302 70.636C71.4472 70.9151 70.3391 71.1896 69.2411 71.4616C66.1091 72.2374 63.0589 72.993 60.9056 73.7775C60.894 73.7817 60.8823 73.7855 60.8704 73.7889C60.4513 73.9073 60.2132 74.0592 60.0842 74.2C59.9661 74.329 59.9134 74.4756 59.9192 74.6648C59.9324 75.0974 60.2534 75.7314 60.9291 76.5081C62.229 78.0022 64.5355 79.6816 66.7427 80.8492L85.0946 81.5367C86.4685 80.4362 88.8844 78.5834 91.6139 77.0003C94.4222 75.3715 97.6506 73.9749 100.447 74.0634C103.181 74.15 104.731 75.1732 105.124 76.6089C105.503 77.9971 104.701 79.4652 103.405 80.2178L90.7135 88.7413C90.6857 88.76 90.656 88.7759 90.6249 88.7886C87.7481 89.9714 82.8376 91.3138 77.6827 92.3425C72.5277 93.3713 67.0758 94.097 63.1163 94.0266C58.7435 93.9488 51.6618 93.616 45.3735 93.2461C42.2284 93.0611 39.2788 92.8666 36.9625 92.6897C34.6619 92.5141 32.9509 92.3535 32.3104 92.2332C32.2373 92.2195 32.0576 92.2388 31.7277 92.407C31.416 92.5659 31.0453 92.8182 30.6257 93.1434C30.0036 93.6254 29.3211 94.2293 28.6152 94.854C28.3655 95.075 28.1128 95.2986 27.8589 95.5203C26.9083 96.3502 25.9301 97.1621 25.0908 97.6131C24.6751 97.8365 24.2325 98.0058 23.8092 98.0011C23.3378 97.9957 22.9344 97.7735 22.6782 97.3292C22.6533 97.286 22.635 97.2393 22.6239 97.1907L17.77 75.9207C17.7296 75.7438 17.7882 75.5589 17.9232 75.4376C19.4082 74.1025 23.0368 71.9795 27.3169 69.96C31.6129 67.933 36.6379 65.976 40.9521 64.9953C49.5109 63.0496 52.8142 62.9476 56.227 62.8423C57.0863 62.8157 57.9525 62.789 58.9113 62.7326C61.2903 62.5925 64.6388 62.2467 67.7383 61.9149C68.1744 61.8683 68.6058 61.8218 69.029 61.7763Z" fill="#555555"/>
<path d="M30.4853 97.7853C30.4853 97.7853 22.8911 77.7398 19.9817 72.5831L5.36059 79.5913C8.95792 89.6258 17.3772 108.024 20.1672 106.385C22.9571 104.745 28.2084 99.9685 30.4853 97.7853Z" fill="#D1DDFB"/>
<path fill-rule="evenodd" clip-rule="evenodd" d="M19.7659 72.1333C20.0033 72.0195 20.2882 72.1092 20.4175 72.3385C21.8924 74.9526 24.5317 81.2896 26.789 86.9334C27.9211 89.7637 28.962 92.4324 29.7199 94.3934C30.0988 95.374 30.4071 96.1778 30.6206 96.7364C30.7274 97.0158 30.8105 97.2339 30.8669 97.3822L30.9528 97.6083C30.9528 97.6084 30.9531 97.6092 30.4855 97.7864L30.9531 97.6092C31.0241 97.7967 30.9763 98.0085 30.8316 98.1472C29.6876 99.2442 27.7988 100.99 25.8447 102.669C23.8996 104.34 21.8588 105.972 20.4208 106.817C19.8012 107.181 19.1284 106.916 18.5842 106.521C18.0188 106.111 17.4112 105.44 16.7827 104.602C15.5192 102.917 14.0775 100.427 12.6222 97.5954C9.70815 91.9253 6.69552 84.7969 4.89021 79.7612C4.80372 79.5199 4.91365 79.2523 5.14476 79.1416L19.7659 72.1333ZM29.9003 97.6539C29.8463 97.512 29.7744 97.3236 29.6865 97.0935C29.4734 96.5358 29.1656 95.7332 28.7871 94.7539C28.0302 92.7953 26.9907 90.1304 25.8605 87.3047C23.7071 81.9207 21.2421 75.9991 19.771 73.2398L5.98469 79.8479C7.79104 84.8177 10.7001 91.6678 13.5116 97.1383C14.9596 99.9557 16.3707 102.385 17.5828 104.002C18.1923 104.815 18.7283 105.391 19.1713 105.712C19.6356 106.049 19.8363 106 19.9141 105.955C21.2661 105.16 23.2459 103.583 25.1931 101.911C27.0006 100.358 28.7533 98.7454 29.9003 97.6539Z" fill="#555555"/>
<path d="M97.3272 45.3896L97.6121 43.7272C97.6369 43.5821 97.7394 43.4624 97.8789 43.4156L104.282 41.2637C104.569 41.1672 104.855 41.4121 104.804 41.7104L104.519 43.3728C104.494 43.5179 104.392 43.6375 104.252 43.6844L97.8488 45.8363C97.5619 45.9327 97.276 45.6879 97.3272 45.3896Z" fill="#9C9C9C"/>
</svg>
