<svg width="81" height="80" viewBox="0 0 81 80" fill="none" xmlns="http://www.w3.org/2000/svg">
<g clip-path="url(#clip0_1097_15862)">
<path d="M11.294 12.321C11.148 11.6642 11.6734 11.0517 12.3445 11.1004C15.8472 11.3544 25.5686 11.9993 34.0003 11.9993C42.432 11.9993 52.1534 11.3544 55.6561 11.1004C56.3271 11.0517 56.8525 11.6642 56.7065 12.321L56.0003 15.4993V56.9993L56.761 60.8031C56.8848 61.4219 56.4115 61.9993 55.7805 61.9993H12.2201C11.589 61.9993 11.1157 61.4219 11.2395 60.8031L12.0003 56.9993V15.4993L11.294 12.321Z" fill="white"/>
<path fill-rule="evenodd" clip-rule="evenodd" d="M55.62 10.6017C56.6275 10.5287 57.4129 11.4482 57.1948 12.4295L56.5004 15.5542V56.9498L57.2515 60.7051C57.4371 61.6333 56.7272 62.4993 55.7806 62.4993H12.2202C11.2737 62.4993 10.5637 61.6333 10.7494 60.7051L11.5004 56.9498V15.5542L10.8061 12.4295C10.588 11.4482 11.3734 10.5287 12.3808 10.6017C15.8816 10.8556 25.5879 11.4993 34.0004 11.4993C42.413 11.4993 52.1192 10.8556 55.62 10.6017ZM56.2186 12.2126C56.2925 11.8803 56.027 11.5748 55.6924 11.5991C52.1878 11.8533 42.4513 12.4993 34.0004 12.4993C25.5496 12.4993 15.813 11.8533 12.3085 11.5991C11.9738 11.5748 11.7084 11.8803 11.7822 12.2126L12.5004 15.4444V57.0488L11.7299 60.9013C11.6681 61.2106 11.9047 61.4993 12.2202 61.4993H55.7806C56.0961 61.4993 56.3328 61.2106 56.2709 60.9012L55.5004 57.0488V15.4444L56.2186 12.2126Z" fill="#555555"/>
<path fill-rule="evenodd" clip-rule="evenodd" d="M14.5005 15.9783C14.5125 15.7024 14.7458 15.4885 15.0217 15.5005L15 16L14.9783 16.4995C14.7024 16.4875 14.4885 16.2542 14.5005 15.9783ZM52 16C52.0217 16.4995 52.0217 16.4995 52.0216 16.4995L51.513 16.5211C51.1846 16.5347 50.7076 16.5543 50.1135 16.5777C48.9252 16.6247 47.2679 16.6872 45.3917 16.7497C41.6409 16.8748 37.0089 17 33.5 17C29.9911 17 25.3591 16.8748 21.6084 16.7497C19.7321 16.6872 18.0748 16.6247 16.8865 16.5777C16.2924 16.5543 15.8155 16.5347 15.487 16.5211L14.9783 16.4995C14.9782 16.4995 14.9783 16.4995 15 16C15.0217 15.5005 15.0216 15.5005 15.0217 15.5005L15.5286 15.5219C15.8564 15.5356 16.3326 15.5551 16.926 15.5785C18.1127 15.6254 19.7679 15.6878 21.6417 15.7503C25.3909 15.8753 30.0089 16 33.5 16C36.9911 16 41.6091 15.8753 45.3584 15.7503C47.2321 15.6878 48.8873 15.6254 50.074 15.5785C50.6674 15.5551 51.1436 15.5356 51.4714 15.5219L51.9778 15.5005C51.9779 15.5005 51.9783 15.5005 52 16ZM52 16L52.0216 16.4995C52.2975 16.4875 52.5115 16.2542 52.4995 15.9783C52.4875 15.7024 52.2537 15.4885 51.9778 15.5005L52 16Z" fill="#D9D9D9"/>
<path fill-rule="evenodd" clip-rule="evenodd" d="M14.5 57C14.5 56.7239 14.7239 56.5 15 56.5H52C52.2761 56.5 52.5 56.7239 52.5 57C52.5 57.2761 52.2761 57.5 52 57.5H15C14.7239 57.5 14.5 57.2761 14.5 57Z" fill="#D9D9D9"/>
<ellipse cx="33.5" cy="35" rx="12.5" ry="11" fill="#F2F4FF"/>
<path d="M70.5264 39.9216C71.7601 41.233 72.0365 43.2606 73.1338 44.0927C74.8204 45.3715 76.805 45.3704 74.3864 47.6458C70.394 51.4016 64.6203 51.7494 61.4904 48.4224C58.3605 45.0955 59.0597 39.3537 63.052 35.5978C65.9694 32.8532 65.7382 35.7856 67.2723 38.2516C67.8375 39.1602 69.6837 39.0259 70.5264 39.9216Z" fill="#D1DDFB" stroke="#555555"/>
<path d="M40.4066 68.2552C41.6403 69.5666 43.6473 69.9661 44.4109 71.1121C45.5845 72.8735 45.4623 74.8544 47.881 72.579C51.8733 68.8232 52.5725 63.0814 49.4426 59.7544C46.3127 56.4275 40.539 56.7752 36.5466 60.5311C33.6292 63.2757 36.5703 63.2237 38.9381 64.9053C39.8105 65.5249 39.5639 67.3594 40.4066 68.2552Z" fill="#D1DDFB" stroke="#555555"/>
<path d="M62.4938 47.4764C66.1454 51.3579 65.959 57.4646 62.0776 61.1161C58.1961 64.7676 52.0894 64.5813 48.4379 60.6998C44.7863 56.8184 44.9727 50.7117 48.8541 47.0602C52.7356 43.4086 58.8423 43.595 62.4938 47.4764Z" fill="#D1DDFB"/>
<path d="M50.9565 62.2425L48.5406 47.7474C48.5155 47.5968 48.5784 47.445 48.7027 47.3562L51.4754 45.3757C51.7167 45.2033 52.0552 45.3443 52.1027 45.6371L54.9024 62.9019C54.9484 63.1855 54.6893 63.4237 54.4105 63.354L51.254 62.5648C51.0995 62.5262 50.9826 62.3996 50.9565 62.2425Z" fill="white"/>
<path d="M62.323 60.1276L59.9967 45.6179C59.9725 45.467 59.8645 45.3432 59.7185 45.2986L56.4594 44.3043C56.1757 44.2177 55.8998 44.4592 55.948 44.7519L58.7925 62.0093C58.8392 62.2928 59.1607 62.4361 59.4027 62.2812L62.1436 60.5279C62.2777 60.4421 62.3482 60.2849 62.323 60.1276Z" fill="white"/>
<path fill-rule="evenodd" clip-rule="evenodd" d="M49.1975 47.4225C45.5172 50.8848 45.3404 56.6751 48.8028 60.3554C52.2651 64.0357 58.0554 64.2124 61.7357 60.7501C65.416 57.2877 65.5927 51.4975 62.1304 47.8172C58.668 44.1368 52.8778 43.9601 49.1975 47.4225ZM48.0744 61.0406C44.2337 56.958 44.4297 50.5349 48.5123 46.6941C52.5948 42.8534 59.018 43.0494 62.8587 47.132C66.6995 51.2145 66.5035 57.6376 62.4209 61.4784C58.3383 65.3192 51.9152 65.1231 48.0744 61.0406Z" fill="#555555"/>
<path fill-rule="evenodd" clip-rule="evenodd" d="M61.6864 46.3406C61.4972 46.1395 61.5069 45.8231 61.708 45.6339L65.222 42.328C65.4231 42.1388 65.7396 42.1485 65.9288 42.3496C66.118 42.5507 66.1083 42.8671 65.9072 43.0564L62.3932 46.3622C62.1921 46.5514 61.8757 46.5418 61.6864 46.3406ZM63.4954 48.2354C63.3687 47.99 63.4649 47.6884 63.7103 47.5618L68.1688 45.2599C68.4142 45.1332 68.7158 45.2294 68.8425 45.4748C68.9692 45.7202 68.8729 46.0218 68.6276 46.1485L64.1691 48.4503C63.9237 48.577 63.6221 48.4808 63.4954 48.2354Z" fill="#555555"/>
<path fill-rule="evenodd" clip-rule="evenodd" d="M47.3552 59.8213C47.166 59.6202 46.8496 59.6105 46.6484 59.7997L43.1344 63.1056C42.9333 63.2948 42.9237 63.6112 43.1129 63.8124C43.3021 64.0135 43.6185 64.0231 43.8197 63.8339L47.3336 60.5281C47.5348 60.3389 47.5444 60.0224 47.3552 59.8213ZM49.1361 61.7424C48.8989 61.601 48.592 61.6787 48.4506 61.9158L45.8812 66.2257C45.7398 66.4629 45.8174 66.7698 46.0546 66.9112C46.2918 67.0526 46.5987 66.975 46.7401 66.7378L49.3096 62.4279C49.451 62.1907 49.3733 61.8838 49.1361 61.7424Z" fill="#555555"/>
</g>
<defs>
<clipPath id="clip0_1097_15862">
<rect width="80" height="80" fill="white" transform="translate(0.333008)"/>
</clipPath>
</defs>
</svg>
