<svg width="120" height="120" viewBox="0 0 120 120" fill="none" xmlns="http://www.w3.org/2000/svg">
<g clip-path="url(#clip0_1097_15712)">
<path d="M59 67.6143L8 24V95H110V24L59 67.6143Z" fill="white"/>
<path fill-rule="evenodd" clip-rule="evenodd" d="M7.79081 23.5459C7.96808 23.4642 8.17664 23.4932 8.32497 23.62L59 66.9564L109.675 23.62C109.823 23.4932 110.032 23.4642 110.209 23.5459C110.386 23.6275 110.5 23.8048 110.5 24V95C110.5 95.2762 110.276 95.5 110 95.5H8C7.72386 95.5 7.5 95.2762 7.5 95V24C7.5 23.8048 7.61355 23.6275 7.79081 23.5459ZM8.5 25.0855V94.5H109.5V25.0855L59.325 67.9943C59.1379 68.1543 58.8621 68.1543 58.675 67.9943L8.5 25.0855Z" fill="#555555"/>
<path d="M109 95H8L52.4244 51.5679C56.2424 48.1245 61.4607 48.1461 65.2594 51.6211L109 95Z" fill="white"/>
<path fill-rule="evenodd" clip-rule="evenodd" d="M52.7667 51.9325L9.22667 94.5H107.786L64.9146 51.9833C61.3087 48.6907 56.3898 48.6709 52.7667 51.9325ZM52.0895 51.1966C56.0992 47.5803 61.6086 47.6037 65.5969 51.2522C65.6019 51.2567 65.6068 51.2613 65.6115 51.2661L109.352 94.645C109.496 94.7877 109.54 95.003 109.462 95.1904C109.385 95.3777 109.203 95.5 109 95.5H8.00002C7.79676 95.5 7.61373 95.377 7.537 95.1887C7.46028 95.0005 7.50514 94.7846 7.65048 94.6425L52.0749 51.2104C52.0797 51.2057 52.0846 51.2011 52.0895 51.1966Z" fill="#555555"/>
<path d="M107 21H11C9.34315 21 8 22.3431 8 24V26.3294C8 29.2761 9.29965 32.0729 11.552 33.9729L51.2624 67.4725C55.7318 71.243 62.2682 71.243 66.7376 67.4725L106.448 33.9729C108.7 32.0729 110 29.2761 110 26.3294V24C110 22.3431 108.657 21 107 21Z" fill="#F2F4FF"/>
<path fill-rule="evenodd" clip-rule="evenodd" d="M7.5 24C7.5 22.067 9.067 20.5 11 20.5H107C108.933 20.5 110.5 22.067 110.5 24V26.3294C110.5 29.4235 109.135 32.36 106.77 34.3551L67.06 67.8547C62.4044 71.7822 55.5956 71.7822 50.94 67.8547L11.2296 34.3551C8.86463 32.36 7.5 29.4235 7.5 26.3294V24ZM11 21.5C9.61929 21.5 8.5 22.6193 8.5 24V26.3294C8.5 29.1288 9.73467 31.7857 11.8744 33.5907L51.5848 67.0904C55.868 70.7037 62.132 70.7037 66.4152 67.0904L106.126 33.5907C108.265 31.7857 109.5 29.1288 109.5 26.3294V24C109.5 22.6193 108.381 21.5 107 21.5H11Z" fill="#555555"/>
<path d="M67.7603 39.2499L72 39L71.2949 43.3539H70.9374C70.9389 43.304 70.9434 43.256 70.9479 43.2078C70.9535 43.1485 70.9591 43.0889 70.9591 43.0255C70.9591 41.2714 69.7826 39.8255 68.2443 39.5482C68.112 39.5245 67.9772 39.5099 67.8399 39.5035C67.8207 39.5031 67.802 39.5002 67.7833 39.4972C67.7629 39.494 67.7424 39.4908 67.721 39.4908L67.7603 39.2499Z" fill="#555555"/>
<path d="M57.4169 53.6251C58.4645 53.6051 58.7023 53.3971 58.7844 52.8999L60.1035 44.7496C59.6115 44.9815 59.1824 45.3693 58.9114 45.9481L55.201 54H53.4458L52.5431 47.8163L49.4524 54H47.7357L46.2879 45.7629C46.1187 44.848 45.8273 44.6829 45 44.4977L45.041 44.2478H50.3785L50.3383 44.4977C49.6307 44.5999 49.2933 44.7249 49.2279 45.1198C49.212 45.2229 49.2221 45.3898 49.2388 45.513L50.1541 51.5106H50.2286L52.4577 47.1942L52.2409 45.7629C52.0935 44.8298 51.7996 44.6829 51.0819 44.4977L51.1238 44.2478H56.3692L56.3273 44.4977C55.5837 44.5999 55.2462 44.7249 55.1776 45.1399C55.1608 45.2448 55.1591 45.368 55.1734 45.513L55.8734 51.4468H55.9496L58.0875 46.6541C58.3228 46.116 58.4174 45.7629 58.44 45.6161C58.5455 44.973 58.2223 44.6628 57.3347 44.4977L57.3765 44.2478H60.1847L60.7891 40.5133C60.8904 39.8921 60.7631 39.5181 59.6276 39.4962L59.6678 39.249L63.9075 39L62.7461 46.1762C63.7283 44.9548 65.1083 44.1447 66.3024 44.1447C67.963 44.1447 68.5131 45.2448 68.1907 47.2362L67.2755 52.8999C67.1951 53.3971 67.3483 53.6051 68.426 53.6251L68.3858 53.8751H63.3113L63.3515 53.6251C64.0072 53.6051 64.3195 53.3971 64.4016 52.8999L65.3143 47.2553C65.4893 46.1762 65.1828 45.534 64.3429 45.534C63.7635 45.534 63.2493 45.9491 62.6774 46.5931L61.6583 52.8999C61.5779 53.3971 61.8241 53.6051 62.4731 53.6251L62.4329 53.8751H57.3768L57.4169 53.6251Z" fill="#555555"/>
<path d="M115 88.5C115 98.7173 106.717 107 96.5 107C86.2827 107 78 98.7173 78 88.5C78 78.2827 86.2827 70 96.5 70C106.717 70 115 78.2827 115 88.5Z" fill="#F6FAFF"/>
<path fill-rule="evenodd" clip-rule="evenodd" d="M96.5 70.5C86.5589 70.5 78.5 78.5589 78.5 88.5C78.5 98.4411 86.5589 106.5 96.5 106.5C106.441 106.5 114.5 98.4411 114.5 88.5C114.5 78.5589 106.441 70.5 96.5 70.5ZM77.5 88.5C77.5 78.0066 86.0066 69.5 96.5 69.5C106.993 69.5 115.5 78.0066 115.5 88.5C115.5 98.9934 106.993 107.5 96.5 107.5C86.0066 107.5 77.5 98.9934 77.5 88.5Z" fill="#555555"/>
<path fill-rule="evenodd" clip-rule="evenodd" d="M107.609 80.3596C108.117 80.8521 108.132 81.6661 107.643 82.1776L92.8769 97.6061C92.6057 97.8894 92.2206 98.0323 91.8316 97.9938C91.4425 97.9554 91.0924 97.7398 90.8812 97.4088L85.2026 88.5077C84.8214 87.9102 84.9938 87.1148 85.5877 86.7312C86.1815 86.3476 86.972 86.5211 87.3532 87.1186L92.158 94.6501L105.802 80.3939C106.291 79.8824 107.1 79.8671 107.609 80.3596Z" fill="#4267EB"/>
</g>
<defs>
<clipPath id="clip0_1097_15712">
<rect width="120" height="120" fill="white"/>
</clipPath>
</defs>
</svg>
