<svg width="150" height="50" viewBox="0 0 150 50" fill="none" xmlns="http://www.w3.org/2000/svg">
<path d="M0 10C0 4.47715 4.47715 0 10 0H140C145.523 0 150 4.47715 150 10V32C150 37.5228 145.523 42 140 42H0V10Z" fill="#4267EB"/>
<path d="M23.48 28.38C22.4533 28.38 21.5333 28.2133 20.72 27.88C19.9067 27.5467 19.2533 27.0533 18.76 26.4C18.28 25.7467 18.0267 24.96 18 24.04H21.64C21.6933 24.56 21.8733 24.96 22.18 25.24C22.4867 25.5067 22.8867 25.64 23.38 25.64C23.8867 25.64 24.2867 25.5267 24.58 25.3C24.8733 25.06 25.02 24.7333 25.02 24.32C25.02 23.9733 24.9 23.6867 24.66 23.46C24.4333 23.2333 24.1467 23.0467 23.8 22.9C23.4667 22.7533 22.9867 22.5867 22.36 22.4C21.4533 22.12 20.7133 21.84 20.14 21.56C19.5667 21.28 19.0733 20.8667 18.66 20.32C18.2467 19.7733 18.04 19.06 18.04 18.18C18.04 16.8733 18.5133 15.8533 19.46 15.12C20.4067 14.3733 21.64 14 23.16 14C24.7067 14 25.9533 14.3733 26.9 15.12C27.8467 15.8533 28.3533 16.88 28.42 18.2H24.72C24.6933 17.7467 24.5267 17.3933 24.22 17.14C23.9133 16.8733 23.52 16.74 23.04 16.74C22.6267 16.74 22.2933 16.8533 22.04 17.08C21.7867 17.2933 21.66 17.6067 21.66 18.02C21.66 18.4733 21.8733 18.8267 22.3 19.08C22.7267 19.3333 23.3933 19.6067 24.3 19.9C25.2067 20.2067 25.94 20.5 26.5 20.78C27.0733 21.06 27.5667 21.4667 27.98 22C28.3933 22.5333 28.6 23.22 28.6 24.06C28.6 24.86 28.3933 25.5867 27.98 26.24C27.58 26.8933 26.9933 27.4133 26.22 27.8C25.4467 28.1867 24.5333 28.38 23.48 28.38Z" fill="white"/>
<path d="M34.1247 14.2V28.24H30.7047V14.2H34.1247Z" fill="white"/>
<path d="M45.9231 18.64C45.6698 18.1733 45.3031 17.82 44.8231 17.58C44.3565 17.3267 43.8031 17.2 43.1631 17.2C42.0565 17.2 41.1698 17.5667 40.5031 18.3C39.8365 19.02 39.5031 19.9867 39.5031 21.2C39.5031 22.4933 39.8498 23.5067 40.5431 24.24C41.2498 24.96 42.2165 25.32 43.4431 25.32C44.2831 25.32 44.9898 25.1067 45.5631 24.68C46.1498 24.2533 46.5765 23.64 46.8431 22.84H42.5031V20.32H49.9431V23.5C49.6898 24.3533 49.2565 25.1467 48.6431 25.88C48.0431 26.6133 47.2765 27.2067 46.3431 27.66C45.4098 28.1133 44.3565 28.34 43.1831 28.34C41.7965 28.34 40.5565 28.04 39.4631 27.44C38.3831 26.8267 37.5365 25.98 36.9231 24.9C36.3231 23.82 36.0231 22.5867 36.0231 21.2C36.0231 19.8133 36.3231 18.58 36.9231 17.5C37.5365 16.4067 38.3831 15.56 39.4631 14.96C40.5431 14.3467 41.7765 14.04 43.1631 14.04C44.8431 14.04 46.2565 14.4467 47.4031 15.26C48.5631 16.0733 49.3298 17.2 49.7031 18.64H45.9231Z" fill="white"/>
<path d="M64.3975 28.24H60.9775L55.2575 19.58V28.24H51.8375V14.2H55.2575L60.9775 22.9V14.2H64.3975V28.24Z" fill="white"/>
<path d="M75.6166 25.76H70.3766L69.5366 28.24H65.9566L71.0366 14.2H74.9966L80.0766 28.24H76.4566L75.6166 25.76ZM74.7366 23.12L72.9966 17.98L71.2766 23.12H74.7366Z" fill="white"/>
<path d="M91.7227 14.2V16.94H88.0027V28.24H84.5827V16.94H80.8627V14.2H91.7227Z" fill="white"/>
<path d="M96.7991 14.2V22.6C96.7991 23.44 97.0057 24.0867 97.4191 24.54C97.8324 24.9933 98.4391 25.22 99.2391 25.22C100.039 25.22 100.652 24.9933 101.079 24.54C101.506 24.0867 101.719 23.44 101.719 22.6V14.2H105.139V22.58C105.139 23.8333 104.872 24.8933 104.339 25.76C103.806 26.6267 103.086 27.28 102.179 27.72C101.286 28.16 100.286 28.38 99.1791 28.38C98.0724 28.38 97.0791 28.1667 96.1991 27.74C95.3324 27.3 94.6457 26.6467 94.1391 25.78C93.6324 24.9 93.3791 23.8333 93.3791 22.58V14.2H96.7991Z" fill="white"/>
<path d="M114.701 28.24L111.781 22.94H110.961V28.24H107.541V14.2H113.281C114.387 14.2 115.327 14.3933 116.101 14.78C116.887 15.1667 117.474 15.7 117.861 16.38C118.247 17.0467 118.441 17.7933 118.441 18.62C118.441 19.5533 118.174 20.3867 117.641 21.12C117.121 21.8533 116.347 22.3733 115.321 22.68L118.561 28.24H114.701ZM110.961 20.52H113.081C113.707 20.52 114.174 20.3667 114.481 20.06C114.801 19.7533 114.961 19.32 114.961 18.76C114.961 18.2267 114.801 17.8067 114.481 17.5C114.174 17.1933 113.707 17.04 113.081 17.04H110.961V20.52Z" fill="white"/>
<path d="M124.008 16.94V19.78H128.588V22.42H124.008V25.5H129.188V28.24H120.588V14.2H129.188V16.94H124.008Z" fill="white"/>
<path d="M8 49.5V42H0L8 49.5Z" fill="#0B1293"/>
</svg>
