<svg width="150" height="150" viewBox="0 0 150 150" fill="none" xmlns="http://www.w3.org/2000/svg">
<path d="M31.1427 129.009L6.32554 107.364L14.3129 42.7448L31.1427 129.009Z" fill="#D3D6E4"/>
<path fill-rule="evenodd" clip-rule="evenodd" d="M13.8172 42.6834L14.8042 42.649L31.634 128.913C31.6749 129.123 31.5781 129.335 31.393 129.442C31.208 129.549 30.9756 129.526 30.8146 129.386L5.79725 107.567L13.8172 42.6834ZM14.4243 45.924L6.85486 107.162L30.3734 127.674L14.4243 45.924Z" fill="#555555"/>
<path d="M14.3135 42.7447L31.1432 129.009L126.554 105.611L106.982 24.5335L14.3135 42.7447Z" fill="white"/>
<path fill-rule="evenodd" clip-rule="evenodd" d="M106.886 24.043C107.149 23.9913 107.405 24.1559 107.468 24.4163L127.04 105.493C127.104 105.761 126.94 106.031 126.673 106.096L31.2624 129.495C31.1296 129.527 30.9892 129.504 30.874 129.43C30.7587 129.357 30.6787 129.239 30.6525 129.105L13.8228 42.8405C13.77 42.5697 13.9465 42.3073 14.2172 42.2541L106.886 24.043ZM14.8999 43.1391L31.5336 128.398L125.951 105.244L106.609 25.1166L14.8999 43.1391Z" fill="#555555"/>
<path d="M31.0594 72.8408C30.8124 71.7494 31.5088 70.6677 32.6046 70.4409L48.9774 67.0512C50.0449 66.8302 51.0929 67.5049 51.3335 68.5682L53.7877 79.412C54.0347 80.5034 53.3382 81.5851 52.2425 81.8119L35.8697 85.2016C34.8021 85.4226 33.7542 84.7479 33.5136 83.6846L31.0594 72.8408Z" fill="#F5F5F5"/>
<path d="M36.3514 94.2266C36.1044 93.1352 36.8008 92.0535 37.8966 91.8266L54.2694 88.4369C55.3369 88.2159 56.3848 88.8906 56.6255 89.9539L59.0797 100.798C59.3267 101.889 58.6302 102.971 57.5345 103.198L41.1617 106.587C40.0941 106.808 39.0462 106.134 38.8055 105.07L36.3514 94.2266Z" fill="#F5F5F5"/>
<path d="M59.0946 67.1374C58.8365 66.0458 59.5263 64.9554 60.6233 64.7212L76.5262 61.3253C77.5898 61.0981 78.6399 61.7625 78.8902 62.8208L81.3388 73.1741C81.597 74.2657 80.9071 75.3561 79.8102 75.5904L63.9072 78.9863C62.8437 79.2134 61.7936 78.549 61.5433 77.4907L59.0946 67.1374Z" fill="#F5F5F5"/>
<path d="M64.3856 88.5226C64.1275 87.4311 64.8173 86.3406 65.9143 86.1064L81.8173 82.7105C82.8808 82.4834 83.9309 83.1478 84.1812 84.2061L86.6299 94.5594C86.888 95.651 86.1982 96.7414 85.1012 96.9756L69.1982 100.372C68.1347 100.599 67.0846 99.9343 66.8343 98.8759L64.3856 88.5226Z" fill="#F5F5F5"/>
<path d="M86.6686 60.9114C86.4095 59.816 87.1051 58.7227 88.207 58.4931L102.649 55.4847C103.71 55.2637 104.754 55.9278 105.003 56.9824L107.452 67.3352C107.711 68.4306 107.015 69.5239 105.913 69.7535L91.4713 72.7619C90.4104 72.9829 89.3665 72.3188 89.1171 71.2643L86.6686 60.9114Z" fill="#F5F5F5"/>
<path d="M91.9596 82.2972C91.7005 81.2018 92.3961 80.1084 93.4981 79.8789L107.94 76.8705C109.001 76.6495 110.045 77.3136 110.294 78.3681L112.743 88.7209C113.002 89.8163 112.306 90.9097 111.204 91.1392L96.7623 94.1476C95.7014 94.3686 94.6575 93.7045 94.4081 92.65L91.9596 82.2972Z" fill="#F5F5F5"/>
<path d="M14.3135 42.7447L18.2735 63.0422L111.81 44.5333L106.982 24.5335L14.3135 42.7447Z" fill="#D1DDFB"/>
<path fill-rule="evenodd" clip-rule="evenodd" d="M106.886 24.043C107.149 23.9913 107.405 24.1559 107.468 24.4163L112.418 44.9227L17.8788 63.63L13.8228 42.8405C13.77 42.5697 13.9465 42.3073 14.2172 42.2541L106.886 24.043ZM14.8999 43.1391L18.6683 62.4544L111.202 44.1441L106.609 25.1166L14.8999 43.1391Z" fill="#555555"/>
<path d="M35.0547 34.599C34.784 33.0412 35.8217 31.5288 37.3726 31.2211C38.9236 30.9133 40.4003 31.9267 40.6711 33.4845L42.5935 44.5439C42.8643 46.1017 41.8265 47.6141 40.2756 47.9218C38.7247 48.2296 37.2479 47.2162 36.9771 45.6584L35.0547 34.599Z" fill="#A8B1CE"/>
<path fill-rule="evenodd" clip-rule="evenodd" d="M41.6518 33.2899L43.5742 44.3494C43.9395 46.4513 42.5393 48.4919 40.4467 48.9071C38.354 49.3224 36.3614 47.955 35.9961 45.8531L34.0737 34.7937C33.7083 32.6917 35.1085 30.6512 37.2012 30.2359C39.2938 29.8207 41.2864 31.188 41.6518 33.2899ZM37.3724 31.2211C35.8215 31.5289 34.7838 33.0412 35.0545 34.599L36.9769 45.6585C37.2477 47.2163 38.7245 48.2296 40.2754 47.9219C41.8263 47.6141 42.8641 46.1018 42.5933 44.544L40.6709 33.4845C40.4001 31.9267 38.9233 30.9134 37.3724 31.2211Z" fill="#555555"/>
<path d="M59.3917 29.7694C59.1209 28.2116 60.1586 26.6992 61.7096 26.3915C63.2605 26.0837 64.7373 27.0971 65.008 28.6549L66.9304 39.7143C67.2012 41.2721 66.1635 42.7845 64.6125 43.0922C63.0616 43.4 61.5848 42.3866 61.3141 40.8288L59.3917 29.7694Z" fill="#A8B1CE"/>
<path fill-rule="evenodd" clip-rule="evenodd" d="M65.9897 28.4603L67.9121 39.5198C68.2774 41.6217 66.8772 43.6623 64.7846 44.0775C62.6919 44.4928 60.6993 43.1255 60.3339 41.0235L58.4116 29.9641C58.0462 27.8622 59.4464 25.8216 61.5391 25.4063C63.6317 24.9911 65.6243 26.3584 65.9897 28.4603ZM61.7103 26.3916C60.1594 26.6993 59.1216 28.2116 59.3924 29.7694L61.3148 40.8289C61.5856 42.3867 63.0624 43.4001 64.6133 43.0923C66.1642 42.7845 67.202 41.2722 66.9312 39.7144L65.0088 28.655C64.738 27.0972 63.2612 26.0838 61.7103 26.3916Z" fill="#555555"/>
<path d="M83.7296 24.9398C83.4588 23.382 84.4965 21.8697 86.0474 21.5619C87.5984 21.2541 89.0751 22.2675 89.3459 23.8253L91.2683 34.8848C91.5391 36.4426 90.5014 37.9549 88.9504 38.2626C87.3995 38.5704 85.9227 37.557 85.6519 35.9992L83.7296 24.9398Z" fill="#A8B1CE"/>
<path fill-rule="evenodd" clip-rule="evenodd" d="M90.3276 23.6307L92.25 34.6902C92.6153 36.7921 91.2151 38.8327 89.1225 39.2479C87.0298 39.6632 85.0372 38.2959 84.6718 36.1939L82.7494 25.1345C82.3841 23.0326 83.7843 20.992 85.877 20.5767C87.9696 20.1615 89.9622 21.5288 90.3276 23.6307ZM86.0482 21.562C84.4973 21.8697 83.4595 23.382 83.7303 24.9398L85.6527 35.9993C85.9235 37.5571 87.4003 38.5705 88.9512 38.2627C90.5021 37.955 91.5399 36.4426 91.2691 34.8848L89.3467 23.8254C89.0759 22.2676 87.5991 21.2542 86.0482 21.562Z" fill="#555555"/>
<path d="M146 107.5C146 124.345 132.345 138 115.5 138C98.6552 138 85 124.345 85 107.5C85 90.6552 98.6552 77 115.5 77C132.345 77 146 90.6552 146 107.5Z" fill="white" stroke="#555555"/>
<path d="M129 118.694V121.533C129 124 127.076 126 124.703 126H100.297C97.9241 126 96 124 96 121.533V95.4672C96 92.9997 97.9241 91 100.297 91H124.501C126.875 91 128.798 92.9997 128.798 95.4672V103.483" fill="#4267EB"/>
<path d="M126.001 119.5C131.799 119.5 136.5 114.799 136.5 109C136.5 103.201 131.799 98.5 126.001 98.5C120.201 98.5 115.5 103.201 115.5 109C115.5 114.799 120.201 119.5 126.001 119.5Z" fill="white" stroke="#555555"/>
<path d="M121 109.235L124.42 113L131 105" stroke="#4267EB" stroke-width="2" stroke-miterlimit="10" stroke-linecap="round" stroke-linejoin="round"/>
<path d="M120 96V91.0669C120 87.1639 116.642 84 112.5 84C108.358 84 105 87.1639 105 91.0669V96" stroke="#555555" stroke-miterlimit="10" stroke-linecap="round" stroke-linejoin="round"/>
</svg>
