<svg width="150" height="150" viewBox="0 0 150 150" fill="none" xmlns="http://www.w3.org/2000/svg">
<path d="M63.8762 17.781C82.5 48.448 99.5 78 118.569 108.567C118.569 108.567 123.866 115.369 117.608 119.491C105 127 88 136.77 77.2941 142.424C66.3345 148.212 62.1372 141.317 62.1372 141.317L6.84115 48.448C6.84115 48.448 1.00215 39.156 13.8342 32.172C26.6651 25.188 52.1872 14.473 52.1872 14.473C52.1872 14.473 59 12 63.8762 17.781Z" fill="white"/>
<path fill-rule="evenodd" clip-rule="evenodd" d="M56.2256 13.4596C58.644 13.5688 61.7107 14.4382 64.2584 17.4587L64.2834 17.4883L64.3035 17.5215C71.6844 29.6752 78.8069 41.6481 85.9027 53.5761C96.7171 71.755 107.47 89.8299 118.98 108.282L118.983 108.285C118.989 108.294 118.998 108.305 119.008 108.319C119.015 108.328 119.022 108.338 119.03 108.349C119.054 108.381 119.083 108.422 119.117 108.47C119.141 108.505 119.168 108.543 119.197 108.585C119.336 108.789 119.526 109.082 119.733 109.447C120.146 110.174 120.635 111.197 120.921 112.364C121.206 113.532 121.294 114.866 120.875 116.195C120.453 117.534 119.533 118.822 117.883 119.909L117.873 119.915L117.864 119.921C105.253 127.431 88.2446 137.206 77.5276 142.866C71.9431 145.815 67.9972 145.571 65.4147 144.503C64.1344 143.974 63.2147 143.252 62.6135 142.66C62.3128 142.364 62.0909 142.1 61.9424 141.907C61.8682 141.81 61.8121 141.731 61.7737 141.674C61.7544 141.646 61.7396 141.624 61.729 141.607L61.7163 141.587L61.7124 141.581L61.7105 141.578C61.7103 141.577 61.7101 141.577 62.1372 141.317L61.7105 141.578L61.7075 141.573L6.41685 48.7125L6.41536 48.7101L6.41084 48.7028L6.39584 48.6781C6.38328 48.6571 6.36574 48.6273 6.34398 48.589C6.30045 48.5124 6.23996 48.4017 6.1686 48.2597C6.02598 47.976 5.83936 47.5664 5.65796 47.0538C5.2957 46.0302 4.95041 44.585 5.02616 42.9065C5.17955 39.508 7.05124 35.2945 13.5951 31.7329C20.03 28.2304 29.6346 23.7985 37.6191 20.2467C41.6137 18.4697 45.2069 16.9112 47.8016 15.797C49.0989 15.2398 50.1467 14.7937 50.8702 14.4868C51.232 14.3333 51.5127 14.2147 51.703 14.1344L51.9924 14.0125C51.9926 14.0124 51.9936 14.012 52.1872 14.473C52.0165 14.003 52.0168 14.003 52.0171 14.0029L52.0196 14.0019L52.0252 14L52.0436 13.9935C52.0592 13.9881 52.0813 13.9807 52.1095 13.9714C52.166 13.953 52.2472 13.9275 52.3512 13.8976C52.559 13.8378 52.858 13.7603 53.2308 13.6865C53.9754 13.5391 55.0204 13.4053 56.2256 13.4596ZM52.1872 14.473L52.0171 14.0029L52.005 14.0072L51.9936 14.012L52.1872 14.473ZM52.3672 14.9397L52.0918 15.0558C51.902 15.1358 51.6218 15.2542 51.2607 15.4074C50.5384 15.7138 49.492 16.1593 48.1962 16.7158C45.6044 17.8288 42.0153 19.3856 38.0255 21.1604C30.0412 24.7121 20.4693 29.1297 14.0732 32.6112C7.78507 36.0336 6.16026 39.958 6.02515 42.9516C5.95665 44.4691 6.26911 45.7833 6.60067 46.7202C6.76617 47.1879 6.93547 47.5588 7.06204 47.8105C7.12528 47.9363 7.17771 48.0321 7.21345 48.095C7.23132 48.1264 7.245 48.1497 7.25376 48.1643L7.26311 48.1797L7.26451 48.182L7.27089 48.1922L62.5641 141.057L62.5701 141.066C62.5761 141.076 62.5861 141.091 62.6003 141.112C62.6286 141.153 62.6735 141.217 62.7354 141.297C62.8593 141.459 63.051 141.688 63.315 141.948C63.8433 142.468 64.6579 143.108 65.7968 143.579C68.0529 144.512 71.6855 144.821 77.0606 141.982C87.7526 136.335 104.738 126.574 117.342 119.067C118.815 118.095 119.576 116.989 119.921 115.895C120.269 114.79 120.206 113.65 119.949 112.602C119.693 111.553 119.249 110.618 118.864 109.941C118.672 109.604 118.497 109.334 118.371 109.149C118.308 109.057 118.258 108.987 118.224 108.94C118.206 108.917 118.193 108.899 118.185 108.888L118.176 108.876L118.174 108.874L118.158 108.854L118.145 108.832C106.626 90.3675 95.8575 72.2659 85.0331 54.0704C77.9445 42.1546 70.832 30.1986 63.4691 18.0741C61.1457 15.3372 58.3798 14.5579 56.1806 14.4586C55.0731 14.4086 54.1101 14.5318 53.4249 14.6674C53.0829 14.7352 52.8115 14.8057 52.6277 14.8586C52.5358 14.885 52.4659 14.907 52.4202 14.9219C52.3974 14.9294 52.3806 14.9351 52.3701 14.9387L52.3672 14.9397Z" fill="#555555"/>
<path d="M77.5 142.5C77.5 142.5 71.7397 143.536 67.5477 138.172L13.2717 46.5821C13.2717 46.5821 8.13266 36.6331 11.8517 33.6021C2.01666 39.2671 6.93866 48.9451 6.93866 48.9451L62.2347 141.814C62.2347 141.814 66.521 148.313 77.5 142.5Z" fill="#D3D6E4"/>
<path fill-rule="evenodd" clip-rule="evenodd" d="M5.20703 43.3983C5.20585 40.1139 6.51129 36.1013 11.6021 33.1689L12.1675 33.9898C11.3974 34.6174 11.0434 35.6355 11.0043 36.9242C10.9654 38.2091 11.2441 39.6803 11.6478 41.0913C12.0498 42.4969 12.5673 43.814 12.9858 44.7819C13.1946 45.2652 13.3781 45.6597 13.509 45.9326C13.5744 46.0691 13.6266 46.1751 13.6622 46.2465C13.6801 46.2822 13.6937 46.3092 13.7028 46.3271L13.7097 46.3406L67.9613 137.889C69.9678 140.444 72.3342 141.468 74.1984 141.858C75.1363 142.055 75.9485 142.091 76.5235 142.078C76.8107 142.072 77.0378 142.054 77.1907 142.037C77.2672 142.029 77.325 142.021 77.3624 142.016C77.3811 142.013 77.3947 142.011 77.4029 142.009L77.4113 142.008C77.6537 141.965 77.8922 142.104 77.9726 142.337C78.053 142.57 77.9518 142.827 77.734 142.942C72.1454 145.901 68.1806 145.763 65.5777 144.806C64.2855 144.332 63.3528 143.663 62.7406 143.11C62.4346 142.833 62.2081 142.585 62.0562 142.402C61.9802 142.311 61.9227 142.236 61.8831 142.183C61.8633 142.156 61.848 142.134 61.8371 142.119L61.8239 142.099L61.8198 142.093L61.8183 142.091L61.8177 142.09C61.8175 142.09 61.8173 142.09 62.2347 141.814L61.8177 142.09L61.8109 142.08L6.50053 49.1867L6.49298 49.1719L6.93866 48.9452C6.49298 49.1719 6.49313 49.1722 6.49298 49.1719L6.49229 49.1705L6.49116 49.1683L6.48759 49.1611L6.47541 49.1364C6.46513 49.1153 6.45063 49.0851 6.43251 49.0462C6.39627 48.9684 6.34552 48.8556 6.28513 48.7113C6.16442 48.4229 6.00483 48.0075 5.84556 47.4921C5.52762 46.4634 5.20762 45.0255 5.20703 43.3983ZM7.37804 48.7058L62.6564 141.545L62.6575 141.547C62.6635 141.555 62.6735 141.57 62.6878 141.589C62.7164 141.628 62.7617 141.687 62.8244 141.762C62.9497 141.912 63.1439 142.126 63.4113 142.368C63.9459 142.851 64.7709 143.445 65.9227 143.868C67.9086 144.598 70.9389 144.848 75.2366 143.027C74.8539 142.99 74.4363 142.93 73.9933 142.837C71.9354 142.406 69.335 141.271 67.1537 138.48L67.1339 138.455L12.8341 46.8246L12.8274 46.8117L13.2717 46.5822C12.8274 46.8117 12.8275 46.8118 12.8274 46.8117L12.8261 46.8091L12.8229 46.803L12.8113 46.78C12.8011 46.7601 12.7864 46.7309 12.7675 46.693C12.7296 46.6172 12.6751 46.5065 12.6072 46.3649C12.4716 46.082 12.2826 45.6756 12.0678 45.1787C11.6389 44.1865 11.1041 42.8269 10.6863 41.3663C10.2701 39.9113 9.96136 38.3269 10.0048 36.8939C10.0215 36.3442 10.0906 35.8044 10.2315 35.2977C7.04303 37.8307 6.20612 40.8644 6.20703 43.3979C6.20757 44.8983 6.50338 46.2339 6.80097 47.1969C6.94947 47.6774 7.09757 48.0623 7.20761 48.3253C7.2626 48.4567 7.308 48.5574 7.33905 48.6241C7.35458 48.6574 7.36651 48.6823 7.37426 48.6981L7.37804 48.7058Z" fill="#555555"/>
<path d="M45.2735 26.6728L31.5975 33.2856C31.2873 33.4359 30.9093 33.3038 30.759 32.9936L30.6436 32.7546C30.4934 32.4434 30.6244 32.0653 30.9356 31.915L44.6116 25.3033C44.9218 25.1529 45.2998 25.284 45.4501 25.5952L45.5655 25.8343C45.7158 26.1445 45.5847 26.5225 45.2735 26.6728Z" fill="#555555"/>
<path d="M45.2251 25.7039C45.135 25.5173 44.9067 25.4382 44.7208 25.5283L31.0446 32.1402C30.8582 32.2302 30.7785 32.4586 30.8689 32.6459L30.9842 32.8847C31.0745 33.0712 31.3033 33.1505 31.4887 33.0607L45.1649 26.4478C45.3515 26.3577 45.4308 26.1293 45.3407 25.9434L45.2251 25.7039Z" fill="#555555"/>
<path fill-rule="evenodd" clip-rule="evenodd" d="M100.782 120.769C99.2262 120.439 96.8006 120.511 93.4532 122.29C90.101 124.071 88.6895 125.99 88.0981 127.408C87.8007 128.122 87.7048 128.723 87.6813 129.137C87.6695 129.345 87.6759 129.506 87.6844 129.611C87.6887 129.663 87.6935 129.702 87.6968 129.725C87.6984 129.736 87.6997 129.744 87.7004 129.748C87.7538 130.019 87.578 130.282 87.3074 130.335C87.0366 130.389 86.7733 130.213 86.7194 129.943L87.2098 129.845C86.7194 129.943 86.7194 129.943 86.7194 129.943L86.7191 129.941L86.7186 129.939L86.7176 129.933L86.7147 129.917C86.7125 129.904 86.7098 129.887 86.7068 129.866C86.7007 129.824 86.6937 129.765 86.6877 129.692C86.6758 129.545 86.6683 129.338 86.6829 129.081C86.712 128.566 86.8295 127.853 87.1751 127.024C87.8697 125.357 89.4627 123.278 92.984 121.407C96.5102 119.533 99.174 119.406 100.989 119.791C101.892 119.982 102.571 120.297 103.029 120.569C103.258 120.705 103.432 120.831 103.552 120.925C103.611 120.972 103.657 121.012 103.69 121.041C103.707 121.055 103.72 121.067 103.729 121.076L103.741 121.087L103.745 121.091L103.747 121.093C103.747 121.093 103.747 121.766 103.001 121.5" fill="#555555"/>
<path d="M72.4648 43.9423L49.476 56.8317C49.0773 57.0383 48.5619 56.8647 48.3256 56.4461L40.424 43.4523C40.1878 43.0327 40.3194 42.527 40.7181 42.3214L63.7069 30.4311C64.1056 30.2255 64.621 30.398 64.8573 30.8166L72.7589 42.8115C72.9951 43.2301 72.8635 43.7367 72.4648 43.9423Z" fill="#F5F5F5"/>
<path fill-rule="evenodd" clip-rule="evenodd" d="M44.5631 45.2427C44.429 45.0014 44.516 44.6969 44.7574 44.5628L62.7574 34.5628C62.9988 34.4287 63.3032 34.5157 63.4373 34.7571C63.5714 34.9985 63.4844 35.3029 63.243 35.437L45.243 45.437C45.0016 45.5711 44.6972 45.4841 44.5631 45.2427Z" fill="#D3D6E4"/>
<path fill-rule="evenodd" clip-rule="evenodd" d="M48.5574 52.0009C48.4292 51.7563 48.5234 51.4541 48.768 51.3259L55.953 47.5573C56.1976 47.429 56.4998 47.5233 56.6281 47.7679C56.7563 48.0124 56.6621 48.3146 56.4175 48.4429L49.2325 52.2114C48.9879 52.3397 48.6857 52.2454 48.5574 52.0009Z" fill="#D3D6E4"/>
<path fill-rule="evenodd" clip-rule="evenodd" d="M46.5617 48.2392C46.4295 47.9968 46.5188 47.6931 46.7612 47.5609L57.7612 41.5609C58.0036 41.4286 58.3074 41.518 58.4396 41.7604C58.5718 42.0028 58.4825 42.3065 58.2401 42.4388L47.2401 48.4388C46.9976 48.571 46.6939 48.4817 46.5617 48.2392Z" fill="#D3D6E4"/>
<path d="M84.16 62.3529L61.2673 75.412C60.87 75.6216 60.3534 75.4518 60.114 75.035L52.1165 62.1C51.8771 61.6821 52.005 61.1755 52.4022 60.967L75.3023 47.9068C75.6996 47.6983 76.2162 47.867 76.4556 48.2838L84.4457 61.2199C84.6851 61.6367 84.5572 62.1443 84.16 62.3529Z" fill="#F5F5F5"/>
<path fill-rule="evenodd" clip-rule="evenodd" d="M74.0592 53.2239C74.2011 53.4609 74.124 53.7679 73.8871 53.9098L56.9616 64.0427C56.7246 64.1845 56.4176 64.1075 56.2757 63.8705C56.1339 63.6336 56.211 63.3266 56.4479 63.1847L73.3734 53.0518C73.6103 52.9099 73.9174 52.987 74.0592 53.2239Z" fill="#D3D6E4"/>
<path fill-rule="evenodd" clip-rule="evenodd" d="M60.3136 70.588C60.1836 70.3444 60.2756 70.0415 60.5192 69.9115L67.6762 66.0898C67.9198 65.9598 68.2227 66.0518 68.3527 66.2954C68.4828 66.539 68.3908 66.8419 68.1472 66.972L60.9902 70.7936C60.7466 70.9236 60.4437 70.8316 60.3136 70.588Z" fill="#D3D6E4"/>
<path fill-rule="evenodd" clip-rule="evenodd" d="M58.2895 66.8415C58.1555 66.6 58.2426 66.2957 58.484 66.1616L69.4393 60.0804C69.6808 59.9464 69.9851 60.0334 70.1192 60.2749C70.2532 60.5163 70.1661 60.8207 69.9247 60.9547L58.9694 67.036C58.7279 67.17 58.4236 67.0829 58.2895 66.8415Z" fill="#D3D6E4"/>
<path d="M95.2713 81.473L72.3786 94.5321C71.9814 94.7417 71.4647 94.5719 71.2253 94.1551L63.2278 81.2201C62.9885 80.8022 63.1163 80.2956 63.5135 80.0871L86.4137 67.0269C86.8109 66.8184 87.3276 66.9871 87.5669 67.404L95.557 80.34C95.7964 80.7569 95.6686 81.2645 95.2713 81.473Z" fill="#F5F5F5"/>
<path fill-rule="evenodd" clip-rule="evenodd" d="M67.3808 82.9797C67.2449 82.7393 67.3296 82.4343 67.57 82.2984L85.4955 72.1655C85.7359 72.0296 86.041 72.1143 86.1769 72.3547C86.3128 72.5951 86.228 72.9001 85.9876 73.036L68.0621 83.1689C67.8217 83.3048 67.5167 83.2201 67.3808 82.9797Z" fill="#D3D6E4"/>
<path fill-rule="evenodd" clip-rule="evenodd" d="M71.425 89.7081C71.2949 89.4646 71.3869 89.1616 71.6305 89.0316L78.7875 85.21C79.0311 85.0799 79.334 85.1719 79.4641 85.4155C79.5941 85.6591 79.5021 85.962 79.2585 86.0921L72.1015 89.9137C71.8579 90.0438 71.555 89.9517 71.425 89.7081Z" fill="#D3D6E4"/>
<path fill-rule="evenodd" clip-rule="evenodd" d="M69.4009 85.9616C69.2668 85.7201 69.3539 85.4158 69.5954 85.2817L80.5507 79.2005C80.7921 79.0665 81.0965 79.1536 81.2305 79.395C81.3645 79.6364 81.2774 79.9408 81.036 80.0748L70.0807 86.1561C69.8393 86.2901 69.5349 86.203 69.4009 85.9616Z" fill="#D3D6E4"/>
<path d="M107.271 101.473L84.3786 114.532C83.9814 114.742 83.4647 114.572 83.2253 114.155L75.2278 101.22C74.9885 100.802 75.1163 100.296 75.5135 100.087L98.4137 87.0269C98.8109 86.8184 99.3276 86.9871 99.5669 87.404L107.557 100.34C107.796 100.757 107.669 101.264 107.271 101.473Z" fill="#F5F5F5"/>
<path fill-rule="evenodd" clip-rule="evenodd" d="M79.3808 102.98C79.2449 102.739 79.3296 102.434 79.57 102.298L97.4955 92.1655C97.7359 92.0296 98.041 92.1143 98.1769 92.3547C98.3128 92.5951 98.228 92.9001 97.9876 93.036L80.0621 103.169C79.8217 103.305 79.5167 103.22 79.3808 102.98Z" fill="#D3D6E4"/>
<path fill-rule="evenodd" clip-rule="evenodd" d="M83.425 109.708C83.2949 109.465 83.3869 109.162 83.6305 109.032L90.7875 105.21C91.0311 105.08 91.334 105.172 91.4641 105.416C91.5941 105.659 91.5021 105.962 91.2585 106.092L84.1015 109.914C83.8579 110.044 83.555 109.952 83.425 109.708Z" fill="#D3D6E4"/>
<path fill-rule="evenodd" clip-rule="evenodd" d="M81.4009 105.962C81.2668 105.72 81.3539 105.416 81.5954 105.282L92.5507 99.2005C92.7921 99.0665 93.0965 99.1536 93.2305 99.395C93.3645 99.6364 93.2774 99.9408 93.036 100.075L82.0807 106.156C81.8393 106.29 81.5349 106.203 81.4009 105.962Z" fill="#D3D6E4"/>
<path fill-rule="evenodd" clip-rule="evenodd" d="M34.1146 57.0911C35.7977 56.2118 36.4488 54.1364 35.5704 52.455C34.6907 50.7732 32.6162 50.1217 30.9335 50.9996C29.2516 51.8794 28.6001 53.9539 29.4794 55.637C30.3574 57.3176 32.4332 57.9695 34.1146 57.0911ZM30.3375 63.6714C29.972 61.2215 31.4443 58.5222 34.1297 57.1198C36.9892 55.6248 40.2742 56.0984 42.0124 58.0984C41.1686 60.1193 39.6413 61.8694 37.5486 62.962C35.2346 64.1714 32.6602 64.3478 30.3375 63.6714Z" fill="#4267EB"/>
<path fill-rule="evenodd" clip-rule="evenodd" d="M45.9749 76.8919C47.6581 76.0126 48.3091 73.9372 47.4307 72.2558C46.551 70.574 44.4766 69.9225 42.7938 70.8004C41.112 71.6802 40.4605 73.7546 41.3398 75.4378C42.2177 77.1183 44.2935 77.7703 45.9749 76.8919ZM42.1978 83.4722C41.8324 81.0222 43.3046 78.323 45.99 76.9206C48.8495 75.4256 52.1346 75.8992 53.8727 77.8992C53.0289 79.9201 51.5017 81.6702 49.409 82.7628C47.0949 83.9722 44.5205 84.1486 42.1978 83.4722Z" fill="#4267EB"/>
<path fill-rule="evenodd" clip-rule="evenodd" d="M56.9749 96.8919C58.6581 96.0126 59.3091 93.9372 58.4307 92.2558C57.551 90.574 55.4766 89.9225 53.7938 90.8004C52.112 91.6802 51.4605 93.7546 52.3398 95.4378C53.2177 97.1183 55.2935 97.7703 56.9749 96.8919ZM53.1978 103.472C52.8324 101.022 54.3046 98.323 56.99 96.9206C59.8495 95.4256 63.1346 95.8992 64.8727 97.8992C64.0289 99.9201 62.5017 101.67 60.409 102.763C58.0949 103.972 55.5205 104.149 53.1978 103.472Z" fill="#4267EB"/>
<path fill-rule="evenodd" clip-rule="evenodd" d="M68.9749 115.892C70.6581 115.013 71.3091 112.937 70.4307 111.256C69.551 109.574 67.4766 108.922 65.7938 109.8C64.112 110.68 63.4605 112.755 64.3398 114.438C65.2177 116.118 67.2935 116.77 68.9749 115.892ZM65.1978 122.472C64.8324 120.022 66.3046 117.323 68.99 115.921C71.8495 114.426 75.1346 114.899 76.8727 116.899C76.0289 118.92 74.5017 120.67 72.409 121.763C70.0949 122.972 67.5205 123.149 65.1978 122.472Z" fill="#4267EB"/>
<path fill-rule="evenodd" clip-rule="evenodd" d="M39.9827 50.8213C37.9755 47.2001 33.4121 45.8911 29.7911 47.8983L28.7613 48.4696C25.1402 50.4769 23.831 55.0394 25.8382 58.6603L26.4087 59.6903C26.4086 59.6903 26.4087 59.6903 26.4087 59.6903C28.4159 63.3122 32.9792 64.6205 36.6002 62.6133L37.6302 62.0428C37.6301 62.0428 37.6302 62.0428 37.6302 62.0428C41.2512 60.0355 42.5604 55.4731 40.5532 51.8512L39.9827 50.8213ZM29.3063 47.0237C33.4105 44.7486 38.5824 46.2324 40.8574 50.3364L41.4278 51.3664C41.4278 51.3664 41.4278 51.3665 41.4278 51.3664C43.7027 55.4715 42.219 60.6425 38.115 62.9174L37.0851 63.4879C32.981 65.7629 27.809 64.2802 25.534 60.175L24.9636 59.1451C24.9636 59.1451 24.9636 59.1452 24.9636 59.1451C22.6887 55.041 24.1724 49.8701 28.2762 47.5952C28.2761 47.5952 28.2762 47.5951 28.2762 47.5952L29.3063 47.0237Z" fill="#555555"/>
<path fill-rule="evenodd" clip-rule="evenodd" d="M51.8431 70.6216C49.8358 67.0004 45.2725 65.6914 41.6515 67.6986L40.6217 68.2699C37.0005 70.2772 35.6914 74.8396 37.6985 78.4606L38.269 79.4906C38.269 79.4906 38.269 79.4906 38.269 79.4906C40.2763 83.1125 44.8396 84.4208 48.4606 82.4135L49.4905 81.8431C49.4905 81.8431 49.4906 81.8431 49.4905 81.8431C53.1115 79.8358 54.4207 75.2734 52.4135 71.6515L51.8431 70.6216ZM41.1667 66.8239C45.2708 64.5489 50.4427 66.0327 52.7177 70.1367L53.2882 71.1667C53.2882 71.1667 53.2882 71.1668 53.2882 71.1667C55.563 75.2718 54.0794 80.4428 49.9754 82.7177L48.9454 83.2882C44.8413 85.5632 39.6693 84.0805 37.3943 79.9753L36.8239 78.9454C36.8239 78.9454 36.824 78.9455 36.8239 78.9454C34.549 74.8413 36.0327 69.6704 40.1365 67.3955C40.1365 67.3955 40.1366 67.3954 40.1365 67.3955L41.1667 66.8239Z" fill="#555555"/>
<path fill-rule="evenodd" clip-rule="evenodd" d="M62.8431 90.6216C60.8358 87.0004 56.2725 85.6914 52.6515 87.6986L51.6217 88.2699C48.0005 90.2772 46.6914 94.8396 48.6985 98.4606L49.269 99.4906C49.269 99.4906 49.269 99.4906 49.269 99.4906C51.2763 103.113 55.8396 104.421 59.4606 102.414L60.4905 101.843C60.4905 101.843 60.4906 101.843 60.4905 101.843C64.1115 99.8358 65.4207 95.2734 63.4135 91.6515L62.8431 90.6216ZM52.1667 86.8239C56.2708 84.5489 61.4427 86.0327 63.7177 90.1367L64.2882 91.1667C64.2882 91.1667 64.2882 91.1668 64.2882 91.1667C66.563 95.2718 65.0794 100.443 60.9754 102.718L59.9454 103.288C55.8413 105.563 50.6693 104.08 48.3943 99.9753L47.8239 98.9454C47.8239 98.9454 47.824 98.9455 47.8239 98.9454C45.549 94.8413 47.0327 89.6704 51.1365 87.3955C51.1365 87.3955 51.1366 87.3954 51.1365 87.3955L52.1667 86.8239Z" fill="#555555"/>
<path fill-rule="evenodd" clip-rule="evenodd" d="M74.8431 109.622C72.8358 106 68.2725 104.691 64.6515 106.699L63.6217 107.27C60.0005 109.277 58.6914 113.84 60.6985 117.461L61.269 118.491C61.269 118.491 61.269 118.491 61.269 118.491C63.2763 122.113 67.8396 123.421 71.4606 121.414L72.4905 120.843C72.4905 120.843 72.4906 120.843 72.4905 120.843C76.1115 118.836 77.4207 114.273 75.4135 110.651L74.8431 109.622ZM64.1667 105.824C68.2708 103.549 73.4427 105.033 75.7177 109.137L76.2882 110.167C76.2882 110.167 76.2882 110.167 76.2882 110.167C78.563 114.272 77.0794 119.443 72.9754 121.718L71.9454 122.288C67.8413 124.563 62.6693 123.08 60.3943 118.975L59.8239 117.945C59.8239 117.945 59.824 117.945 59.8239 117.945C57.549 113.841 59.0327 108.67 63.1365 106.395C63.1365 106.396 63.1366 106.395 63.1365 106.395L64.1667 105.824Z" fill="#555555"/>
<path d="M103.82 9H135.921C140.444 9 144.144 12.7 144.144 17.223V49.324C144.144 53.847 140.444 57.548 135.921 57.548H117.748L108.251 69V57.548H103.82C99.2967 57.548 95.5957 53.847 95.5957 49.324V17.223C95.5957 12.7 99.2967 9 103.82 9Z" fill="#4267EB"/>
<path d="M123.385 28.9263C120.266 28.5013 119.876 31.5173 119.876 31.5173C119.876 31.5173 119.486 28.5013 116.367 28.9263C113.481 29.3193 111.808 35.4853 119.876 39.3223C127.943 35.4853 126.271 29.3193 123.385 28.9263Z" fill="white"/>
<path d="M103.82 34.792C103.45 27.759 107.818 21.083 114.838 18.826C122.154 16.474 129.927 19.701 133.556 26.146" stroke="white" stroke-miterlimit="10" stroke-linecap="round" stroke-linejoin="round"/>
<path d="M135.461 31.834C136.484 39.331 132.02 46.709 124.566 49.105C117.018 51.531 108.985 48.02 105.516 41.164" stroke="white" stroke-miterlimit="10" stroke-linecap="round" stroke-linejoin="round"/>
<path d="M132.45 34.6113L135.698 31.6553L138.414 34.6593" stroke="white" stroke-miterlimit="10" stroke-linecap="round" stroke-linejoin="round"/>
<path d="M107.109 32.7239L103.738 35.5389L101.152 32.4219" stroke="white" stroke-miterlimit="10" stroke-linecap="round" stroke-linejoin="round"/>
</svg>
