<svg width="150" height="150" viewBox="0 0 150 150" fill="none" xmlns="http://www.w3.org/2000/svg">
<path d="M99.1955 117.732L51.0209 95.1456C45.8628 92.7271 43.6212 86.5288 46.0397 81.3707L75.4599 18.622C77.8776 13.4639 84.0767 11.2223 89.2348 13.6408L137.409 36.2266C142.567 38.6452 144.809 44.8443 142.391 50.0024L112.97 112.751C110.552 117.909 104.354 120.151 99.1955 117.732Z" fill="#F5F5F5"/>
<path fill-rule="evenodd" clip-rule="evenodd" d="M89.0227 14.0936C84.1145 11.7923 78.2132 13.9263 75.9128 18.8343L75.9128 18.8344L46.4926 81.5831L46.0406 81.3711L46.4926 81.5831C44.1913 86.4911 46.3252 92.3917 51.2333 94.693L99.4078 117.28C104.316 119.581 110.216 117.447 112.518 112.539L141.938 49.7902L142.391 50.0025L141.938 49.7902C144.239 44.8821 142.105 38.9808 137.197 36.6795L89.0227 14.0936L89.2349 13.6409L89.0227 14.0936ZM75.0073 18.4099C77.5422 13.0017 84.0391 10.6525 89.4472 13.1882L137.622 35.774L137.409 36.2268L137.622 35.7741C143.03 38.3098 145.379 44.8066 142.843 50.2148L113.423 112.963C110.887 118.372 104.392 120.721 98.9833 118.185L50.8088 95.5984C45.4007 93.0626 43.0514 86.5667 45.5871 81.1585L75.0073 18.4099C75.0073 18.4099 75.0073 18.4099 75.0073 18.4099Z" fill="#555555"/>
<path d="M106.753 40.1624C102.89 39.1715 101.212 34.779 103.343 31.4852C104.647 29.4698 107.162 28.4703 109.487 29.0667C113.35 30.0576 115.029 34.451 112.898 37.7447C111.593 39.7593 109.077 40.7588 106.753 40.1624ZM137.41 36.2273L88.4664 13.2798C85.2495 11.7719 78.4005 12.8673 75.8153 17.8649L68.0039 34.5252L134.935 65.9056L142.391 50.0022C145.444 42.8002 140.627 37.7361 137.41 36.2273Z" fill="#D1DDFB"/>
<path fill-rule="evenodd" clip-rule="evenodd" d="M81.764 12.6527C84.2819 11.9192 86.9299 12.0074 88.6786 12.8271L137.622 35.7746C139.321 36.5714 141.415 38.2884 142.695 40.749C143.986 43.2305 144.439 46.4531 142.851 50.1973L142.848 50.2059L135.175 66.5705L67.3389 34.7656L75.3667 17.6437L75.3712 17.6351C76.7426 14.9838 79.2328 13.3901 81.764 12.6527ZM76.2638 18.086L68.6688 34.2847L134.694 65.2406L141.934 49.7984C143.396 46.3443 142.966 43.4368 141.808 41.2105C140.638 38.9614 138.716 37.392 137.198 36.68M137.198 36.68L88.2541 13.7325C88.2541 13.7325 88.2541 13.7326 88.2541 13.7325C86.7858 13.0443 84.4008 12.9262 82.0437 13.6128C79.7028 14.2947 77.4784 15.7447 76.2638 18.086M109.363 29.551C107.249 29.0086 104.951 29.9196 103.762 31.7568C101.816 34.7651 103.347 38.7724 106.877 39.678C108.991 40.2204 111.289 39.3094 112.478 37.4731C114.424 34.4648 112.893 30.4566 109.363 29.551ZM109.612 28.5824C113.807 29.6585 115.633 34.4372 113.317 38.0163C111.898 40.209 109.164 41.2972 106.629 40.6467C102.434 39.5705 100.607 34.7928 102.923 31.2136C104.342 29.0199 107.075 27.9319 109.612 28.5824Z" fill="#555555"/>
<path d="M108.118 34.6143C106.472 33.8427 105.757 31.8644 106.529 30.2184L112.39 17.7166C113.162 16.0706 115.14 15.3551 116.786 16.1267C118.432 16.8984 119.148 18.8767 118.376 20.5227L112.514 33.0244C111.743 34.6704 109.764 35.386 108.118 34.6143Z" fill="#D3D6E4"/>
<path fill-rule="evenodd" clip-rule="evenodd" d="M116.574 16.5795C115.178 15.9251 113.497 16.533 112.843 17.929L106.981 30.4307C106.981 30.4307 106.981 30.4307 106.981 30.4307C106.327 31.8267 106.935 33.5073 108.331 34.1617C109.727 34.8162 111.407 34.2083 112.062 32.8123L117.923 20.3106C117.923 20.3106 117.923 20.3106 117.923 20.3106C118.578 18.9146 117.97 17.234 116.574 16.5795ZM111.938 17.5045C112.826 15.6085 115.102 14.7852 116.998 15.6741C118.895 16.563 119.718 18.839 118.829 20.735L112.967 33.2368C112.078 35.1328 109.802 35.9561 107.906 35.0672C106.01 34.1783 105.187 31.9023 106.076 30.0062L111.938 17.5045C111.938 17.5045 111.938 17.5045 111.938 17.5045Z" fill="#555555"/>
<path d="M102.825 70.3025C100.714 74.804 95.3533 76.7425 90.851 74.6316C86.3495 72.5211 84.4102 67.16 86.5207 62.6585C88.6319 58.1554 93.9935 56.2172 98.4954 58.3289C102.997 60.4386 104.935 65.8002 102.825 70.3025Z" fill="#A8B1CE"/>
<path d="M90.8149 74.7082C82.079 70.6126 72.1883 73.2823 68.7236 80.6716L67.1777 83.9688L98.8136 98.8019L100.359 95.5047C103.824 88.1145 99.5507 78.8038 90.8149 74.7082Z" fill="#A8B1CE"/>
<path d="M7.5 74.3833V130.02C7.5 133.573 10.4071 136.48 13.9606 136.48H74.9614C78.515 136.48 81.422 133.573 81.422 130.02V74.3833H7.5Z" fill="white"/>
<path fill-rule="evenodd" clip-rule="evenodd" d="M7 73.8833H81.922V130.02C81.922 133.849 78.7911 136.98 74.9614 136.98H13.9606C10.1309 136.98 7 133.849 7 130.02V73.8833ZM8 74.8833V130.02C8 133.297 10.6832 135.98 13.9606 135.98H74.9614C78.2388 135.98 80.922 133.297 80.922 130.02V74.8833H8Z" fill="#555555"/>
<path d="M43.8608 63.1447C40.7078 63.1447 38.1511 60.5881 38.1511 57.435C38.1511 54.282 40.7078 51.7254 43.8608 51.7254C47.0139 51.7254 49.5705 54.282 49.5705 57.435C49.5705 60.5881 47.0139 63.1447 43.8608 63.1447ZM74.9624 46.4619H13.9616C10.408 46.4619 7.50098 49.369 7.50098 52.9225V74.3837H81.423V52.9225C81.423 49.369 78.5151 46.4619 74.9624 46.4619Z" fill="#D3D6E4"/>
<path fill-rule="evenodd" clip-rule="evenodd" d="M7.00098 52.9225C7.00098 49.0928 10.1319 45.9619 13.9616 45.9619H74.9624C78.7912 45.9619 81.923 49.0928 81.923 52.9225V74.8837H7.00098V52.9225ZM13.9616 46.9619C10.6842 46.9619 8.00098 49.6451 8.00098 52.9225V73.8837H80.923V52.9225C80.923 49.6452 78.239 46.9619 74.9624 46.9619H13.9616ZM43.8608 52.2254C40.9839 52.2254 38.6511 54.5581 38.6511 57.435C38.6511 60.312 40.9839 62.6447 43.8608 62.6447C46.7377 62.6447 49.0705 60.312 49.0705 57.435C49.0705 54.5581 46.7377 52.2254 43.8608 52.2254ZM37.6511 57.435C37.6511 54.0058 40.4316 51.2254 43.8608 51.2254C47.29 51.2254 50.0705 54.0058 50.0705 57.435C50.0705 60.8642 47.29 63.6447 43.8608 63.6447C40.4316 63.6447 37.6511 60.8642 37.6511 57.435Z" fill="#555555"/>
<path d="M43.8605 57.4351C42.0427 57.4351 40.5547 55.9479 40.5547 54.1293V40.3216C40.5547 38.5038 42.0427 37.0166 43.8605 37.0166C45.6783 37.0166 47.1664 38.5038 47.1664 40.3216V54.1293C47.1664 55.9479 45.6783 57.4351 43.8605 57.4351Z" fill="#A8B1CE"/>
<path fill-rule="evenodd" clip-rule="evenodd" d="M43.8605 37.5166C42.3187 37.5166 41.0547 38.7801 41.0547 40.3216V54.1293C41.0547 55.6717 42.3188 56.9351 43.8605 56.9351C45.4022 56.9351 46.6664 55.6717 46.6664 54.1293V40.3216C46.6664 38.7801 45.4023 37.5166 43.8605 37.5166ZM40.0547 40.3216C40.0547 38.2275 41.7668 36.5166 43.8605 36.5166C45.9543 36.5166 47.6664 38.2275 47.6664 40.3216V54.1293C47.6664 56.2241 45.9544 57.9351 43.8605 57.9351C41.7667 57.9351 40.0547 56.2241 40.0547 54.1293V40.3216Z" fill="#555555"/>
<path d="M54.2158 93.9951C54.2158 98.9677 50.1849 102.999 45.2124 102.999C40.2398 102.999 36.209 98.9677 36.209 93.9951C36.209 89.0225 40.2398 84.9917 45.2124 84.9917C50.1849 84.9917 54.2158 89.0225 54.2158 93.9951Z" fill="#4267EB"/>
<path d="M45.2122 103.083C35.564 103.083 27.7422 109.699 27.7422 117.861V121.502H62.6822V117.861C62.6822 109.699 54.8604 103.083 45.2122 103.083Z" fill="#4267EB"/>
</svg>
