<svg width="150" height="150" viewBox="0 0 150 150" fill="none" xmlns="http://www.w3.org/2000/svg">
<path d="M114.802 75.435C116.076 79.0276 119.536 86.1725 123.15 86.2137C123.15 86.2137 125.981 86.0938 126.047 82.5268C126.108 81.5734 125.412 73.0923 125.146 70.9329C125.146 70.9329 124.389 63.3965 120.312 63.0506" stroke="#555555" stroke-miterlimit="10" stroke-linecap="round" stroke-linejoin="round"/>
<path fill-rule="evenodd" clip-rule="evenodd" d="M109.964 65.1398C110.239 65.1638 110.482 64.9604 110.506 64.6854C110.506 64.6855 110.506 64.6853 110.506 64.6854L110.008 64.6417C110.506 64.6852 110.506 64.6853 110.506 64.6854L110.506 64.6831L110.507 64.673L110.511 64.6301C110.515 64.5917 110.522 64.5342 110.531 64.4603C110.549 64.3124 110.578 64.0995 110.622 63.843C110.71 63.3281 110.856 62.6467 111.086 61.9675C111.317 61.2829 111.623 60.6319 112.018 60.1543C112.406 59.6838 112.852 59.4118 113.384 59.3917C113.66 59.3813 113.876 59.1491 113.865 58.8732C113.855 58.5972 113.623 58.382 113.347 58.3924C112.447 58.4263 111.756 58.9 111.246 59.5177C110.742 60.1283 110.388 60.908 110.138 61.6473C109.887 62.392 109.73 63.1278 109.637 63.6741C109.59 63.9482 109.558 64.1768 109.538 64.3379C109.528 64.4185 109.521 64.4823 109.517 64.5266L109.512 64.578L109.51 64.5922L109.51 64.5963L109.51 64.5975C109.51 64.5977 109.51 64.5983 110.008 64.6417L109.51 64.5975C109.486 64.8726 109.689 65.1158 109.964 65.1398Z" fill="#555555"/>
<path fill-rule="evenodd" clip-rule="evenodd" d="M115.275 73.8768C115.551 73.8859 115.782 73.6696 115.791 73.3937C115.791 73.3938 115.791 73.3937 115.791 73.3937L115.291 73.3771C115.791 73.3935 115.791 73.3936 115.791 73.3937L115.791 73.3914L115.792 73.3813L115.794 73.3382C115.795 73.2996 115.799 73.2419 115.804 73.1676C115.814 73.019 115.832 72.8047 115.862 72.5462C115.922 72.0273 116.031 71.3391 116.223 70.6484C116.417 69.9523 116.688 69.2857 117.055 68.7875C117.418 68.2967 117.848 68.0009 118.379 67.952C118.654 67.9267 118.856 67.6832 118.831 67.4083C118.806 67.1333 118.562 66.9309 118.287 66.9562C117.39 67.0388 116.727 67.5491 116.251 68.1936C115.781 68.8305 115.469 69.6282 115.26 70.38C115.049 71.1372 114.932 71.8804 114.868 72.4309C114.836 72.7071 114.817 72.9372 114.806 73.0991C114.801 73.1801 114.797 73.2442 114.795 73.2886L114.792 73.3403L114.792 73.3545L114.792 73.3586L114.792 73.3599C114.792 73.36 114.792 73.3606 115.291 73.3771L114.792 73.3599C114.783 73.6359 114.999 73.8677 115.275 73.8768Z" fill="#555555"/>
<path fill-rule="evenodd" clip-rule="evenodd" d="M122.792 84.7275C123.009 84.6939 123.159 84.4903 123.125 84.2727C123.125 84.2727 123.125 84.2726 123.125 84.2727L122.731 84.3333C123.125 84.2725 123.125 84.2726 123.125 84.2727L123.125 84.2708L123.124 84.2628L123.119 84.2288C123.115 84.1983 123.109 84.1525 123.102 84.0936C123.088 83.9755 123.07 83.805 123.055 83.5979C123.026 83.1823 123.01 82.6268 123.059 82.057C123.108 81.4828 123.222 80.9203 123.437 80.4755C123.648 80.0374 123.942 79.742 124.351 79.6254C124.562 79.5649 124.685 79.3442 124.625 79.1324C124.564 78.9206 124.344 78.7979 124.132 78.8583C123.441 79.0554 122.996 79.5534 122.718 80.1287C122.444 80.6974 122.317 81.3686 122.264 81.9887C122.21 82.6134 122.229 83.2131 122.26 83.6541C122.275 83.8754 122.294 84.0585 122.31 84.187C122.317 84.2513 122.324 84.3021 122.329 84.3373L122.334 84.3782L122.336 84.3894L122.337 84.3926L122.337 84.3936C122.337 84.3937 122.337 84.3942 122.731 84.3333L122.337 84.3936C122.37 84.6113 122.574 84.7611 122.792 84.7275Z" fill="#555555"/>
<path fill-rule="evenodd" clip-rule="evenodd" d="M81.1058 68.8985C80.8704 69.0429 80.7966 69.3507 80.9409 69.5861C82.1806 71.608 83.5826 72.513 85.0476 72.5715C86.4751 72.6286 87.8047 71.8711 88.8989 70.9384C90.0037 69.9967 90.9423 68.8134 91.5996 67.8779C91.9298 67.4078 92.1924 66.9954 92.373 66.6996C92.4633 66.5517 92.5332 66.4327 92.5809 66.35C92.6048 66.3087 92.6231 66.2764 92.6356 66.2541L92.6501 66.2283L92.654 66.2212L92.6552 66.2191C92.6553 66.2189 92.6557 66.2181 92.2175 65.9773L92.6557 66.2181C92.7887 65.9761 92.7003 65.6721 92.4583 65.5391C92.2163 65.4062 91.9124 65.4945 91.7794 65.7365C91.7794 65.7364 91.7793 65.7365 91.7794 65.7365M91.7794 65.7365L91.7788 65.7375L91.7761 65.7424L91.7641 65.7638C91.7533 65.783 91.7368 65.8121 91.7148 65.8502C91.6709 65.9263 91.6051 66.0382 91.5194 66.1786C91.3479 66.4596 91.0971 66.8536 90.7813 67.303C90.1468 68.2063 89.2639 69.3133 88.2502 70.1774C87.2258 71.0505 86.1399 71.6144 85.0875 71.5723C84.0725 71.5318 82.9301 70.9173 81.7934 69.0635C81.6491 68.828 81.3413 68.7542 81.1058 68.8985" fill="#555555"/>
<path d="M19.2266 139.445C19.2266 139.445 41.1505 74.2212 56.3141 59.971" stroke="#555555" stroke-miterlimit="10" stroke-linecap="round" stroke-linejoin="round"/>
<path fill-rule="evenodd" clip-rule="evenodd" d="M71.2682 126.46C71.4897 126.625 71.8029 126.579 71.9679 126.357C78.8902 117.06 80.7744 108.066 80.9217 101.389C80.9953 98.0529 80.6354 95.2969 80.2559 93.3715C80.0661 92.4086 79.8713 91.6529 79.723 91.1355C79.6759 90.9711 79.6335 90.8307 79.5975 90.7154C79.6545 90.6785 79.7182 90.637 79.7881 90.5906C80.1244 90.3681 80.6065 90.0359 81.1957 89.5941C82.3739 88.7107 83.9825 87.3873 85.7119 85.6226C89.169 82.0949 93.1224 76.7891 95.0702 69.6957C96.034 66.1845 96.0175 63.9083 95.2769 62.5305C94.4923 61.0709 93.0087 60.7829 91.5849 60.9471C90.1624 61.1112 88.6446 61.7328 87.5076 62.2926C86.9336 62.5752 86.4454 62.8478 86.1002 63.05C85.9275 63.1511 85.7902 63.2349 85.6954 63.2938C85.6481 63.3232 85.6113 63.3465 85.586 63.3626L85.5569 63.3813L85.5489 63.3864L85.5467 63.3878C85.5465 63.388 85.5456 63.3886 85.8187 63.8074C85.5234 63.4039 85.5233 63.404 85.5231 63.4041L84.3798 64.2418C83.6517 64.7756 82.611 65.539 81.3605 66.4576C78.8595 68.2948 75.5189 70.7532 72.1611 73.2373C68.8036 75.7212 65.4277 78.2317 62.8565 80.173C61.5712 81.1435 60.4849 81.9732 59.702 82.5867C59.311 82.8932 58.9926 83.1481 58.7619 83.3407C58.6469 83.4367 58.5499 83.5203 58.4752 83.5889C58.4167 83.6426 58.3275 83.7261 58.2713 83.8105C58.1181 84.0403 58.1803 84.3507 58.4101 84.5038C58.6331 84.6524 58.932 84.5983 59.0894 84.385C59.0894 84.385 59.0894 84.385 59.0894 84.385C59.0898 84.3853 59.1057 84.3676 59.1515 84.3256C59.2095 84.2723 59.2929 84.2 59.4028 84.1083C59.6216 83.9256 59.9306 83.6781 60.3189 83.3738C61.0946 82.7659 62.1751 81.9405 63.459 80.9711C66.0263 79.0328 69.399 76.5246 72.7559 74.0412C76.1124 71.558 79.452 69.1004 81.9525 67.2635C83.2027 66.3451 84.2432 65.5819 84.971 65.0483L86.1022 64.2195L86.1235 64.2058C86.1457 64.1917 86.1793 64.1705 86.2233 64.1431C86.3114 64.0884 86.4411 64.0092 86.6056 63.9128C86.9349 63.72 87.4015 63.4595 87.9494 63.1897C89.0561 62.6448 90.4501 62.0846 91.6995 61.9405C92.9477 61.7965 93.8962 62.0739 94.3961 63.004C94.94 64.0158 95.0605 65.9534 94.1059 69.431C92.2161 76.3132 88.3754 81.4759 84.9977 84.9226C83.3097 86.6451 81.7408 87.9355 80.5958 88.794C80.0235 89.2232 79.5575 89.5441 79.2362 89.7568C79.0755 89.8631 78.9511 89.9424 78.8676 89.9946C78.8258 90.0207 78.7943 90.04 78.7737 90.0526L78.7509 90.0663L78.7458 90.0694L78.7449 90.0699C78.745 90.0699 78.7448 90.07 78.7449 90.0699C78.538 90.1926 78.4476 90.4454 78.53 90.6715C78.53 90.6714 78.5301 90.6716 78.53 90.6715L78.5306 90.6729L78.5332 90.6803L78.5449 90.7136C78.5554 90.744 78.5712 90.7905 78.5916 90.8527C78.6323 90.9772 78.6912 91.1646 78.7617 91.4109C78.9029 91.9036 79.0908 92.6319 79.2747 93.5649C79.6426 95.4312 79.9937 98.1143 79.9219 101.367C79.7785 107.869 77.9462 116.654 71.1658 125.76C71.0009 125.982 71.0467 126.295 71.2682 126.46ZM85.8187 63.8074L85.5231 63.4041C85.5304 63.3988 85.5381 63.3935 85.5456 63.3886L85.8187 63.8074Z" fill="#555555"/>
<path d="M92 113C92 113 87.5301 124.53 75.145 127.964L68 141" stroke="#555555" stroke-miterlimit="10" stroke-linecap="round" stroke-linejoin="round"/>
<path d="M62.6042 81L46.4055 28.5219C46.4055 28.5219 43.2502 19.4954 54.4995 16C65.7479 12.5037 88.0997 7.36183 88.0997 7.36183C88.0997 7.36183 93.8224 5.11396 96.8201 11.8238C99.8178 18.5337 106.812 42.5098 106.812 42.5098C106.812 42.5098 118.803 30.7014 121.999 27.9766C125.196 25.2518 124.435 18.3486 120.619 16.8959C116.804 15.4423 101.907 25.9786 101.907 25.9786" stroke="#555555" stroke-miterlimit="10" stroke-linecap="round" stroke-linejoin="round"/>
<path fill-rule="evenodd" clip-rule="evenodd" d="M123.54 86.5249C123.802 86.4391 124.085 86.5824 124.17 86.8448L125.613 93.3199C125.619 93.3328 125.627 93.3492 125.636 93.3689C125.659 93.4198 125.691 93.4929 125.73 93.5858C125.808 93.7715 125.911 94.0371 126.017 94.3622C126.228 95.0098 126.452 95.9078 126.493 96.8901C126.535 97.8725 126.394 98.9628 125.85 99.9705C125.301 100.987 124.364 101.878 122.886 102.488C120.101 103.637 110.486 106.839 101.598 109.744C97.1477 111.199 92.87 112.583 89.705 113.603C88.1224 114.112 86.818 114.531 85.9092 114.823C85.4548 114.969 85.0993 115.083 84.8574 115.16L84.4875 115.278C84.4875 115.278 84.4871 115.279 84.3349 114.802C84.4865 115.279 84.4861 115.279 84.4861 115.279L84.4844 115.279L84.4812 115.28L84.4715 115.283L84.4396 115.293C84.4128 115.301 84.3752 115.311 84.3278 115.323C84.2331 115.347 84.099 115.378 83.9346 115.408C83.6074 115.466 83.1517 115.519 82.6434 115.494C81.6267 115.444 80.3416 115.076 79.5177 113.759C79.5041 113.737 79.4921 113.714 79.4819 113.691L78.5404 111.49C78.4318 111.237 78.5496 110.943 78.8034 110.834C79.0573 110.725 79.3512 110.843 79.4598 111.097L80.3854 113.26C80.9743 114.175 81.8747 114.455 82.6922 114.495C83.1057 114.515 83.4836 114.472 83.7594 114.423C83.8965 114.399 84.0064 114.373 84.0802 114.354C84.1171 114.345 84.1449 114.337 84.1625 114.332L84.181 114.327L84.183 114.326L84.1841 114.326L84.1886 114.324L84.5525 114.208C84.7942 114.13 85.1496 114.016 85.6038 113.871C86.5122 113.579 87.8162 113.16 89.3983 112.651C92.5624 111.631 96.8387 110.248 101.288 108.794C110.199 105.881 119.764 102.694 122.504 101.564C123.79 101.034 124.541 100.29 124.97 99.4954C125.404 98.6919 125.531 97.7947 125.494 96.9322C125.458 96.0696 125.259 95.2652 125.066 94.6715C124.97 94.376 124.877 94.1363 124.808 93.9718C124.773 93.8897 124.745 93.8265 124.726 93.7849C124.717 93.7641 124.709 93.7487 124.705 93.7389L124.7 93.7287L124.699 93.7272C124.689 93.7061 124.68 93.6839 124.672 93.6616L123.22 87.1554C123.134 86.8929 123.277 86.6106 123.54 86.5249ZM84.3349 114.802L84.4861 115.279L84.4875 115.278L84.3349 114.802Z" fill="#555555"/>
<path d="M66 78.0369L51.4112 27.5379C51.4112 27.5379 48.5626 19.8562 52.2531 17C52.2531 17 43.6534 19.1405 46.624 29.2722C49.9574 40.6418 62.0461 81 62.0461 81L66 78.0369Z" fill="#D3D6E4" stroke="#555555" stroke-linecap="round" stroke-linejoin="round"/>
<path d="M98.6074 57.5299L79.4303 63.6948C76.1032 64.764 72.5393 62.9344 71.4701 59.6074L65.3052 40.4303C64.236 37.1032 66.0656 33.5393 69.3926 32.4701L88.5697 26.3052C91.8968 25.236 95.4607 27.0656 96.5299 30.3926L102.695 49.5697C103.764 52.8968 101.934 56.4607 98.6074 57.5299Z" fill="#4267EB"/>
<path d="M80.593 16.97L68.7914 19.978C68.4844 20.0557 68.1522 19.921 68.0533 19.6776L68.0281 19.6148C67.9292 19.3714 68.0999 19.1087 68.407 19.0303L80.2086 16.0223C80.5156 15.9439 80.8478 16.0792 80.9467 16.3226L80.9719 16.3855C81.0708 16.6289 80.9001 16.8915 80.593 16.97Z" fill="#555555" stroke="#555555" stroke-miterlimit="10" stroke-linecap="round" stroke-linejoin="round"/>
<path fill-rule="evenodd" clip-rule="evenodd" d="M107.99 100.829C106.773 100.394 104.671 100.207 101.265 101.461C97.8518 102.719 96.4579 104.158 95.8924 105.198C95.6087 105.719 95.5234 106.158 95.5045 106.454C95.495 106.603 95.5023 106.718 95.5106 106.79C95.5148 106.826 95.5192 106.852 95.5219 106.866L95.5243 106.878C95.5913 107.143 95.4329 107.413 95.168 107.483C94.9011 107.554 94.6273 107.395 94.5563 107.129L95.0396 107C94.5563 107.129 94.5562 107.128 94.5561 107.127L94.5558 107.126L94.5551 107.124L94.5537 107.118L94.5499 107.102C94.5471 107.09 94.5437 107.075 94.5401 107.056C94.5328 107.018 94.5244 106.967 94.5171 106.904C94.5027 106.779 94.4929 106.604 94.5065 106.391C94.5339 105.961 94.6553 105.379 95.0139 104.72C95.7329 103.398 97.3652 101.833 100.919 100.523C104.48 99.2109 106.832 99.3526 108.327 99.8877C109.072 100.154 109.588 100.513 109.923 100.815C110.09 100.966 110.211 101.101 110.293 101.204C110.334 101.255 110.365 101.298 110.388 101.33C110.399 101.346 110.408 101.359 110.414 101.37L110.423 101.383L110.426 101.388L110.427 101.39L110.428 101.391C110.428 101.392 110.428 101.392 110.007 101.646L110.428 101.391C110.57 101.628 110.494 101.936 110.258 102.078C110.023 102.22 109.718 102.145 109.574 101.912C109.575 101.913 109.575 101.913 109.574 101.912L109.573 101.909C109.572 101.909 109.572 101.908 110 101.65L109.572 101.908M109.574 101.912C109.575 101.913 109.575 101.913 109.574 101.912C109.573 101.91 109.57 101.906 109.565 101.899C109.556 101.885 109.539 101.861 109.513 101.829C109.462 101.765 109.377 101.669 109.253 101.558C109.006 101.335 108.602 101.048 107.99 100.829" fill="#555555"/>
<path fill-rule="evenodd" clip-rule="evenodd" d="M89.2186 38.2845C89.1601 38.0897 89.0251 37.927 88.8444 37.8336C88.6637 37.7403 88.4529 37.7244 88.2602 37.7894L76.9996 41.593L76.1493 40.1242C75.977 39.8268 75.6247 39.6844 75.2942 39.7789L71.7942 40.7789C71.3959 40.8927 71.1653 41.3078 71.2791 41.706C71.3928 42.1043 71.808 42.3349 72.2062 42.2211L75.1441 41.3818L80.3511 50.3758C80.5278 50.6809 80.893 50.8218 81.2288 50.7143L82.8111 50.208C82.4487 50.7218 82.3229 51.3937 82.5297 52.0376C82.8793 53.1264 84.049 53.7255 85.1361 53.376C86.2241 53.0266 86.8248 51.8583 86.4744 50.7698L86.4743 50.7697C86.2681 50.1274 85.7767 49.6555 85.185 49.4483L89.7348 47.9924C89.4319 48.489 89.3382 49.1094 89.5297 49.7058C89.8793 50.7946 91.049 51.3937 92.1361 51.0442C93.2241 50.6948 93.8248 49.5265 93.4744 48.438L93.4743 48.4379C93.2833 47.8431 92.8478 47.3945 92.3146 47.1669L93.7288 46.7143C94.1233 46.5881 94.3408 46.1659 94.2145 45.7714C94.0883 45.3769 93.6661 45.1594 93.2716 45.2857L81.3467 49.1016L80.7865 48.134L90.2876 44.1928C90.6429 44.0454 90.8291 43.653 90.7186 43.2845L89.2186 38.2845ZM80.0284 46.8245L77.7663 42.9173L88.0049 39.4589L89.0872 43.0668L80.0284 46.8245ZM91.9554 48.9259C91.8755 48.6765 91.6063 48.538 91.3568 48.6184C91.1069 48.6988 90.9688 48.9684 91.0486 49.2175C91.1293 49.4676 91.3989 49.6056 91.648 49.5256C91.8978 49.445 92.0358 49.1758 91.9556 48.9267L91.9554 48.9259ZM84.9554 51.2577C84.8755 51.0083 84.6063 50.8698 84.3568 50.9502C84.1069 51.0306 83.9688 51.3002 84.0486 51.5493C84.1293 51.7994 84.3989 51.9374 84.648 51.8574C84.8978 51.7768 85.0358 51.5076 84.9556 51.2585L84.9554 51.2577Z" fill="white"/>
<path d="M111.149 38C111.149 38 117.644 42.4288 115.603 52.9424C115.603 52.9424 114.401 60.8386 113.561 63.456C112.873 67.192 110.158 66.9983 110.158 66.9983C106.446 66.4454 104.658 62.4781 105.054 57.66L106.842 42.0413" stroke="#555555" stroke-miterlimit="10" stroke-linecap="round" stroke-linejoin="round"/>
<path d="M115.536 51.9367C115.536 51.9367 120.748 54.2809 120.523 59.5739C120.288 65.1199 119.503 71.2561 119.307 72.191C118.733 75.7131 115.914 75.4282 115.914 75.4282C111.493 75.4343 110.758 71.0522 110.008 67.3139" stroke="#555555" stroke-miterlimit="10" stroke-linecap="round" stroke-linejoin="round"/>
<path d="M77 116.5L79.0209 112C79.0209 112 79.5 115.5 85 115C85 115 79.5 117 77 116.5Z" fill="#A8B1CE"/>
<path fill-rule="evenodd" clip-rule="evenodd" d="M79.5158 111.929C79.4843 111.709 79.3119 111.537 79.0922 111.505C78.8713 111.473 78.6562 111.592 78.5648 111.795L76.5439 116.295C76.4815 116.434 76.4858 116.594 76.5555 116.729C76.6252 116.864 76.7527 116.96 76.9019 116.99C77.609 117.132 78.4872 117.092 79.3717 116.972C80.2656 116.851 81.2084 116.643 82.063 116.421C82.919 116.199 83.6945 115.962 84.2557 115.78C84.5365 115.689 84.7643 115.612 84.9223 115.557C85.0013 115.53 85.0629 115.508 85.105 115.493L85.1533 115.476L85.1661 115.471L85.1704 115.47C85.1705 115.47 85.1709 115.47 85 115L85.1704 115.47C85.4066 115.384 85.5428 115.136 85.488 114.891C85.4332 114.645 85.2049 114.479 84.9547 114.502C82.3194 114.741 80.9832 114.02 80.3026 113.335C79.9541 112.984 79.7555 112.622 79.6446 112.35C79.5891 112.214 79.5559 112.102 79.5371 112.027C79.5277 111.99 79.522 111.962 79.5188 111.946L79.5158 111.929C79.5158 111.929 79.5157 111.929 79.5158 111.929ZM82.1452 115.365C80.9673 115.106 80.1517 114.602 79.5933 114.04C79.3391 113.784 79.1443 113.522 78.9956 113.277L77.738 116.077C78.1758 116.091 78.6849 116.056 79.2377 115.981C80.0781 115.867 80.9791 115.669 81.812 115.453C81.9246 115.424 82.0358 115.395 82.1452 115.365Z" fill="#555555"/>
</svg>
