<svg width="150" height="150" viewBox="0 0 150 150" fill="none" xmlns="http://www.w3.org/2000/svg">
<path d="M-nan -nanL47.9566 56.1493C48.5329 56.05 49.1168 56 49.7016 56H50.4092C52.4569 56 54.1169 57.66 54.1169 59.7077V105.765H18.1167V91.5743C18.1167 74.0776 30.7143 59.1221 47.9566 56.1493L-nan -nanZ" fill="white"/>
<path fill-rule="evenodd" clip-rule="evenodd" d="M47.8716 55.6566C48.4761 55.5524 49.0883 55.5 49.7016 55.5H50.4092C52.733 55.5 54.6169 57.3839 54.6169 59.7077V105.765C54.6169 106.041 54.393 106.265 54.1169 106.265H18.1167C17.8406 106.265 17.6167 106.041 17.6167 105.765V91.5743C17.6167 73.8342 30.3895 58.6708 47.8716 55.6566ZM49.7016 56.5C49.1452 56.5 48.5898 56.5475 48.0415 56.6421C31.039 59.5735 18.6167 74.3209 18.6167 91.5743V105.265H53.6169V59.7077C53.6169 57.9361 52.1807 56.5 50.4092 56.5H49.7016Z" fill="#555555"/>
<path d="M15.9995 102.529C15.9995 101.977 16.4472 101.529 16.9995 101.529H123C123.552 101.529 124 101.977 124 102.529V104.765C124 105.317 123.552 105.765 123 105.765H16.9995C16.4472 105.765 15.9995 105.317 15.9995 104.765V102.529Z" fill="#F5F5F5"/>
<path fill-rule="evenodd" clip-rule="evenodd" d="M15.4995 102.529C15.4995 101.701 16.1711 101.029 16.9995 101.029H123C123.828 101.029 124.5 101.701 124.5 102.529V104.765C124.5 105.593 123.828 106.265 123 106.265H16.9995C16.1711 106.265 15.4995 105.593 15.4995 104.765V102.529ZM16.9995 102.029C16.7234 102.029 16.4995 102.253 16.4995 102.529V104.765C16.4995 105.041 16.7234 105.265 16.9995 105.265H123C123.276 105.265 123.5 105.041 123.5 104.765V102.529C123.5 102.253 123.276 102.029 123 102.029H16.9995Z" fill="#555555"/>
<path fill-rule="evenodd" clip-rule="evenodd" d="M42.4694 57.0879C42.7455 57.0879 42.9694 57.3117 42.9694 57.5879V80.8821C42.9694 81.1583 42.7455 81.3821 42.4694 81.3821H19.7046C19.4284 81.3821 19.2046 81.1583 19.2046 80.8821C19.2046 80.606 19.4284 80.3821 19.7046 80.3821H41.9694V57.5879C41.9694 57.3117 42.1932 57.0879 42.4694 57.0879Z" fill="#555555"/>
<path d="M56.2339 64.2949C56.2339 62.6381 57.577 61.2949 59.2339 61.2949H118.881C120.538 61.2949 121.881 62.6381 121.881 64.2949V101.53H56.2339V64.2949Z" fill="white"/>
<path fill-rule="evenodd" clip-rule="evenodd" d="M55.7339 64.2949C55.7339 62.3619 57.3009 60.7949 59.2339 60.7949H118.881C120.814 60.7949 122.381 62.3619 122.381 64.2949V102.03H55.7339V64.2949ZM59.2339 61.7949C57.8532 61.7949 56.7339 62.9142 56.7339 64.2949V101.03H121.381V64.2949C121.381 62.9142 120.262 61.7949 118.881 61.7949H59.2339Z" fill="#555555"/>
<path d="M24.4697 94.1172H18.1167V98.3525H24.4697V94.1172Z" fill="#F5F5F5"/>
<path fill-rule="evenodd" clip-rule="evenodd" d="M17.6167 94.1172C17.6167 93.841 17.8406 93.6172 18.1167 93.6172H24.4697C24.7458 93.6172 24.9697 93.841 24.9697 94.1172V98.3525C24.9697 98.6286 24.7458 98.8525 24.4697 98.8525H18.1167C17.8406 98.8525 17.6167 98.6286 17.6167 98.3525V94.1172ZM18.6167 94.6172V97.8525H23.9697V94.6172H18.6167Z" fill="#555555"/>
<path d="M37.7049 84.5879H32.4108C32.1184 84.5879 31.8813 84.8249 31.8813 85.1173C31.8813 85.4097 32.1184 85.6467 32.4108 85.6467H37.7049C37.9973 85.6467 38.2343 85.4097 38.2343 85.1173C38.2343 84.8249 37.9973 84.5879 37.7049 84.5879Z" fill="#555555"/>
<path d="M51.9991 106.293C51.9991 111.849 47.4956 116.352 41.9402 116.352C36.3849 116.352 31.8813 111.849 31.8813 106.293C31.8813 100.738 36.3849 96.2344 41.9402 96.2344C47.4956 96.2344 51.9991 100.738 51.9991 106.293Z" fill="#D9D9D9"/>
<path fill-rule="evenodd" clip-rule="evenodd" d="M41.9402 115.352C46.9433 115.352 50.9991 111.296 50.9991 106.293C50.9991 101.29 46.9433 97.2344 41.9402 97.2344C36.9371 97.2344 32.8813 101.29 32.8813 106.293C32.8813 111.296 36.9371 115.352 41.9402 115.352ZM41.9402 116.352C47.4956 116.352 51.9991 111.849 51.9991 106.293C51.9991 100.738 47.4956 96.2344 41.9402 96.2344C36.3849 96.2344 31.8813 100.738 31.8813 106.293C31.8813 111.849 36.3849 116.352 41.9402 116.352Z" fill="#555555"/>
<path d="M46.7047 106.294C46.7047 108.926 44.5715 111.059 41.94 111.059C39.3085 111.059 37.1753 108.926 37.1753 106.294C37.1753 103.663 39.3085 101.529 41.94 101.529C44.5715 101.529 46.7047 103.663 46.7047 106.294Z" fill="white"/>
<path fill-rule="evenodd" clip-rule="evenodd" d="M41.94 110.059C44.0192 110.059 45.7047 108.373 45.7047 106.294C45.7047 104.215 44.0192 102.529 41.94 102.529C39.8608 102.529 38.1753 104.215 38.1753 106.294C38.1753 108.373 39.8608 110.059 41.94 110.059ZM41.94 111.059C44.5715 111.059 46.7047 108.926 46.7047 106.294C46.7047 103.663 44.5715 101.529 41.94 101.529C39.3085 101.529 37.1753 103.663 37.1753 106.294C37.1753 108.926 39.3085 111.059 41.94 111.059Z" fill="#555555"/>
<path d="M108.117 106.293C108.117 111.849 103.614 116.352 98.0584 116.352C92.503 116.352 87.9995 111.849 87.9995 106.293C87.9995 100.738 92.503 96.2344 98.0584 96.2344C103.614 96.2344 108.117 100.738 108.117 106.293Z" fill="#D9D9D9"/>
<path fill-rule="evenodd" clip-rule="evenodd" d="M98.0584 115.352C103.061 115.352 107.117 111.296 107.117 106.293C107.117 101.29 103.061 97.2344 98.0584 97.2344C93.0553 97.2344 88.9995 101.29 88.9995 106.293C88.9995 111.296 93.0553 115.352 98.0584 115.352ZM98.0584 116.352C103.614 116.352 108.117 111.849 108.117 106.293C108.117 100.738 103.614 96.2344 98.0584 96.2344C92.503 96.2344 87.9995 100.738 87.9995 106.293C87.9995 111.849 92.503 116.352 98.0584 116.352Z" fill="#555555"/>
<path d="M102.822 106.294C102.822 108.926 100.689 111.059 98.0572 111.059C95.4257 111.059 93.2925 108.926 93.2925 106.294C93.2925 103.663 95.4257 101.529 98.0572 101.529C100.689 101.529 102.822 103.663 102.822 106.294Z" fill="white"/>
<path fill-rule="evenodd" clip-rule="evenodd" d="M98.0572 110.059C100.136 110.059 101.822 108.373 101.822 106.294C101.822 104.215 100.136 102.529 98.0572 102.529C95.978 102.529 94.2925 104.215 94.2925 106.294C94.2925 108.373 95.978 110.059 98.0572 110.059ZM98.0572 111.059C100.689 111.059 102.822 108.926 102.822 106.294C102.822 103.663 100.689 101.529 98.0572 101.529C95.4257 101.529 93.2925 103.663 93.2925 106.294C93.2925 108.926 95.4257 111.059 98.0572 111.059Z" fill="#555555"/>
<path d="M133 60.5C133 72.9264 122.926 83 110.5 83C98.0736 83 88 72.9264 88 60.5C88 48.0736 98.0736 38 110.5 38C122.926 38 133 48.0736 133 60.5Z" fill="#4267EB"/>
<path d="M130 60.5C130 71.2696 121.27 80 110.5 80C99.7304 80 91 71.2696 91 60.5C91 49.7304 99.7304 41 110.5 41C121.27 41 130 49.7304 130 60.5Z" fill="#4267EB"/>
<path fill-rule="evenodd" clip-rule="evenodd" d="M110.5 41.5C100.007 41.5 91.5 50.0066 91.5 60.5C91.5 70.9934 100.007 79.5 110.5 79.5C120.993 79.5 129.5 70.9934 129.5 60.5C129.5 50.0066 120.993 41.5 110.5 41.5ZM90.5 60.5C90.5 49.4543 99.4543 40.5 110.5 40.5C121.546 40.5 130.5 49.4543 130.5 60.5C130.5 71.5457 121.546 80.5 110.5 80.5C99.4543 80.5 90.5 71.5457 90.5 60.5Z" fill="#4267EB"/>
<path fill-rule="evenodd" clip-rule="evenodd" d="M110 45.5C110.828 45.5 111.5 46.1716 111.5 47V60.2399L118.387 65.2904C119.055 65.7803 119.2 66.719 118.71 67.387C118.22 68.0551 117.281 68.1995 116.613 67.7096L109.113 62.2096C108.728 61.927 108.5 61.4778 108.5 61V47C108.5 46.1716 109.172 45.5 110 45.5Z" fill="white"/>
<path fill-rule="evenodd" clip-rule="evenodd" d="M50.5 38.5C50.5 38.2239 50.7239 38 51 38H78C78.2761 38 78.5 38.2239 78.5 38.5C78.5 38.7761 78.2761 39 78 39H51C50.7239 39 50.5 38.7761 50.5 38.5ZM57.5 43C57.5 42.7239 57.7239 42.5 58 42.5H67.5C67.7761 42.5 68 42.7239 68 43C68 43.2761 67.7761 43.5 67.5 43.5H58C57.7239 43.5 57.5 43.2761 57.5 43ZM71 43C71 42.7239 71.2239 42.5 71.5 42.5H81C81.2761 42.5 81.5 42.7239 81.5 43C81.5 43.2761 81.2761 43.5 81 43.5H71.5C71.2239 43.5 71 43.2761 71 43ZM38.5 50C38.5 49.7239 38.7239 49.5 39 49.5H71.5C71.7761 49.5 72 49.7239 72 50C72 50.2761 71.7761 50.5 71.5 50.5H39C38.7239 50.5 38.5 50.2761 38.5 50ZM130 95C130 94.7239 130.224 94.5 130.5 94.5H139.5C139.776 94.5 140 94.7239 140 95C140 95.2761 139.776 95.5 139.5 95.5H130.5C130.224 95.5 130 95.2761 130 95ZM135 100.5C135 100.224 135.224 100 135.5 100H143.5C143.776 100 144 100.224 144 100.5C144 100.776 143.776 101 143.5 101H135.5C135.224 101 135 100.776 135 100.5Z" fill="#555555"/>
</svg>
