<svg width="150" height="151" viewBox="0 0 150 151" fill="none" xmlns="http://www.w3.org/2000/svg">
<path d="M74.609 49C79.5633 49 83.5222 50.3209 86.4855 52.9626C89.4952 55.6044 91 59.3311 91 64.1429C91 68.5772 89.5646 72.0445 86.6939 74.5447C83.8694 76.9978 82.4415 77.7417 77.9229 78.2951L77.5756 83.6021H67.1576L66.8103 70.4406H70.9775C74.5428 70.4406 76.2403 70.1602 77.4805 68.8966C79.0461 67.3015 79.961 66.1379 79.961 64.1429C79.961 62.4918 79.1872 61.336 78.3074 60.3925C77.4277 59.449 76.0443 58.9065 74.4701 58.9065C72.8032 58.9065 71.5067 59.4019 70.5807 60.3925C69.6546 61.336 69.1916 62.6333 69.1916 64.2844H58.0096C57.917 61.4068 58.4958 58.8122 59.7459 56.5007C61.0424 54.1891 62.9408 52.3729 65.4411 51.0521C67.9877 49.684 71.0437 49 74.609 49ZM72.5055 102C70.4219 102 68.7087 101.387 67.366 100.16C66.0695 98.8865 65.4213 97.3298 65.4213 95.49C65.4213 93.603 66.0695 92.0227 67.366 90.749C68.7087 89.4753 70.4219 88.8385 72.5055 88.8385C74.5428 88.8385 76.2097 89.4753 77.5062 90.749C78.8489 92.0227 79.5203 93.603 79.5203 95.49C79.5203 97.3298 78.8489 98.8865 77.5062 100.16C76.2097 101.387 74.5428 102 72.5055 102Z" fill="#4267EB"/>
</svg>
