<svg width="150" height="150" viewBox="0 0 150 150" fill="none" xmlns="http://www.w3.org/2000/svg">
<path d="M42.1875 57.1875H110.625V106.875H42.1875V57.1875Z" fill="#F6FAFF"/>
<path fill-rule="evenodd" clip-rule="evenodd" d="M41.6875 57.1875C41.6875 56.9114 41.9114 56.6875 42.1875 56.6875H110.625C110.901 56.6875 111.125 56.9114 111.125 57.1875V106.875C111.125 107.151 110.901 107.375 110.625 107.375H42.1875C41.9114 107.375 41.6875 107.151 41.6875 106.875V57.1875ZM42.6875 57.6875V106.375H110.125V57.6875H42.6875Z" fill="#555555"/>
<path d="M58.1562 39.375H94.6562L110.625 57.1875H42.1875L58.1562 39.375Z" fill="white"/>
<path fill-rule="evenodd" clip-rule="evenodd" d="M57.784 39.0412C57.8788 38.9354 58.0142 38.875 58.1563 38.875H94.6563C94.7983 38.875 94.9337 38.9354 95.0286 39.0412L110.997 56.8537C111.129 57.0006 111.162 57.2112 111.082 57.3914C111.001 57.5715 110.822 57.6875 110.625 57.6875H42.1875C41.9902 57.6875 41.8114 57.5715 41.731 57.3914C41.6505 57.2112 41.6835 57.0006 41.8152 56.8537L57.784 39.0412ZM58.3795 39.875L43.3073 56.6875H109.505L94.433 39.875H58.3795Z" fill="#555555"/>
<path d="M69.375 80.625V57.1875L73.575 39.375H79.35L82.5 57.1875V80.625H69.375Z" fill="#4267EB"/>
<path fill-rule="evenodd" clip-rule="evenodd" d="M73.0883 39.2603C73.1416 39.0345 73.3431 38.875 73.575 38.875H79.35C79.5926 38.875 79.8001 39.0491 79.8424 39.2879L82.9924 57.1004C82.9974 57.1292 83 57.1583 83 57.1875V80.625C83 80.9011 82.7761 81.125 82.5 81.125H69.375C69.0989 81.125 68.875 80.9011 68.875 80.625V57.1875C68.875 57.1489 68.8795 57.1104 68.8883 57.0728L73.0883 39.2603ZM73.9708 39.875L70.0066 56.6875H81.9038L78.9307 39.875H73.9708ZM82 57.6875H69.875V80.125H82V57.6875Z" fill="#555555"/>
<path fill-rule="evenodd" clip-rule="evenodd" d="M74.9874 15.2012C74.0397 15.2012 73.097 15.2229 72.16 15.2658C71.8841 15.2784 71.6503 15.0651 71.6376 14.7892C71.625 14.5134 71.8384 14.2795 72.1142 14.2669C73.0665 14.2232 74.0244 14.2012 74.9874 14.2012C75.9826 14.2012 76.9723 14.2247 77.956 14.2713C78.2319 14.2844 78.4449 14.5186 78.4318 14.7944C78.4188 15.0702 78.1846 15.2832 77.9087 15.2702C76.9408 15.2243 75.9668 15.2012 74.9874 15.2012ZM65.0782 15.4967C65.1248 15.7689 64.9419 16.0273 64.6697 16.0739C62.7986 16.3941 60.9568 16.7998 59.1484 17.287C58.8818 17.3588 58.6074 17.2009 58.5356 16.9343C58.4637 16.6676 58.6217 16.3932 58.8883 16.3214C60.7267 15.8262 62.5991 15.4137 64.5011 15.0882C64.7732 15.0416 65.0317 15.2245 65.0782 15.4967ZM85.2416 15.5539C85.2898 15.282 85.5492 15.1006 85.8211 15.1487C87.7839 15.4961 89.7146 15.9363 91.6087 16.4646C91.8747 16.5388 92.0302 16.8145 91.956 17.0805C91.8818 17.3465 91.6061 17.502 91.3401 17.4278C89.4769 16.9082 87.5776 16.4752 85.6468 16.1334C85.3749 16.0852 85.1935 15.8258 85.2416 15.5539ZM52.2847 19.0453C52.3892 19.3009 52.2668 19.5928 52.0112 19.6973C50.2604 20.4134 48.5504 21.2088 46.8858 22.0791C46.6411 22.2071 46.339 22.1124 46.211 21.8677C46.0831 21.623 46.1777 21.3209 46.4224 21.1929C48.1146 20.3082 49.8528 19.4996 51.6327 18.7717C51.8883 18.6672 52.1802 18.7897 52.2847 19.0453ZM98.4196 19.3422C98.5275 19.0879 98.821 18.9693 99.0752 19.0771C100.904 19.8528 102.688 20.7142 104.421 21.6562C104.664 21.7881 104.754 22.0917 104.622 22.3343C104.49 22.5769 104.187 22.6667 103.944 22.5349C102.239 21.6082 100.484 20.7608 98.6847 19.9977C98.4305 19.8899 98.3118 19.5964 98.4196 19.3422ZM40.5654 25.2818C40.7226 25.5088 40.6661 25.8203 40.4391 25.9776C38.8879 27.0523 37.3892 28.1974 35.9475 29.4084C35.736 29.586 35.4207 29.5585 35.243 29.3471C35.0654 29.1356 35.0929 28.8202 35.3043 28.6426C36.7696 27.4119 38.293 26.248 39.8696 25.1556C40.0966 24.9983 40.4081 25.0548 40.5654 25.2818ZM110.419 25.9843C110.581 25.7605 110.894 25.7102 111.117 25.872C112.723 27.0328 114.271 28.2691 115.755 29.5754C115.963 29.7579 115.983 30.0738 115.8 30.2811C115.618 30.4884 115.302 30.5086 115.095 30.3261C113.634 29.0408 112.111 27.8245 110.531 26.6824C110.308 26.5206 110.257 26.208 110.419 25.9843ZM30.462 33.8941C30.6643 34.0821 30.6758 34.3985 30.4879 34.6008C29.2055 35.9806 27.9866 37.4201 26.8358 38.9146C26.6673 39.1334 26.3533 39.1742 26.1345 39.0057C25.9158 38.8372 25.875 38.5233 26.0434 38.3045C27.2132 36.7854 28.4521 35.3224 29.7553 33.92C29.9433 33.7177 30.2597 33.7061 30.462 33.8941ZM120.644 35.1245C120.851 34.9421 121.167 34.9622 121.35 35.1696C122.656 36.654 123.892 38.2018 125.053 39.8076C125.215 40.0314 125.164 40.344 124.941 40.5058C124.717 40.6675 124.404 40.6173 124.243 40.3935C123.1 38.8136 121.884 37.2908 120.599 35.8302C120.416 35.6229 120.437 35.3069 120.644 35.1245ZM22.4402 44.4722C22.6781 44.6123 22.7574 44.9188 22.6172 45.1567C21.6632 46.7763 20.7823 48.444 19.9788 50.1553C19.8614 50.4052 19.5637 50.5127 19.3137 50.3954C19.0637 50.278 18.9562 49.9802 19.0736 49.7303C19.8904 47.9907 20.7859 46.2955 21.7556 44.6492C21.8957 44.4113 22.2022 44.332 22.4402 44.4722ZM128.591 46.3029C128.833 46.1711 129.137 46.2609 129.269 46.5035C130.211 48.2371 131.072 50.0209 131.848 51.8498C131.956 52.104 131.837 52.3975 131.583 52.5053C131.329 52.6132 131.035 52.4945 130.927 52.2403C130.164 50.4411 129.317 48.6864 128.39 46.981C128.258 46.7383 128.348 46.4348 128.591 46.3029ZM16.8877 56.5311C17.1504 56.6164 17.2941 56.8985 17.2088 57.1611C16.9185 58.0551 16.6483 58.9583 16.3989 59.8699C16.326 60.1363 16.051 60.2931 15.7847 60.2203C15.5183 60.1474 15.3615 59.8724 15.4344 59.606C15.6879 58.6792 15.9626 57.7611 16.2577 56.8523C16.343 56.5896 16.6251 56.4458 16.8877 56.5311ZM133.844 58.9689C134.11 58.8948 134.386 59.0502 134.46 59.3162C134.989 61.2103 135.429 63.1411 135.776 65.1038C135.824 65.3757 135.643 65.6352 135.371 65.6833C135.099 65.7314 134.84 65.55 134.792 65.2781C134.45 63.3473 134.017 61.448 133.497 59.5849C133.423 59.3189 133.578 59.0431 133.844 58.9689ZM136.131 72.4931C136.406 72.4801 136.641 72.6931 136.654 72.9689C136.7 73.9526 136.724 74.9424 136.724 75.9375L135.724 75.9375C135.724 74.9581 135.701 73.9842 135.655 73.0162C135.642 72.7404 135.855 72.5062 136.131 72.4931Z" fill="#4267EB"/>
<path fill-rule="evenodd" clip-rule="evenodd" d="M74.9875 136.676C75.954 136.676 76.9153 136.653 77.8708 136.609C78.1466 136.596 78.3807 136.809 78.3936 137.085C78.4064 137.361 78.1933 137.595 77.9174 137.607C76.9464 137.653 75.9696 137.676 74.9875 137.676C73.9923 137.676 73.0026 137.652 72.0188 137.606C71.743 137.593 71.53 137.358 71.543 137.083C71.5561 136.807 71.7903 136.594 72.0661 136.607C73.0341 136.653 74.0081 136.676 74.9875 136.676ZM85.1006 136.347C85.0531 136.075 85.2351 135.816 85.5072 135.768C87.4142 135.435 89.2907 135.013 91.1322 134.507C91.3984 134.434 91.6736 134.59 91.7468 134.856C91.8201 135.123 91.6636 135.398 91.3973 135.471C89.5253 135.986 87.6178 136.415 85.6792 136.753C85.4071 136.801 85.1481 136.619 85.1006 136.347ZM64.7332 136.323C64.6851 136.595 64.4256 136.776 64.1537 136.728C62.191 136.381 60.2602 135.941 58.3661 135.412C58.1002 135.338 57.9447 135.062 58.0189 134.796C58.093 134.53 58.3688 134.375 58.6348 134.449C60.4979 134.969 62.3972 135.402 64.328 135.744C64.6 135.792 64.7814 136.051 64.7332 136.323ZM98.1257 132.656C98.0192 132.401 98.1394 132.108 98.3942 132.002C100.174 131.258 101.911 130.431 103.6 129.528C103.843 129.397 104.146 129.489 104.277 129.733C104.407 129.976 104.315 130.279 104.072 130.409C102.355 131.328 100.589 132.168 98.7799 132.924C98.5251 133.031 98.2322 132.911 98.1257 132.656ZM51.5552 132.535C51.4474 132.789 51.1539 132.908 50.8997 132.8C49.0708 132.024 47.287 131.163 45.5534 130.221C45.3108 130.089 45.221 129.785 45.3528 129.543C45.4847 129.3 45.7882 129.21 46.0309 129.342C47.7363 130.269 49.4911 131.116 51.2902 131.879C51.5444 131.987 51.6631 132.281 51.5552 132.535ZM110.013 126.179C109.853 125.954 109.906 125.642 110.131 125.482C111.699 124.367 113.213 123.18 114.666 121.925C114.875 121.744 115.191 121.767 115.371 121.976C115.552 122.185 115.528 122.501 115.319 122.682C113.842 123.957 112.304 125.164 110.71 126.297C110.485 126.457 110.173 126.404 110.013 126.179ZM39.5557 125.893C39.3939 126.116 39.0813 126.167 38.8575 126.005C37.2517 124.844 35.7039 123.608 34.2195 122.302C34.0122 122.119 33.992 121.803 34.1744 121.596C34.3569 121.389 34.6728 121.368 34.8801 121.551C36.3407 122.836 37.8635 124.052 39.4434 125.195C39.6672 125.356 39.7175 125.669 39.5557 125.893ZM120.191 117.253C119.986 117.069 119.969 116.753 120.154 116.547C121.438 115.119 122.656 113.63 123.802 112.085C123.967 111.863 124.28 111.817 124.502 111.981C124.723 112.146 124.77 112.459 124.605 112.681C123.44 114.252 122.203 115.765 120.897 117.216C120.712 117.421 120.396 117.438 120.191 117.253ZM29.331 116.752C29.1237 116.935 28.8078 116.915 28.6254 116.707C27.319 115.223 26.0828 113.675 24.9219 112.069C24.7601 111.846 24.8104 111.533 25.0342 111.371C25.258 111.209 25.5705 111.26 25.7323 111.483C26.8744 113.063 28.0907 114.586 29.3761 116.047C29.5585 116.254 29.5383 116.57 29.331 116.752ZM128.171 106.319C127.931 106.184 127.845 105.879 127.98 105.638C128.919 103.967 129.78 102.248 130.56 100.484C130.672 100.231 130.967 100.117 131.22 100.229C131.472 100.341 131.587 100.636 131.475 100.888C130.682 102.681 129.806 104.429 128.852 106.128C128.717 106.368 128.412 106.454 128.171 106.319ZM21.3842 105.574C21.1416 105.706 20.838 105.616 20.7062 105.373C19.7642 103.64 18.9028 101.856 18.127 100.027C18.0192 99.773 18.1379 99.4795 18.3921 99.3716C18.6463 99.2638 18.9398 99.3825 19.0476 99.6367C19.8107 101.436 20.6581 103.191 21.5848 104.896C21.7167 105.139 21.6268 105.442 21.3842 105.574ZM133.551 93.8963C133.286 93.8176 133.136 93.5392 133.214 93.2745C133.487 92.3559 133.739 91.4282 133.969 90.4919C134.035 90.2238 134.306 90.0598 134.574 90.1258C134.843 90.1917 135.006 90.4626 134.94 90.7307C134.706 91.6825 134.45 92.6256 134.173 93.5595C134.094 93.8242 133.816 93.975 133.551 93.8963ZM16.1304 92.908C15.8644 92.9822 15.5887 92.8267 15.5145 92.5607C14.9863 90.6666 14.5461 88.7359 14.1986 86.7731C14.1505 86.5012 14.3319 86.2418 14.6038 86.1936C14.8757 86.1455 15.1352 86.3269 15.1833 86.5988C15.5251 88.5297 15.9581 90.4289 16.4777 92.2921C16.5519 92.5581 16.3964 92.8338 16.1304 92.908ZM13.8443 79.3838C13.5685 79.3969 13.3343 79.1839 13.3212 78.908C13.2747 77.9243 13.2511 76.9346 13.2511 75.9394L14.2511 75.9394C14.2511 76.9188 14.2743 77.8928 14.3201 78.8607C14.3332 79.1366 14.1202 79.3708 13.8443 79.3838Z" fill="#4267EB"/>
<path d="M14.6433 73.3437L20.7055 83.8437L8.58113 83.8437L14.6433 73.3437Z" fill="#4267EB"/>
<path d="M135.581 78.4863L128.807 68.431L140.903 67.592L135.581 78.4863Z" fill="#4267EB"/>
</svg>
