<svg width="150" height="150" viewBox="0 0 150 150" fill="none" xmlns="http://www.w3.org/2000/svg">
<path d="M38.1398 69.4708C38.3224 69.178 38.6432 69 38.9883 69H112.012C112.357 69 112.678 69.178 112.86 69.4708L144.046 119.471C144.462 120.137 143.983 121 143.198 121H7.80239C7.01736 121 6.53844 120.137 6.95389 119.471L38.1398 69.4708Z" fill="white"/>
<path fill-rule="evenodd" clip-rule="evenodd" d="M37.7154 69.2062C37.9893 68.7669 38.4704 68.5 38.9881 68.5H112.012C112.529 68.5 113.01 68.7669 113.284 69.2062L144.47 119.206C145.094 120.205 144.375 121.5 143.198 121.5H7.80221C6.62468 121.5 5.90629 120.205 6.52947 119.206L37.7154 69.2062ZM38.9881 69.5C38.8155 69.5 38.6552 69.589 38.5639 69.7354L7.37795 119.735C7.17024 120.068 7.40969 120.5 7.80221 120.5H143.198C143.59 120.5 143.83 120.068 143.622 119.735L112.436 69.7354C112.345 69.589 112.184 69.5 112.012 69.5H38.9881Z" fill="#555555"/>
<path d="M43.0776 73H107.922L133 115H18L43.0776 73Z" fill="#F5F5F5"/>
<path fill-rule="evenodd" clip-rule="evenodd" d="M74.5 87.5C76.22 87.5 96 65.4562 96 53.375C96 41.2938 86.3741 31.5 74.5 31.5C62.6259 31.5 53 41.2938 53 53.375C53 65.4562 72.78 87.5 74.5 87.5ZM74.5001 61.652C79.8435 61.652 84.1751 57.3126 84.1751 51.9596C84.1751 46.6067 79.8435 42.2673 74.5001 42.2673C69.1568 42.2673 64.8251 46.6067 64.8251 51.9596C64.8251 57.3126 69.1568 61.652 74.5001 61.652Z" fill="#4267EB"/>
<path fill-rule="evenodd" clip-rule="evenodd" d="M75.5005 84.7893L73.7805 83.9493L74.2194 83.0508L75.9394 83.8908C76.1875 84.012 76.2904 84.3114 76.1692 84.5595C76.048 84.8076 75.7487 84.9105 75.5005 84.7893ZM80.4307 86.6406C80.5518 86.3925 80.8512 86.2896 81.0994 86.4108L84.5394 88.0908C84.7875 88.212 84.8904 88.5113 84.7692 88.7595C84.648 89.0076 84.3486 89.1105 84.1005 88.9893L80.6605 87.3093C80.4124 87.1882 80.3095 86.8888 80.4307 86.6406ZM89.0307 90.8406C89.1518 90.5925 89.4512 90.4896 89.6994 90.6108L93.1394 92.2908C93.3875 92.412 93.4904 92.7114 93.3692 92.9595C93.248 93.2076 92.9487 93.3105 92.7005 93.1893L89.2605 91.5093C89.0124 91.3882 88.9095 91.0888 89.0307 90.8406ZM97.6307 95.0406C97.7518 94.7925 98.0512 94.6896 98.2994 94.8108L101.739 96.4908C101.987 96.612 102.09 96.9113 101.969 97.1595C101.848 97.4076 101.549 97.5105 101.301 97.3893L97.8605 95.7093C97.6124 95.5882 97.5095 95.2888 97.6307 95.0406ZM106.231 99.2406C106.352 98.9925 106.651 98.8896 106.899 99.0108L110.339 100.691C110.587 100.812 110.69 101.111 110.569 101.359C110.448 101.608 110.149 101.711 109.901 101.589L106.461 99.9093C106.212 99.7882 106.109 99.4888 106.231 99.2406ZM117 107.167C115.527 107.167 114.333 105.973 114.333 104.5C114.333 103.027 115.527 101.833 117 101.833C118.473 101.833 119.667 103.027 119.667 104.5C119.667 105.973 118.473 107.167 117 107.167Z" fill="#4267EB"/>
<path fill-rule="evenodd" clip-rule="evenodd" d="M76.3304 82.7391L74.4304 83.0058L74.5694 83.9961L76.4694 83.7294C76.7429 83.691 76.9334 83.4382 76.8951 83.1648C76.8567 82.8913 76.6039 82.7008 76.3304 82.7391ZM81.6048 82.5038C81.6431 82.7772 81.8959 82.9678 82.1694 82.9294L85.9694 82.3961C86.2429 82.3577 86.4334 82.1049 86.3951 81.8315C86.3567 81.558 86.1039 81.3674 85.8304 81.4058L82.0304 81.9391C81.757 81.9775 81.5664 82.2303 81.6048 82.5038ZM103 76.8343C101.527 76.8343 100.333 78.0282 100.333 79.5009C100.333 80.9737 101.527 82.1676 103 82.1676C104.473 82.1676 105.667 80.9737 105.667 79.5009C105.667 78.0282 104.473 76.8343 103 76.8343ZM91.1048 81.1704C91.1431 81.4439 91.3959 81.6345 91.6694 81.5961L95.4694 81.0628C95.7429 81.0244 95.9334 80.7716 95.8951 80.4981C95.8567 80.2247 95.6039 80.0341 95.3304 80.0725L91.5304 80.6058C91.257 80.6442 91.0664 80.897 91.1048 81.1704Z" fill="#4267EB"/>
<path fill-rule="evenodd" clip-rule="evenodd" d="M73.4909 86.2536L75.2109 85.4536L74.7892 84.5469L73.0692 85.3469C72.8188 85.4633 72.7103 85.7607 72.8267 86.0111C72.9432 86.2615 73.2406 86.3701 73.4909 86.2536ZM68.5734 87.9894C68.457 87.739 68.1596 87.6304 67.9092 87.7469L64.4692 89.3469C64.2188 89.4633 64.1103 89.7607 64.2267 90.0111C64.3432 90.2615 64.6406 90.3701 64.8909 90.2536L68.3309 88.6536C68.5813 88.5371 68.6899 88.2398 68.5734 87.9894ZM59.9734 91.9894C59.857 91.739 59.5596 91.6304 59.3092 91.7469L55.8692 93.3469C55.6188 93.4633 55.5103 93.7607 55.6267 94.0111C55.7432 94.2615 56.0406 94.3701 56.2909 94.2536L59.7309 92.6536C59.9813 92.5371 60.0899 92.2398 59.9734 91.9894ZM51.3734 95.9894C51.257 95.739 50.9596 95.6304 50.7092 95.7469L47.2692 97.3469C47.0188 97.4633 46.9103 97.7607 47.0267 98.0111C47.1432 98.2615 47.4406 98.3701 47.6909 98.2536L51.1309 96.6536C51.3813 96.5371 51.4899 96.2398 51.3734 95.9894ZM42.7734 99.9894C42.657 99.739 42.3596 99.6304 42.1092 99.7469L38.6692 101.347C38.4188 101.463 38.3103 101.761 38.4267 102.011C38.5432 102.261 38.8406 102.37 39.0909 102.254L42.5309 100.654C42.7813 100.537 42.8899 100.24 42.7734 99.9894ZM32.0001 107.667C33.4728 107.667 34.6667 106.473 34.6667 105C34.6667 103.527 33.4728 102.334 32.0001 102.334C30.5273 102.334 29.3334 103.527 29.3334 105C29.3334 106.473 30.5273 107.667 32.0001 107.667Z" fill="#4267EB"/>
<path fill-rule="evenodd" clip-rule="evenodd" d="M73.3084 85.1121L75.1084 85.5121L74.8915 86.4883L73.0915 86.0883C72.8219 86.0284 72.6519 85.7613 72.7118 85.4917C72.7717 85.2222 73.0388 85.0522 73.3084 85.1121ZM68.288 84.5087C68.2281 84.7782 67.961 84.9482 67.6915 84.8883L64.0915 84.0883C63.8219 84.0284 63.6519 83.7613 63.7118 83.4917C63.7717 83.2222 64.0388 83.0522 64.3084 83.1121L67.9084 83.9121C68.178 83.972 68.3479 84.2391 68.288 84.5087ZM59.288 82.5087C59.2281 82.7782 58.961 82.9482 58.6915 82.8883L55.0915 82.0883C54.8219 82.0284 54.6519 81.7613 54.7118 81.4917C54.7717 81.2222 55.0388 81.0522 55.3084 81.1121L58.9084 81.9121C59.178 81.972 59.3479 82.2391 59.288 82.5087ZM47.9999 77.3335C49.4727 77.3335 50.6666 78.5274 50.6666 80.0002C50.6666 81.4729 49.4727 82.6669 47.9999 82.6669C46.5272 82.6669 45.3333 81.4729 45.3333 80.0002C45.3333 78.5274 46.5272 77.3335 47.9999 77.3335Z" fill="#4267EB"/>
<path fill-rule="evenodd" clip-rule="evenodd" d="M75.4827 85.6774L76.416 84.2774L75.584 83.7227L74.6506 85.1227C74.4975 85.3524 74.5595 85.6629 74.7893 85.816C75.0191 85.9692 75.3295 85.9071 75.4827 85.6774ZM72.544 89.184C72.3142 89.0308 72.0038 89.0929 71.8506 89.3227L69.984 92.1227C69.8308 92.3524 69.8929 92.6629 70.1226 92.816C70.3524 92.9692 70.6628 92.9071 70.816 92.6774L72.6827 89.8774C72.8359 89.6476 72.7738 89.3372 72.544 89.184ZM67.8773 96.184C67.6476 96.0308 67.3371 96.0929 67.184 96.3227L65.3173 99.1227C65.1641 99.3524 65.2262 99.6629 65.456 99.816C65.6857 99.9692 65.9962 99.9071 66.1493 99.6774L68.016 96.8774C68.1692 96.6476 68.1071 96.3372 67.8773 96.184ZM62 107.667C63.4727 107.667 64.6667 106.473 64.6667 105C64.6667 103.527 63.4727 102.333 62 102.333C60.5272 102.333 59.3333 103.527 59.3333 105C59.3333 106.473 60.5272 107.667 62 107.667Z" fill="#4267EB"/>
</svg>
