<svg width="86" height="86" viewBox="0 0 86 86" fill="none" xmlns="http://www.w3.org/2000/svg">
<path d="M39.9287 35.9238C35.0444 47.8002 40.7126 61.3874 52.589 66.2717C60.3512 69.464 68.3464 71.2499 77.5021 72.2872C78.0198 72.3458 78.2686 71.6657 77.8454 71.3617C75.5093 69.6835 73.0426 67.5254 72.6047 65.1603C77.1096 62.6959 80.8316 58.7303 82.9368 53.6113C87.8211 41.7349 82.1529 28.1478 70.2765 23.2635C58.4001 18.3792 44.8129 24.0474 39.9287 35.9238Z" fill="#F5F5F5" stroke="#555555" stroke-linejoin="round"/>
<line x1="53.7305" y1="38.0684" x2="72.2305" y2="38.0684" stroke="#9C9C9C" stroke-width="1.5" stroke-linecap="round"/>
<line x1="53.7305" y1="44.0684" x2="72.2305" y2="44.0684" stroke="#9C9C9C" stroke-width="1.5" stroke-linecap="round"/>
<line x1="53.7305" y1="50.0684" x2="72.2305" y2="50.0684" stroke="#9C9C9C" stroke-width="1.5" stroke-linecap="round"/>
<path d="M52.0811 28.3149C58.4024 41.1909 53.0888 56.7535 40.2127 63.0749C31.7074 67.2505 23.4966 69.7077 13.3677 71.2324C12.8605 71.3087 12.5823 70.6551 12.977 70.3275C15.3269 68.377 17.4994 66.0619 17.8219 63.3151C12.6188 60.9012 8.17735 56.7563 5.45273 51.2065C-0.868623 38.3304 4.44503 22.7679 17.3211 16.4465C30.1972 10.1252 45.7597 15.4388 52.0811 28.3149Z" fill="white" stroke="#555555" stroke-linejoin="round"/>
<path d="M26.2356 33.118C25.6182 34.353 24.1165 34.8535 22.8815 34.2361C21.6466 33.6186 21.146 32.1169 21.7635 30.882C22.3949 29.6191 23.3022 28.3758 24.6263 27.4507C25.9756 26.5079 27.6099 26 29.4996 26C33.6782 26 37.4996 29.5739 37.4996 34C37.4996 37.6256 34.8614 39.7784 32.9989 40.853C32.2924 41.2605 31.5971 41.5752 30.9996 41.811V43C30.9996 44.3807 29.8803 45.5 28.4996 45.5C27.1189 45.5 25.9996 44.3807 25.9996 43V40C25.9996 39.3204 26.2356 38 28 37.5C29.7341 37.0086 32.5 36.2639 32.5 33.5C32.5 30.7361 28 29.5893 26.2356 33.118Z" fill="#4267EB"/>
<circle cx="28.5" cy="51" r="3" fill="#4267EB"/>
</svg>
