<svg width="135" height="22" viewBox="0 0 135 22" fill="none" xmlns="http://www.w3.org/2000/svg">
<g clip-path="url(#clip0_107_1419)">
<path d="M8.98657 7.65004C8.80422 6.59504 8.43851 6.42904 7.54791 6.21904L7.6003 5.93604H14.1105L14.0591 6.21904C13.1363 6.33504 12.7172 6.47603 12.6326 6.94603C12.6114 7.06403 12.6094 7.20303 12.6265 7.36803L13.495 14.078H13.5897L16.2433 8.65804C16.5355 8.04904 16.6523 7.65003 16.6816 7.48403C16.8125 6.75703 16.4106 6.40604 15.3084 6.21904L15.3608 5.93604H19.9004L19.85 6.21904C18.8103 6.33504 17.7948 6.82904 17.2659 7.86004L12.6608 16.965H10.4826L9.36134 9.97304L5.52593 16.965H3.39515L1.59784 7.65004C1.38828 6.61603 1.0266 6.42904 0 6.21904L0.0493655 5.93604H6.67545L6.62507 6.21904C5.74657 6.33504 5.32746 6.47603 5.24687 6.92303C5.22772 7.03903 5.23881 7.22803 5.25996 7.36803L6.39638 14.15H6.48907L9.25556 9.26804L8.98657 7.65004Z" fill="#111111"/>
<path d="M25.1853 11.3561C25.7464 8.19007 25.5893 6.21807 24.0126 6.21807C22.4631 6.21807 21.7861 8.19007 21.2239 11.3561C20.6608 14.5261 20.8129 16.5411 22.3875 16.5411C23.9159 16.5411 24.6221 14.5261 25.1853 11.3561ZM17.4389 11.4041C18.0595 7.90707 20.6688 5.74707 24.2121 5.74707C27.848 5.74707 29.5899 7.81407 28.9693 11.3101C28.3447 14.8301 25.7313 17.0111 22.2112 17.0111C18.5269 17.0111 16.8133 14.9231 17.4389 11.4041Z" fill="#111111"/>
<path d="M28.0113 16.5408C29.3361 16.5178 29.6323 16.2828 29.7321 15.7198L31.1747 7.60085C31.2997 6.89685 31.1203 6.47485 29.8036 6.45285L29.853 6.16985L34.9991 5.88785L34.6062 8.09585C35.5794 6.66185 36.9787 5.81885 38.2542 5.81885C39.6898 5.81885 40.3185 6.70985 40.1019 7.92985C39.8843 9.15085 38.9725 9.99485 37.9076 9.99485C36.6543 9.99485 36.0962 9.10285 36.2634 8.16485C36.3249 7.81285 36.4891 7.41385 36.6352 7.10685C36.072 7.15485 35.1734 7.76585 34.5699 8.56285L33.2985 15.7198C33.1967 16.2828 33.5121 16.4718 35.2852 16.5408L35.2348 16.8228H27.9609L28.0113 16.5408Z" fill="#111111"/>
<path d="M43.3368 15.721C43.2371 16.284 43.5423 16.519 44.3483 16.542L44.2979 16.824H38.0225L38.0718 16.542C39.3725 16.519 39.6687 16.284 39.7704 15.721L42.2578 1.71198C42.3828 1.00998 42.2256 0.585977 40.8162 0.561977L40.8665 0.282977L46.1285 0.000976562L44.0199 11.873L47.54 8.60998C48.901 7.34498 48.5766 6.68798 47.2478 6.21798L47.2982 5.93598H52.6488L52.5964 6.21798C50.9009 6.63998 49.5529 7.46298 47.8029 8.96498L47.3385 9.36198L50.0687 15.112C50.6399 16.332 50.8545 16.425 51.9013 16.542L51.8509 16.824H45.388L45.4384 16.542C46.4166 16.496 46.6232 16.261 46.2474 15.37L44.6929 11.732L43.9191 12.435L43.3368 15.721Z" fill="#111111"/>
<path d="M55.5426 10.6991H58.8309C59.6168 7.97609 59.3981 6.21809 58.1207 6.21809C56.9178 6.21809 56.1269 7.93009 55.5426 10.6991ZM51.6397 11.5441C52.2955 7.85909 55.195 5.74609 58.3463 5.74609C61.6569 5.74609 63.0532 7.93009 62.3168 11.1681H55.46L55.4025 11.4971L55.3925 11.5441C54.8676 14.5011 55.7834 16.0031 58.0058 16.0031C59.3709 16.0031 60.4187 15.3211 61.4896 14.1251L61.7163 14.2891C60.321 16.0031 58.6365 17.0101 56.3677 17.0101C52.9856 17.0101 51.007 15.1111 51.6397 11.5441Z" fill="#111111"/>
<path d="M61.3765 16.5408C62.7014 16.5178 62.9955 16.2828 63.0973 15.7198L64.538 7.60085C64.6649 6.89685 64.4856 6.47485 63.1688 6.45285L63.2182 6.16985L68.3643 5.88785L67.9714 8.09585C68.9446 6.66185 70.344 5.81885 71.6194 5.81885C73.0551 5.81885 73.6837 6.70985 73.4671 7.92985C73.2515 9.15085 72.3367 9.99485 71.2708 9.99485C70.0216 9.99485 69.4614 9.10285 69.6287 8.16485C69.6901 7.81285 69.8543 7.41385 70.0004 7.10685C69.4373 7.15485 68.5406 7.76585 67.9351 8.56285L66.6637 15.7198C66.564 16.2828 66.8773 16.4718 68.6504 16.5408L68.6001 16.8228H61.3262L61.3765 16.5408Z" fill="#111111"/>
<path d="M72.9102 12.8831H73.2568C74.3368 15.2741 75.4561 16.5421 77.1003 16.5421C78.1903 16.5421 78.9187 15.9561 79.0981 14.9461C79.2824 13.9141 78.7787 13.4921 76.4323 12.7421C74.0869 11.9901 73.2024 11.2401 73.5177 9.45707C73.9237 7.18007 75.9135 5.74707 78.5762 5.74707C79.898 5.74707 80.8994 6.10207 81.5744 6.61507L82.4217 5.74707H82.7007L82.0419 9.45707H81.6933C80.7201 7.36707 80.0018 6.21807 78.4936 6.21807C77.4982 6.21807 76.7557 6.87507 76.5673 7.93007C76.396 8.89207 77.34 9.31607 78.7384 9.66707C81.1785 10.2781 82.4549 11.1691 82.0973 13.1861C81.7054 15.3931 79.494 17.0111 76.7849 17.0111C75.9266 17.0111 73.8462 16.4731 73.3122 16.0971L72.4528 17.0111H72.1758L72.9102 12.8831Z" fill="#111111"/>
<path d="M85.8062 16.541C87.1059 16.518 87.4041 16.283 87.5038 15.72L89.9922 1.712C90.1172 1.009 89.959 0.586 88.5496 0.561L88.5999 0.282L93.8629 0L92.4202 8.117C93.6393 6.735 95.3529 5.819 96.8349 5.819C98.8962 5.819 99.5793 7.063 99.1793 9.315L98.0429 15.72C97.9411 16.283 98.1335 16.518 99.4715 16.541L99.4211 16.823H93.1224L93.1728 16.541C93.9858 16.518 94.3757 16.283 94.4765 15.72L95.6088 9.336C95.8254 8.117 95.4446 7.39 94.4029 7.39C93.6836 7.39 93.0459 7.859 92.3376 8.588L91.0712 15.72C90.9685 16.283 91.2768 16.518 92.0817 16.541L92.0324 16.823H85.7559L85.8062 16.541Z" fill="#111111"/>
<path d="M103.151 2.27711C103.379 0.985113 104.362 0.141113 105.591 0.141113C106.84 0.141113 107.51 0.937114 107.288 2.18211C107.06 3.47211 106.103 4.29211 104.852 4.29211C103.623 4.29211 102.92 3.56511 103.151 2.27711ZM99.273 16.5411C100.597 16.5181 100.986 16.2841 101.085 15.7211L102.528 7.60211C102.653 6.89811 102.382 6.47611 101.064 6.45311L101.115 6.17011L106.4 5.88811L104.654 15.7211C104.554 16.2841 104.719 16.5181 106.06 16.5411L106.01 16.8241H99.2227L99.273 16.5411Z" fill="#111111"/>
<path d="M114.081 9.45714C114.445 7.41514 114.259 6.24115 113.053 6.24115C111.895 6.24115 111.499 7.18014 111.093 9.45714C110.689 11.7321 110.934 12.6941 112.116 12.6941C113.251 12.6941 113.677 11.7321 114.081 9.45714ZM114.387 18.8181C114.537 17.9751 114.049 17.4581 112.151 17.4581H108.769C108.111 17.9021 107.753 18.3491 107.637 19.0051C107.369 20.5071 108.446 21.0931 110.67 21.0931C112.64 21.0931 114.13 20.2731 114.387 18.8181ZM115.364 6.14814C116.121 4.88014 117.254 3.84814 118.507 3.84814C119.476 3.84814 119.884 4.43414 119.742 5.23314C119.626 5.88814 119.106 6.47614 118.295 6.47614C117.692 6.47614 117.116 5.93615 117.269 5.06715C116.769 5.27915 116.175 5.74715 115.753 6.31215C117.019 6.87515 117.736 7.90715 117.471 9.40914C117.065 11.6861 114.773 13.1161 111.949 13.1161C111.417 13.1161 110.938 13.0701 110.488 12.9991C109.514 13.2571 109.136 13.5621 109.053 14.0321C108.968 14.5011 109.482 14.7361 110.851 14.7361H113.558C116.085 14.7361 117.216 15.6731 116.881 17.5511C116.502 19.6871 113.698 21.5171 109.993 21.5171C107.121 21.5171 105.119 20.6491 105.362 19.2881C105.537 18.3031 106.314 17.7151 108.217 17.4351L108.225 17.3871C106.919 16.9171 106.542 15.9081 106.696 15.0391C106.835 14.2661 107.948 13.2091 109.798 12.8351C108.269 12.3181 107.394 11.2401 107.703 9.50314C108.103 7.24914 110.395 5.81915 113.245 5.81915C114.031 5.81915 114.754 5.93614 115.364 6.14814Z" fill="#111111"/>
<path d="M116.735 16.541C118.035 16.518 118.331 16.283 118.433 15.72L120.921 1.712C121.046 1.009 120.888 0.586 119.478 0.561L119.529 0.282L124.792 0L123.349 8.117C124.568 6.735 126.282 5.819 127.764 5.819C129.825 5.819 130.508 7.063 130.108 9.315L128.972 15.72C128.872 16.283 129.062 16.518 130.4 16.541L130.35 16.823H124.051L124.102 16.541C124.915 16.518 125.302 16.283 125.405 15.72L126.538 9.336C126.754 8.117 126.373 7.39 125.332 7.39C124.612 7.39 123.975 7.859 123.264 8.588L122 15.72C121.899 16.283 122.205 16.518 123.01 16.541L122.961 16.823H116.685L116.735 16.541Z" fill="#111111"/>
<path d="M134.837 0L129.574 0.282L129.525 0.555C129.576 0.555 129.623 0.568 129.673 0.57C129.844 0.577 130.011 0.593 130.175 0.62C132.084 0.934 133.545 2.568 133.545 4.553C133.545 4.683 133.522 4.799 133.518 4.925H133.962L134.837 0Z" fill="#111111"/>
<path d="M129.523 0.561176C129.579 0.562176 129.621 0.568176 129.673 0.570176C129.622 0.568176 129.576 0.555176 129.524 0.555176L129.523 0.561176Z" fill="#111111"/>
</g>
<defs>
<clipPath id="clip0_107_1419">
<rect width="135" height="22" fill="white"/>
</clipPath>
</defs>
</svg>
