<svg width="176" height="99" viewBox="0 0 176 99" fill="none" xmlns="http://www.w3.org/2000/svg">
<path d="M63 2C63 0.895432 63.8954 0 65 0H111C112.105 0 113 0.895431 113 2V48C113 49.1046 112.105 50 111 50H65C63.8954 50 63 49.1046 63 48V2Z" fill="white"/>
<path fill-rule="evenodd" clip-rule="evenodd" d="M111 1H65C64.4477 1 64 1.44772 64 2V48C64 48.5523 64.4477 49 65 49H111C111.552 49 112 48.5523 112 48V2C112 1.44772 111.552 1 111 1ZM65 0C63.8954 0 63 0.895432 63 2V48C63 49.1046 63.8954 50 65 50H111C112.105 50 113 49.1046 113 48V2C113 0.895431 112.105 0 111 0H65Z" fill="#C1C1C1"/>
<path d="M67 5C67 4.44772 67.4477 4 68 4H108C108.552 4 109 4.44772 109 5V45C109 45.5523 108.552 46 108 46H68C67.4477 46 67 45.5523 67 45V5Z" fill="#F3F3F3"/>
<path fill-rule="evenodd" clip-rule="evenodd" d="M108 5H68V45H108V5ZM68 4C67.4477 4 67 4.44772 67 5V45C67 45.5523 67.4477 46 68 46H108C108.552 46 109 45.5523 109 45V5C109 4.44772 108.552 4 108 4H68Z" fill="#C1C1C1"/>
<path fill-rule="evenodd" clip-rule="evenodd" d="M108 5H68V45H108V5ZM68 4C67.4477 4 67 4.44772 67 5V45C67 45.5523 67.4477 46 68 46H108C108.552 46 109 45.5523 109 45V5C109 4.44772 108.552 4 108 4H68Z" fill="#C1C1C1"/>
<path d="M74.839 22.9089L67.5 33V45.5H108.5V31L104.151 27.2723C102.632 25.9705 100.385 25.9908 98.8904 27.3197L95.6725 30.18C93.9517 31.7096 91.298 31.4744 89.8731 29.6659L84.4043 22.7247C81.9429 19.6006 77.1783 19.6924 74.839 22.9089Z" fill="white"/>
<path fill-rule="evenodd" clip-rule="evenodd" d="M84.0116 23.0341C81.7553 20.1704 77.3877 20.2545 75.2433 23.203L68 33.1626V45H108V31.23L103.826 27.6519C102.497 26.5128 100.531 26.5306 99.2226 27.6934L96.0047 30.5537C94.0687 32.2745 91.0834 32.0099 89.4803 29.9753L84.0116 23.0341ZM74.4346 22.6148C76.9689 19.1302 82.1305 19.0308 84.7971 22.4153L90.2658 29.3564C91.5126 30.9389 93.8346 31.1447 95.3403 29.8063L98.5582 26.9459C100.24 25.4509 102.768 25.4281 104.476 26.8926L109 30.77V46H67V32.8374L74.4346 22.6148Z" fill="#C1C1C1"/>
<path d="M102 15.5C102 18.5376 99.5376 21 96.5 21C93.4624 21 91 18.5376 91 15.5C91 12.4624 93.4624 10 96.5 10C99.5376 10 102 12.4624 102 15.5Z" fill="white"/>
<path fill-rule="evenodd" clip-rule="evenodd" d="M96.5 20C98.9853 20 101 17.9853 101 15.5C101 13.0147 98.9853 11 96.5 11C94.0147 11 92 13.0147 92 15.5C92 17.9853 94.0147 20 96.5 20ZM96.5 21C99.5376 21 102 18.5376 102 15.5C102 12.4624 99.5376 10 96.5 10C93.4624 10 91 12.4624 91 15.5C91 18.5376 93.4624 21 96.5 21Z" fill="#C1C1C1"/>
<path d="M14.2875 76.54V94.52H15.9275V76.54H14.2875ZM6.4675 77.92C3.8075 77.92 1.9075 80.36 1.9075 84.18C1.9075 88 3.8075 90.44 6.4675 90.44C9.1275 90.44 11.0275 88 11.0275 84.18C11.0275 80.36 9.1275 77.92 6.4675 77.92ZM6.4675 79.4C8.2075 79.4 9.4475 81.28 9.4475 84.18C9.4475 87.1 8.2075 88.98 6.4675 88.98C4.7075 88.98 3.4675 87.1 3.4675 84.18C3.4675 81.28 4.7075 79.4 6.4675 79.4ZM20.6859 78.3V89.96H28.9259V78.3H20.6859ZM27.3259 79.62V88.66H22.2859V79.62H27.3259ZM32.6859 76.54V94.52H34.3259V76.54H32.6859ZM44.4444 79.74H48.6644V78.38H38.6444V79.74H42.8044V82.02C42.8044 85.12 40.6244 88.5 38.0444 89.72L39.0044 91.04C41.0444 90 42.8044 87.74 43.6244 85.12C44.4844 87.58 46.2444 89.64 48.3244 90.6L49.2444 89.28C46.6044 88.16 44.4444 85.06 44.4444 82.02V79.74ZM51.0844 76.56V94.48H52.7244V76.56H51.0844ZM62.5155 84.48C65.4155 84.04 68.0555 82.6 69.0355 80.52C69.9955 82.6 72.6355 84.04 75.5555 84.48L76.1555 83.16C72.9955 82.74 70.0955 80.96 70.0955 78.78V78.76H75.6755V77.44H62.3955V78.76H67.9755V78.78C67.9755 80.96 65.0755 82.74 61.8955 83.16L62.5155 84.48ZM64.5955 89H62.9555V94.08H75.3555V92.74H64.5955V89ZM60.8755 85.78V87.1H68.3355V90.74H69.9755V87.1H77.1555V85.78H60.8755ZM92.3539 76.54V94.5H93.9939V76.54H92.3539ZM80.3339 78.06V90.16H88.7739V78.06H87.1539V82.8H81.9539V78.06H80.3339ZM81.9539 84.1H87.1539V88.82H81.9539V84.1ZM99.2123 83.86C102.152 83.5 104.852 82.18 105.832 80.2C106.832 82.18 109.512 83.5 112.452 83.86L113.032 82.56C109.892 82.2 107.032 80.66 106.892 78.68H112.472V77.36H99.2123V78.68H104.772C104.632 80.66 101.772 82.2 98.6323 82.56L99.2123 83.86ZM110.292 91.3C110.292 92.5 108.612 93.2 105.812 93.2C102.992 93.2 101.332 92.5 101.332 91.3C101.332 90.1 102.992 89.42 105.812 89.42C108.612 89.42 110.292 90.1 110.292 91.3ZM113.932 86.26V84.94H97.7123V86.26H104.992V88.18C101.652 88.34 99.6723 89.44 99.6723 91.3C99.6723 93.34 101.992 94.46 105.832 94.46C109.652 94.46 111.952 93.34 111.952 91.3C111.952 89.44 109.992 88.34 106.652 88.18V86.26H113.932ZM129.191 76.56V86.18H130.831V76.56H129.191ZM119.271 87.06V94.24H130.831V87.06H129.211V89.26H120.891V87.06H119.271ZM120.891 90.54H129.211V92.92H120.891V90.54ZM121.191 77.4C118.491 77.4 116.531 79.08 116.531 81.52C116.531 84 118.491 85.66 121.191 85.66C123.911 85.66 125.891 84 125.891 81.52C125.891 79.08 123.911 77.4 121.191 77.4ZM121.191 78.76C123.011 78.76 124.291 79.9 124.291 81.52C124.291 83.16 123.011 84.3 121.191 84.3C119.411 84.3 118.131 83.16 118.131 81.52C118.131 79.9 119.411 78.76 121.191 78.76ZM137.269 78.28H135.629V89.84H137.109C139.969 89.84 142.789 89.64 145.909 89L145.729 87.6C142.749 88.2 139.969 88.44 137.269 88.44V78.28ZM147.569 76.54V94.46H149.209V76.54H147.569ZM155.308 79.62H162.008V78.26H153.668V90.04H155.088C158.468 90.04 160.828 89.92 163.568 89.4L163.388 88.04C160.788 88.5 158.488 88.64 155.308 88.64V79.62ZM169.668 83.62H166.708V76.54H165.068V94.52H166.708V84.98H169.668V83.62ZM173.026 93.26C173.746 93.26 174.346 92.7 174.346 91.88C174.346 91.04 173.746 90.46 173.026 90.46C172.306 90.46 171.706 91.04 171.706 91.88C171.706 92.7 172.306 93.26 173.026 93.26Z" fill="#C1C1C1"/>
</svg>
