<svg width="180" height="180" viewBox="0 0 180 180" fill="none" xmlns="http://www.w3.org/2000/svg">
<path d="M79 42H159V137H79V42Z" fill="#F5F5F5"/>
<path fill-rule="evenodd" clip-rule="evenodd" d="M159.5 42C159.5 41.7239 159.276 41.5 159 41.5H79C78.7239 41.5 78.5 41.7239 78.5 42V137C78.5 137.276 78.7239 137.5 79 137.5H159C159.276 137.5 159.5 137.276 159.5 137V42ZM158.5 42.5V136.5H79.5V42.5H158.5Z" fill="#555555"/>
<path d="M70 35H151V130H70V35Z" fill="white"/>
<path fill-rule="evenodd" clip-rule="evenodd" d="M151.5 35C151.5 34.7239 151.276 34.5 151 34.5H70C69.7239 34.5 69.5 34.7239 69.5 35V130C69.5 130.276 69.7239 130.5 70 130.5H151C151.276 130.5 151.5 130.276 151.5 130V35ZM150.5 35.5V129.5H70.5V35.5H150.5Z" fill="#555555"/>
<path d="M90.0936 66H99.9074C101.064 66 102 65.0625 102 63.9074V54.0926C102 52.9364 101.064 52 99.9074 52H90.0936C88.9375 52 88 52.9364 88 54.0926V63.9074C88 65.0625 88.9375 66 90.0936 66Z" fill="#4267EB"/>
<path d="M90.0936 89H99.9074C101.064 89 102 88.0625 102 86.9074V77.0926C102 75.9364 101.064 75 99.9074 75H90.0936C88.9375 75 88 75.9364 88 77.0926V86.9074C88 88.0625 88.9375 89 90.0936 89Z" fill="#4267EB"/>
<path d="M137.163 56.024H107.469C107.211 56.024 107.001 55.813 107.001 55.556V55.468C107.001 55.21 107.211 55 107.469 55H137.163C137.421 55 137.631 55.21 137.631 55.468V55.556C137.631 55.813 137.421 56.024 137.163 56.024Z" fill="#D3D6E4"/>
<path d="M131.733 59.3028H107.468C107.211 59.3028 107 59.0918 107 58.8348V58.7468C107 58.4888 107.211 58.2788 107.468 58.2788H131.733C131.991 58.2788 132.201 58.4888 132.201 58.7468V58.8348C132.201 59.0918 131.991 59.3028 131.733 59.3028Z" fill="#D3D6E4"/>
<path d="M107.468 62.5806H123.435C123.693 62.5806 123.903 62.3696 123.903 62.1126V62.0246C123.903 61.7666 123.693 61.5566 123.435 61.5566H107.468C107.211 61.5566 107 61.7666 107 62.0246V62.1126C107 62.3696 107.211 62.5806 107.468 62.5806Z" fill="#D3D6E4"/>
<path d="M131.733 109.153H107.468C107.211 109.153 107 108.942 107 108.685V108.597C107 108.339 107.211 108.129 107.468 108.129H131.733C131.991 108.129 132.201 108.339 132.201 108.597V108.685C132.201 108.942 131.991 109.153 131.733 109.153Z" fill="#D3D6E4"/>
<path d="M107.468 102.024H131.733C131.991 102.024 132.201 101.813 132.201 101.556V101.468C132.201 101.21 131.991 101 131.733 101H107.468C107.211 101 107 101.21 107 101.468V101.556C107 101.813 107.211 102.024 107.468 102.024Z" fill="#D3D6E4"/>
<path d="M123.435 105.558H107.468C107.211 105.558 107 105.347 107 105.09V105.002C107 104.744 107.211 104.534 107.468 104.534H123.435C123.693 104.534 123.903 104.744 123.903 105.002V105.09C123.903 105.347 123.693 105.558 123.435 105.558Z" fill="#D3D6E4"/>
<path d="M107.469 84.0904H137.163C137.421 84.0904 137.631 83.8794 137.631 83.6224V83.5344C137.631 83.2764 137.421 83.0664 137.163 83.0664H107.469C107.211 83.0664 107.001 83.2764 107.001 83.5344V83.6224C107.001 83.8794 107.211 84.0904 107.469 84.0904Z" fill="#D3D6E4"/>
<path d="M131.733 81.024H107.468C107.211 81.024 107 80.813 107 80.556V80.468C107 80.21 107.211 80 107.468 80H131.733C131.991 80 132.201 80.21 132.201 80.468V80.556C132.201 80.813 131.991 81.024 131.733 81.024Z" fill="#D3D6E4"/>
<path fill-rule="evenodd" clip-rule="evenodd" d="M99.9074 112H90.0936C88.9375 112 88 111.063 88 109.907V100.093C88 98.9364 88.9375 98 90.0936 98H99.9074C101.064 98 102 98.9364 102 100.093V109.907C102 111.063 101.064 112 99.9074 112ZM99.9074 111H90.0936C89.4894 111 89 110.51 89 109.907V100.093C89 99.4893 89.4891 99 90.0936 99H99.9074C100.511 99 101 99.4887 101 100.093V109.907C101 110.511 100.511 111 99.9074 111Z" fill="#D3D6E4"/>
<path d="M98.8841 56.3201C99.0609 56.108 99.0323 55.7927 98.8201 55.6159C98.608 55.4391 98.2927 55.4678 98.1159 55.6799L93.5305 61.1824L91.4069 58.2094C91.2464 57.9847 90.9341 57.9326 90.7094 58.0931C90.4847 58.2537 90.4327 58.5659 90.5932 58.7906L93.0932 62.2906C93.1832 62.4167 93.3266 62.4939 93.4814 62.4997C93.6362 62.5054 93.785 62.4391 93.8841 62.3201L98.8841 56.3201Z" fill="white"/>
<path d="M98.8841 79.3201C99.0609 79.108 99.0323 78.7927 98.8201 78.6159C98.608 78.4391 98.2927 78.4678 98.1159 78.6799L93.5305 84.1824L91.4069 81.2094C91.2464 80.9847 90.9341 80.9326 90.7094 81.0931C90.4847 81.2537 90.4327 81.5659 90.5932 81.7906L93.0932 85.2906C93.1832 85.4167 93.3266 85.4939 93.4814 85.4997C93.6362 85.5054 93.785 85.4391 93.8841 85.3201L98.8841 79.3201Z" fill="white"/>
<path d="M42.54 94.2738C44.4506 93.5703 45.0167 90.331 43.8044 87.0386C42.5921 83.7463 40.0604 81.6477 38.1498 82.3512C36.2393 83.0547 35.5112 85.3158 36.7235 88.6081C37.9358 91.9005 40.6294 94.9773 42.54 94.2738Z" fill="white"/>
<path d="M78.3246 94.2738C76.414 93.5703 75.8479 90.331 77.0602 87.0386C78.2725 83.7463 80.8042 81.6477 82.7148 82.3512C84.6253 83.0547 85.3534 85.3158 84.1411 88.6081C82.9288 91.9005 80.2352 94.9773 78.3246 94.2738Z" fill="white"/>
<path fill-rule="evenodd" clip-rule="evenodd" d="M42.866 87.3842C43.4222 88.8949 43.5516 90.3482 43.3582 91.4549C43.1597 92.5906 42.675 93.1584 42.1945 93.3354C42.032 93.3952 41.7839 93.405 41.403 93.2351C41.0161 93.0625 40.5639 92.7323 40.0864 92.2419C39.1329 91.2623 38.2261 89.7949 37.6619 88.2626C37.0979 86.731 37.0316 85.5582 37.235 84.754C37.4282 83.9905 37.8672 83.5209 38.4954 83.2896C38.9759 83.1126 39.7132 83.2305 40.6008 83.9663C41.4657 84.6833 42.3097 85.8735 42.866 87.3842ZM43.8044 87.0386C45.0167 90.331 44.4506 93.5703 42.54 94.2738C40.6294 94.9773 37.9358 91.9005 36.7235 88.6081C35.5112 85.3158 36.2393 83.0547 38.1498 82.3512C40.0604 81.6477 42.5921 83.7463 43.8044 87.0386ZM77.9986 87.3842C77.4424 88.8949 77.313 90.3482 77.5064 91.4549C77.7049 92.5906 78.1896 93.1584 78.6701 93.3354C78.8326 93.3952 79.0807 93.405 79.4616 93.2351C79.8485 93.0625 80.3007 92.7323 80.7782 92.2419C81.7317 91.2623 82.6385 89.7949 83.2027 88.2626C83.7667 86.731 83.833 85.5582 83.6296 84.754C83.4365 83.9905 82.9974 83.5209 82.3692 83.2896C81.8887 83.1126 81.1514 83.2305 80.2638 83.9663C79.3989 84.6833 78.5549 85.8735 77.9986 87.3842ZM77.0602 87.0386C75.8479 90.331 76.414 93.5703 78.3246 94.2738C80.2352 94.9773 82.9288 91.9005 84.1411 88.6081C85.3534 85.3158 84.6253 83.0547 82.7148 82.3512C80.8042 81.6477 78.2725 83.7463 77.0602 87.0386Z" fill="#555555"/>
<path d="M96 153.317C96 164.894 26 164.894 26 153.317C26 131.633 38.9086 106 61 106C83.0914 106 96 131.633 96 153.317Z" fill="white"/>
<path fill-rule="evenodd" clip-rule="evenodd" d="M36.0516 122.076C30.1796 131.017 27 142.652 27 153.317C27 154.2 27.6684 155.207 29.5011 156.246C31.2882 157.259 33.9104 158.138 37.1529 158.853C43.6203 160.279 52.2923 161 61 161C69.7077 161 78.3797 160.279 84.8471 158.853C88.0896 158.138 90.7118 157.259 92.4989 156.246C94.3316 155.207 95 154.2 95 153.317C95 142.652 91.8204 131.017 85.9484 122.076C80.0818 113.143 71.6085 107 61 107C50.3915 107 41.9182 113.143 36.0516 122.076ZM26 153.317C26 164.894 96 164.894 96 153.317C96 131.633 83.0914 106 61 106C38.9086 106 26 131.633 26 153.317Z" fill="#555555"/>
<path d="M50.5443 109.987L51.5382 101.554C57.8264 102.257 64.1736 102.257 70.4618 101.554L71.4557 109.987C71.458 110.006 71.4472 110.025 71.4291 110.032C64.7639 112.86 57.2361 112.86 50.5709 110.032L50.3773 110.489L50.5709 110.032C50.5528 110.025 50.542 110.006 50.5443 109.987Z" fill="white" stroke="#555555"/>
<path d="M81 82.5C81 95.4787 69.2857 106 60.5 106C51.7143 106 40 95.4787 40 82.5C40 69.5213 49.1782 59 60.5 59C71.8218 59 81 69.5213 81 82.5Z" fill="white"/>
<path fill-rule="evenodd" clip-rule="evenodd" d="M73.3185 98.4295C77.2055 94.3245 80 88.6856 80 82.5C80 69.941 71.1457 60 60.5 60C49.8543 60 41 69.941 41 82.5C41 88.6856 43.7945 94.3245 47.6815 98.4295C51.5891 102.556 56.4689 105 60.5 105C64.5311 105 69.4109 102.556 73.3185 98.4295ZM60.5 106C69.2857 106 81 95.4787 81 82.5C81 69.5213 71.8218 59 60.5 59C49.1782 59 40 69.5213 40 82.5C40 95.4787 51.7143 106 60.5 106Z" fill="#555555"/>
<path d="M53.2158 148.778C54.1003 143.151 57.4787 122.007 59.0691 117H63.483L68.7792 148.83C68.9198 149.675 68.6948 150.538 68.137 151.188C66.4962 153.099 62.9424 157 61.276 157C59.6116 157 55.7509 153.109 53.9531 151.195C53.3414 150.544 53.0771 149.66 53.2158 148.778Z" fill="#D3D6E4"/>
<path fill-rule="evenodd" clip-rule="evenodd" d="M58.5926 116.849C58.6585 116.641 58.8513 116.5 59.0691 116.5H63.4829C63.7274 116.5 63.936 116.677 63.9762 116.918L69.2724 148.748C69.4361 149.732 69.1751 150.747 68.5163 151.514C67.6918 152.474 66.3791 153.943 65.0571 155.176C64.397 155.792 63.7229 156.36 63.0977 156.777C62.4958 157.178 61.8529 157.5 61.276 157.5C60.7047 157.5 60.0446 157.183 59.4152 156.785C58.7609 156.371 58.0447 155.806 57.337 155.193C55.9199 153.964 54.4916 152.499 53.5887 151.538C52.8689 150.772 52.5597 149.732 52.7218 148.7C53.1643 145.886 54.2305 139.19 55.3852 132.57C56.5365 125.97 57.7846 119.392 58.5926 116.849ZM59.4396 117.5C58.6544 120.187 57.476 126.404 56.3703 132.742C55.2171 139.353 54.1518 146.043 53.7097 148.855C53.5944 149.589 53.8138 150.317 54.3174 150.853C55.2123 151.805 56.6133 153.242 57.9921 154.437C58.6824 155.036 59.3558 155.564 59.9497 155.94C60.5684 156.331 61.0152 156.5 61.276 156.5C61.5323 156.5 61.9586 156.334 62.5429 155.945C63.104 155.57 63.7333 155.043 64.3751 154.445C65.6568 153.25 66.9414 151.813 67.7577 150.862C68.2145 150.33 68.4034 149.618 68.286 148.912L63.0593 117.5H59.4396Z" fill="#555555"/>
<path d="M64.2727 109C64.2727 109 59 109.417 57.7273 109L55 114L57.1587 117.958C57.5092 118.6 58.1827 119 58.9145 119H63.0855C63.8173 119 64.4908 118.6 64.8413 117.958L67 114L64.2727 109Z" fill="#D3D6E4"/>
<path fill-rule="evenodd" clip-rule="evenodd" d="M57.2883 108.761C57.4038 108.549 57.6537 108.45 57.8828 108.525C58.1228 108.603 58.6215 108.656 59.3014 108.676C59.9594 108.695 60.7259 108.682 61.4597 108.657C62.1922 108.631 62.8862 108.592 63.3974 108.56C63.6528 108.543 63.8623 108.529 64.0077 108.518C64.0804 108.513 64.1371 108.509 64.1754 108.506L64.219 108.503L64.2326 108.502C64.4291 108.486 64.6173 108.588 64.7117 108.761L67.4389 113.761C67.5204 113.91 67.5204 114.09 67.4389 114.239L65.2802 118.197C64.8421 119 64.0003 119.5 63.0855 119.5H58.9145C57.9997 119.5 57.1579 119 56.7198 118.197L54.5611 114.239C54.4796 114.09 54.4796 113.91 54.5611 113.761L57.2883 108.761ZM63.9881 109.522C63.849 109.532 63.67 109.544 63.4606 109.558C62.9434 109.59 62.2396 109.63 61.4949 109.656C60.7514 109.682 59.961 109.696 59.2724 109.676C58.8045 109.662 58.351 109.633 57.9851 109.572L55.5695 114L57.5977 117.718C57.8605 118.2 58.3656 118.5 58.9145 118.5H63.0855C63.6344 118.5 64.1395 118.2 64.4023 117.718L66.4305 114L63.9881 109.522Z" fill="#555555"/>
<path d="M53.8077 119L59 109.545L49.7692 106L44 111.909L53.8077 119Z" fill="white"/>
<path d="M68.1923 119L63 109.545L72.2308 106L78 111.909L68.1923 119Z" fill="white"/>
<path fill-rule="evenodd" clip-rule="evenodd" d="M49.9485 105.533C49.7621 105.462 49.551 105.508 49.4115 105.651L43.6422 111.56C43.5406 111.664 43.4894 111.807 43.5018 111.952C43.5143 112.097 43.5892 112.229 43.7071 112.314L53.5147 119.405C53.6309 119.489 53.7776 119.519 53.9174 119.488C54.0573 119.456 54.1769 119.366 54.246 119.241L59.4383 109.786C59.5078 109.66 59.5192 109.509 59.4695 109.374C59.4199 109.238 59.3141 109.13 59.1793 109.079L49.9485 105.533ZM44.7628 111.844L49.8971 106.585L58.286 109.807L53.6419 118.263L44.7628 111.844Z" fill="#555555"/>
<path fill-rule="evenodd" clip-rule="evenodd" d="M72.0515 105.533C72.2379 105.462 72.449 105.508 72.5885 105.651L78.3578 111.56C78.4594 111.664 78.5106 111.807 78.4982 111.952C78.4857 112.097 78.4108 112.229 78.2929 112.314L68.4853 119.405C68.3691 119.489 68.2224 119.519 68.0826 119.488C67.9427 119.456 67.8231 119.366 67.754 119.241L62.5617 109.786C62.4922 109.66 62.4808 109.509 62.5305 109.374C62.5801 109.238 62.6859 109.13 62.8207 109.079L72.0515 105.533ZM77.2372 111.844L72.1029 106.585L63.714 109.807L68.3581 118.263L77.2372 111.844Z" fill="#555555"/>
<path fill-rule="evenodd" clip-rule="evenodd" d="M74.5 134C74.5 133.724 74.7239 133.5 75 133.5H84C84.2761 133.5 84.5 133.724 84.5 134C84.5 134.276 84.2761 134.5 84 134.5H75C74.7239 134.5 74.5 134.276 74.5 134Z" fill="#555555"/>
<path d="M56.4588 78.3719L65.4847 72.8997C68.1766 71.6837 75.6874 69.2674 76.4107 72.8997C77.2107 76.9165 79.0546 79.6228 80.2293 81.7402C80.4902 82.2104 81.3978 82.0914 81.4453 81.5558C81.797 77.5862 81.7449 71.8927 81.1612 69.2516C80.2216 65.0001 79.0005 55 56.4588 56.4832C31.7966 58.1058 38.407 86.2761 40.3072 83.8441C42.2074 81.412 42.2074 82.02 46.0078 80.804C49.0481 79.8311 55.192 75.1291 57.8839 72.8997L56.4588 78.3719Z" fill="#D3D6E4"/>
<path fill-rule="evenodd" clip-rule="evenodd" d="M76.5799 61.0925C73.483 58.3726 67.7016 56.2444 56.4907 56.982C50.4271 57.381 46.337 59.4055 43.6169 62.1376C40.8901 64.8764 39.4981 68.3688 38.9139 71.7688C38.3294 75.1707 38.5595 78.45 39.0489 80.7176C39.2952 81.8587 39.5993 82.7072 39.8754 83.1818C39.9287 83.2735 39.9774 83.345 40.0201 83.3988C40.9091 82.2723 41.4409 81.7523 42.2477 81.4081C42.6426 81.2396 43.0948 81.1167 43.6499 80.9672L43.7141 80.9499C44.2669 80.801 44.9517 80.6166 45.8544 80.3277C47.2923 79.8676 49.5301 78.4935 51.7889 76.9133C54.0283 75.3467 56.2265 73.6223 57.5641 72.5146C57.7312 72.3762 57.9685 72.3613 58.1515 72.4779C58.3345 72.5944 58.4215 72.8157 58.3668 73.0257L57.2522 77.3055L65.2245 72.4721C65.2417 72.4617 65.2595 72.4523 65.2779 72.444C66.6522 71.8232 69.2516 70.8961 71.62 70.5858C72.799 70.4312 73.9749 70.4217 74.9252 70.7191C75.9055 71.0257 76.6757 71.675 76.9001 72.802C77.5593 76.1122 78.9379 78.4963 80.0705 80.455C80.2792 80.8159 80.4796 81.1624 80.6655 81.4976C80.6656 81.4976 80.6661 81.4989 80.6696 81.5018C80.6738 81.5051 80.683 81.5114 80.6995 81.5177C80.7349 81.5311 80.7879 81.5384 80.8456 81.5301C80.898 81.5227 80.932 81.5058 80.9477 81.4948C81.2964 77.5415 81.2382 71.9213 80.672 69.3594C80.6361 69.1971 80.6 69.0277 80.5626 68.8521C80.1031 66.6976 79.4444 63.6084 76.5799 61.0925ZM81.5387 68.6327C81.5767 68.8119 81.6129 68.9826 81.6485 69.1436C82.2488 71.8603 82.2954 77.6149 81.9424 81.5999C81.8897 82.1942 81.3719 82.4651 80.987 82.5201C80.6001 82.5754 80.0577 82.4633 79.7911 81.9827C79.615 81.6652 79.4215 81.3312 79.2172 80.9785C78.0826 79.0195 76.6136 76.4831 75.9194 72.9973C75.7821 72.3081 75.3422 71.8973 74.6267 71.6735C73.8812 71.4402 72.8755 71.4298 71.7499 71.5773C69.5245 71.8689 67.0416 72.7479 65.7169 73.343L56.717 78.7994C56.543 78.9049 56.3223 78.8944 56.1591 78.7728C55.9959 78.6512 55.9227 78.4428 55.974 78.2458L57.0154 74.247C55.7166 75.2812 54.0521 76.5505 52.3621 77.7327C50.1159 79.3041 47.7616 80.7674 46.1592 81.2801C45.234 81.5762 44.5305 81.7656 43.976 81.915L43.9101 81.9327C43.337 82.0871 42.9578 82.1923 42.6402 82.3278C42.054 82.5779 41.6455 82.942 40.7002 84.1518C40.5957 84.2857 40.4465 84.4133 40.2441 84.4673C40.0355 84.5228 39.839 84.4818 39.6806 84.4029C39.3962 84.2612 39.1783 83.9724 39.0109 83.6845C38.6581 83.0778 38.3267 82.1117 38.0714 80.9286C37.5576 78.5476 37.3202 75.1388 37.9284 71.5994C38.5368 68.058 39.9976 64.3556 42.9082 61.4321C45.8255 58.5019 50.1574 56.3966 56.425 55.9842C67.7558 55.2387 73.8557 57.369 77.2398 60.3412C80.3629 63.0842 81.082 66.4777 81.5387 68.6327Z" fill="#555555"/>
<path d="M52 83C52.2761 83 52.5 83.2239 52.5 83.5V88C52.5 88.2761 52.2761 88.5 52 88.5C51.7239 88.5 51.5 88.2761 51.5 88V83.5C51.5 83.2239 51.7239 83 52 83Z" fill="#555555"/>
<path d="M68 83C68.2761 83 68.5 83.2239 68.5 83.5V88C68.5 88.2761 68.2761 88.5 68 88.5C67.7239 88.5 67.5 88.2761 67.5 88V83.5C67.5 83.2239 67.7239 83 68 83Z" fill="#555555"/>
<path d="M57.2774 94.5839C57.0476 94.4307 56.7372 94.4928 56.584 94.7226C56.4309 94.9523 56.4929 95.2628 56.7227 95.416C58.7073 96.739 61.2928 96.739 63.2774 95.416C63.5072 95.2628 63.5693 94.9523 63.4161 94.7226C63.2629 94.4928 62.9525 94.4307 62.7227 94.5839C61.074 95.683 58.9261 95.683 57.2774 94.5839Z" fill="#555555"/>
</svg>
