<svg width="180" height="180" viewBox="0 0 180 180" fill="none" xmlns="http://www.w3.org/2000/svg">
<path d="M22 40V160H144V40H22Z" fill="white"/>
<path fill-rule="evenodd" clip-rule="evenodd" d="M22 39.5C21.7239 39.5 21.5 39.7239 21.5 40V160C21.5 160.276 21.7239 160.5 22 160.5H144C144.276 160.5 144.5 160.276 144.5 160V40C144.5 39.7239 144.276 39.5 144 39.5H22ZM104.5 40.5V159.5H143.5V40.5H104.5ZM103.5 40.5H22.5V159.5H103.5V40.5Z" fill="#555555"/>
<path d="M70.2293 54.7668C70.778 54.7574 70.9039 54.6612 70.946 54.4309L71.9967 48.7004C72.0494 48.4128 71.9827 48.2397 71.3876 48.2295L71.4088 48.1154L73.631 48L73.0219 51.3206C73.5366 50.7552 74.2601 50.3805 74.8858 50.3805C75.7561 50.3805 76.0446 50.8894 75.8757 51.8107L75.3959 54.4309C75.354 54.6552 75.43 54.7522 75.9555 54.7659C76.4818 54.7525 76.639 54.6559 76.6801 54.4313L77.2892 51.1098C77.3419 50.8218 77.2275 50.6492 76.6711 50.6398L76.6924 50.524L78.9239 50.4087L78.1867 54.4313C78.1446 54.6616 78.2144 54.7573 78.7806 54.7667L78.7593 54.8825L73.3183 54.8821L73.3396 54.7668C73.6829 54.7574 73.8475 54.6612 73.89 54.4309L74.3682 51.8193C74.4596 51.3206 74.2988 51.0232 73.859 51.0232C73.5553 51.0232 73.286 51.215 72.987 51.5133L72.4523 54.4309C72.4089 54.6612 72.5391 54.7574 72.8789 54.7668L72.8581 54.8821H70.208L70.2293 54.7668Z" fill="#555555"/>
<path d="M52.2976 54.4313C52.2554 54.6616 52.3843 54.7577 52.7246 54.7671L52.7034 54.8825H50.0537L50.0746 54.7671C50.6237 54.7577 50.7488 54.6616 50.7917 54.4313L51.842 48.7003C51.8947 48.4131 51.8284 48.2397 51.2333 48.2299L51.2545 48.1157L53.4763 48.0004L52.586 52.8571L54.0722 51.5222C54.6469 51.0047 54.5099 50.736 53.9489 50.5437L53.9701 50.4283H56.2293L56.2072 50.5437C55.4913 50.7163 54.9221 51.053 54.1832 51.6675L53.9871 51.8299L55.1399 54.1821C55.3811 54.6812 55.4717 54.7193 55.9137 54.7671L55.8924 54.8825H53.1636L53.1849 54.7671C53.5979 54.7483 53.6851 54.6522 53.5265 54.2877L52.8701 52.7994L52.5434 53.087L52.2976 54.4313Z" fill="#555555"/>
<path fill-rule="evenodd" clip-rule="evenodd" d="M41.3629 52.6653C41.625 51.2347 42.7267 50.3511 44.2227 50.3511C45.7579 50.3511 46.4934 51.1967 46.2313 52.6268C45.9676 54.0668 44.8642 54.9591 43.3779 54.9591C41.8223 54.9591 41.0988 54.1049 41.3629 52.6653ZM44.6336 52.6457C44.8706 51.3505 44.8042 50.5438 44.1385 50.5438C43.4843 50.5438 43.1984 51.3505 42.9611 52.6457C42.7233 53.9425 42.7875 54.7668 43.4524 54.7668C44.0977 54.7668 44.3958 53.9425 44.6336 52.6457Z" fill="#555555"/>
<path d="M37.7943 51.1295C37.7173 50.6979 37.5629 50.63 37.1869 50.5441L37.209 50.4283H39.9578L39.9361 50.5441C39.5464 50.5916 39.3695 50.6493 39.3338 50.8415C39.3248 50.8898 39.324 50.9467 39.3312 51.0142L39.6979 53.7592H39.7379L40.8583 51.5419C40.9817 51.2928 41.031 51.1295 41.0433 51.0616C41.0986 50.7642 40.9289 50.6206 40.4635 50.5441L40.4857 50.4283H42.4024L42.3811 50.5441C41.9421 50.5916 41.5134 50.7937 41.29 51.2154L39.3457 54.9402H38.426L37.9526 52.0798L36.3332 54.9402H35.4335L34.6746 51.1295C34.5862 50.7065 34.4335 50.63 34 50.5441L34.0208 50.4283H36.8185L36.7973 50.5441C36.4263 50.5916 36.2494 50.6493 36.2153 50.8321C36.2073 50.8796 36.2119 50.9569 36.2209 51.0142L36.7007 53.7886H36.7398L37.9079 51.7914L37.7943 51.1295Z" fill="#555555"/>
<path d="M46.5535 54.4309C46.5114 54.6612 46.3863 54.7574 45.8269 54.7668L45.8057 54.8821H48.8769L48.8981 54.7668C48.1495 54.7385 48.0163 54.6612 48.0593 54.4309L48.5961 51.503C48.8509 51.177 49.2303 50.927 49.4681 50.9074C49.4064 51.033 49.3371 51.1962 49.3112 51.3402C49.2406 51.7239 49.4762 52.0889 50.0054 52.0889C50.455 52.0889 50.84 51.7436 50.9318 51.2441C51.0233 50.745 50.7579 50.3805 50.1517 50.3805C49.6132 50.3805 49.0223 50.7254 48.6114 51.312L48.7773 50.4087L46.6045 50.5241L46.5837 50.6399C47.1396 50.6489 47.2154 50.8215 47.1626 51.1095L46.5535 54.4309Z" fill="#555555"/>
<path fill-rule="evenodd" clip-rule="evenodd" d="M58.6351 50.3506C57.3045 50.3506 56.0803 51.215 55.8034 52.7225C55.5363 54.1817 56.3717 54.9586 57.7997 54.9586C58.7576 54.9586 59.4688 54.5466 60.058 53.8454L59.9623 53.7784C59.5101 54.2676 59.0677 54.5466 58.4913 54.5466C57.553 54.5466 57.1663 53.9322 57.3879 52.7225L57.3922 52.7033L57.4164 52.5687H60.3115C60.6224 51.244 60.0329 50.3506 58.6351 50.3506ZM58.8397 52.3768H57.4513C57.698 51.244 58.0319 50.5437 58.5398 50.5437C59.0792 50.5437 59.1715 51.2629 58.8397 52.3768Z" fill="#555555"/>
<path d="M59.9148 54.7668C60.4742 54.7574 60.5984 54.6612 60.6414 54.4309L61.2496 51.1095C61.3032 50.8215 61.2275 50.6489 60.6716 50.6399L60.6924 50.5241L62.8652 50.4087L62.6993 51.312C63.1102 50.7254 63.7011 50.3805 64.2396 50.3805C64.8457 50.3805 65.1112 50.745 65.0197 51.2441C64.9287 51.7436 64.5425 52.0889 64.0924 52.0889C63.565 52.0889 63.3284 51.7239 63.3991 51.3402C63.425 51.1962 63.4943 51.033 63.556 50.9074C63.3182 50.927 62.9397 51.177 62.684 51.503L62.1472 54.4309C62.1051 54.6612 62.2374 54.7385 62.986 54.7668L62.9647 54.8821H59.8936L59.9148 54.7668Z" fill="#555555"/>
<path d="M64.931 53.2703H64.7847L64.4746 54.9591H64.5916L64.9544 54.5852C65.1799 54.739 66.0583 54.9591 66.4207 54.9591C67.5645 54.9591 68.4982 54.2972 68.6637 53.3943C68.8147 52.5692 68.2757 52.2047 67.2455 51.9547C66.6551 51.8111 66.2565 51.6377 66.3288 51.2441C66.4084 50.8125 66.7219 50.5438 67.1421 50.5438C67.7789 50.5438 68.0822 51.0138 68.4931 51.8688H68.6403L68.9185 50.3511H68.8007L68.4429 50.7062C68.1579 50.4963 67.7351 50.3511 67.177 50.3511C66.0527 50.3511 65.2126 50.9373 65.0412 51.8688C64.9081 52.5982 65.2815 52.905 66.2718 53.2127C67.2625 53.5195 67.4752 53.6921 67.3973 54.1143C67.3216 54.5275 67.0141 54.7672 66.5538 54.7672C65.8596 54.7672 65.387 54.2485 64.931 53.2703Z" fill="#555555"/>
<path d="M78.5823 48.0576C78.0634 48.0576 77.6486 48.4029 77.5521 48.9314C77.4547 49.4583 77.7516 49.7558 78.2705 49.7558C78.7984 49.7558 79.2025 49.4203 79.2991 48.8926C79.3927 48.3833 79.1098 48.0576 78.5823 48.0576Z" fill="#555555"/>
<path fill-rule="evenodd" clip-rule="evenodd" d="M82.7091 50.5151C83.0289 49.9964 83.5071 49.5742 84.0362 49.5742C84.4454 49.5742 84.6177 49.8139 84.5577 50.1408C84.5088 50.4088 84.2889 50.6493 83.9465 50.6493C83.6921 50.6493 83.4488 50.4284 83.5134 50.0729C83.3024 50.1596 83.0515 50.3511 82.8732 50.5822C83.4079 50.8125 83.7108 51.2347 83.5989 51.8492C83.4275 52.7807 82.4598 53.3657 81.267 53.3657C81.0424 53.3657 80.8404 53.3469 80.6502 53.3178C80.2393 53.4234 80.0794 53.5481 80.0445 53.7404C80.0088 53.9323 80.2257 54.0284 80.8038 54.0284H81.9468C82.8001 54.0284 83.2762 54.2736 83.3604 54.7649C83.8478 54.7483 83.9636 54.6507 84.0046 54.4309L85.0553 48.7004C85.108 48.4128 85.0413 48.2397 84.4462 48.2295L84.4674 48.1154L86.6896 48L86.0804 51.3206C86.5951 50.7552 87.3187 50.3805 87.9444 50.3805C88.8147 50.3805 89.1031 50.8894 88.9343 51.8107L88.4545 54.4309C88.4123 54.6612 88.4927 54.7574 89.0576 54.7668L89.0364 54.8821H86.3769L86.3982 54.7668C86.7415 54.7574 86.9052 54.6612 86.9486 54.4309L87.4268 51.8193C87.5182 51.3206 87.3574 51.0232 86.9176 51.0232C86.6139 51.0232 86.3446 51.215 86.0447 51.5133L85.5109 54.4309C85.4683 54.6612 85.5976 54.7574 85.9375 54.7668L85.9167 54.8821H83.3728C83.377 54.974 83.3693 55.0733 83.3497 55.18C83.1897 56.0538 82.0059 56.8024 80.4414 56.8024C79.2287 56.8024 78.3834 56.4474 78.486 55.8906C78.56 55.4876 78.8879 55.2471 79.6915 55.1325L79.6949 55.1129C79.1436 54.9206 78.9845 54.5079 79.0491 54.1524C79.1078 53.8361 79.5779 53.4037 80.3589 53.2507C79.7136 53.0392 79.3439 52.5982 79.4745 51.8876C79.6434 50.9655 80.6111 50.3805 81.8145 50.3805C82.1463 50.3805 82.4517 50.4284 82.7091 50.5151ZM82.1676 51.8688C82.3211 51.0334 82.2424 50.5532 81.7332 50.5532C81.2445 50.5532 81.0773 50.9373 80.9059 51.8688C80.7353 52.7995 80.8387 53.193 81.3377 53.193C81.817 53.193 81.997 52.7995 82.1676 51.8688ZM82.2964 55.6983C82.3598 55.3534 82.1539 55.1419 81.3525 55.1419H79.9246C79.6468 55.3236 79.4958 55.5064 79.4464 55.7748C79.3333 56.3893 79.788 56.629 80.7272 56.629C81.5588 56.629 82.188 56.2935 82.2964 55.6983Z" fill="#555555"/>
<path d="M90.931 48L88.7089 48.1154L88.6885 48.227C88.7 48.227 88.7111 48.2286 88.7222 48.2302C88.7317 48.2315 88.7412 48.2328 88.751 48.2332C88.8229 48.236 88.8935 48.2426 88.9628 48.2536C89.7689 48.3821 90.3857 49.0505 90.3857 49.8626C90.3857 49.8918 90.3828 49.9193 90.3798 49.9467C90.3774 49.9691 90.375 49.9916 90.3742 50.0148H90.5618L90.931 48Z" fill="#555555"/>
<path d="M88.7233 48.2315C88.712 48.2306 88.7006 48.2297 88.6875 48.2295L88.6885 48.227C88.7 48.227 88.7111 48.2286 88.7222 48.2302C88.7317 48.2315 88.7412 48.2328 88.751 48.2332C88.7415 48.2328 88.7322 48.2322 88.7233 48.2315Z" fill="#555555"/>
<path d="M29 64V153H97V64H29Z" fill="#F5F5F5"/>
<path fill-rule="evenodd" clip-rule="evenodd" d="M28.5 63.5H63.5V153.5H28.5V63.5ZM29.5 64.5V152.5H62.5V64.5H29.5Z" fill="#555555"/>
<path fill-rule="evenodd" clip-rule="evenodd" d="M62.5 63.5H97.5V153.5H62.5V63.5ZM63.5 64.5V152.5H96.5V64.5H63.5Z" fill="#555555"/>
<path d="M57 100C57 99.4477 57.4477 99 58 99C58.5523 99 59 99.4477 59 100V118C59 118.552 58.5523 119 58 119C57.4477 119 57 118.552 57 118V100Z" fill="#555555"/>
<path d="M67 100C67 99.4477 67.4477 99 68 99C68.5523 99 69 99.4477 69 100V118C69 118.552 68.5523 119 68 119C67.4477 119 67 118.552 67 118V100Z" fill="#555555"/>
<rect x="110.5" y="84.5" width="27" height="36" rx="1.5" fill="#D1DDFB" stroke="#555555"/>
<rect x="135.251" y="75.9473" width="6.80516" height="31.1952" rx="3.40258" transform="rotate(44.4857 135.251 75.9473)" fill="white" fill-opacity="0.5"/>
<rect x="131.201" y="100.28" width="2.90365" height="32.6483" rx="1.45182" transform="rotate(44.4857 131.201 100.28)" fill="white" fill-opacity="0.5"/>
<rect x="130.878" y="73" width="1.96701" height="32.6483" rx="0.983506" transform="rotate(44.4857 130.878 73)" fill="white" fill-opacity="0.5"/>
<rect x="111" y="128" width="13" height="4" rx="1" fill="#D9D9D9"/>
<rect x="128" y="128" width="9" height="2" rx="1" fill="#D9D9D9"/>
<rect x="113" y="129" width="9" height="1" rx="0.5" fill="#555555"/>
<path d="M119.85 15.0776L123.979 21.6926L131.732 20.3856L131.956 28.1261L139.357 30.8099L135.616 37.6017L140.681 43.5571L133.978 47.5804L135.351 55.2118L127.48 55.3886L124.793 62.651L117.865 58.9339L111.838 63.8815L107.708 57.2665L99.9554 58.5735L99.731 50.833L92.3305 48.1493L96.0713 41.3575L91.0059 35.402L97.7095 31.3787L96.3365 23.7473L104.207 23.5705L106.894 16.3081L113.822 20.0252L119.85 15.0776Z" fill="#D1DDFB"/>
<path d="M143.001 17.6239L146.639 27.2218L156.983 27.5193L155.291 37.5703L164.158 42.9302L157.59 50.7412L162.605 59.7272L152.92 63.2053L152.739 73.4096L142.532 71.6229L137.203 80.3113L129.21 73.7384L120.161 78.5829L116.524 68.9851L106.179 68.6875L107.872 58.6365L99.0039 53.2767L105.573 45.4656L100.557 36.4796L110.243 33.0015L110.424 22.7972L120.63 24.5839L125.959 15.8955L133.952 22.4684L143.001 17.6239Z" fill="#4267EB"/>
<path d="M116.971 48.2339C116.349 48.0009 115.81 47.6837 115.354 47.2821C114.905 46.8834 114.555 46.4275 114.303 45.9144C114.059 45.4042 113.92 44.8612 113.888 44.2853C113.864 43.7123 113.961 43.1336 114.18 42.5493C114.399 41.965 114.706 41.4649 115.101 41.049C115.503 40.636 115.968 40.3189 116.495 40.0978C117.022 39.8767 117.586 39.7632 118.186 39.7574C118.786 39.7516 119.394 39.8638 120.008 40.094C120.63 40.3269 121.161 40.6414 121.602 41.0373C122.051 41.4361 122.397 41.8906 122.642 42.4008C122.894 42.9138 123.036 43.4583 123.068 44.0341C123.103 44.6025 123.009 45.1825 122.788 45.7744C122.569 46.3587 122.257 46.8611 121.851 47.2816C121.449 47.6947 120.984 48.0118 120.457 48.2329C119.94 48.4493 119.382 48.5604 118.781 48.5662C118.189 48.5748 117.585 48.464 116.971 48.2339ZM117.541 46.679C117.893 46.8109 118.237 46.8716 118.574 46.8612C118.919 46.8536 119.246 46.7796 119.555 46.639C119.864 46.4985 120.136 46.2971 120.371 46.0349C120.613 45.7754 120.804 45.4584 120.945 45.0839C121.085 44.7093 121.149 44.3446 121.137 43.9897C121.132 43.6377 121.059 43.3072 120.919 42.9982C120.786 42.6921 120.592 42.4229 120.337 42.1908C120.082 41.9587 119.779 41.7766 119.427 41.6447C119.075 41.5128 118.726 41.4506 118.382 41.4582C118.045 41.4686 117.722 41.5441 117.413 41.6846C117.104 41.8251 116.828 42.0251 116.586 42.2846C116.351 42.5468 116.163 42.8652 116.023 43.2398C115.885 43.6069 115.818 43.9702 115.82 44.3297C115.832 44.6846 115.904 45.0151 116.038 45.3212C116.178 45.6302 116.376 45.9007 116.63 46.1329C116.885 46.365 117.189 46.547 117.541 46.679Z" fill="white"/>
<path d="M122.682 50.22L125.629 42.354L129.034 43.6297C129.738 43.8935 130.302 44.237 130.724 44.6601C131.149 45.0757 131.421 45.5489 131.538 46.0798C131.655 46.6107 131.603 47.172 131.381 47.7638C131.162 48.3482 130.834 48.8019 130.397 49.1251C129.96 49.4482 129.443 49.6305 128.846 49.6718C128.253 49.7057 127.604 49.5907 126.9 49.3269L124.506 48.4301L125.623 47.9129L124.503 50.902L122.682 50.22ZM125.547 48.1152L125.062 46.9468L127.354 47.8057C127.916 48.0162 128.381 48.0535 128.748 47.9177C129.115 47.7818 129.378 47.5003 129.538 47.0733C129.701 46.6388 129.689 46.2498 129.501 45.9062C129.314 45.5626 128.939 45.2856 128.377 45.0751L126.085 44.2162L127.218 43.6541L125.547 48.1152Z" fill="white"/>
<path d="M134.237 49.1927L138.024 50.6116L137.493 52.0275L133.707 50.6086L134.237 49.1927ZM133.159 52.4796L137.441 54.0837L136.893 55.5445L130.803 53.2625L133.75 45.3965L139.694 47.6238L139.147 49.0846L135.012 47.5352L133.159 52.4796Z" fill="white"/>
<path d="M138.342 56.0872L141.289 48.2212L142.795 48.7854L145.314 56.1877L144.583 55.9141L146.705 50.2505L148.503 50.9242L145.556 58.7902L144.061 58.2302L141.531 50.8236L142.262 51.0973L140.14 56.7608L138.342 56.0872Z" fill="white"/>
</svg>
