<svg width="180" height="180" viewBox="0 0 180 180" fill="none" xmlns="http://www.w3.org/2000/svg">
<path d="M25 28H119V144H25V28Z" fill="white"/>
<path fill-rule="evenodd" clip-rule="evenodd" d="M119.5 28C119.5 27.7239 119.276 27.5 119 27.5H25C24.7239 27.5 24.5 27.7239 24.5 28V144C24.5 144.276 24.7239 144.5 25 144.5H119C119.276 144.5 119.5 144.276 119.5 144V28ZM118.5 28.5V143.5H25.5V28.5H118.5Z" fill="#555555"/>
<path d="M66.7647 45.2334C66.6473 44.5113 66.4133 44.3977 65.842 44.2544L65.8753 44.0609H70.0513L70.018 44.2544C69.426 44.3334 69.1573 44.4301 69.1027 44.7513C69.0893 44.8325 69.088 44.9278 69.0993 45.04L69.6567 49.6318H69.7173L71.4193 45.9231C71.6067 45.5066 71.682 45.2334 71.7 45.1198C71.784 44.6221 71.5267 44.3821 70.82 44.2544L70.8533 44.0609H73.7647L73.7327 44.2544C73.0653 44.3334 72.4147 44.6722 72.0753 45.3767L69.1213 51.6075H67.724L67.0053 46.8224L64.5447 51.6075H63.178L62.0253 45.2334C61.8907 44.5254 61.6587 44.3977 61 44.2544L61.0327 44.0609H65.282L65.25 44.2544C64.6867 44.3334 64.418 44.4301 64.366 44.7358C64.3533 44.8155 64.3613 44.9447 64.3747 45.04L65.1033 49.6812H65.1627L66.9373 46.3409L66.7647 45.2334Z" fill="#555555"/>
<path d="M70.8853 51.3174C71.7193 51.3019 71.9087 51.1409 71.974 50.7562L73.57 41.1711C73.6507 40.6904 73.5493 40.4009 72.6453 40.384L72.6773 40.1927L76.0527 40L75.128 45.5532C75.91 44.608 77.0087 43.9812 77.9593 43.9812C79.2813 43.9812 79.7193 44.8325 79.4627 46.3734L78.734 50.7562C78.67 51.1409 78.792 51.3019 79.65 51.3174L79.618 51.5108H75.578L75.61 51.3174C76.132 51.3019 76.3807 51.1409 76.446 50.7562L77.1727 46.3882C77.312 45.5532 77.068 45.0562 76.3993 45.0562C75.938 45.0562 75.5287 45.3774 75.0733 45.8758L74.262 50.7562C74.198 51.1409 74.394 51.3019 74.9107 51.3174L74.8787 51.5108H70.8533L70.8853 51.3174Z" fill="#555555"/>
<path d="M82.496 40L79.1207 40.1934L79.0893 40.3798C79.122 40.3798 79.152 40.3889 79.184 40.3896C79.2933 40.3946 79.4007 40.4059 79.506 40.4242C80.7307 40.6388 81.6673 41.7576 81.6673 43.1151C81.6673 43.204 81.6527 43.2831 81.65 43.3692H81.9347L82.496 40Z" fill="#555555"/>
<path d="M79.0887 40.384C79.1247 40.3847 79.1507 40.3875 79.184 40.3896C79.152 40.3889 79.122 40.3798 79.0893 40.3798L79.0887 40.384Z" fill="#555555"/>
<path d="M87.162 62.024H57.468C57.21 62.024 57 61.813 57 61.556V61.468C57 61.21 57.21 61 57.468 61H87.162C87.42 61 87.63 61.21 87.63 61.468V61.556C87.63 61.813 87.42 62.024 87.162 62.024Z" fill="#D3D6E4"/>
<path d="M49.8166 86H38.1833C38.0823 86 38 85.7939 38 85.543V85.457C38 85.2051 38.0823 85 38.1833 85H49.8166C49.9177 85 50 85.2051 50 85.457V85.543C50 85.7939 49.9177 86 49.8166 86Z" fill="#D3D6E4"/>
<path d="M38.3209 102H58.6791C58.856 102 59 101.794 59 101.543V101.457C59 101.205 58.856 101 58.6791 101H38.3209C38.144 101 38 101.205 38 101.457V101.543C38 101.794 38.144 102 38.3209 102Z" fill="#D3D6E4"/>
<path d="M83.6486 66H61.3514C61.1577 66 61 65.7939 61 65.543V65.457C61 65.2051 61.1577 65 61.3514 65H83.6486C83.8423 65 84 65.2051 84 65.457V65.543C84 65.7939 83.8423 66 83.6486 66Z" fill="#D3D6E4"/>
<path d="M38.3514 90H60.6486C60.8423 90 61 89.7939 61 89.543V89.457C61 89.2051 60.8423 89 60.6486 89H38.3514C38.1577 89 38 89.2051 38 89.457V89.543C38 89.7939 38.1577 90 38.3514 90Z" fill="#D3D6E4"/>
<path d="M64.5875 106H38.4125C38.1851 106 38 105.794 38 105.543V105.457C38 105.205 38.1851 105 38.4125 105H64.5875C64.8149 105 65 105.205 65 105.457V105.543C65 105.794 64.8149 106 64.5875 106Z" fill="#D3D6E4"/>
<path d="M48.7487 70H96.2513C96.6641 70 97 69.7939 97 69.543V69.457C97 69.2051 96.6641 69 96.2513 69H48.7487C48.3359 69 48 69.2051 48 69.457V69.543C48 69.7939 48.3359 70 48.7487 70Z" fill="#D3D6E4"/>
<path d="M56.7097 94H38.2903C38.1303 94 38 93.7939 38 93.543V93.457C38 93.2051 38.1303 93 38.2903 93H56.7097C56.8697 93 57 93.2051 57 93.457V93.543C57 93.7939 56.8697 94 56.7097 94Z" fill="#D3D6E4"/>
<path d="M38.2597 110H54.7403C54.8834 110 55 109.794 55 109.543V109.457C55 109.205 54.8834 109 54.7403 109H38.2597C38.1166 109 38 109.205 38 109.457V109.543C38 109.794 38.1166 110 38.2597 110Z" fill="#D3D6E4"/>
<path d="M115.629 119.317C115.629 119.317 129.493 118.315 131.481 115.735C131.406 126.767 137.719 145.469 140.983 139.998C144.247 134.526 150.244 128.236 152.834 125.775L136.842 97.2979L131.481 99.5138L119.078 99.404C117.122 99.3867 115.196 99.9227 113.531 100.947L107.161 104.867C104.717 106.37 103.027 108.807 102.514 111.57L100.723 121.198C100.628 121.711 100.672 122.238 100.852 122.725L104.872 133.63C105.364 134.963 106.762 135.753 108.203 135.512L108.509 135.461C111.893 134.895 114.167 131.718 113.534 128.442L112.714 124.202L115.629 119.317Z" fill="white"/>
<path fill-rule="evenodd" clip-rule="evenodd" d="M153.279 125.533C153.388 125.727 153.349 125.97 153.185 126.126C150.605 128.578 144.649 134.83 141.42 140.241C140.97 140.996 140.372 141.487 139.618 141.472C138.916 141.459 138.279 141.001 137.731 140.397C136.614 139.167 135.496 136.922 134.504 134.228C132.634 129.147 131.132 122.233 130.987 116.783C130.817 116.885 130.637 116.981 130.449 117.072C129.843 117.364 129.109 117.624 128.304 117.857C126.693 118.322 124.748 118.694 122.882 118.981C121.013 119.27 119.208 119.477 117.872 119.611C117.203 119.679 116.651 119.728 116.265 119.761C116.133 119.772 116.021 119.781 115.93 119.789L113.247 124.285L114.032 128.344C114.718 131.893 112.254 135.334 108.588 135.947L108.282 135.999C106.601 136.28 104.97 135.358 104.396 133.802L100.376 122.898C100.166 122.329 100.115 121.715 100.226 121.117L102.016 111.489C102.556 108.587 104.329 106.029 106.896 104.45L113.266 100.53C115.014 99.4548 117.037 98.892 119.09 98.9102L131.388 99.0191L136.65 96.8436C136.889 96.7448 137.164 96.8363 137.287 97.0559L153.279 125.533ZM115.599 118.825L115.608 118.824L115.637 118.822L115.752 118.813C115.853 118.805 116.002 118.793 116.192 118.777C116.573 118.745 117.119 118.696 117.782 118.629C119.107 118.495 120.892 118.291 122.738 118.006C124.586 117.721 126.481 117.358 128.029 116.91C128.803 116.686 129.478 116.445 130.011 116.188C130.555 115.926 130.903 115.67 131.079 115.442C131.211 115.271 131.439 115.2 131.645 115.265C131.851 115.331 131.989 115.519 131.988 115.731C131.951 121.177 133.495 128.552 135.457 133.882C136.443 136.559 137.51 138.653 138.492 139.736C138.993 140.288 139.385 140.48 139.652 140.485C139.868 140.489 140.181 140.367 140.547 139.754C143.735 134.411 149.475 128.325 152.206 125.69L136.614 97.9257L131.674 99.9681C131.609 99.9948 131.54 100.008 131.47 100.008L119.067 99.8978C117.209 99.8813 115.379 100.391 113.797 101.364L107.427 105.283C105.105 106.712 103.5 109.027 103.012 111.652L101.222 121.28C101.142 121.707 101.179 122.146 101.329 122.552L105.349 133.457C105.759 134.567 106.924 135.226 108.125 135.025L108.431 134.974C111.533 134.455 113.618 131.543 113.037 128.54L112.217 124.301C112.195 124.184 112.216 124.062 112.278 123.959L115.193 119.073C115.278 118.93 115.431 118.837 115.599 118.825Z" fill="#555555"/>
<path d="M133.014 115.271C131.779 117.854 132.522 120.902 134.807 122.622L136.15 123.632L121.414 152.518C119.316 156.632 114.115 158.205 110.076 155.949L85.0918 141.989C82.6678 140.634 81.1549 138.14 81.0946 135.4L81.0545 133.571C80.993 130.773 79.1745 128.323 76.4768 127.405L93.7452 98.4588C96.0849 100.065 99.1746 100.226 101.719 98.8734L103.427 97.965C105.91 96.6452 108.898 96.6662 111.322 98.0206L131.021 109.027C133.247 110.271 134.11 112.977 133.014 115.271Z" fill="white"/>
<path fill-rule="evenodd" clip-rule="evenodd" d="M121.867 152.733C119.638 157.104 114.112 158.776 109.821 156.378L84.8363 142.418C82.2609 140.979 80.6533 138.329 80.5893 135.417L80.5492 133.589C80.4921 130.994 78.8061 128.723 76.3047 127.871L75.7332 127.676L93.5903 97.744L94.0411 98.0535C96.2246 99.5528 99.1079 99.7027 101.482 98.4405L103.191 97.5321C105.829 96.1298 109.004 96.1521 111.579 97.5911L131.278 108.598C133.729 109.967 134.68 112.948 133.472 115.474C132.338 117.848 133.021 120.649 135.12 122.229L136.788 123.484L121.867 152.733ZM110.333 155.519C114.119 157.635 118.995 156.16 120.962 152.303L135.513 123.78L134.495 123.014C132.025 121.155 131.221 117.86 132.556 115.067C133.542 113.006 132.766 110.574 130.766 109.457L111.067 98.4499C108.794 97.1802 105.993 97.1605 103.665 98.3978L101.957 99.3062C99.4065 100.662 96.3424 100.593 93.9111 99.1573L77.2092 127.154C79.793 128.271 81.4995 130.749 81.5611 133.554L81.6013 135.382C81.6578 137.952 83.0762 140.29 85.3487 141.559L110.333 155.519Z" fill="#555555"/>
<path d="M94.095 91.7447C96.0235 92.8223 96.6694 95.2338 95.5376 97.1309L76.9031 128.366C75.7713 130.264 73.2904 130.928 71.3619 129.851L65.494 126.572C64.5297 126.033 64.2068 124.827 64.7727 123.879L85.4565 89.2081C86.0224 88.2595 87.2629 87.9273 88.2271 88.4661L94.095 91.7447Z" fill="#4267EB"/>
<path d="M146.758 129.545C149.226 130.924 150.053 134.011 148.604 136.439C147.156 138.868 143.98 139.718 141.512 138.339L130.247 132.045L135.493 123.251L146.758 129.545Z" fill="white"/>
<path fill-rule="evenodd" clip-rule="evenodd" d="M149.042 136.683C150.632 134.018 149.724 130.63 147.015 129.116L135.75 122.822L135.238 123.68L146.503 129.975C148.73 131.219 149.476 134.004 148.169 136.195C146.862 138.387 143.996 139.154 141.769 137.909L130.504 131.615L129.991 132.474L141.257 138.768C143.966 140.282 147.452 139.349 149.042 136.683Z" fill="#555555"/>
<path d="M143.369 139.377C145.838 140.756 146.664 143.843 145.216 146.271C143.767 148.699 140.592 149.55 138.123 148.17L125.001 140.838L130.247 132.045L143.369 139.377Z" fill="white"/>
<path fill-rule="evenodd" clip-rule="evenodd" d="M145.653 146.515C147.243 143.849 146.336 140.461 143.626 138.947L130.504 131.615L129.992 132.474L143.114 139.806C145.341 141.051 146.087 143.836 144.78 146.027C143.473 148.218 140.608 148.985 138.38 147.741L125.258 140.409L124.745 141.268L137.868 148.6C140.577 150.114 144.063 149.18 145.653 146.515Z" fill="#555555"/>
<path d="M133.698 145.697C136.166 147.076 136.993 150.163 135.544 152.591C134.095 155.019 130.92 155.87 128.451 154.491L117.736 148.504L122.982 139.71L133.698 145.697Z" fill="white"/>
<path fill-rule="evenodd" clip-rule="evenodd" d="M135.98 152.835C137.57 150.17 136.663 146.782 133.953 145.268L123.238 139.281L122.726 140.139L133.441 146.126C135.668 147.371 136.414 150.156 135.107 152.347C133.8 154.538 130.935 155.306 128.707 154.061L117.992 148.074L117.48 148.933L128.195 154.92C130.904 156.434 134.39 155.5 135.98 152.835Z" fill="#555555"/>
<path d="M123.111 151.507C125.579 152.886 126.406 155.972 124.957 158.401C123.508 160.829 120.333 161.679 117.865 160.3L111.903 156.969L117.149 148.175L123.111 151.507Z" fill="white"/>
<path fill-rule="evenodd" clip-rule="evenodd" d="M125.393 158.645C126.983 155.979 126.076 152.591 123.367 151.077L117.405 147.746L116.892 148.605L122.854 151.936C125.082 153.181 125.827 155.966 124.52 158.157C123.213 160.348 120.348 161.115 118.12 159.871L112.158 156.54L111.646 157.398L117.608 160.73C120.318 162.244 123.803 161.31 125.393 158.645Z" fill="#555555"/>
<path d="M115.629 119.317C115.629 119.317 135.14 116.322 137.128 113.742L136.842 97.2975L131.482 99.5134L119.089 99.4037C117.127 99.3863 115.201 99.9195 113.544 100.939L107.081 104.915C104.685 106.39 103.035 108.768 102.532 111.473L100.722 121.207C100.628 121.714 100.672 122.236 100.851 122.721L104.857 133.588C105.356 134.94 106.787 135.748 108.248 135.504L108.599 135.445C111.95 134.885 114.18 131.78 113.554 128.545L112.714 124.202L115.629 119.317Z" fill="white"/>
<path fill-rule="evenodd" clip-rule="evenodd" d="M137.432 113.347C137.657 113.51 137.703 113.818 137.535 114.035C137.205 114.464 136.579 114.836 135.849 115.167C135.097 115.509 134.147 115.845 133.083 116.17C130.952 116.821 128.309 117.441 125.74 117.977C123.169 118.515 120.662 118.971 118.798 119.292C117.866 119.453 117.094 119.581 116.555 119.668C116.297 119.71 116.092 119.742 115.948 119.765L113.249 124.29L114.054 128.454C114.732 131.959 112.316 135.322 108.686 135.93L108.335 135.988C106.63 136.274 104.96 135.33 104.379 133.753L100.373 122.886C100.164 122.32 100.112 121.711 100.222 121.12L102.032 111.386C102.56 108.545 104.292 106.048 106.809 104.5L113.272 100.524C115.011 99.4533 117.033 98.8936 119.094 98.9118L131.38 99.0206L136.643 96.8451C136.901 96.7384 137.199 96.8544 137.309 97.1041C137.42 97.3539 137.3 97.6428 137.042 97.7495L131.681 99.9655C131.617 99.9921 131.547 100.006 131.477 100.005L119.085 99.8953C117.22 99.8787 115.391 100.385 113.817 101.353L107.354 105.33C105.077 106.731 103.51 108.99 103.032 111.56L101.222 121.294C101.144 121.716 101.181 122.151 101.33 122.556L105.336 133.423C105.751 134.549 106.944 135.223 108.162 135.019L108.513 134.961C111.585 134.447 113.628 131.6 113.055 128.635L112.215 124.292C112.193 124.177 112.214 124.058 112.274 123.956L115.189 119.071C115.266 118.942 115.398 118.854 115.549 118.831L115.629 119.316C115.549 118.831 115.549 118.831 115.549 118.831L115.605 118.822L115.767 118.797C115.91 118.774 116.12 118.741 116.388 118.698C116.923 118.611 117.691 118.484 118.619 118.324C120.476 118.004 122.971 117.55 125.526 117.016C128.083 116.482 130.691 115.869 132.777 115.232C133.821 114.914 134.723 114.592 135.417 114.277C136.136 113.95 136.554 113.664 136.721 113.448C136.888 113.23 137.207 113.185 137.432 113.347Z" fill="#555555"/>
<path d="M85.5258 128.353C87.5745 126.37 90.8962 126.37 92.9449 128.353C94.9936 130.335 94.9936 133.55 92.9449 135.533L88.2178 140.107C86.1691 142.09 82.8474 142.09 80.7987 140.107C78.7499 138.125 78.75 134.91 80.7987 132.927L85.5258 128.353Z" fill="white"/>
<path fill-rule="evenodd" clip-rule="evenodd" d="M85.1665 128.005C87.4137 125.83 91.057 125.83 93.3042 128.005C95.5514 130.18 95.5514 133.706 93.3042 135.881L88.5771 140.455C86.3299 142.63 82.6866 142.63 80.4394 140.455C78.1922 138.281 78.1922 134.755 80.4394 132.58L85.1665 128.005ZM92.5856 128.701C90.7353 126.91 87.7354 126.91 85.8851 128.701L81.158 133.275C79.3077 135.066 79.3077 137.969 81.158 139.76C83.0083 141.551 86.0082 141.551 87.8585 139.76L92.5856 135.185C94.4359 133.394 94.4359 130.491 92.5856 128.701Z" fill="#555555"/>
<path d="M94.1244 133.699C96.1732 131.716 99.4948 131.716 101.544 133.699C103.592 135.682 103.592 138.896 101.544 140.879L92.5359 149.596C90.4872 151.579 87.1656 151.579 85.1168 149.596C83.0681 147.613 83.0681 144.399 85.1168 142.416L94.1244 133.699Z" fill="white"/>
<path fill-rule="evenodd" clip-rule="evenodd" d="M93.7651 133.351C96.0123 131.177 99.6557 131.177 101.903 133.351C104.15 135.526 104.15 139.052 101.903 141.227L92.8952 149.944C90.6481 152.119 87.0047 152.119 84.7575 149.944C82.5104 147.769 82.5104 144.243 84.7575 142.069L93.7651 133.351ZM101.184 134.047C99.3339 132.256 96.334 132.256 94.4837 134.047L85.4761 142.764C83.6258 144.555 83.6258 147.458 85.4761 149.249C87.3264 151.039 90.3263 151.039 92.1766 149.249L101.184 140.531C103.035 138.741 103.035 135.837 101.184 134.047Z" fill="#555555"/>
<path d="M98.8891 143.447C100.938 141.465 104.259 141.465 106.308 143.447L-nan -nanL106.308 143.447C108.357 145.43 108.357 148.645 106.308 150.627L100.832 155.927C98.7835 157.91 95.4619 157.91 93.4132 155.927L-nan -nanL93.4132 155.927C91.3644 153.944 91.3644 150.73 93.4132 148.747L98.8891 143.447Z" fill="white"/>
<path fill-rule="evenodd" clip-rule="evenodd" d="M98.5298 143.099C100.777 140.925 104.42 140.925 106.667 143.099C108.915 145.274 108.915 148.8 106.667 150.975L101.192 156.274C98.9444 158.449 95.301 158.449 93.0539 156.274C90.8067 154.099 90.8067 150.573 93.0539 148.399L98.5298 143.099ZM105.949 143.795C104.099 142.004 101.099 142.004 99.2484 143.795L93.7725 149.094C91.9222 150.885 91.9222 153.788 93.7725 155.579C95.6227 157.369 98.6227 157.369 100.473 155.579L105.949 150.279C107.799 148.489 107.799 145.585 105.949 143.795Z" fill="#555555"/>
<path d="M105.322 151.582C107.37 149.599 110.692 149.599 112.741 151.582C114.79 153.565 114.79 156.779 112.741 158.762L111.916 159.56C109.868 161.543 106.546 161.543 104.497 159.56C102.449 157.577 102.449 154.363 104.497 152.38L105.322 151.582Z" fill="white"/>
<path fill-rule="evenodd" clip-rule="evenodd" d="M104.962 151.235C107.21 149.06 110.853 149.06 113.1 151.235C115.347 153.409 115.347 156.935 113.1 159.11L112.276 159.908C110.029 162.083 106.385 162.083 104.138 159.908C101.891 157.733 101.891 154.207 104.138 152.032L104.962 151.235ZM112.382 151.93C110.531 150.139 107.531 150.139 105.681 151.93L104.857 152.728C103.006 154.518 103.006 157.422 104.857 159.212C106.707 161.003 109.707 161.003 111.557 159.212L112.382 158.415C114.232 156.624 114.232 153.721 112.382 151.93Z" fill="#555555"/>
<path d="M158.573 128.816C156.613 129.874 154.137 129.194 153.043 127.297L134.853 95.7423C133.759 93.845 134.462 91.4488 136.422 90.3902L143.184 86.7396C143.674 86.475 144.293 86.645 144.566 87.1194L165.232 122.968C165.779 123.917 165.428 125.115 164.447 125.644L158.573 128.816Z" fill="#4267EB"/>
</svg>
