<svg width="180" height="180" viewBox="0 0 180 180" fill="none" xmlns="http://www.w3.org/2000/svg">
<path d="M3 134C3 132.895 3.89543 132 5 132H175C176.105 132 177 132.895 177 134V137C177 140.314 174.314 143 171 143H9C5.6863 143 3 140.314 3 137V134Z" fill="#F5F5F5"/>
<path d="M78 132H102C102 133.657 100.657 135 99 135H81C79.3431 135 78 133.657 78 132Z" fill="#D9D9D9"/>
<path d="M13 40C13 38.3431 14.3431 37 16 37H164C165.657 37 167 38.3431 167 40V133H13V40Z" fill="#D3D6E4"/>
<path d="M19 43H161V127H19V43Z" fill="white"/>
<path fill-rule="evenodd" clip-rule="evenodd" d="M19 127V43H161V127H19ZM20 44H160V126H20V44Z" fill="#555555"/>
<path fill-rule="evenodd" clip-rule="evenodd" d="M13 40V132H5C3.89543 132 3 132.895 3 134V137C3 140.314 5.68629 143 9 143H171C174.314 143 177 140.314 177 137V134C177 132.895 176.105 132 175 132H167V40C167 38.3431 165.657 37 164 37H16C14.3431 37 13 38.3431 13 40ZM164 38H16C14.8954 38 14 38.8954 14 40V132H166V40C166 38.8954 165.105 38 164 38ZM175 133H101.829C101.417 134.165 100.306 135 99 135H81C79.6938 135 78.5825 134.165 78.1707 133H5C4.44771 133 4 133.448 4 134V137C4 139.761 6.23859 142 9 142H171C173.761 142 176 139.761 176 137V134C176 133.448 175.552 133 175 133ZM99 134C99.7403 134 100.387 133.598 100.732 133H79.2676C79.6134 133.598 80.2597 134 81 134H99Z" fill="#555555"/>
<path d="M50.1202 54.1934L53.4955 54L52.9342 57.3692H52.6495C52.6507 57.3306 52.6543 57.2934 52.6579 57.2561C52.6624 57.2102 52.6669 57.1641 52.6669 57.1151C52.6669 55.7576 51.7302 54.6388 50.5055 54.4242C50.4002 54.4059 50.2929 54.3946 50.1835 54.3896C50.1682 54.3893 50.1534 54.387 50.1385 54.3848C50.1222 54.3823 50.1059 54.3798 50.0889 54.3798L50.1202 54.1934Z" fill="#555555"/>
<path d="M41.8855 65.3174C42.7195 65.3019 42.9088 65.1409 42.9742 64.7562L44.0243 58.4492C43.6326 58.6287 43.2911 58.9288 43.0753 59.3767L40.1213 65.6075H38.724L38.0053 60.8223L35.5447 65.6075H34.178L33.0253 59.2334C32.8907 58.5254 32.6587 58.3976 32 58.2543L32.0327 58.0609H36.282L36.25 58.2543C35.6867 58.3334 35.418 58.4301 35.366 58.7357C35.3533 58.8155 35.3613 58.9447 35.3747 59.04L36.1033 63.6811H36.1627L37.9373 60.3409L37.7647 59.2334C37.6473 58.5113 37.4133 58.3976 36.842 58.2543L36.8753 58.0609H41.0513L41.018 58.2543C40.426 58.3334 40.1573 58.4301 40.1027 58.7513C40.0893 58.8324 40.088 58.9277 40.0993 59.04L40.6567 63.6317H40.7173L42.4193 59.923C42.6067 59.5066 42.682 59.2334 42.7 59.1197C42.784 58.6221 42.5267 58.3821 41.82 58.2543L41.8533 58.0609H44.089L44.5702 55.1711C44.6508 54.6904 44.5495 54.4009 43.6455 54.384L43.6775 54.1927L47.0528 54L46.1282 59.5532C46.9102 58.608 48.0089 57.9812 48.9595 57.9812C50.2815 57.9812 50.7195 58.8325 50.4628 60.3734L49.7342 64.7562C49.6702 65.1409 49.7922 65.3019 50.6502 65.3174L50.6182 65.5108H46.5782L46.6102 65.3174C47.1322 65.3019 47.3808 65.1409 47.4462 64.7562L48.1728 60.3882C48.3122 59.5532 48.0682 59.0562 47.3995 59.0562C46.9382 59.0562 46.5288 59.3774 46.0735 59.8758L45.2622 64.7562C45.1982 65.1409 45.3942 65.3019 45.9108 65.3174L45.8788 65.5108H41.8535L41.8855 65.3174Z" fill="#555555"/>
<path d="M50.0889 54.3841C50.1249 54.3848 50.1515 54.3884 50.1849 54.3905C50.1522 54.3891 50.1222 54.3799 50.0895 54.3799L50.0889 54.3841Z" fill="#555555"/>
<path d="M110.468 61.024H134.733C134.991 61.024 135.201 60.813 135.201 60.556V60.468C135.201 60.21 134.991 60 134.733 60H110.468C110.211 60 110 60.21 110 60.468V60.556C110 60.813 110.211 61.024 110.468 61.024Z" fill="#D9D9D9"/>
<path d="M140.163 64.0904H110.469C110.211 64.0904 110.001 63.8794 110.001 63.6224V63.5344C110.001 63.2764 110.211 63.0664 110.469 63.0664H140.163C140.421 63.0664 140.631 63.2764 140.631 63.5344V63.6224C140.631 63.8794 140.421 64.0904 140.163 64.0904Z" fill="#D9D9D9"/>
<path d="M110.468 71.2921H134.733C134.991 71.2921 135.201 71.0811 135.201 70.8241V70.7361C135.201 70.4781 134.991 70.2681 134.733 70.2681H110.468C110.211 70.2681 110 70.4781 110 70.7361V70.8241C110 71.0811 110.211 71.2921 110.468 71.2921Z" fill="#D9D9D9"/>
<path d="M134.733 78.421H110.468C110.211 78.421 110 78.21 110 77.953V77.865C110 77.607 110.211 77.397 110.468 77.397H134.733C134.991 77.397 135.201 77.607 135.201 77.865V77.953C135.201 78.21 134.991 78.421 134.733 78.421Z" fill="#D9D9D9"/>
<path d="M126.435 74.8258H110.468C110.211 74.8258 110 74.6148 110 74.3578V74.2698C110 74.0118 110.211 73.8018 110.468 73.8018H126.435C126.693 73.8018 126.903 74.0118 126.903 74.2698V74.3578C126.903 74.6148 126.693 74.8258 126.435 74.8258Z" fill="#D9D9D9"/>
<path d="M65.469 89.0904H95.163C95.421 89.0904 95.631 88.8794 95.631 88.6224V88.5344C95.631 88.2764 95.421 88.0664 95.163 88.0664H65.469C65.211 88.0664 65.001 88.2764 65.001 88.5344V88.6224C65.001 88.8794 65.211 89.0904 65.469 89.0904Z" fill="#D9D9D9"/>
<path d="M99.733 86.024H65.468C65.211 86.024 65 85.813 65 85.556V85.468C65 85.21 65.211 85 65.468 85H99.733C99.991 85 100.201 85.21 100.201 85.468V85.556C100.201 85.813 99.991 86.024 99.733 86.024Z" fill="#D9D9D9"/>
<path d="M102 60H65V78H102V60Z" fill="#D9D9D9"/>
<rect x="54" y="99" width="72" height="19" rx="9.5" fill="#4267EB"/>
<path d="M79.1714 103.75V110.37H80.0114V103.75H79.1714ZM74.2014 111.9V112.58H80.2814V111.9H74.2014ZM74.2014 109.76V112.22H75.0214V109.76H74.2014ZM74.9514 104.24V105.16C74.9514 106.56 74.0514 107.88 72.6914 108.41L73.1214 109.08C74.6414 108.46 75.6414 106.92 75.6414 105.16V104.24H74.9514ZM75.1014 104.24V105.16C75.1014 106.88 76.1014 108.33 77.6014 108.91L78.0414 108.24C76.6914 107.75 75.7814 106.52 75.7814 105.16V104.24H75.1014Z" fill="white"/>
<path d="M84.0506 105.28V105.67C84.0506 106.89 83.1506 107.99 81.8206 108.42L82.2206 109.07C83.7306 108.56 84.7306 107.24 84.7306 105.67V105.28H84.0506ZM84.2006 105.28V105.67C84.2006 107.15 85.2406 108.37 86.7606 108.84L87.1406 108.19C85.8106 107.8 84.8806 106.79 84.8806 105.67V105.28H84.2006ZM82.0506 104.83V105.5H86.8706V104.83H82.0506ZM84.0506 103.7V105.07H84.8806V103.7H84.0506ZM86.6006 106.31V107H88.6406V106.31H86.6006ZM88.4006 103.74V109.21H89.2306V103.74H88.4006ZM86.2606 109.45C84.3806 109.45 83.2406 110.06 83.2406 111.11C83.2406 112.15 84.3806 112.76 86.2606 112.76C88.1306 112.76 89.2706 112.15 89.2706 111.11C89.2706 110.06 88.1306 109.45 86.2606 109.45ZM86.2606 110.1C87.6206 110.1 88.4506 110.47 88.4506 111.11C88.4506 111.74 87.6206 112.11 86.2606 112.11C84.8906 112.11 84.0706 111.74 84.0706 111.11C84.0706 110.47 84.8906 110.1 86.2606 110.1Z" fill="white"/>
<path d="M97.1198 103.74V112.78H97.9498V103.74H97.1198ZM97.7498 107.45V108.15H99.4298V107.45H97.7498ZM90.9498 105.18V105.86H96.2798V105.18H90.9498ZM93.6498 106.61C92.3798 106.61 91.4498 107.47 91.4498 108.69C91.4498 109.91 92.3798 110.77 93.6498 110.77C94.9298 110.77 95.8498 109.91 95.8498 108.69C95.8498 107.47 94.9298 106.61 93.6498 106.61ZM93.6498 107.3C94.4698 107.3 95.0598 107.87 95.0598 108.69C95.0598 109.5 94.4698 110.08 93.6498 110.08C92.8298 110.08 92.2398 109.5 92.2398 108.69C92.2398 107.87 92.8298 107.3 93.6498 107.3ZM93.2198 103.85V105.49H94.0498V103.85H93.2198Z" fill="white"/>
<path d="M106.779 103.74V112.78H107.609V103.74H106.779ZM104.129 104.71V104.85C104.129 107.25 102.919 109.17 100.309 110.43L100.749 111.1C103.769 109.62 104.949 107.33 104.949 104.71H104.129ZM100.719 104.71V105.39H104.489V104.71H100.719Z" fill="white"/>
<path d="M108 108L111.022 141.262L121.6 134.754L132.178 155L142 149.215L126.889 131.862L138.222 127.523L108 108Z" fill="white"/>
<path fill-rule="evenodd" clip-rule="evenodd" d="M107.409 107.023L139.321 127.638L127.736 132.073L142.772 149.341L131.978 155.698L121.405 135.461L110.597 142.11L107.409 107.023ZM108.591 108.977L111.447 140.413L121.795 134.047L132.377 154.302L141.228 149.09L126.042 131.65L137.123 127.408L108.591 108.977Z" fill="#555555"/>
</svg>
