<svg width="180" height="180" viewBox="0 0 180 180" fill="none" xmlns="http://www.w3.org/2000/svg">
<path d="M90.0596 13.2329L15.2354 56.6439L15.1816 114.106L89.9306 157.785L164.932 114.157V56.6439L90.0596 13.2329Z" fill="white"/>
<path d="M89.8979 157.785L164.77 113.994V108.639L89.8979 152.152L15.0742 108.741V114.096L89.8979 157.785Z" fill="#D3D6E4"/>
<path d="M89.8979 13.0703V64.9826L15.0742 108.847V56.4813L89.8979 13.0703Z" fill="#F5F5F5"/>
<path d="M89.9447 64.9827L164.768 108.847V56.4818L89.8965 13.0708" fill="#F5F5F5"/>
<path fill-rule="evenodd" clip-rule="evenodd" d="M14.5742 56.4813C14.5742 56.3031 14.6691 56.1383 14.8233 56.0489L89.647 12.6378C89.8017 12.5481 89.9925 12.5478 90.1475 12.637C90.1578 12.643 90.1678 12.6492 90.1775 12.6558L165.019 56.0493C165.091 56.0911 165.151 56.1495 165.193 56.218C165.341 56.3087 165.432 56.47 165.432 56.6441V114.157C165.432 114.335 165.337 114.5 165.183 114.589L90.182 158.217C90.0996 158.265 90.0069 158.288 89.9148 158.285C89.909 158.285 89.9033 158.285 89.8975 158.285C89.799 158.285 89.7072 158.257 89.6298 158.208L14.8221 114.527C14.6686 114.438 14.5742 114.273 14.5742 114.096V56.4813ZM90.3975 156.914L164.27 113.707V109.508L90.3975 152.439V156.914ZM89.3975 152.439V156.895L15.6819 113.819L15.6858 109.673L89.3975 152.439ZM15.7352 56.9322L89.3965 14.1958V64.697L15.6874 107.908L15.7352 56.9322ZM16.1584 108.791L89.9213 65.5485L163.599 108.741L89.8977 151.573L16.1584 108.791ZM90.3979 14.0072V64.6688L164.268 107.974V56.8376L90.3979 14.0072Z" fill="#555555"/>
<path d="M9.14071 119.385C9.3759 119.24 9.44943 118.932 9.30496 118.697C9.16049 118.461 8.85272 118.388 8.61754 118.533L2.94723 122.022C2.71205 122.167 2.63851 122.475 2.78298 122.71C2.92745 122.945 3.23522 123.019 3.47041 122.874L6.05162 121.286L8.54829 122.723C8.78759 122.861 9.0931 122.779 9.23065 122.539C9.3682 122.3 9.28572 121.994 9.04641 121.856L7.02036 120.69L9.14071 119.385Z" fill="#4267EB"/>
<path d="M168.928 119.426C168.693 119.281 168.619 118.973 168.764 118.738C168.908 118.502 169.216 118.429 169.451 118.574L175.121 122.063C175.357 122.208 175.43 122.516 175.286 122.751C175.141 122.986 174.833 123.06 174.598 122.915L172.017 121.327L169.52 122.764C169.281 122.902 168.976 122.82 168.838 122.58C168.7 122.341 168.783 122.035 169.022 121.897L171.048 120.731L168.928 119.426Z" fill="#4267EB"/>
<path d="M96.0185 163.902L93.4706 162.334C93.2355 162.19 92.9277 162.263 92.7832 162.499C92.6387 162.734 92.7123 163.042 92.9475 163.187L98.6178 166.676C98.853 166.821 99.1607 166.747 99.3052 166.512C99.4497 166.277 99.3761 165.968 99.1409 165.824L96.9872 164.498L99.0212 163.327C99.2605 163.189 99.343 162.884 99.2054 162.644C99.0678 162.405 98.7623 162.322 98.523 162.46L96.0185 163.902Z" fill="#4267EB"/>
<path d="M79.5456 162.46L82.0157 163.882L84.598 162.293C84.8332 162.149 85.141 162.222 85.2854 162.458C85.4299 162.693 85.3564 163.001 85.1212 163.146L82.392 164.825C82.3355 164.882 82.267 164.923 82.1929 164.948L79.4509 166.635C79.2157 166.78 78.9079 166.706 78.7635 166.471C78.619 166.236 78.6925 165.927 78.9277 165.783L81.047 164.479L79.0475 163.327C78.8082 163.189 78.7257 162.884 78.8633 162.644C79.0008 162.405 79.3063 162.322 79.5456 162.46Z" fill="#4267EB"/>
<path d="M74.3067 160.019C74.1691 160.259 73.8636 160.341 73.6243 160.203L70.5061 158.408C70.2668 158.27 70.1844 157.964 70.3219 157.724C70.4595 157.485 70.765 157.403 71.0043 157.54L74.1225 159.336C74.3618 159.474 74.4443 159.78 74.3067 160.019Z" fill="#4267EB"/>
<path d="M64.9521 154.632C64.8145 154.871 64.509 154.954 64.2697 154.816L58.0332 151.224C57.794 151.086 57.7115 150.78 57.8491 150.541C57.9866 150.301 58.2921 150.219 58.5314 150.357L64.7679 153.949C65.0072 154.086 65.0896 154.392 64.9521 154.632Z" fill="#4267EB"/>
<path d="M52.4792 147.448C52.3416 147.688 52.0361 147.77 51.7968 147.632L45.5604 144.04C45.3211 143.902 45.2386 143.597 45.3762 143.357C45.5138 143.118 45.8193 143.035 46.0586 143.173L52.295 146.765C52.5343 146.903 52.6168 147.209 52.4792 147.448Z" fill="#4267EB"/>
<path d="M40.0063 140.264C39.8687 140.504 39.5632 140.586 39.3239 140.448L33.0875 136.857C32.8482 136.719 32.7657 136.413 32.9033 136.174C33.0409 135.934 33.3464 135.852 33.5857 135.99L39.8221 139.581C40.0614 139.719 40.1439 140.025 40.0063 140.264Z" fill="#4267EB"/>
<path d="M27.5334 133.081C27.3959 133.32 27.0903 133.403 26.8511 133.265L20.6146 129.673C20.3753 129.535 20.2929 129.229 20.4304 128.99C20.568 128.75 20.8735 128.668 21.1128 128.806L27.3493 132.398C27.5885 132.536 27.671 132.841 27.5334 133.081Z" fill="#4267EB"/>
<path d="M15.0606 125.897C14.923 126.137 14.6175 126.219 14.3782 126.081L11.26 124.285C11.0207 124.147 10.9382 123.842 11.0758 123.602C11.2133 123.363 11.5189 123.28 11.7581 123.418L14.8764 125.214C15.1157 125.352 15.1981 125.658 15.0606 125.897Z" fill="#4267EB"/>
<path d="M103.762 160.019C103.899 160.259 104.205 160.341 104.444 160.203L107.562 158.408C107.802 158.27 107.884 157.964 107.746 157.724C107.609 157.485 107.303 157.403 107.064 157.54L103.946 159.336C103.707 159.474 103.624 159.78 103.762 160.019Z" fill="#4267EB"/>
<path d="M113.116 154.632C113.254 154.871 113.559 154.954 113.799 154.816L120.035 151.224C120.274 151.086 120.357 150.78 120.219 150.541C120.082 150.301 119.776 150.219 119.537 150.357L113.3 153.949C113.061 154.086 112.979 154.392 113.116 154.632Z" fill="#4267EB"/>
<path d="M125.589 147.448C125.727 147.688 126.032 147.77 126.272 147.632L132.508 144.04C132.747 143.902 132.83 143.597 132.692 143.357C132.555 143.118 132.249 143.035 132.01 143.173L125.773 146.765C125.534 146.903 125.452 147.209 125.589 147.448Z" fill="#4267EB"/>
<path d="M138.062 140.264C138.2 140.504 138.505 140.586 138.744 140.448L144.981 136.857C145.22 136.719 145.303 136.413 145.165 136.174C145.027 135.934 144.722 135.852 144.483 135.99L138.246 139.581C138.007 139.719 137.924 140.025 138.062 140.264Z" fill="#4267EB"/>
<path d="M150.535 133.081C150.673 133.32 150.978 133.403 151.217 133.265L157.454 129.673C157.693 129.535 157.775 129.229 157.638 128.99C157.5 128.75 157.195 128.668 156.956 128.806L150.719 132.398C150.48 132.536 150.397 132.841 150.535 133.081Z" fill="#4267EB"/>
<path d="M163.008 125.897C163.145 126.137 163.451 126.219 163.69 126.081L166.808 124.285C167.048 124.147 167.13 123.842 166.993 123.602C166.855 123.363 166.549 123.28 166.31 123.418L163.192 125.214C162.953 125.352 162.87 125.658 163.008 125.897Z" fill="#4267EB"/>
<path d="M78.0811 68.0148C78.9386 70.3436 78.5382 72.6348 77.1867 73.1325C75.8353 73.6301 73.93 71.4537 73.0724 69.1249C72.2149 66.7961 72.7299 65.1967 74.0814 64.6991C75.4328 64.2015 77.2235 65.6859 78.0811 68.0148Z" fill="white"/>
<path fill-rule="evenodd" clip-rule="evenodd" d="M77.4772 71.0882C77.6036 70.3647 77.5215 69.3892 77.1427 68.3603C76.7638 67.3313 76.1937 66.5356 75.6282 66.0669C75.0401 65.5793 74.6279 65.5635 74.4269 65.6375C74.0784 65.7659 73.8323 66.0186 73.718 66.4705C73.5934 66.9631 73.6243 67.7296 74.0108 68.7794C74.3977 69.83 75.0187 70.8313 75.6609 71.4911C75.9827 71.8216 76.2729 72.0284 76.5017 72.1305C76.7245 72.2299 76.8185 72.2024 76.8412 72.1941C77.0421 72.1201 77.3457 71.8407 77.4772 71.0882ZM77.1867 73.1325C78.5382 72.6348 78.9386 70.3436 78.0811 68.0148C77.2235 65.6859 75.4328 64.2015 74.0814 64.6991C72.7299 65.1967 72.2149 66.7961 73.0724 69.1249C73.93 71.4537 75.8353 73.6301 77.1867 73.1325Z" fill="#555555"/>
<path d="M101.604 68.0148C100.746 70.3436 101.146 72.6348 102.498 73.1325C103.849 73.6301 105.755 71.4537 106.612 69.1249C107.47 66.7961 106.955 65.1967 105.603 64.6991C104.252 64.2015 102.461 65.6859 101.604 68.0148Z" fill="white"/>
<path fill-rule="evenodd" clip-rule="evenodd" d="M102.207 71.0882C102.081 70.3647 102.163 69.3892 102.542 68.3603C102.921 67.3313 103.491 66.5356 104.056 66.0669C104.644 65.5793 105.057 65.5635 105.258 65.6375C105.606 65.7659 105.852 66.0186 105.967 66.4705C106.091 66.9631 106.06 67.7296 105.674 68.7794C105.287 69.83 104.666 70.8313 104.024 71.4911C103.702 71.8216 103.412 72.0284 103.183 72.1305C102.96 72.2299 102.866 72.2024 102.843 72.1941C102.642 72.1201 102.339 71.8407 102.207 71.0882ZM102.498 73.1325C101.146 72.6348 100.746 70.3436 101.604 68.0148C102.461 65.6859 104.252 64.2015 105.603 64.6991C106.955 65.1967 107.47 66.7961 106.612 69.1249C105.755 71.4537 103.849 73.6301 102.498 73.1325Z" fill="#555555"/>
<path d="M115 114.896C115 123.085 65.4863 123.085 65.4863 114.896C65.4863 99.5577 74.6171 81.4268 90.2433 81.4268C105.869 81.4268 115 99.5577 115 114.896Z" fill="white"/>
<path fill-rule="evenodd" clip-rule="evenodd" d="M72.8409 92.9585C68.7214 99.231 66.4863 107.404 66.4863 114.896C66.4863 115.355 66.8346 115.992 68.1072 116.713C69.3341 117.409 71.1561 118.023 73.4382 118.526C77.9851 119.529 84.0963 120.038 90.2433 120.038C96.3903 120.038 102.502 119.529 107.048 118.526C109.331 118.023 111.153 117.409 112.379 116.713C113.652 115.992 114 115.355 114 114.896C114 107.404 111.765 99.231 107.646 92.9585C103.532 86.6942 97.6192 82.4268 90.2433 82.4268C82.8675 82.4268 76.9549 86.6942 72.8409 92.9585ZM65.4863 114.896C65.4863 123.085 115 123.085 115 114.896C115 99.5577 105.869 81.4268 90.2433 81.4268C74.6171 81.4268 65.4863 99.5577 65.4863 114.896Z" fill="#555555"/>
<path d="M83.2401 77.8906L-nan -nanL83.2401 77.8906C87.8925 78.4389 92.5931 78.4389 97.2455 77.8906L-nan -nanL97.2455 77.8906L97.9898 84.2059C98.0098 84.3757 97.9153 84.5384 97.7579 84.6052L-nan -nanL97.7579 84.6052C92.955 86.6428 87.5306 86.6428 82.7277 84.6052L-nan -nanL82.7277 84.6052C82.5703 84.5384 82.4758 84.3757 82.4958 84.2059L83.2401 77.8906Z" fill="white"/>
<path fill-rule="evenodd" clip-rule="evenodd" d="M83.2402 77.8906C87.8925 78.4389 92.5932 78.4389 97.2455 77.8906L97.9898 84.2059C98.0098 84.3757 97.9153 84.5384 97.7579 84.6052C92.955 86.6428 87.5306 86.6428 82.7277 84.6052C82.5703 84.5384 82.4758 84.3757 82.4958 84.2059L83.2402 77.8906C83.2402 77.8906 83.2402 77.8906 83.2402 77.8906ZM96.3685 78.9926C92.2951 79.4049 88.1905 79.4049 84.1172 78.9926L83.5437 83.8588C87.8477 85.5583 92.6379 85.5583 96.942 83.8588L96.3685 78.9926Z" fill="#555555"/>
<path d="M104.39 64.8042C104.39 73.9846 96.1037 81.4267 89.8892 81.4267C83.6747 81.4267 75.3887 73.9846 75.3887 64.8042C75.3887 55.6238 81.8808 48.1816 89.8892 48.1816C97.8976 48.1816 104.39 55.6238 104.39 64.8042Z" fill="white"/>
<path fill-rule="evenodd" clip-rule="evenodd" d="M98.7438 75.8705C101.452 73.0101 103.39 69.0906 103.39 64.8042C103.39 56.0435 97.2214 49.1816 89.8892 49.1816C82.557 49.1816 76.3887 56.0435 76.3887 64.8042C76.3887 69.0906 78.3261 73.0101 81.0346 75.8705C83.7637 78.7527 87.1437 80.4267 89.8892 80.4267C92.6347 80.4267 96.0147 78.7527 98.7438 75.8705ZM89.8892 81.4267C96.1037 81.4267 104.39 73.9846 104.39 64.8042C104.39 55.6238 97.8976 48.1816 89.8892 48.1816C81.8808 48.1816 75.3887 55.6238 75.3887 64.8042C75.3887 73.9846 83.6747 81.4267 89.8892 81.4267Z" fill="#555555"/>
<path d="M84.8011 111.275C85.5123 106.769 87.7874 92.6372 88.8767 89.208H91.9988L95.6805 111.334C95.821 112.179 95.5969 113.043 95.0333 113.688C93.7911 115.108 91.5355 117.502 90.4378 117.502C89.3418 117.502 86.8993 115.116 85.5412 113.695C84.9241 113.049 84.6619 112.157 84.8011 111.275Z" fill="#4267EB"/>
<path fill-rule="evenodd" clip-rule="evenodd" d="M88.4011 89.0566C88.4671 88.849 88.6599 88.708 88.8777 88.708H91.9998C92.2443 88.708 92.4529 88.8848 92.493 89.1259L96.1746 111.252C96.3382 112.235 96.0788 113.253 95.4107 114.017C94.785 114.733 93.8957 115.703 93.018 116.498C92.58 116.895 92.1331 117.259 91.7147 117.527C91.3164 117.782 90.8656 118.002 90.4387 118.002C90.0169 118.002 89.5564 117.786 89.1425 117.534C88.707 117.269 88.2343 116.908 87.7663 116.513C86.8286 115.722 85.8641 114.755 85.1806 114.04C84.4511 113.277 84.1457 112.227 84.3082 111.197C84.6639 108.943 85.411 104.281 86.2056 99.7514C86.9969 95.241 87.8439 90.8109 88.4011 89.0566ZM89.2499 89.708C88.7169 91.5844 87.9366 95.6715 87.1905 99.9242C86.3974 104.445 85.6514 109.101 85.296 111.353C85.1799 112.088 85.3989 112.821 85.9037 113.349C86.5783 114.055 87.5141 114.992 88.4111 115.749C88.8605 116.128 89.2888 116.453 89.662 116.68C90.0567 116.92 90.3126 117.002 90.4387 117.002C90.5608 117.002 90.8036 116.923 91.1757 116.684C91.5278 116.459 91.9283 116.136 92.3466 115.757C93.1817 115 94.0413 114.064 94.6579 113.359C95.117 112.834 95.3057 112.122 95.1882 111.416L91.5761 89.708H89.2499Z" fill="#555555"/>
<path d="M92.558 83.5488C92.558 83.5488 88.8284 83.8436 87.9281 83.5488L85.999 87.0855L87.3596 89.58C87.7101 90.2225 88.3835 90.6223 89.1154 90.6223H91.3708C92.1026 90.6223 92.7761 90.2225 93.1265 89.58L94.4871 87.0855L92.558 83.5488Z" fill="#4267EB"/>
<path fill-rule="evenodd" clip-rule="evenodd" d="M87.4892 83.3095C87.6046 83.0978 87.8546 82.9987 88.0837 83.0737C88.2306 83.1218 88.563 83.1594 89.0459 83.1734C89.5068 83.1868 90.0454 83.178 90.5631 83.1597C91.0795 83.1415 91.5689 83.1142 91.9296 83.0913C92.1098 83.0799 92.2575 83.0697 92.36 83.0623L92.4781 83.0536L92.5087 83.0512L92.5181 83.0505C92.5181 83.0505 92.5181 83.0505 92.5181 83.0505C92.7147 83.035 92.9025 83.1364 92.997 83.3095L94.9261 86.8462C95.0075 86.9954 95.0075 87.1758 94.9261 87.325L93.5655 89.8194C93.1274 90.6226 92.2856 91.1223 91.3708 91.1223H89.1154C88.2005 91.1223 87.3587 90.6226 86.9207 89.8194L85.5601 87.325C85.4787 87.1758 85.4787 86.9954 85.5601 86.8462L87.4892 83.3095ZM92.2732 84.0709C92.1921 84.0764 92.0978 84.0827 91.9928 84.0893C91.6261 84.1126 91.1268 84.1405 90.5983 84.1591C90.071 84.1777 89.5084 84.1873 89.0169 84.173C88.7288 84.1647 88.44 84.1479 88.1899 84.1132L86.5686 87.0856L87.7986 89.3406C88.0614 89.8225 88.5665 90.1223 89.1154 90.1223H91.3708C91.9197 90.1223 92.4247 89.8225 92.6876 89.3406L93.9176 87.0856L92.2732 84.0709Z" fill="#555555"/>
<path d="M85.1561 90.6222L88.8289 83.9346L82.2996 81.4268L78.2188 85.6065L85.1561 90.6222Z" fill="white"/>
<path fill-rule="evenodd" clip-rule="evenodd" d="M81.9418 81.0775C82.0813 80.9346 82.2924 80.8884 82.4788 80.96L89.0082 83.4679C89.143 83.5196 89.2488 83.6272 89.2984 83.7627C89.3481 83.8983 89.3367 84.0488 89.2671 84.1753L85.5944 90.8629C85.5254 90.9886 85.4058 91.0786 85.2659 91.11C85.126 91.1415 84.9794 91.1114 84.8632 91.0274L77.9258 86.0117C77.8079 85.9265 77.733 85.7942 77.7206 85.6493C77.7081 85.5044 77.7594 85.3613 77.861 85.2572L81.9418 81.0775ZM82.4275 82.0115L78.9815 85.541L84.9904 89.8854L88.1149 84.196L82.4275 82.0115Z" fill="#555555"/>
<path d="M95.3312 90.6222L91.6584 83.9346L98.1877 81.4268L102.269 85.6065L95.3312 90.6222Z" fill="white"/>
<path fill-rule="evenodd" clip-rule="evenodd" d="M98.5455 81.0775C98.406 80.9346 98.1949 80.8884 98.0085 80.96L91.4791 83.4679C91.3444 83.5196 91.2385 83.6272 91.1889 83.7627C91.1393 83.8983 91.1507 84.0488 91.2202 84.1753L94.8929 90.8629C94.9619 90.9886 95.0815 91.0786 95.2214 91.11C95.3613 91.1415 95.5079 91.1114 95.6241 91.0274L102.562 86.0117C102.679 85.9265 102.754 85.7942 102.767 85.6493C102.779 85.5044 102.728 85.3613 102.626 85.2572L98.5455 81.0775ZM98.0598 82.0115L101.506 85.541L95.4969 89.8854L92.3724 84.196L98.0598 82.0115Z" fill="#555555"/>
<path fill-rule="evenodd" clip-rule="evenodd" d="M99.6465 101.232C99.6465 100.956 99.8703 100.732 100.146 100.732H106.513C106.789 100.732 107.013 100.956 107.013 101.232C107.013 101.509 106.789 101.732 106.513 101.732H100.146C99.8703 101.732 99.6465 101.509 99.6465 101.232Z" fill="#555555"/>
<path d="M87.0308 61.8844L93.4152 58.0137C95.3193 57.1535 100.632 55.4444 101.144 58.0137C101.638 60.4969 102.697 62.2721 103.51 63.6799C103.78 64.1455 104.721 63.9993 104.757 63.4628C104.946 60.717 104.885 57.1565 104.504 55.4332C103.839 52.426 102.975 45.3525 87.0308 46.4016C69.5862 47.5494 74.262 67.4754 75.6061 65.7551C76.9502 64.0348 76.9502 64.4649 79.6383 63.6047C81.7889 62.9166 86.1347 59.5906 88.0389 58.0137L87.0308 61.8844Z" fill="#4267EB"/>
<path fill-rule="evenodd" clip-rule="evenodd" d="M101.167 49.7719C99.0189 47.8849 94.976 46.3798 87.0636 46.9004C82.8045 47.1807 79.9468 48.6008 78.0516 50.5044C76.1497 52.4146 75.1751 54.8542 74.7655 57.2385C74.3555 59.6247 74.5172 61.9253 74.8598 63.5127C75.0287 64.2954 75.2342 64.8699 75.4152 65.191C75.9753 64.4961 76.3572 64.1383 76.922 63.8974C77.2126 63.7734 77.5431 63.6839 77.9332 63.5788L77.9784 63.5666C78.3692 63.4614 78.8508 63.3317 79.486 63.1284C80.4789 62.8107 82.0448 61.8518 83.6444 60.7327C85.2246 59.6273 86.7763 58.4101 87.7199 57.6285C87.8871 57.4901 88.1244 57.4753 88.3074 57.5919C88.4904 57.7084 88.5774 57.9297 88.5227 58.1396L87.8252 60.818L93.156 57.5861C93.1732 57.5756 93.191 57.5662 93.2094 57.558C94.1897 57.1151 96.0427 56.4538 97.7366 56.2318C98.5784 56.1215 99.4351 56.1119 100.137 56.3316C100.869 56.5606 101.463 57.0547 101.634 57.916C102.096 60.2372 103.068 61.916 103.87 63.3025C103.894 63.3452 103.919 63.3876 103.943 63.4297C103.938 63.4212 103.939 63.4322 103.976 63.4448C104.015 63.4582 104.074 63.4646 104.139 63.4538C104.201 63.4436 104.241 63.4225 104.26 63.4083C104.446 60.676 104.38 57.1876 104.016 55.5411C103.99 55.4261 103.965 55.3066 103.938 55.1831C103.613 53.659 103.156 51.5184 101.167 49.7719ZM104.914 54.9637C104.941 55.0909 104.967 55.2117 104.992 55.3253C105.389 57.1212 105.445 60.7406 105.256 63.497C105.215 64.101 104.682 64.3774 104.303 64.4403C103.92 64.5039 103.358 64.4148 103.078 63.9301C103.05 63.882 103.022 63.8335 102.993 63.7844C102.191 62.3986 101.148 60.5971 100.653 58.1113C100.569 57.6879 100.306 57.4322 99.8387 57.2859C99.3414 57.1304 98.6549 57.12 97.8666 57.2233C96.3155 57.4266 94.5789 58.0399 93.6483 58.457L87.29 62.3119C87.116 62.4174 86.8953 62.4069 86.7321 62.2853C86.5689 62.1637 86.4956 61.9553 86.5469 61.7583L87.1736 59.3523C86.3117 60.0297 85.2718 60.8147 84.2176 61.5521C82.6306 62.6624 80.9483 63.7105 79.7907 64.0809C79.133 64.2913 78.6326 64.4261 78.2402 64.5318L78.1933 64.5444C77.7853 64.6543 77.5278 64.7261 77.3144 64.8172C76.9367 64.9783 76.6673 65.2089 76.0001 66.0629C75.9129 66.1745 75.7825 66.2886 75.5998 66.3373C75.4109 66.3876 75.2353 66.3496 75.0983 66.2813C74.8569 66.1611 74.6848 65.9245 74.5634 65.7158C74.3026 65.2673 74.0642 64.5668 73.8823 63.7237C73.5152 62.0229 73.3463 59.5928 73.7799 57.0691C74.2139 54.5435 75.2571 51.8938 77.3429 49.7989C79.4353 47.6973 82.5348 46.1962 86.998 45.9026C95.0303 45.3741 99.3916 46.8813 101.827 49.0205C104.074 50.9941 104.592 53.4391 104.914 54.9637Z" fill="#555555"/>
<path d="M83.877 65.0117C84.1531 65.0117 84.377 65.2356 84.377 65.5117V68.6948C84.377 68.9709 84.1531 69.1948 83.877 69.1948C83.6008 69.1948 83.377 68.9709 83.377 68.6948V65.5117C83.377 65.2356 83.6008 65.0117 83.877 65.0117Z" fill="#555555"/>
<path d="M95.1943 65.0117C95.4705 65.0117 95.6943 65.2356 95.6943 65.5117V68.6948C95.6943 68.9709 95.4705 69.1948 95.1943 69.1948C94.9182 69.1948 94.6943 68.9709 94.6943 68.6948V65.5117C94.6943 65.2356 94.9182 65.0117 95.1943 65.0117Z" fill="#555555"/>
<path d="M87.6915 73.2303C87.4617 73.0771 87.1513 73.1392 86.9981 73.3689C86.8449 73.5987 86.907 73.9091 87.1368 74.0623C88.5897 75.0309 90.4826 75.0309 91.9355 74.0623C92.1653 73.9091 92.2274 73.5987 92.0742 73.3689C91.921 73.1392 91.6106 73.0771 91.3808 73.2303C90.2638 73.975 88.8085 73.975 87.6915 73.2303Z" fill="#555555"/>
</svg>
